%TF.GenerationSoftware,KiCad,Pcbnew,(5.99.0-10362-gce3a84f579)*%
%TF.CreationDate,2021-05-11T10:28:48-04:00*%
%TF.ProjectId,rpi-cm4-carrier,7270692d-636d-4342-9d63-617272696572,v01*%
%TF.SameCoordinates,Original*%
%TF.FileFunction,AssemblyDrawing,Top*%
%FSLAX46Y46*%
G04 Gerber Fmt 4.6, Leading zero omitted, Abs format (unit mm)*
G04 Created by KiCad (PCBNEW (5.99.0-10362-gce3a84f579)) date 2021-05-11 10:28:48*
%MOMM*%
%LPD*%
G01*
G04 APERTURE LIST*
%ADD10C,0.100000*%
%ADD11C,0.040000*%
%ADD12C,0.080000*%
%ADD13C,0.150000*%
%ADD14C,0.060000*%
%ADD15C,0.075000*%
%ADD16C,0.127000*%
%ADD17C,0.200000*%
%ADD18C,0.300000*%
%ADD19C,0.152400*%
G04 APERTURE END LIST*
D10*
%TO.C,R10*%
X156526190Y-126292857D02*
X156526190Y-126578571D01*
X156526190Y-126435714D02*
X156026190Y-126435714D01*
X156097619Y-126483333D01*
X156145238Y-126530952D01*
X156169047Y-126578571D01*
X156526190Y-126078571D02*
X156026190Y-126078571D01*
X156383333Y-125911904D01*
X156026190Y-125745238D01*
X156526190Y-125745238D01*
D11*
X157288095Y-125835714D02*
X157169047Y-125919047D01*
X157288095Y-125978571D02*
X157038095Y-125978571D01*
X157038095Y-125883333D01*
X157050000Y-125859523D01*
X157061904Y-125847619D01*
X157085714Y-125835714D01*
X157121428Y-125835714D01*
X157145238Y-125847619D01*
X157157142Y-125859523D01*
X157169047Y-125883333D01*
X157169047Y-125978571D01*
X157288095Y-125597619D02*
X157288095Y-125740476D01*
X157288095Y-125669047D02*
X157038095Y-125669047D01*
X157073809Y-125692857D01*
X157097619Y-125716666D01*
X157109523Y-125740476D01*
X157038095Y-125442857D02*
X157038095Y-125419047D01*
X157050000Y-125395238D01*
X157061904Y-125383333D01*
X157085714Y-125371428D01*
X157133333Y-125359523D01*
X157192857Y-125359523D01*
X157240476Y-125371428D01*
X157264285Y-125383333D01*
X157276190Y-125395238D01*
X157288095Y-125419047D01*
X157288095Y-125442857D01*
X157276190Y-125466666D01*
X157264285Y-125478571D01*
X157240476Y-125490476D01*
X157192857Y-125502380D01*
X157133333Y-125502380D01*
X157085714Y-125490476D01*
X157061904Y-125478571D01*
X157050000Y-125466666D01*
X157038095Y-125442857D01*
D10*
%TO.C,J10*%
X123501190Y-103154761D02*
X123858333Y-103154761D01*
X123929761Y-103178571D01*
X123977380Y-103226190D01*
X124001190Y-103297619D01*
X124001190Y-103345238D01*
X124001190Y-102654761D02*
X124001190Y-102940476D01*
X124001190Y-102797619D02*
X123501190Y-102797619D01*
X123572619Y-102845238D01*
X123620238Y-102892857D01*
X123644047Y-102940476D01*
X123501190Y-102345238D02*
X123501190Y-102297619D01*
X123525000Y-102250000D01*
X123548809Y-102226190D01*
X123596428Y-102202380D01*
X123691666Y-102178571D01*
X123810714Y-102178571D01*
X123905952Y-102202380D01*
X123953571Y-102226190D01*
X123977380Y-102250000D01*
X124001190Y-102297619D01*
X124001190Y-102345238D01*
X123977380Y-102392857D01*
X123953571Y-102416666D01*
X123905952Y-102440476D01*
X123810714Y-102464285D01*
X123691666Y-102464285D01*
X123596428Y-102440476D01*
X123548809Y-102416666D01*
X123525000Y-102392857D01*
X123501190Y-102345238D01*
%TO.C,R11*%
X120376190Y-87840476D02*
X120376190Y-88078571D01*
X120614285Y-88102380D01*
X120590476Y-88078571D01*
X120566666Y-88030952D01*
X120566666Y-87911904D01*
X120590476Y-87864285D01*
X120614285Y-87840476D01*
X120661904Y-87816666D01*
X120780952Y-87816666D01*
X120828571Y-87840476D01*
X120852380Y-87864285D01*
X120876190Y-87911904D01*
X120876190Y-88030952D01*
X120852380Y-88078571D01*
X120828571Y-88102380D01*
X120828571Y-87602380D02*
X120852380Y-87578571D01*
X120876190Y-87602380D01*
X120852380Y-87626190D01*
X120828571Y-87602380D01*
X120876190Y-87602380D01*
X120876190Y-87102380D02*
X120876190Y-87388095D01*
X120876190Y-87245238D02*
X120376190Y-87245238D01*
X120447619Y-87292857D01*
X120495238Y-87340476D01*
X120519047Y-87388095D01*
X120876190Y-86888095D02*
X120376190Y-86888095D01*
X120685714Y-86840476D02*
X120876190Y-86697619D01*
X120542857Y-86697619D02*
X120733333Y-86888095D01*
D11*
X120568095Y-85785714D02*
X120449047Y-85869047D01*
X120568095Y-85928571D02*
X120318095Y-85928571D01*
X120318095Y-85833333D01*
X120330000Y-85809523D01*
X120341904Y-85797619D01*
X120365714Y-85785714D01*
X120401428Y-85785714D01*
X120425238Y-85797619D01*
X120437142Y-85809523D01*
X120449047Y-85833333D01*
X120449047Y-85928571D01*
X120568095Y-85547619D02*
X120568095Y-85690476D01*
X120568095Y-85619047D02*
X120318095Y-85619047D01*
X120353809Y-85642857D01*
X120377619Y-85666666D01*
X120389523Y-85690476D01*
X120568095Y-85309523D02*
X120568095Y-85452380D01*
X120568095Y-85380952D02*
X120318095Y-85380952D01*
X120353809Y-85404761D01*
X120377619Y-85428571D01*
X120389523Y-85452380D01*
D10*
%TO.C,R17*%
X111227380Y-113351190D02*
X110941666Y-113351190D01*
X111084523Y-113351190D02*
X111084523Y-112851190D01*
X111036904Y-112922619D01*
X110989285Y-112970238D01*
X110941666Y-112994047D01*
X111536904Y-112851190D02*
X111584523Y-112851190D01*
X111632142Y-112875000D01*
X111655952Y-112898809D01*
X111679761Y-112946428D01*
X111703571Y-113041666D01*
X111703571Y-113160714D01*
X111679761Y-113255952D01*
X111655952Y-113303571D01*
X111632142Y-113327380D01*
X111584523Y-113351190D01*
X111536904Y-113351190D01*
X111489285Y-113327380D01*
X111465476Y-113303571D01*
X111441666Y-113255952D01*
X111417857Y-113160714D01*
X111417857Y-113041666D01*
X111441666Y-112946428D01*
X111465476Y-112898809D01*
X111489285Y-112875000D01*
X111536904Y-112851190D01*
X111917857Y-113351190D02*
X111917857Y-112851190D01*
X111965476Y-113160714D02*
X112108333Y-113351190D01*
X112108333Y-113017857D02*
X111917857Y-113208333D01*
D11*
X111739285Y-112405095D02*
X111655952Y-112286047D01*
X111596428Y-112405095D02*
X111596428Y-112155095D01*
X111691666Y-112155095D01*
X111715476Y-112167000D01*
X111727380Y-112178904D01*
X111739285Y-112202714D01*
X111739285Y-112238428D01*
X111727380Y-112262238D01*
X111715476Y-112274142D01*
X111691666Y-112286047D01*
X111596428Y-112286047D01*
X111977380Y-112405095D02*
X111834523Y-112405095D01*
X111905952Y-112405095D02*
X111905952Y-112155095D01*
X111882142Y-112190809D01*
X111858333Y-112214619D01*
X111834523Y-112226523D01*
X112060714Y-112155095D02*
X112227380Y-112155095D01*
X112120238Y-112405095D01*
D10*
%TO.C,U5*%
X115719047Y-112301190D02*
X115719047Y-112705952D01*
X115742857Y-112753571D01*
X115766666Y-112777380D01*
X115814285Y-112801190D01*
X115909523Y-112801190D01*
X115957142Y-112777380D01*
X115980952Y-112753571D01*
X116004761Y-112705952D01*
X116004761Y-112301190D01*
X116480952Y-112301190D02*
X116242857Y-112301190D01*
X116219047Y-112539285D01*
X116242857Y-112515476D01*
X116290476Y-112491666D01*
X116409523Y-112491666D01*
X116457142Y-112515476D01*
X116480952Y-112539285D01*
X116504761Y-112586904D01*
X116504761Y-112705952D01*
X116480952Y-112753571D01*
X116457142Y-112777380D01*
X116409523Y-112801190D01*
X116290476Y-112801190D01*
X116242857Y-112777380D01*
X116219047Y-112753571D01*
X113766666Y-106464285D02*
X113838095Y-106488095D01*
X113861904Y-106511904D01*
X113885714Y-106559523D01*
X113885714Y-106630952D01*
X113861904Y-106678571D01*
X113838095Y-106702380D01*
X113790476Y-106726190D01*
X113600000Y-106726190D01*
X113600000Y-106226190D01*
X113766666Y-106226190D01*
X113814285Y-106250000D01*
X113838095Y-106273809D01*
X113861904Y-106321428D01*
X113861904Y-106369047D01*
X113838095Y-106416666D01*
X113814285Y-106440476D01*
X113766666Y-106464285D01*
X113600000Y-106464285D01*
X114433333Y-106773809D02*
X114385714Y-106750000D01*
X114338095Y-106702380D01*
X114266666Y-106630952D01*
X114219047Y-106607142D01*
X114171428Y-106607142D01*
X114195238Y-106726190D02*
X114147619Y-106702380D01*
X114100000Y-106654761D01*
X114076190Y-106559523D01*
X114076190Y-106392857D01*
X114100000Y-106297619D01*
X114147619Y-106250000D01*
X114195238Y-106226190D01*
X114290476Y-106226190D01*
X114338095Y-106250000D01*
X114385714Y-106297619D01*
X114409523Y-106392857D01*
X114409523Y-106559523D01*
X114385714Y-106654761D01*
X114338095Y-106702380D01*
X114290476Y-106726190D01*
X114195238Y-106726190D01*
X114600000Y-106273809D02*
X114623809Y-106250000D01*
X114671428Y-106226190D01*
X114790476Y-106226190D01*
X114838095Y-106250000D01*
X114861904Y-106273809D01*
X114885714Y-106321428D01*
X114885714Y-106369047D01*
X114861904Y-106440476D01*
X114576190Y-106726190D01*
X114885714Y-106726190D01*
X115338095Y-106226190D02*
X115100000Y-106226190D01*
X115076190Y-106464285D01*
X115100000Y-106440476D01*
X115147619Y-106416666D01*
X115266666Y-106416666D01*
X115314285Y-106440476D01*
X115338095Y-106464285D01*
X115361904Y-106511904D01*
X115361904Y-106630952D01*
X115338095Y-106678571D01*
X115314285Y-106702380D01*
X115266666Y-106726190D01*
X115147619Y-106726190D01*
X115100000Y-106702380D01*
X115076190Y-106678571D01*
X115790476Y-106226190D02*
X115695238Y-106226190D01*
X115647619Y-106250000D01*
X115623809Y-106273809D01*
X115576190Y-106345238D01*
X115552380Y-106440476D01*
X115552380Y-106630952D01*
X115576190Y-106678571D01*
X115600000Y-106702380D01*
X115647619Y-106726190D01*
X115742857Y-106726190D01*
X115790476Y-106702380D01*
X115814285Y-106678571D01*
X115838095Y-106630952D01*
X115838095Y-106511904D01*
X115814285Y-106464285D01*
X115790476Y-106440476D01*
X115742857Y-106416666D01*
X115647619Y-106416666D01*
X115600000Y-106440476D01*
X115576190Y-106464285D01*
X115552380Y-106511904D01*
X116314285Y-106726190D02*
X116028571Y-106726190D01*
X116171428Y-106726190D02*
X116171428Y-106226190D01*
X116123809Y-106297619D01*
X116076190Y-106345238D01*
X116028571Y-106369047D01*
X116742857Y-106226190D02*
X116647619Y-106226190D01*
X116600000Y-106250000D01*
X116576190Y-106273809D01*
X116528571Y-106345238D01*
X116504761Y-106440476D01*
X116504761Y-106630952D01*
X116528571Y-106678571D01*
X116552380Y-106702380D01*
X116600000Y-106726190D01*
X116695238Y-106726190D01*
X116742857Y-106702380D01*
X116766666Y-106678571D01*
X116790476Y-106630952D01*
X116790476Y-106511904D01*
X116766666Y-106464285D01*
X116742857Y-106440476D01*
X116695238Y-106416666D01*
X116600000Y-106416666D01*
X116552380Y-106440476D01*
X116528571Y-106464285D01*
X116504761Y-106511904D01*
X117290476Y-106726190D02*
X117123809Y-106488095D01*
X117004761Y-106726190D02*
X117004761Y-106226190D01*
X117195238Y-106226190D01*
X117242857Y-106250000D01*
X117266666Y-106273809D01*
X117290476Y-106321428D01*
X117290476Y-106392857D01*
X117266666Y-106440476D01*
X117242857Y-106464285D01*
X117195238Y-106488095D01*
X117004761Y-106488095D01*
X117433333Y-106226190D02*
X117719047Y-106226190D01*
X117576190Y-106726190D02*
X117576190Y-106226190D01*
X117838095Y-106226190D02*
X117957142Y-106726190D01*
X118052380Y-106369047D01*
X118147619Y-106726190D01*
X118266666Y-106226190D01*
X118385714Y-106226190D02*
X118671428Y-106226190D01*
X118528571Y-106726190D02*
X118528571Y-106226190D01*
%TO.C,C10*%
X138476190Y-122896428D02*
X138476190Y-123182142D01*
X138476190Y-123039285D02*
X137976190Y-123039285D01*
X138047619Y-123086904D01*
X138095238Y-123134523D01*
X138119047Y-123182142D01*
X137976190Y-122586904D02*
X137976190Y-122539285D01*
X138000000Y-122491666D01*
X138023809Y-122467857D01*
X138071428Y-122444047D01*
X138166666Y-122420238D01*
X138285714Y-122420238D01*
X138380952Y-122444047D01*
X138428571Y-122467857D01*
X138452380Y-122491666D01*
X138476190Y-122539285D01*
X138476190Y-122586904D01*
X138452380Y-122634523D01*
X138428571Y-122658333D01*
X138380952Y-122682142D01*
X138285714Y-122705952D01*
X138166666Y-122705952D01*
X138071428Y-122682142D01*
X138023809Y-122658333D01*
X138000000Y-122634523D01*
X137976190Y-122586904D01*
X138142857Y-121991666D02*
X138476190Y-121991666D01*
X138142857Y-122205952D02*
X138404761Y-122205952D01*
X138452380Y-122182142D01*
X138476190Y-122134523D01*
X138476190Y-122063095D01*
X138452380Y-122015476D01*
X138428571Y-121991666D01*
D12*
X139411571Y-121896428D02*
X139435380Y-121920238D01*
X139459190Y-121991666D01*
X139459190Y-122039285D01*
X139435380Y-122110714D01*
X139387761Y-122158333D01*
X139340142Y-122182142D01*
X139244904Y-122205952D01*
X139173476Y-122205952D01*
X139078238Y-122182142D01*
X139030619Y-122158333D01*
X138983000Y-122110714D01*
X138959190Y-122039285D01*
X138959190Y-121991666D01*
X138983000Y-121920238D01*
X139006809Y-121896428D01*
X139459190Y-121420238D02*
X139459190Y-121705952D01*
X139459190Y-121563095D02*
X138959190Y-121563095D01*
X139030619Y-121610714D01*
X139078238Y-121658333D01*
X139102047Y-121705952D01*
X138959190Y-121110714D02*
X138959190Y-121063095D01*
X138983000Y-121015476D01*
X139006809Y-120991666D01*
X139054428Y-120967857D01*
X139149666Y-120944047D01*
X139268714Y-120944047D01*
X139363952Y-120967857D01*
X139411571Y-120991666D01*
X139435380Y-121015476D01*
X139459190Y-121063095D01*
X139459190Y-121110714D01*
X139435380Y-121158333D01*
X139411571Y-121182142D01*
X139363952Y-121205952D01*
X139268714Y-121229761D01*
X139149666Y-121229761D01*
X139054428Y-121205952D01*
X139006809Y-121182142D01*
X138983000Y-121158333D01*
X138959190Y-121110714D01*
D10*
%TO.C,C4*%
X149207190Y-125559523D02*
X149207190Y-125845238D01*
X149207190Y-125702380D02*
X148707190Y-125702380D01*
X148778619Y-125750000D01*
X148826238Y-125797619D01*
X148850047Y-125845238D01*
X148707190Y-125250000D02*
X148707190Y-125202380D01*
X148731000Y-125154761D01*
X148754809Y-125130952D01*
X148802428Y-125107142D01*
X148897666Y-125083333D01*
X149016714Y-125083333D01*
X149111952Y-125107142D01*
X149159571Y-125130952D01*
X149183380Y-125154761D01*
X149207190Y-125202380D01*
X149207190Y-125250000D01*
X149183380Y-125297619D01*
X149159571Y-125321428D01*
X149111952Y-125345238D01*
X149016714Y-125369047D01*
X148897666Y-125369047D01*
X148802428Y-125345238D01*
X148754809Y-125321428D01*
X148731000Y-125297619D01*
X148707190Y-125250000D01*
X148707190Y-124773809D02*
X148707190Y-124726190D01*
X148731000Y-124678571D01*
X148754809Y-124654761D01*
X148802428Y-124630952D01*
X148897666Y-124607142D01*
X149016714Y-124607142D01*
X149111952Y-124630952D01*
X149159571Y-124654761D01*
X149183380Y-124678571D01*
X149207190Y-124726190D01*
X149207190Y-124773809D01*
X149183380Y-124821428D01*
X149159571Y-124845238D01*
X149111952Y-124869047D01*
X149016714Y-124892857D01*
X148897666Y-124892857D01*
X148802428Y-124869047D01*
X148754809Y-124845238D01*
X148731000Y-124821428D01*
X148707190Y-124773809D01*
X148873857Y-124392857D02*
X149207190Y-124392857D01*
X148921476Y-124392857D02*
X148897666Y-124369047D01*
X148873857Y-124321428D01*
X148873857Y-124250000D01*
X148897666Y-124202380D01*
X148945285Y-124178571D01*
X149207190Y-124178571D01*
D11*
X149959285Y-125041666D02*
X149971190Y-125053571D01*
X149983095Y-125089285D01*
X149983095Y-125113095D01*
X149971190Y-125148809D01*
X149947380Y-125172619D01*
X149923571Y-125184523D01*
X149875952Y-125196428D01*
X149840238Y-125196428D01*
X149792619Y-125184523D01*
X149768809Y-125172619D01*
X149745000Y-125148809D01*
X149733095Y-125113095D01*
X149733095Y-125089285D01*
X149745000Y-125053571D01*
X149756904Y-125041666D01*
X149816428Y-124827380D02*
X149983095Y-124827380D01*
X149721190Y-124886904D02*
X149899761Y-124946428D01*
X149899761Y-124791666D01*
D10*
%TO.C,R7*%
X151253809Y-61164285D02*
X151230000Y-61140476D01*
X151206190Y-61092857D01*
X151206190Y-60973809D01*
X151230000Y-60926190D01*
X151253809Y-60902380D01*
X151301428Y-60878571D01*
X151349047Y-60878571D01*
X151420476Y-60902380D01*
X151706190Y-61188095D01*
X151706190Y-60878571D01*
X151658571Y-60664285D02*
X151682380Y-60640476D01*
X151706190Y-60664285D01*
X151682380Y-60688095D01*
X151658571Y-60664285D01*
X151706190Y-60664285D01*
X151253809Y-60450000D02*
X151230000Y-60426190D01*
X151206190Y-60378571D01*
X151206190Y-60259523D01*
X151230000Y-60211904D01*
X151253809Y-60188095D01*
X151301428Y-60164285D01*
X151349047Y-60164285D01*
X151420476Y-60188095D01*
X151706190Y-60473809D01*
X151706190Y-60164285D01*
X151706190Y-59950000D02*
X151206190Y-59950000D01*
X151706190Y-59664285D02*
X151420476Y-59878571D01*
X151206190Y-59664285D02*
X151491904Y-59950000D01*
X151706190Y-58807142D02*
X151706190Y-59092857D01*
X151706190Y-58950000D02*
X151206190Y-58950000D01*
X151277619Y-58997619D01*
X151325238Y-59045238D01*
X151349047Y-59092857D01*
X151706190Y-58616666D02*
X151206190Y-58235714D01*
X151206190Y-58545238D02*
X151230000Y-58497619D01*
X151277619Y-58473809D01*
X151325238Y-58497619D01*
X151349047Y-58545238D01*
X151325238Y-58592857D01*
X151277619Y-58616666D01*
X151230000Y-58592857D01*
X151206190Y-58545238D01*
X151682380Y-58259523D02*
X151634761Y-58235714D01*
X151587142Y-58259523D01*
X151563333Y-58307142D01*
X151587142Y-58354761D01*
X151634761Y-58378571D01*
X151682380Y-58354761D01*
X151706190Y-58307142D01*
X151682380Y-58259523D01*
D11*
X152763095Y-57191666D02*
X152644047Y-57275000D01*
X152763095Y-57334523D02*
X152513095Y-57334523D01*
X152513095Y-57239285D01*
X152525000Y-57215476D01*
X152536904Y-57203571D01*
X152560714Y-57191666D01*
X152596428Y-57191666D01*
X152620238Y-57203571D01*
X152632142Y-57215476D01*
X152644047Y-57239285D01*
X152644047Y-57334523D01*
X152513095Y-57108333D02*
X152513095Y-56941666D01*
X152763095Y-57048809D01*
D10*
%TO.C,C13*%
X142626190Y-122896428D02*
X142626190Y-123182142D01*
X142626190Y-123039285D02*
X142126190Y-123039285D01*
X142197619Y-123086904D01*
X142245238Y-123134523D01*
X142269047Y-123182142D01*
X142126190Y-122586904D02*
X142126190Y-122539285D01*
X142150000Y-122491666D01*
X142173809Y-122467857D01*
X142221428Y-122444047D01*
X142316666Y-122420238D01*
X142435714Y-122420238D01*
X142530952Y-122444047D01*
X142578571Y-122467857D01*
X142602380Y-122491666D01*
X142626190Y-122539285D01*
X142626190Y-122586904D01*
X142602380Y-122634523D01*
X142578571Y-122658333D01*
X142530952Y-122682142D01*
X142435714Y-122705952D01*
X142316666Y-122705952D01*
X142221428Y-122682142D01*
X142173809Y-122658333D01*
X142150000Y-122634523D01*
X142126190Y-122586904D01*
X142292857Y-121991666D02*
X142626190Y-121991666D01*
X142292857Y-122205952D02*
X142554761Y-122205952D01*
X142602380Y-122182142D01*
X142626190Y-122134523D01*
X142626190Y-122063095D01*
X142602380Y-122015476D01*
X142578571Y-121991666D01*
D12*
X143561571Y-121896428D02*
X143585380Y-121920238D01*
X143609190Y-121991666D01*
X143609190Y-122039285D01*
X143585380Y-122110714D01*
X143537761Y-122158333D01*
X143490142Y-122182142D01*
X143394904Y-122205952D01*
X143323476Y-122205952D01*
X143228238Y-122182142D01*
X143180619Y-122158333D01*
X143133000Y-122110714D01*
X143109190Y-122039285D01*
X143109190Y-121991666D01*
X143133000Y-121920238D01*
X143156809Y-121896428D01*
X143609190Y-121420238D02*
X143609190Y-121705952D01*
X143609190Y-121563095D02*
X143109190Y-121563095D01*
X143180619Y-121610714D01*
X143228238Y-121658333D01*
X143252047Y-121705952D01*
X143109190Y-121253571D02*
X143109190Y-120944047D01*
X143299666Y-121110714D01*
X143299666Y-121039285D01*
X143323476Y-120991666D01*
X143347285Y-120967857D01*
X143394904Y-120944047D01*
X143513952Y-120944047D01*
X143561571Y-120967857D01*
X143585380Y-120991666D01*
X143609190Y-121039285D01*
X143609190Y-121182142D01*
X143585380Y-121229761D01*
X143561571Y-121253571D01*
D10*
%TO.C,J11*%
X122270238Y-107076190D02*
X122270238Y-107433333D01*
X122246428Y-107504761D01*
X122198809Y-107552380D01*
X122127380Y-107576190D01*
X122079761Y-107576190D01*
X122770238Y-107576190D02*
X122484523Y-107576190D01*
X122627380Y-107576190D02*
X122627380Y-107076190D01*
X122579761Y-107147619D01*
X122532142Y-107195238D01*
X122484523Y-107219047D01*
X123246428Y-107576190D02*
X122960714Y-107576190D01*
X123103571Y-107576190D02*
X123103571Y-107076190D01*
X123055952Y-107147619D01*
X123008333Y-107195238D01*
X122960714Y-107219047D01*
%TO.C,J5*%
X126407142Y-131553571D02*
X126383333Y-131577380D01*
X126311904Y-131601190D01*
X126264285Y-131601190D01*
X126192857Y-131577380D01*
X126145238Y-131529761D01*
X126121428Y-131482142D01*
X126097619Y-131386904D01*
X126097619Y-131315476D01*
X126121428Y-131220238D01*
X126145238Y-131172619D01*
X126192857Y-131125000D01*
X126264285Y-131101190D01*
X126311904Y-131101190D01*
X126383333Y-131125000D01*
X126407142Y-131148809D01*
X126692857Y-131601190D02*
X126645238Y-131577380D01*
X126621428Y-131553571D01*
X126597619Y-131505952D01*
X126597619Y-131363095D01*
X126621428Y-131315476D01*
X126645238Y-131291666D01*
X126692857Y-131267857D01*
X126764285Y-131267857D01*
X126811904Y-131291666D01*
X126835714Y-131315476D01*
X126859523Y-131363095D01*
X126859523Y-131505952D01*
X126835714Y-131553571D01*
X126811904Y-131577380D01*
X126764285Y-131601190D01*
X126692857Y-131601190D01*
X127073809Y-131267857D02*
X127073809Y-131601190D01*
X127073809Y-131315476D02*
X127097619Y-131291666D01*
X127145238Y-131267857D01*
X127216666Y-131267857D01*
X127264285Y-131291666D01*
X127288095Y-131339285D01*
X127288095Y-131601190D01*
X127526190Y-131267857D02*
X127526190Y-131601190D01*
X127526190Y-131315476D02*
X127550000Y-131291666D01*
X127597619Y-131267857D01*
X127669047Y-131267857D01*
X127716666Y-131291666D01*
X127740476Y-131339285D01*
X127740476Y-131601190D01*
X127859523Y-131648809D02*
X128240476Y-131648809D01*
X128454761Y-131101190D02*
X128502380Y-131101190D01*
X128550000Y-131125000D01*
X128573809Y-131148809D01*
X128597619Y-131196428D01*
X128621428Y-131291666D01*
X128621428Y-131410714D01*
X128597619Y-131505952D01*
X128573809Y-131553571D01*
X128550000Y-131577380D01*
X128502380Y-131601190D01*
X128454761Y-131601190D01*
X128407142Y-131577380D01*
X128383333Y-131553571D01*
X128359523Y-131505952D01*
X128335714Y-131410714D01*
X128335714Y-131291666D01*
X128359523Y-131196428D01*
X128383333Y-131148809D01*
X128407142Y-131125000D01*
X128454761Y-131101190D01*
X129097619Y-131601190D02*
X128811904Y-131601190D01*
X128954761Y-131601190D02*
X128954761Y-131101190D01*
X128907142Y-131172619D01*
X128859523Y-131220238D01*
X128811904Y-131244047D01*
X129264285Y-131601190D02*
X129526190Y-131267857D01*
X129264285Y-131267857D02*
X129526190Y-131601190D01*
X129692857Y-131148809D02*
X129716666Y-131125000D01*
X129764285Y-131101190D01*
X129883333Y-131101190D01*
X129930952Y-131125000D01*
X129954761Y-131148809D01*
X129978571Y-131196428D01*
X129978571Y-131244047D01*
X129954761Y-131315476D01*
X129669047Y-131601190D01*
X129978571Y-131601190D01*
X130169047Y-131148809D02*
X130192857Y-131125000D01*
X130240476Y-131101190D01*
X130359523Y-131101190D01*
X130407142Y-131125000D01*
X130430952Y-131148809D01*
X130454761Y-131196428D01*
X130454761Y-131244047D01*
X130430952Y-131315476D01*
X130145238Y-131601190D01*
X130454761Y-131601190D01*
X130550000Y-131648809D02*
X130930952Y-131648809D01*
X131216666Y-131339285D02*
X131050000Y-131339285D01*
X131050000Y-131601190D02*
X131050000Y-131101190D01*
X131288095Y-131101190D01*
X131669047Y-131577380D02*
X131621428Y-131601190D01*
X131526190Y-131601190D01*
X131478571Y-131577380D01*
X131454761Y-131529761D01*
X131454761Y-131339285D01*
X131478571Y-131291666D01*
X131526190Y-131267857D01*
X131621428Y-131267857D01*
X131669047Y-131291666D01*
X131692857Y-131339285D01*
X131692857Y-131386904D01*
X131454761Y-131434523D01*
X131907142Y-131601190D02*
X131907142Y-131267857D01*
X131907142Y-131315476D02*
X131930952Y-131291666D01*
X131978571Y-131267857D01*
X132050000Y-131267857D01*
X132097619Y-131291666D01*
X132121428Y-131339285D01*
X132121428Y-131601190D01*
X132121428Y-131339285D02*
X132145238Y-131291666D01*
X132192857Y-131267857D01*
X132264285Y-131267857D01*
X132311904Y-131291666D01*
X132335714Y-131339285D01*
X132335714Y-131601190D01*
X132788095Y-131601190D02*
X132788095Y-131339285D01*
X132764285Y-131291666D01*
X132716666Y-131267857D01*
X132621428Y-131267857D01*
X132573809Y-131291666D01*
X132788095Y-131577380D02*
X132740476Y-131601190D01*
X132621428Y-131601190D01*
X132573809Y-131577380D01*
X132550000Y-131529761D01*
X132550000Y-131482142D01*
X132573809Y-131434523D01*
X132621428Y-131410714D01*
X132740476Y-131410714D01*
X132788095Y-131386904D01*
X133097619Y-131601190D02*
X133050000Y-131577380D01*
X133026190Y-131529761D01*
X133026190Y-131101190D01*
X133478571Y-131577380D02*
X133430952Y-131601190D01*
X133335714Y-131601190D01*
X133288095Y-131577380D01*
X133264285Y-131529761D01*
X133264285Y-131339285D01*
X133288095Y-131291666D01*
X133335714Y-131267857D01*
X133430952Y-131267857D01*
X133478571Y-131291666D01*
X133502380Y-131339285D01*
X133502380Y-131386904D01*
X133264285Y-131434523D01*
D13*
X129466666Y-132452380D02*
X129466666Y-133166666D01*
X129419047Y-133309523D01*
X129323809Y-133404761D01*
X129180952Y-133452380D01*
X129085714Y-133452380D01*
X130419047Y-132452380D02*
X129942857Y-132452380D01*
X129895238Y-132928571D01*
X129942857Y-132880952D01*
X130038095Y-132833333D01*
X130276190Y-132833333D01*
X130371428Y-132880952D01*
X130419047Y-132928571D01*
X130466666Y-133023809D01*
X130466666Y-133261904D01*
X130419047Y-133357142D01*
X130371428Y-133404761D01*
X130276190Y-133452380D01*
X130038095Y-133452380D01*
X129942857Y-133404761D01*
X129895238Y-133357142D01*
D10*
%TO.C,C15*%
X119217857Y-112569047D02*
X119551190Y-112569047D01*
X119027380Y-112688095D02*
X119384523Y-112807142D01*
X119384523Y-112497619D01*
X119051190Y-112354761D02*
X119051190Y-112021428D01*
X119551190Y-112235714D01*
X119217857Y-111830952D02*
X119551190Y-111830952D01*
X119265476Y-111830952D02*
X119241666Y-111807142D01*
X119217857Y-111759523D01*
X119217857Y-111688095D01*
X119241666Y-111640476D01*
X119289285Y-111616666D01*
X119551190Y-111616666D01*
D14*
X120517857Y-112407142D02*
X120536904Y-112426190D01*
X120555952Y-112483333D01*
X120555952Y-112521428D01*
X120536904Y-112578571D01*
X120498809Y-112616666D01*
X120460714Y-112635714D01*
X120384523Y-112654761D01*
X120327380Y-112654761D01*
X120251190Y-112635714D01*
X120213095Y-112616666D01*
X120175000Y-112578571D01*
X120155952Y-112521428D01*
X120155952Y-112483333D01*
X120175000Y-112426190D01*
X120194047Y-112407142D01*
X120555952Y-112026190D02*
X120555952Y-112254761D01*
X120555952Y-112140476D02*
X120155952Y-112140476D01*
X120213095Y-112178571D01*
X120251190Y-112216666D01*
X120270238Y-112254761D01*
X120155952Y-111664285D02*
X120155952Y-111854761D01*
X120346428Y-111873809D01*
X120327380Y-111854761D01*
X120308333Y-111816666D01*
X120308333Y-111721428D01*
X120327380Y-111683333D01*
X120346428Y-111664285D01*
X120384523Y-111645238D01*
X120479761Y-111645238D01*
X120517857Y-111664285D01*
X120536904Y-111683333D01*
X120555952Y-111721428D01*
X120555952Y-111816666D01*
X120536904Y-111854761D01*
X120517857Y-111873809D01*
D10*
%TO.C,C7*%
X149296190Y-122572023D02*
X149296190Y-122857738D01*
X149296190Y-122714880D02*
X148796190Y-122714880D01*
X148867619Y-122762500D01*
X148915238Y-122810119D01*
X148939047Y-122857738D01*
X148796190Y-122262500D02*
X148796190Y-122214880D01*
X148820000Y-122167261D01*
X148843809Y-122143452D01*
X148891428Y-122119642D01*
X148986666Y-122095833D01*
X149105714Y-122095833D01*
X149200952Y-122119642D01*
X149248571Y-122143452D01*
X149272380Y-122167261D01*
X149296190Y-122214880D01*
X149296190Y-122262500D01*
X149272380Y-122310119D01*
X149248571Y-122333928D01*
X149200952Y-122357738D01*
X149105714Y-122381547D01*
X148986666Y-122381547D01*
X148891428Y-122357738D01*
X148843809Y-122333928D01*
X148820000Y-122310119D01*
X148796190Y-122262500D01*
X148796190Y-121786309D02*
X148796190Y-121738690D01*
X148820000Y-121691071D01*
X148843809Y-121667261D01*
X148891428Y-121643452D01*
X148986666Y-121619642D01*
X149105714Y-121619642D01*
X149200952Y-121643452D01*
X149248571Y-121667261D01*
X149272380Y-121691071D01*
X149296190Y-121738690D01*
X149296190Y-121786309D01*
X149272380Y-121833928D01*
X149248571Y-121857738D01*
X149200952Y-121881547D01*
X149105714Y-121905357D01*
X148986666Y-121905357D01*
X148891428Y-121881547D01*
X148843809Y-121857738D01*
X148820000Y-121833928D01*
X148796190Y-121786309D01*
X148962857Y-121405357D02*
X149296190Y-121405357D01*
X149010476Y-121405357D02*
X148986666Y-121381547D01*
X148962857Y-121333928D01*
X148962857Y-121262500D01*
X148986666Y-121214880D01*
X149034285Y-121191071D01*
X149296190Y-121191071D01*
D11*
X149984285Y-121966666D02*
X149996190Y-121978571D01*
X150008095Y-122014285D01*
X150008095Y-122038095D01*
X149996190Y-122073809D01*
X149972380Y-122097619D01*
X149948571Y-122109523D01*
X149900952Y-122121428D01*
X149865238Y-122121428D01*
X149817619Y-122109523D01*
X149793809Y-122097619D01*
X149770000Y-122073809D01*
X149758095Y-122038095D01*
X149758095Y-122014285D01*
X149770000Y-121978571D01*
X149781904Y-121966666D01*
X149758095Y-121883333D02*
X149758095Y-121716666D01*
X150008095Y-121823809D01*
D10*
%TO.C,J6*%
X120376190Y-50276190D02*
X120376190Y-50680952D01*
X120400000Y-50728571D01*
X120423809Y-50752380D01*
X120471428Y-50776190D01*
X120566666Y-50776190D01*
X120614285Y-50752380D01*
X120638095Y-50728571D01*
X120661904Y-50680952D01*
X120661904Y-50276190D01*
X120876190Y-50752380D02*
X120947619Y-50776190D01*
X121066666Y-50776190D01*
X121114285Y-50752380D01*
X121138095Y-50728571D01*
X121161904Y-50680952D01*
X121161904Y-50633333D01*
X121138095Y-50585714D01*
X121114285Y-50561904D01*
X121066666Y-50538095D01*
X120971428Y-50514285D01*
X120923809Y-50490476D01*
X120900000Y-50466666D01*
X120876190Y-50419047D01*
X120876190Y-50371428D01*
X120900000Y-50323809D01*
X120923809Y-50300000D01*
X120971428Y-50276190D01*
X121090476Y-50276190D01*
X121161904Y-50300000D01*
X121542857Y-50514285D02*
X121614285Y-50538095D01*
X121638095Y-50561904D01*
X121661904Y-50609523D01*
X121661904Y-50680952D01*
X121638095Y-50728571D01*
X121614285Y-50752380D01*
X121566666Y-50776190D01*
X121376190Y-50776190D01*
X121376190Y-50276190D01*
X121542857Y-50276190D01*
X121590476Y-50300000D01*
X121614285Y-50323809D01*
X121638095Y-50371428D01*
X121638095Y-50419047D01*
X121614285Y-50466666D01*
X121590476Y-50490476D01*
X121542857Y-50514285D01*
X121376190Y-50514285D01*
X121757142Y-50823809D02*
X122138095Y-50823809D01*
X122352380Y-50276190D02*
X122447619Y-50276190D01*
X122495238Y-50300000D01*
X122542857Y-50347619D01*
X122566666Y-50442857D01*
X122566666Y-50609523D01*
X122542857Y-50704761D01*
X122495238Y-50752380D01*
X122447619Y-50776190D01*
X122352380Y-50776190D01*
X122304761Y-50752380D01*
X122257142Y-50704761D01*
X122233333Y-50609523D01*
X122233333Y-50442857D01*
X122257142Y-50347619D01*
X122304761Y-50300000D01*
X122352380Y-50276190D01*
X122709523Y-50276190D02*
X122995238Y-50276190D01*
X122852380Y-50776190D02*
X122852380Y-50276190D01*
X123423809Y-50300000D02*
X123376190Y-50276190D01*
X123304761Y-50276190D01*
X123233333Y-50300000D01*
X123185714Y-50347619D01*
X123161904Y-50395238D01*
X123138095Y-50490476D01*
X123138095Y-50561904D01*
X123161904Y-50657142D01*
X123185714Y-50704761D01*
X123233333Y-50752380D01*
X123304761Y-50776190D01*
X123352380Y-50776190D01*
X123423809Y-50752380D01*
X123447619Y-50728571D01*
X123447619Y-50561904D01*
X123352380Y-50561904D01*
D13*
X121591666Y-52204880D02*
X121591666Y-52919166D01*
X121544047Y-53062023D01*
X121448809Y-53157261D01*
X121305952Y-53204880D01*
X121210714Y-53204880D01*
X122496428Y-52204880D02*
X122305952Y-52204880D01*
X122210714Y-52252500D01*
X122163095Y-52300119D01*
X122067857Y-52442976D01*
X122020238Y-52633452D01*
X122020238Y-53014404D01*
X122067857Y-53109642D01*
X122115476Y-53157261D01*
X122210714Y-53204880D01*
X122401190Y-53204880D01*
X122496428Y-53157261D01*
X122544047Y-53109642D01*
X122591666Y-53014404D01*
X122591666Y-52776309D01*
X122544047Y-52681071D01*
X122496428Y-52633452D01*
X122401190Y-52585833D01*
X122210714Y-52585833D01*
X122115476Y-52633452D01*
X122067857Y-52681071D01*
X122020238Y-52776309D01*
D10*
%TO.C,J2*%
X115201190Y-82041666D02*
X115558333Y-82041666D01*
X115629761Y-82065476D01*
X115677380Y-82113095D01*
X115701190Y-82184523D01*
X115701190Y-82232142D01*
X115248809Y-81827380D02*
X115225000Y-81803571D01*
X115201190Y-81755952D01*
X115201190Y-81636904D01*
X115225000Y-81589285D01*
X115248809Y-81565476D01*
X115296428Y-81541666D01*
X115344047Y-81541666D01*
X115415476Y-81565476D01*
X115701190Y-81851190D01*
X115701190Y-81541666D01*
D12*
X111136904Y-85509523D02*
X111155952Y-85452380D01*
X111155952Y-85357142D01*
X111136904Y-85319047D01*
X111117857Y-85300000D01*
X111079761Y-85280952D01*
X111041666Y-85280952D01*
X111003571Y-85300000D01*
X110984523Y-85319047D01*
X110965476Y-85357142D01*
X110946428Y-85433333D01*
X110927380Y-85471428D01*
X110908333Y-85490476D01*
X110870238Y-85509523D01*
X110832142Y-85509523D01*
X110794047Y-85490476D01*
X110775000Y-85471428D01*
X110755952Y-85433333D01*
X110755952Y-85338095D01*
X110775000Y-85280952D01*
X111155952Y-85109523D02*
X110755952Y-85109523D01*
X111041666Y-84976190D01*
X110755952Y-84842857D01*
X111155952Y-84842857D01*
X110755952Y-84576190D02*
X110755952Y-84538095D01*
X110775000Y-84500000D01*
X110794047Y-84480952D01*
X110832142Y-84461904D01*
X110908333Y-84442857D01*
X111003571Y-84442857D01*
X111079761Y-84461904D01*
X111117857Y-84480952D01*
X111136904Y-84500000D01*
X111155952Y-84538095D01*
X111155952Y-84576190D01*
X111136904Y-84614285D01*
X111117857Y-84633333D01*
X111079761Y-84652380D01*
X111003571Y-84671428D01*
X110908333Y-84671428D01*
X110832142Y-84652380D01*
X110794047Y-84633333D01*
X110775000Y-84614285D01*
X110755952Y-84576190D01*
X110889285Y-84100000D02*
X111155952Y-84100000D01*
X110736904Y-84195238D02*
X111022619Y-84290476D01*
X111022619Y-84042857D01*
X110946428Y-83757142D02*
X110965476Y-83700000D01*
X110984523Y-83680952D01*
X111022619Y-83661904D01*
X111079761Y-83661904D01*
X111117857Y-83680952D01*
X111136904Y-83700000D01*
X111155952Y-83738095D01*
X111155952Y-83890476D01*
X110755952Y-83890476D01*
X110755952Y-83757142D01*
X110775000Y-83719047D01*
X110794047Y-83700000D01*
X110832142Y-83680952D01*
X110870238Y-83680952D01*
X110908333Y-83700000D01*
X110927380Y-83719047D01*
X110946428Y-83757142D01*
X110946428Y-83890476D01*
X111003571Y-83490476D02*
X111003571Y-83185714D01*
X111136904Y-83014285D02*
X111155952Y-82957142D01*
X111155952Y-82861904D01*
X111136904Y-82823809D01*
X111117857Y-82804761D01*
X111079761Y-82785714D01*
X111041666Y-82785714D01*
X111003571Y-82804761D01*
X110984523Y-82823809D01*
X110965476Y-82861904D01*
X110946428Y-82938095D01*
X110927380Y-82976190D01*
X110908333Y-82995238D01*
X110870238Y-83014285D01*
X110832142Y-83014285D01*
X110794047Y-82995238D01*
X110775000Y-82976190D01*
X110755952Y-82938095D01*
X110755952Y-82842857D01*
X110775000Y-82785714D01*
X111155952Y-82385714D02*
X110965476Y-82519047D01*
X111155952Y-82614285D02*
X110755952Y-82614285D01*
X110755952Y-82461904D01*
X110775000Y-82423809D01*
X110794047Y-82404761D01*
X110832142Y-82385714D01*
X110889285Y-82385714D01*
X110927380Y-82404761D01*
X110946428Y-82423809D01*
X110965476Y-82461904D01*
X110965476Y-82614285D01*
X111136904Y-82233333D02*
X111155952Y-82176190D01*
X111155952Y-82080952D01*
X111136904Y-82042857D01*
X111117857Y-82023809D01*
X111079761Y-82004761D01*
X111041666Y-82004761D01*
X111003571Y-82023809D01*
X110984523Y-82042857D01*
X110965476Y-82080952D01*
X110946428Y-82157142D01*
X110927380Y-82195238D01*
X110908333Y-82214285D01*
X110870238Y-82233333D01*
X110832142Y-82233333D01*
X110794047Y-82214285D01*
X110775000Y-82195238D01*
X110755952Y-82157142D01*
X110755952Y-82061904D01*
X110775000Y-82004761D01*
X111136904Y-81852380D02*
X111155952Y-81795238D01*
X111155952Y-81700000D01*
X111136904Y-81661904D01*
X111117857Y-81642857D01*
X111079761Y-81623809D01*
X111041666Y-81623809D01*
X111003571Y-81642857D01*
X110984523Y-81661904D01*
X110965476Y-81700000D01*
X110946428Y-81776190D01*
X110927380Y-81814285D01*
X110908333Y-81833333D01*
X110870238Y-81852380D01*
X110832142Y-81852380D01*
X110794047Y-81833333D01*
X110775000Y-81814285D01*
X110755952Y-81776190D01*
X110755952Y-81680952D01*
X110775000Y-81623809D01*
X111003571Y-81452380D02*
X111003571Y-81147619D01*
X110755952Y-81014285D02*
X110755952Y-80785714D01*
X111155952Y-80900000D02*
X110755952Y-80900000D01*
X110946428Y-80519047D02*
X110965476Y-80461904D01*
X110984523Y-80442857D01*
X111022619Y-80423809D01*
X111079761Y-80423809D01*
X111117857Y-80442857D01*
X111136904Y-80461904D01*
X111155952Y-80500000D01*
X111155952Y-80652380D01*
X110755952Y-80652380D01*
X110755952Y-80519047D01*
X110775000Y-80480952D01*
X110794047Y-80461904D01*
X110832142Y-80442857D01*
X110870238Y-80442857D01*
X110908333Y-80461904D01*
X110927380Y-80480952D01*
X110946428Y-80519047D01*
X110946428Y-80652380D01*
X111308333Y-80138095D02*
X111289285Y-80157142D01*
X111232142Y-80195238D01*
X111194047Y-80214285D01*
X111136904Y-80233333D01*
X111041666Y-80252380D01*
X110965476Y-80252380D01*
X110870238Y-80233333D01*
X110813095Y-80214285D01*
X110775000Y-80195238D01*
X110717857Y-80157142D01*
X110698809Y-80138095D01*
X111155952Y-79795238D02*
X111155952Y-79985714D01*
X110755952Y-79985714D01*
X110946428Y-79528571D02*
X110946428Y-79661904D01*
X111155952Y-79661904D02*
X110755952Y-79661904D01*
X110755952Y-79471428D01*
X111308333Y-79357142D02*
X111289285Y-79338095D01*
X111232142Y-79300000D01*
X111194047Y-79280952D01*
X111136904Y-79261904D01*
X111041666Y-79242857D01*
X110965476Y-79242857D01*
X110870238Y-79261904D01*
X110813095Y-79280952D01*
X110775000Y-79300000D01*
X110717857Y-79338095D01*
X110698809Y-79357142D01*
X111308333Y-78938095D02*
X111289285Y-78957142D01*
X111232142Y-78995238D01*
X111194047Y-79014285D01*
X111136904Y-79033333D01*
X111041666Y-79052380D01*
X110965476Y-79052380D01*
X110870238Y-79033333D01*
X110813095Y-79014285D01*
X110775000Y-78995238D01*
X110717857Y-78957142D01*
X110698809Y-78938095D01*
X111136904Y-78804761D02*
X111155952Y-78747619D01*
X111155952Y-78652380D01*
X111136904Y-78614285D01*
X111117857Y-78595238D01*
X111079761Y-78576190D01*
X111041666Y-78576190D01*
X111003571Y-78595238D01*
X110984523Y-78614285D01*
X110965476Y-78652380D01*
X110946428Y-78728571D01*
X110927380Y-78766666D01*
X110908333Y-78785714D01*
X110870238Y-78804761D01*
X110832142Y-78804761D01*
X110794047Y-78785714D01*
X110775000Y-78766666D01*
X110755952Y-78728571D01*
X110755952Y-78633333D01*
X110775000Y-78576190D01*
X111155952Y-78404761D02*
X110755952Y-78404761D01*
X111155952Y-78176190D01*
X110755952Y-78176190D01*
X111308333Y-78023809D02*
X111289285Y-78004761D01*
X111232142Y-77966666D01*
X111194047Y-77947619D01*
X111136904Y-77928571D01*
X111041666Y-77909523D01*
X110965476Y-77909523D01*
X110870238Y-77928571D01*
X110813095Y-77947619D01*
X110775000Y-77966666D01*
X110717857Y-78004761D01*
X110698809Y-78023809D01*
D10*
%TO.C,J9*%
X137480952Y-113813571D02*
X137457142Y-113837380D01*
X137385714Y-113861190D01*
X137338095Y-113861190D01*
X137266666Y-113837380D01*
X137219047Y-113789761D01*
X137195238Y-113742142D01*
X137171428Y-113646904D01*
X137171428Y-113575476D01*
X137195238Y-113480238D01*
X137219047Y-113432619D01*
X137266666Y-113385000D01*
X137338095Y-113361190D01*
X137385714Y-113361190D01*
X137457142Y-113385000D01*
X137480952Y-113408809D01*
X137766666Y-113861190D02*
X137719047Y-113837380D01*
X137695238Y-113813571D01*
X137671428Y-113765952D01*
X137671428Y-113623095D01*
X137695238Y-113575476D01*
X137719047Y-113551666D01*
X137766666Y-113527857D01*
X137838095Y-113527857D01*
X137885714Y-113551666D01*
X137909523Y-113575476D01*
X137933333Y-113623095D01*
X137933333Y-113765952D01*
X137909523Y-113813571D01*
X137885714Y-113837380D01*
X137838095Y-113861190D01*
X137766666Y-113861190D01*
X138147619Y-113527857D02*
X138147619Y-113861190D01*
X138147619Y-113575476D02*
X138171428Y-113551666D01*
X138219047Y-113527857D01*
X138290476Y-113527857D01*
X138338095Y-113551666D01*
X138361904Y-113599285D01*
X138361904Y-113861190D01*
X138600000Y-113527857D02*
X138600000Y-113861190D01*
X138600000Y-113575476D02*
X138623809Y-113551666D01*
X138671428Y-113527857D01*
X138742857Y-113527857D01*
X138790476Y-113551666D01*
X138814285Y-113599285D01*
X138814285Y-113861190D01*
X138933333Y-113908809D02*
X139314285Y-113908809D01*
X139528571Y-113361190D02*
X139576190Y-113361190D01*
X139623809Y-113385000D01*
X139647619Y-113408809D01*
X139671428Y-113456428D01*
X139695238Y-113551666D01*
X139695238Y-113670714D01*
X139671428Y-113765952D01*
X139647619Y-113813571D01*
X139623809Y-113837380D01*
X139576190Y-113861190D01*
X139528571Y-113861190D01*
X139480952Y-113837380D01*
X139457142Y-113813571D01*
X139433333Y-113765952D01*
X139409523Y-113670714D01*
X139409523Y-113551666D01*
X139433333Y-113456428D01*
X139457142Y-113408809D01*
X139480952Y-113385000D01*
X139528571Y-113361190D01*
X140171428Y-113861190D02*
X139885714Y-113861190D01*
X140028571Y-113861190D02*
X140028571Y-113361190D01*
X139980952Y-113432619D01*
X139933333Y-113480238D01*
X139885714Y-113504047D01*
X140338095Y-113861190D02*
X140600000Y-113527857D01*
X140338095Y-113527857D02*
X140600000Y-113861190D01*
X140885714Y-113361190D02*
X140933333Y-113361190D01*
X140980952Y-113385000D01*
X141004761Y-113408809D01*
X141028571Y-113456428D01*
X141052380Y-113551666D01*
X141052380Y-113670714D01*
X141028571Y-113765952D01*
X141004761Y-113813571D01*
X140980952Y-113837380D01*
X140933333Y-113861190D01*
X140885714Y-113861190D01*
X140838095Y-113837380D01*
X140814285Y-113813571D01*
X140790476Y-113765952D01*
X140766666Y-113670714D01*
X140766666Y-113551666D01*
X140790476Y-113456428D01*
X140814285Y-113408809D01*
X140838095Y-113385000D01*
X140885714Y-113361190D01*
X141242857Y-113408809D02*
X141266666Y-113385000D01*
X141314285Y-113361190D01*
X141433333Y-113361190D01*
X141480952Y-113385000D01*
X141504761Y-113408809D01*
X141528571Y-113456428D01*
X141528571Y-113504047D01*
X141504761Y-113575476D01*
X141219047Y-113861190D01*
X141528571Y-113861190D01*
D13*
X141222380Y-117213333D02*
X141936666Y-117213333D01*
X142079523Y-117260952D01*
X142174761Y-117356190D01*
X142222380Y-117499047D01*
X142222380Y-117594285D01*
X142222380Y-116689523D02*
X142222380Y-116499047D01*
X142174761Y-116403809D01*
X142127142Y-116356190D01*
X141984285Y-116260952D01*
X141793809Y-116213333D01*
X141412857Y-116213333D01*
X141317619Y-116260952D01*
X141270000Y-116308571D01*
X141222380Y-116403809D01*
X141222380Y-116594285D01*
X141270000Y-116689523D01*
X141317619Y-116737142D01*
X141412857Y-116784761D01*
X141650952Y-116784761D01*
X141746190Y-116737142D01*
X141793809Y-116689523D01*
X141841428Y-116594285D01*
X141841428Y-116403809D01*
X141793809Y-116308571D01*
X141746190Y-116260952D01*
X141650952Y-116213333D01*
%TO.C,L2*%
X125163095Y-116466666D02*
X125163095Y-116085714D01*
X125963095Y-116085714D01*
X125886904Y-116695238D02*
X125925000Y-116733333D01*
X125963095Y-116809523D01*
X125963095Y-117000000D01*
X125925000Y-117076190D01*
X125886904Y-117114285D01*
X125810714Y-117152380D01*
X125734523Y-117152380D01*
X125620238Y-117114285D01*
X125163095Y-116657142D01*
X125163095Y-117152380D01*
D10*
%TO.C,J1*%
X110955952Y-59353571D02*
X110932142Y-59377380D01*
X110860714Y-59401190D01*
X110813095Y-59401190D01*
X110741666Y-59377380D01*
X110694047Y-59329761D01*
X110670238Y-59282142D01*
X110646428Y-59186904D01*
X110646428Y-59115476D01*
X110670238Y-59020238D01*
X110694047Y-58972619D01*
X110741666Y-58925000D01*
X110813095Y-58901190D01*
X110860714Y-58901190D01*
X110932142Y-58925000D01*
X110955952Y-58948809D01*
X111241666Y-59401190D02*
X111194047Y-59377380D01*
X111170238Y-59353571D01*
X111146428Y-59305952D01*
X111146428Y-59163095D01*
X111170238Y-59115476D01*
X111194047Y-59091666D01*
X111241666Y-59067857D01*
X111313095Y-59067857D01*
X111360714Y-59091666D01*
X111384523Y-59115476D01*
X111408333Y-59163095D01*
X111408333Y-59305952D01*
X111384523Y-59353571D01*
X111360714Y-59377380D01*
X111313095Y-59401190D01*
X111241666Y-59401190D01*
X111622619Y-59067857D02*
X111622619Y-59401190D01*
X111622619Y-59115476D02*
X111646428Y-59091666D01*
X111694047Y-59067857D01*
X111765476Y-59067857D01*
X111813095Y-59091666D01*
X111836904Y-59139285D01*
X111836904Y-59401190D01*
X112075000Y-59067857D02*
X112075000Y-59401190D01*
X112075000Y-59115476D02*
X112098809Y-59091666D01*
X112146428Y-59067857D01*
X112217857Y-59067857D01*
X112265476Y-59091666D01*
X112289285Y-59139285D01*
X112289285Y-59401190D01*
X112408333Y-59448809D02*
X112789285Y-59448809D01*
X113003571Y-58901190D02*
X113051190Y-58901190D01*
X113098809Y-58925000D01*
X113122619Y-58948809D01*
X113146428Y-58996428D01*
X113170238Y-59091666D01*
X113170238Y-59210714D01*
X113146428Y-59305952D01*
X113122619Y-59353571D01*
X113098809Y-59377380D01*
X113051190Y-59401190D01*
X113003571Y-59401190D01*
X112955952Y-59377380D01*
X112932142Y-59353571D01*
X112908333Y-59305952D01*
X112884523Y-59210714D01*
X112884523Y-59091666D01*
X112908333Y-58996428D01*
X112932142Y-58948809D01*
X112955952Y-58925000D01*
X113003571Y-58901190D01*
X113646428Y-59401190D02*
X113360714Y-59401190D01*
X113503571Y-59401190D02*
X113503571Y-58901190D01*
X113455952Y-58972619D01*
X113408333Y-59020238D01*
X113360714Y-59044047D01*
X113813095Y-59401190D02*
X114075000Y-59067857D01*
X113813095Y-59067857D02*
X114075000Y-59401190D01*
X114360714Y-58901190D02*
X114408333Y-58901190D01*
X114455952Y-58925000D01*
X114479761Y-58948809D01*
X114503571Y-58996428D01*
X114527380Y-59091666D01*
X114527380Y-59210714D01*
X114503571Y-59305952D01*
X114479761Y-59353571D01*
X114455952Y-59377380D01*
X114408333Y-59401190D01*
X114360714Y-59401190D01*
X114313095Y-59377380D01*
X114289285Y-59353571D01*
X114265476Y-59305952D01*
X114241666Y-59210714D01*
X114241666Y-59091666D01*
X114265476Y-58996428D01*
X114289285Y-58948809D01*
X114313095Y-58925000D01*
X114360714Y-58901190D01*
X114694047Y-58901190D02*
X115027380Y-58901190D01*
X114813095Y-59401190D01*
D13*
X116407380Y-68313333D02*
X117121666Y-68313333D01*
X117264523Y-68360952D01*
X117359761Y-68456190D01*
X117407380Y-68599047D01*
X117407380Y-68694285D01*
X117407380Y-67313333D02*
X117407380Y-67884761D01*
X117407380Y-67599047D02*
X116407380Y-67599047D01*
X116550238Y-67694285D01*
X116645476Y-67789523D01*
X116693095Y-67884761D01*
D10*
%TO.C,R4*%
X120776190Y-130372023D02*
X120776190Y-130657738D01*
X120776190Y-130514880D02*
X120276190Y-130514880D01*
X120347619Y-130562500D01*
X120395238Y-130610119D01*
X120419047Y-130657738D01*
X120776190Y-130157738D02*
X120276190Y-130157738D01*
X120585714Y-130110119D02*
X120776190Y-129967261D01*
X120442857Y-129967261D02*
X120633333Y-130157738D01*
D14*
X119855952Y-130379166D02*
X119665476Y-130512500D01*
X119855952Y-130607738D02*
X119455952Y-130607738D01*
X119455952Y-130455357D01*
X119475000Y-130417261D01*
X119494047Y-130398214D01*
X119532142Y-130379166D01*
X119589285Y-130379166D01*
X119627380Y-130398214D01*
X119646428Y-130417261D01*
X119665476Y-130455357D01*
X119665476Y-130607738D01*
X119589285Y-130036309D02*
X119855952Y-130036309D01*
X119436904Y-130131547D02*
X119722619Y-130226785D01*
X119722619Y-129979166D01*
D10*
%TO.C,R1*%
X119101190Y-130372023D02*
X119101190Y-130657738D01*
X119101190Y-130514880D02*
X118601190Y-130514880D01*
X118672619Y-130562500D01*
X118720238Y-130610119D01*
X118744047Y-130657738D01*
X119101190Y-130157738D02*
X118601190Y-130157738D01*
X118910714Y-130110119D02*
X119101190Y-129967261D01*
X118767857Y-129967261D02*
X118958333Y-130157738D01*
D14*
X118180952Y-130379166D02*
X117990476Y-130512500D01*
X118180952Y-130607738D02*
X117780952Y-130607738D01*
X117780952Y-130455357D01*
X117800000Y-130417261D01*
X117819047Y-130398214D01*
X117857142Y-130379166D01*
X117914285Y-130379166D01*
X117952380Y-130398214D01*
X117971428Y-130417261D01*
X117990476Y-130455357D01*
X117990476Y-130607738D01*
X118180952Y-129998214D02*
X118180952Y-130226785D01*
X118180952Y-130112500D02*
X117780952Y-130112500D01*
X117838095Y-130150595D01*
X117876190Y-130188690D01*
X117895238Y-130226785D01*
D10*
%TO.C,C1*%
X155151190Y-121321428D02*
X155151190Y-121607142D01*
X155151190Y-121464285D02*
X154651190Y-121464285D01*
X154722619Y-121511904D01*
X154770238Y-121559523D01*
X154794047Y-121607142D01*
X154651190Y-121011904D02*
X154651190Y-120964285D01*
X154675000Y-120916666D01*
X154698809Y-120892857D01*
X154746428Y-120869047D01*
X154841666Y-120845238D01*
X154960714Y-120845238D01*
X155055952Y-120869047D01*
X155103571Y-120892857D01*
X155127380Y-120916666D01*
X155151190Y-120964285D01*
X155151190Y-121011904D01*
X155127380Y-121059523D01*
X155103571Y-121083333D01*
X155055952Y-121107142D01*
X154960714Y-121130952D01*
X154841666Y-121130952D01*
X154746428Y-121107142D01*
X154698809Y-121083333D01*
X154675000Y-121059523D01*
X154651190Y-121011904D01*
X154817857Y-120416666D02*
X155151190Y-120416666D01*
X154817857Y-120630952D02*
X155079761Y-120630952D01*
X155127380Y-120607142D01*
X155151190Y-120559523D01*
X155151190Y-120488095D01*
X155127380Y-120440476D01*
X155103571Y-120416666D01*
D12*
X155778571Y-123495833D02*
X155802380Y-123519642D01*
X155826190Y-123591071D01*
X155826190Y-123638690D01*
X155802380Y-123710119D01*
X155754761Y-123757738D01*
X155707142Y-123781547D01*
X155611904Y-123805357D01*
X155540476Y-123805357D01*
X155445238Y-123781547D01*
X155397619Y-123757738D01*
X155350000Y-123710119D01*
X155326190Y-123638690D01*
X155326190Y-123591071D01*
X155350000Y-123519642D01*
X155373809Y-123495833D01*
X155826190Y-123019642D02*
X155826190Y-123305357D01*
X155826190Y-123162500D02*
X155326190Y-123162500D01*
X155397619Y-123210119D01*
X155445238Y-123257738D01*
X155469047Y-123305357D01*
D10*
%TO.C,S1*%
X157527380Y-118658452D02*
X157551190Y-118587023D01*
X157551190Y-118467976D01*
X157527380Y-118420357D01*
X157503571Y-118396547D01*
X157455952Y-118372738D01*
X157408333Y-118372738D01*
X157360714Y-118396547D01*
X157336904Y-118420357D01*
X157313095Y-118467976D01*
X157289285Y-118563214D01*
X157265476Y-118610833D01*
X157241666Y-118634642D01*
X157194047Y-118658452D01*
X157146428Y-118658452D01*
X157098809Y-118634642D01*
X157075000Y-118610833D01*
X157051190Y-118563214D01*
X157051190Y-118444166D01*
X157075000Y-118372738D01*
X157551190Y-117896547D02*
X157551190Y-118182261D01*
X157551190Y-118039404D02*
X157051190Y-118039404D01*
X157122619Y-118087023D01*
X157170238Y-118134642D01*
X157194047Y-118182261D01*
X159751190Y-125201309D02*
X160108333Y-125201309D01*
X160179761Y-125225119D01*
X160227380Y-125272738D01*
X160251190Y-125344166D01*
X160251190Y-125391785D01*
X160227380Y-124987023D02*
X160251190Y-124915595D01*
X160251190Y-124796547D01*
X160227380Y-124748928D01*
X160203571Y-124725119D01*
X160155952Y-124701309D01*
X160108333Y-124701309D01*
X160060714Y-124725119D01*
X160036904Y-124748928D01*
X160013095Y-124796547D01*
X159989285Y-124891785D01*
X159965476Y-124939404D01*
X159941666Y-124963214D01*
X159894047Y-124987023D01*
X159846428Y-124987023D01*
X159798809Y-124963214D01*
X159775000Y-124939404D01*
X159751190Y-124891785D01*
X159751190Y-124772738D01*
X159775000Y-124701309D01*
X160251190Y-124225119D02*
X160251190Y-124510833D01*
X160251190Y-124367976D02*
X159751190Y-124367976D01*
X159822619Y-124415595D01*
X159870238Y-124463214D01*
X159894047Y-124510833D01*
X159751190Y-123915595D02*
X159751190Y-123867976D01*
X159775000Y-123820357D01*
X159798809Y-123796547D01*
X159846428Y-123772738D01*
X159941666Y-123748928D01*
X160060714Y-123748928D01*
X160155952Y-123772738D01*
X160203571Y-123796547D01*
X160227380Y-123820357D01*
X160251190Y-123867976D01*
X160251190Y-123915595D01*
X160227380Y-123963214D01*
X160203571Y-123987023D01*
X160155952Y-124010833D01*
X160060714Y-124034642D01*
X159941666Y-124034642D01*
X159846428Y-124010833D01*
X159798809Y-123987023D01*
X159775000Y-123963214D01*
X159751190Y-123915595D01*
X159798809Y-123558452D02*
X159775000Y-123534642D01*
X159751190Y-123487023D01*
X159751190Y-123367976D01*
X159775000Y-123320357D01*
X159798809Y-123296547D01*
X159846428Y-123272738D01*
X159894047Y-123272738D01*
X159965476Y-123296547D01*
X160251190Y-123582261D01*
X160251190Y-123272738D01*
X159751190Y-122963214D02*
X159751190Y-122915595D01*
X159775000Y-122867976D01*
X159798809Y-122844166D01*
X159846428Y-122820357D01*
X159941666Y-122796547D01*
X160060714Y-122796547D01*
X160155952Y-122820357D01*
X160203571Y-122844166D01*
X160227380Y-122867976D01*
X160251190Y-122915595D01*
X160251190Y-122963214D01*
X160227380Y-123010833D01*
X160203571Y-123034642D01*
X160155952Y-123058452D01*
X160060714Y-123082261D01*
X159941666Y-123082261D01*
X159846428Y-123058452D01*
X159798809Y-123034642D01*
X159775000Y-123010833D01*
X159751190Y-122963214D01*
X160251190Y-122320357D02*
X160251190Y-122606071D01*
X160251190Y-122463214D02*
X159751190Y-122463214D01*
X159822619Y-122510833D01*
X159870238Y-122558452D01*
X159894047Y-122606071D01*
X160251190Y-121844166D02*
X160251190Y-122129880D01*
X160251190Y-121987023D02*
X159751190Y-121987023D01*
X159822619Y-122034642D01*
X159870238Y-122082261D01*
X159894047Y-122129880D01*
X159751190Y-121487023D02*
X160108333Y-121487023D01*
X160179761Y-121510833D01*
X160227380Y-121558452D01*
X160251190Y-121629880D01*
X160251190Y-121677500D01*
X160108333Y-121272738D02*
X160108333Y-121034642D01*
X160251190Y-121320357D02*
X159751190Y-121153690D01*
X160251190Y-120987023D01*
X160298809Y-120487023D02*
X160275000Y-120534642D01*
X160227380Y-120582261D01*
X160155952Y-120653690D01*
X160132142Y-120701309D01*
X160132142Y-120748928D01*
X160251190Y-120725119D02*
X160227380Y-120772738D01*
X160179761Y-120820357D01*
X160084523Y-120844166D01*
X159917857Y-120844166D01*
X159822619Y-120820357D01*
X159775000Y-120772738D01*
X159751190Y-120725119D01*
X159751190Y-120629880D01*
X159775000Y-120582261D01*
X159822619Y-120534642D01*
X159917857Y-120510833D01*
X160084523Y-120510833D01*
X160179761Y-120534642D01*
X160227380Y-120582261D01*
X160251190Y-120629880D01*
X160251190Y-120725119D01*
X160251190Y-120296547D02*
X159751190Y-120296547D01*
X160251190Y-120010833D01*
X159751190Y-120010833D01*
%TO.C,CR1*%
X117716666Y-99878571D02*
X117692857Y-99902380D01*
X117621428Y-99926190D01*
X117573809Y-99926190D01*
X117502380Y-99902380D01*
X117454761Y-99854761D01*
X117430952Y-99807142D01*
X117407142Y-99711904D01*
X117407142Y-99640476D01*
X117430952Y-99545238D01*
X117454761Y-99497619D01*
X117502380Y-99450000D01*
X117573809Y-99426190D01*
X117621428Y-99426190D01*
X117692857Y-99450000D01*
X117716666Y-99473809D01*
X118216666Y-99926190D02*
X118050000Y-99688095D01*
X117930952Y-99926190D02*
X117930952Y-99426190D01*
X118121428Y-99426190D01*
X118169047Y-99450000D01*
X118192857Y-99473809D01*
X118216666Y-99521428D01*
X118216666Y-99592857D01*
X118192857Y-99640476D01*
X118169047Y-99664285D01*
X118121428Y-99688095D01*
X117930952Y-99688095D01*
X118692857Y-99926190D02*
X118407142Y-99926190D01*
X118550000Y-99926190D02*
X118550000Y-99426190D01*
X118502380Y-99497619D01*
X118454761Y-99545238D01*
X118407142Y-99569047D01*
X114302380Y-101003571D02*
X114326190Y-100932142D01*
X114326190Y-100813095D01*
X114302380Y-100765476D01*
X114278571Y-100741666D01*
X114230952Y-100717857D01*
X114183333Y-100717857D01*
X114135714Y-100741666D01*
X114111904Y-100765476D01*
X114088095Y-100813095D01*
X114064285Y-100908333D01*
X114040476Y-100955952D01*
X114016666Y-100979761D01*
X113969047Y-101003571D01*
X113921428Y-101003571D01*
X113873809Y-100979761D01*
X113850000Y-100955952D01*
X113826190Y-100908333D01*
X113826190Y-100789285D01*
X113850000Y-100717857D01*
X114326190Y-100503571D02*
X113826190Y-100503571D01*
X114183333Y-100336904D01*
X113826190Y-100170238D01*
X114326190Y-100170238D01*
X114064285Y-99765476D02*
X114088095Y-99694047D01*
X114111904Y-99670238D01*
X114159523Y-99646428D01*
X114230952Y-99646428D01*
X114278571Y-99670238D01*
X114302380Y-99694047D01*
X114326190Y-99741666D01*
X114326190Y-99932142D01*
X113826190Y-99932142D01*
X113826190Y-99765476D01*
X113850000Y-99717857D01*
X113873809Y-99694047D01*
X113921428Y-99670238D01*
X113969047Y-99670238D01*
X114016666Y-99694047D01*
X114040476Y-99717857D01*
X114064285Y-99765476D01*
X114064285Y-99932142D01*
X113826190Y-99289285D02*
X114183333Y-99289285D01*
X114254761Y-99313095D01*
X114302380Y-99360714D01*
X114326190Y-99432142D01*
X114326190Y-99479761D01*
X113826190Y-98813095D02*
X113826190Y-99051190D01*
X114064285Y-99075000D01*
X114040476Y-99051190D01*
X114016666Y-99003571D01*
X114016666Y-98884523D01*
X114040476Y-98836904D01*
X114064285Y-98813095D01*
X114111904Y-98789285D01*
X114230952Y-98789285D01*
X114278571Y-98813095D01*
X114302380Y-98836904D01*
X114326190Y-98884523D01*
X114326190Y-99003571D01*
X114302380Y-99051190D01*
X114278571Y-99075000D01*
X114278571Y-98575000D02*
X114302380Y-98551190D01*
X114326190Y-98575000D01*
X114302380Y-98598809D01*
X114278571Y-98575000D01*
X114326190Y-98575000D01*
X113826190Y-98241666D02*
X113826190Y-98194047D01*
X113850000Y-98146428D01*
X113873809Y-98122619D01*
X113921428Y-98098809D01*
X114016666Y-98075000D01*
X114135714Y-98075000D01*
X114230952Y-98098809D01*
X114278571Y-98122619D01*
X114302380Y-98146428D01*
X114326190Y-98194047D01*
X114326190Y-98241666D01*
X114302380Y-98289285D01*
X114278571Y-98313095D01*
X114230952Y-98336904D01*
X114135714Y-98360714D01*
X114016666Y-98360714D01*
X113921428Y-98336904D01*
X113873809Y-98313095D01*
X113850000Y-98289285D01*
X113826190Y-98241666D01*
X114183333Y-97884523D02*
X114183333Y-97646428D01*
X114326190Y-97932142D02*
X113826190Y-97765476D01*
X114326190Y-97598809D01*
X114135714Y-97432142D02*
X114135714Y-97051190D01*
X113826190Y-96884523D02*
X113826190Y-96598809D01*
X114326190Y-96741666D02*
X113826190Y-96741666D01*
X114326190Y-96146428D02*
X114088095Y-96313095D01*
X114326190Y-96432142D02*
X113826190Y-96432142D01*
X113826190Y-96241666D01*
X113850000Y-96194047D01*
X113873809Y-96170238D01*
X113921428Y-96146428D01*
X113992857Y-96146428D01*
X114040476Y-96170238D01*
X114064285Y-96194047D01*
X114088095Y-96241666D01*
X114088095Y-96432142D01*
D13*
%TO.C,Module1*%
X134659523Y-62532142D02*
X134611904Y-62579761D01*
X134469047Y-62627380D01*
X134373809Y-62627380D01*
X134230952Y-62579761D01*
X134135714Y-62484523D01*
X134088095Y-62389285D01*
X134040476Y-62198809D01*
X134040476Y-62055952D01*
X134088095Y-61865476D01*
X134135714Y-61770238D01*
X134230952Y-61675000D01*
X134373809Y-61627380D01*
X134469047Y-61627380D01*
X134611904Y-61675000D01*
X134659523Y-61722619D01*
X135230952Y-62627380D02*
X135135714Y-62579761D01*
X135088095Y-62532142D01*
X135040476Y-62436904D01*
X135040476Y-62151190D01*
X135088095Y-62055952D01*
X135135714Y-62008333D01*
X135230952Y-61960714D01*
X135373809Y-61960714D01*
X135469047Y-62008333D01*
X135516666Y-62055952D01*
X135564285Y-62151190D01*
X135564285Y-62436904D01*
X135516666Y-62532142D01*
X135469047Y-62579761D01*
X135373809Y-62627380D01*
X135230952Y-62627380D01*
X135992857Y-62627380D02*
X135992857Y-61960714D01*
X135992857Y-62055952D02*
X136040476Y-62008333D01*
X136135714Y-61960714D01*
X136278571Y-61960714D01*
X136373809Y-62008333D01*
X136421428Y-62103571D01*
X136421428Y-62627380D01*
X136421428Y-62103571D02*
X136469047Y-62008333D01*
X136564285Y-61960714D01*
X136707142Y-61960714D01*
X136802380Y-62008333D01*
X136850000Y-62103571D01*
X136850000Y-62627380D01*
X137326190Y-61960714D02*
X137326190Y-62960714D01*
X137326190Y-62008333D02*
X137421428Y-61960714D01*
X137611904Y-61960714D01*
X137707142Y-62008333D01*
X137754761Y-62055952D01*
X137802380Y-62151190D01*
X137802380Y-62436904D01*
X137754761Y-62532142D01*
X137707142Y-62579761D01*
X137611904Y-62627380D01*
X137421428Y-62627380D01*
X137326190Y-62579761D01*
X138659523Y-61960714D02*
X138659523Y-62627380D01*
X138230952Y-61960714D02*
X138230952Y-62484523D01*
X138278571Y-62579761D01*
X138373809Y-62627380D01*
X138516666Y-62627380D01*
X138611904Y-62579761D01*
X138659523Y-62532142D01*
X138992857Y-61960714D02*
X139373809Y-61960714D01*
X139135714Y-61627380D02*
X139135714Y-62484523D01*
X139183333Y-62579761D01*
X139278571Y-62627380D01*
X139373809Y-62627380D01*
X140088095Y-62579761D02*
X139992857Y-62627380D01*
X139802380Y-62627380D01*
X139707142Y-62579761D01*
X139659523Y-62484523D01*
X139659523Y-62103571D01*
X139707142Y-62008333D01*
X139802380Y-61960714D01*
X139992857Y-61960714D01*
X140088095Y-62008333D01*
X140135714Y-62103571D01*
X140135714Y-62198809D01*
X139659523Y-62294047D01*
X140564285Y-62627380D02*
X140564285Y-61627380D01*
X140897619Y-62341666D01*
X141230952Y-61627380D01*
X141230952Y-62627380D01*
X141850000Y-62627380D02*
X141754761Y-62579761D01*
X141707142Y-62532142D01*
X141659523Y-62436904D01*
X141659523Y-62151190D01*
X141707142Y-62055952D01*
X141754761Y-62008333D01*
X141850000Y-61960714D01*
X141992857Y-61960714D01*
X142088095Y-62008333D01*
X142135714Y-62055952D01*
X142183333Y-62151190D01*
X142183333Y-62436904D01*
X142135714Y-62532142D01*
X142088095Y-62579761D01*
X141992857Y-62627380D01*
X141850000Y-62627380D01*
X143040476Y-62627380D02*
X143040476Y-61627380D01*
X143040476Y-62579761D02*
X142945238Y-62627380D01*
X142754761Y-62627380D01*
X142659523Y-62579761D01*
X142611904Y-62532142D01*
X142564285Y-62436904D01*
X142564285Y-62151190D01*
X142611904Y-62055952D01*
X142659523Y-62008333D01*
X142754761Y-61960714D01*
X142945238Y-61960714D01*
X143040476Y-62008333D01*
X143945238Y-61960714D02*
X143945238Y-62627380D01*
X143516666Y-61960714D02*
X143516666Y-62484523D01*
X143564285Y-62579761D01*
X143659523Y-62627380D01*
X143802380Y-62627380D01*
X143897619Y-62579761D01*
X143945238Y-62532142D01*
X144564285Y-62627380D02*
X144469047Y-62579761D01*
X144421428Y-62484523D01*
X144421428Y-61627380D01*
X145326190Y-62579761D02*
X145230952Y-62627380D01*
X145040476Y-62627380D01*
X144945238Y-62579761D01*
X144897619Y-62484523D01*
X144897619Y-62103571D01*
X144945238Y-62008333D01*
X145040476Y-61960714D01*
X145230952Y-61960714D01*
X145326190Y-62008333D01*
X145373809Y-62103571D01*
X145373809Y-62198809D01*
X144897619Y-62294047D01*
X146230952Y-61960714D02*
X146230952Y-62627380D01*
X145992857Y-61579761D02*
X145754761Y-62294047D01*
X146373809Y-62294047D01*
X146754761Y-62246428D02*
X147516666Y-62246428D01*
X148564285Y-62532142D02*
X148516666Y-62579761D01*
X148373809Y-62627380D01*
X148278571Y-62627380D01*
X148135714Y-62579761D01*
X148040476Y-62484523D01*
X147992857Y-62389285D01*
X147945238Y-62198809D01*
X147945238Y-62055952D01*
X147992857Y-61865476D01*
X148040476Y-61770238D01*
X148135714Y-61675000D01*
X148278571Y-61627380D01*
X148373809Y-61627380D01*
X148516666Y-61675000D01*
X148564285Y-61722619D01*
X148992857Y-62627380D02*
X148992857Y-61627380D01*
X149326190Y-62341666D01*
X149659523Y-61627380D01*
X149659523Y-62627380D01*
X150564285Y-61960714D02*
X150564285Y-62627380D01*
X150326190Y-61579761D02*
X150088095Y-62294047D01*
X150707142Y-62294047D01*
D10*
X127958190Y-84194380D02*
X127458190Y-84194380D01*
X127458190Y-84075333D01*
X127482000Y-84003904D01*
X127529619Y-83956285D01*
X127577238Y-83932476D01*
X127672476Y-83908666D01*
X127743904Y-83908666D01*
X127839142Y-83932476D01*
X127886761Y-83956285D01*
X127934380Y-84003904D01*
X127958190Y-84075333D01*
X127958190Y-84194380D01*
X127696285Y-83527714D02*
X127696285Y-83694380D01*
X127958190Y-83694380D02*
X127458190Y-83694380D01*
X127458190Y-83456285D01*
X127624857Y-83051523D02*
X127958190Y-83051523D01*
X127434380Y-83170571D02*
X127791523Y-83289619D01*
X127791523Y-82980095D01*
X127458190Y-82694380D02*
X127458190Y-82646761D01*
X127482000Y-82599142D01*
X127505809Y-82575333D01*
X127553428Y-82551523D01*
X127648666Y-82527714D01*
X127767714Y-82527714D01*
X127862952Y-82551523D01*
X127910571Y-82575333D01*
X127934380Y-82599142D01*
X127958190Y-82646761D01*
X127958190Y-82694380D01*
X127934380Y-82742000D01*
X127910571Y-82765809D01*
X127862952Y-82789619D01*
X127767714Y-82813428D01*
X127648666Y-82813428D01*
X127553428Y-82789619D01*
X127505809Y-82765809D01*
X127482000Y-82742000D01*
X127458190Y-82694380D01*
X127910571Y-82027714D02*
X127934380Y-82051523D01*
X127958190Y-82122952D01*
X127958190Y-82170571D01*
X127934380Y-82242000D01*
X127886761Y-82289619D01*
X127839142Y-82313428D01*
X127743904Y-82337238D01*
X127672476Y-82337238D01*
X127577238Y-82313428D01*
X127529619Y-82289619D01*
X127482000Y-82242000D01*
X127458190Y-82170571D01*
X127458190Y-82122952D01*
X127482000Y-82051523D01*
X127505809Y-82027714D01*
X127767714Y-81813428D02*
X127767714Y-81432476D01*
X127958190Y-80932476D02*
X127958190Y-81218190D01*
X127958190Y-81075333D02*
X127458190Y-81075333D01*
X127529619Y-81122952D01*
X127577238Y-81170571D01*
X127601047Y-81218190D01*
X127458190Y-80622952D02*
X127458190Y-80575333D01*
X127482000Y-80527714D01*
X127505809Y-80503904D01*
X127553428Y-80480095D01*
X127648666Y-80456285D01*
X127767714Y-80456285D01*
X127862952Y-80480095D01*
X127910571Y-80503904D01*
X127934380Y-80527714D01*
X127958190Y-80575333D01*
X127958190Y-80622952D01*
X127934380Y-80670571D01*
X127910571Y-80694380D01*
X127862952Y-80718190D01*
X127767714Y-80742000D01*
X127648666Y-80742000D01*
X127553428Y-80718190D01*
X127505809Y-80694380D01*
X127482000Y-80670571D01*
X127458190Y-80622952D01*
X127458190Y-80146761D02*
X127458190Y-80099142D01*
X127482000Y-80051523D01*
X127505809Y-80027714D01*
X127553428Y-80003904D01*
X127648666Y-79980095D01*
X127767714Y-79980095D01*
X127862952Y-80003904D01*
X127910571Y-80027714D01*
X127934380Y-80051523D01*
X127958190Y-80099142D01*
X127958190Y-80146761D01*
X127934380Y-80194380D01*
X127910571Y-80218190D01*
X127862952Y-80242000D01*
X127767714Y-80265809D01*
X127648666Y-80265809D01*
X127553428Y-80242000D01*
X127505809Y-80218190D01*
X127482000Y-80194380D01*
X127458190Y-80146761D01*
X127958190Y-79765809D02*
X127458190Y-79765809D01*
X127458190Y-79646761D01*
X127482000Y-79575333D01*
X127529619Y-79527714D01*
X127577238Y-79503904D01*
X127672476Y-79480095D01*
X127743904Y-79480095D01*
X127839142Y-79503904D01*
X127886761Y-79527714D01*
X127934380Y-79575333D01*
X127958190Y-79646761D01*
X127958190Y-79765809D01*
X127934380Y-79289619D02*
X127958190Y-79218190D01*
X127958190Y-79099142D01*
X127934380Y-79051523D01*
X127910571Y-79027714D01*
X127862952Y-79003904D01*
X127815333Y-79003904D01*
X127767714Y-79027714D01*
X127743904Y-79051523D01*
X127720095Y-79099142D01*
X127696285Y-79194380D01*
X127672476Y-79242000D01*
X127648666Y-79265809D01*
X127601047Y-79289619D01*
X127553428Y-79289619D01*
X127505809Y-79265809D01*
X127482000Y-79242000D01*
X127458190Y-79194380D01*
X127458190Y-79075333D01*
X127482000Y-79003904D01*
X127767714Y-78789619D02*
X127767714Y-78408666D01*
X127458190Y-78075333D02*
X127458190Y-78027714D01*
X127482000Y-77980095D01*
X127505809Y-77956285D01*
X127553428Y-77932476D01*
X127648666Y-77908666D01*
X127767714Y-77908666D01*
X127862952Y-77932476D01*
X127910571Y-77956285D01*
X127934380Y-77980095D01*
X127958190Y-78027714D01*
X127958190Y-78075333D01*
X127934380Y-78122952D01*
X127910571Y-78146761D01*
X127862952Y-78170571D01*
X127767714Y-78194380D01*
X127648666Y-78194380D01*
X127553428Y-78170571D01*
X127505809Y-78146761D01*
X127482000Y-78122952D01*
X127458190Y-78075333D01*
X127910571Y-77694380D02*
X127934380Y-77670571D01*
X127958190Y-77694380D01*
X127934380Y-77718190D01*
X127910571Y-77694380D01*
X127958190Y-77694380D01*
X127624857Y-77242000D02*
X127958190Y-77242000D01*
X127434380Y-77361047D02*
X127791523Y-77480095D01*
X127791523Y-77170571D01*
X127458190Y-77051523D02*
X127958190Y-76884857D01*
X127458190Y-76718190D01*
X161867190Y-84194380D02*
X161367190Y-84194380D01*
X161367190Y-84075333D01*
X161391000Y-84003904D01*
X161438619Y-83956285D01*
X161486238Y-83932476D01*
X161581476Y-83908666D01*
X161652904Y-83908666D01*
X161748142Y-83932476D01*
X161795761Y-83956285D01*
X161843380Y-84003904D01*
X161867190Y-84075333D01*
X161867190Y-84194380D01*
X161605285Y-83527714D02*
X161605285Y-83694380D01*
X161867190Y-83694380D02*
X161367190Y-83694380D01*
X161367190Y-83456285D01*
X161533857Y-83051523D02*
X161867190Y-83051523D01*
X161343380Y-83170571D02*
X161700523Y-83289619D01*
X161700523Y-82980095D01*
X161367190Y-82694380D02*
X161367190Y-82646761D01*
X161391000Y-82599142D01*
X161414809Y-82575333D01*
X161462428Y-82551523D01*
X161557666Y-82527714D01*
X161676714Y-82527714D01*
X161771952Y-82551523D01*
X161819571Y-82575333D01*
X161843380Y-82599142D01*
X161867190Y-82646761D01*
X161867190Y-82694380D01*
X161843380Y-82742000D01*
X161819571Y-82765809D01*
X161771952Y-82789619D01*
X161676714Y-82813428D01*
X161557666Y-82813428D01*
X161462428Y-82789619D01*
X161414809Y-82765809D01*
X161391000Y-82742000D01*
X161367190Y-82694380D01*
X161819571Y-82027714D02*
X161843380Y-82051523D01*
X161867190Y-82122952D01*
X161867190Y-82170571D01*
X161843380Y-82242000D01*
X161795761Y-82289619D01*
X161748142Y-82313428D01*
X161652904Y-82337238D01*
X161581476Y-82337238D01*
X161486238Y-82313428D01*
X161438619Y-82289619D01*
X161391000Y-82242000D01*
X161367190Y-82170571D01*
X161367190Y-82122952D01*
X161391000Y-82051523D01*
X161414809Y-82027714D01*
X161676714Y-81813428D02*
X161676714Y-81432476D01*
X161867190Y-80932476D02*
X161867190Y-81218190D01*
X161867190Y-81075333D02*
X161367190Y-81075333D01*
X161438619Y-81122952D01*
X161486238Y-81170571D01*
X161510047Y-81218190D01*
X161367190Y-80622952D02*
X161367190Y-80575333D01*
X161391000Y-80527714D01*
X161414809Y-80503904D01*
X161462428Y-80480095D01*
X161557666Y-80456285D01*
X161676714Y-80456285D01*
X161771952Y-80480095D01*
X161819571Y-80503904D01*
X161843380Y-80527714D01*
X161867190Y-80575333D01*
X161867190Y-80622952D01*
X161843380Y-80670571D01*
X161819571Y-80694380D01*
X161771952Y-80718190D01*
X161676714Y-80742000D01*
X161557666Y-80742000D01*
X161462428Y-80718190D01*
X161414809Y-80694380D01*
X161391000Y-80670571D01*
X161367190Y-80622952D01*
X161367190Y-80146761D02*
X161367190Y-80099142D01*
X161391000Y-80051523D01*
X161414809Y-80027714D01*
X161462428Y-80003904D01*
X161557666Y-79980095D01*
X161676714Y-79980095D01*
X161771952Y-80003904D01*
X161819571Y-80027714D01*
X161843380Y-80051523D01*
X161867190Y-80099142D01*
X161867190Y-80146761D01*
X161843380Y-80194380D01*
X161819571Y-80218190D01*
X161771952Y-80242000D01*
X161676714Y-80265809D01*
X161557666Y-80265809D01*
X161462428Y-80242000D01*
X161414809Y-80218190D01*
X161391000Y-80194380D01*
X161367190Y-80146761D01*
X161867190Y-79765809D02*
X161367190Y-79765809D01*
X161367190Y-79646761D01*
X161391000Y-79575333D01*
X161438619Y-79527714D01*
X161486238Y-79503904D01*
X161581476Y-79480095D01*
X161652904Y-79480095D01*
X161748142Y-79503904D01*
X161795761Y-79527714D01*
X161843380Y-79575333D01*
X161867190Y-79646761D01*
X161867190Y-79765809D01*
X161843380Y-79289619D02*
X161867190Y-79218190D01*
X161867190Y-79099142D01*
X161843380Y-79051523D01*
X161819571Y-79027714D01*
X161771952Y-79003904D01*
X161724333Y-79003904D01*
X161676714Y-79027714D01*
X161652904Y-79051523D01*
X161629095Y-79099142D01*
X161605285Y-79194380D01*
X161581476Y-79242000D01*
X161557666Y-79265809D01*
X161510047Y-79289619D01*
X161462428Y-79289619D01*
X161414809Y-79265809D01*
X161391000Y-79242000D01*
X161367190Y-79194380D01*
X161367190Y-79075333D01*
X161391000Y-79003904D01*
X161676714Y-78789619D02*
X161676714Y-78408666D01*
X161367190Y-78075333D02*
X161367190Y-78027714D01*
X161391000Y-77980095D01*
X161414809Y-77956285D01*
X161462428Y-77932476D01*
X161557666Y-77908666D01*
X161676714Y-77908666D01*
X161771952Y-77932476D01*
X161819571Y-77956285D01*
X161843380Y-77980095D01*
X161867190Y-78027714D01*
X161867190Y-78075333D01*
X161843380Y-78122952D01*
X161819571Y-78146761D01*
X161771952Y-78170571D01*
X161676714Y-78194380D01*
X161557666Y-78194380D01*
X161462428Y-78170571D01*
X161414809Y-78146761D01*
X161391000Y-78122952D01*
X161367190Y-78075333D01*
X161819571Y-77694380D02*
X161843380Y-77670571D01*
X161867190Y-77694380D01*
X161843380Y-77718190D01*
X161819571Y-77694380D01*
X161867190Y-77694380D01*
X161533857Y-77242000D02*
X161867190Y-77242000D01*
X161343380Y-77361047D02*
X161700523Y-77480095D01*
X161700523Y-77170571D01*
X161367190Y-77051523D02*
X161867190Y-76884857D01*
X161367190Y-76718190D01*
%TO.C,C18*%
X117078571Y-115526190D02*
X116792857Y-115526190D01*
X116935714Y-115526190D02*
X116935714Y-115026190D01*
X116888095Y-115097619D01*
X116840476Y-115145238D01*
X116792857Y-115169047D01*
X117388095Y-115026190D02*
X117435714Y-115026190D01*
X117483333Y-115050000D01*
X117507142Y-115073809D01*
X117530952Y-115121428D01*
X117554761Y-115216666D01*
X117554761Y-115335714D01*
X117530952Y-115430952D01*
X117507142Y-115478571D01*
X117483333Y-115502380D01*
X117435714Y-115526190D01*
X117388095Y-115526190D01*
X117340476Y-115502380D01*
X117316666Y-115478571D01*
X117292857Y-115430952D01*
X117269047Y-115335714D01*
X117269047Y-115216666D01*
X117292857Y-115121428D01*
X117316666Y-115073809D01*
X117340476Y-115050000D01*
X117388095Y-115026190D01*
X117983333Y-115192857D02*
X117983333Y-115526190D01*
X117769047Y-115192857D02*
X117769047Y-115454761D01*
X117792857Y-115502380D01*
X117840476Y-115526190D01*
X117911904Y-115526190D01*
X117959523Y-115502380D01*
X117983333Y-115478571D01*
D12*
X117078571Y-114328571D02*
X117054761Y-114352380D01*
X116983333Y-114376190D01*
X116935714Y-114376190D01*
X116864285Y-114352380D01*
X116816666Y-114304761D01*
X116792857Y-114257142D01*
X116769047Y-114161904D01*
X116769047Y-114090476D01*
X116792857Y-113995238D01*
X116816666Y-113947619D01*
X116864285Y-113900000D01*
X116935714Y-113876190D01*
X116983333Y-113876190D01*
X117054761Y-113900000D01*
X117078571Y-113923809D01*
X117554761Y-114376190D02*
X117269047Y-114376190D01*
X117411904Y-114376190D02*
X117411904Y-113876190D01*
X117364285Y-113947619D01*
X117316666Y-113995238D01*
X117269047Y-114019047D01*
X117840476Y-114090476D02*
X117792857Y-114066666D01*
X117769047Y-114042857D01*
X117745238Y-113995238D01*
X117745238Y-113971428D01*
X117769047Y-113923809D01*
X117792857Y-113900000D01*
X117840476Y-113876190D01*
X117935714Y-113876190D01*
X117983333Y-113900000D01*
X118007142Y-113923809D01*
X118030952Y-113971428D01*
X118030952Y-113995238D01*
X118007142Y-114042857D01*
X117983333Y-114066666D01*
X117935714Y-114090476D01*
X117840476Y-114090476D01*
X117792857Y-114114285D01*
X117769047Y-114138095D01*
X117745238Y-114185714D01*
X117745238Y-114280952D01*
X117769047Y-114328571D01*
X117792857Y-114352380D01*
X117840476Y-114376190D01*
X117935714Y-114376190D01*
X117983333Y-114352380D01*
X118007142Y-114328571D01*
X118030952Y-114280952D01*
X118030952Y-114185714D01*
X118007142Y-114138095D01*
X117983333Y-114114285D01*
X117935714Y-114090476D01*
D10*
%TO.C,C9*%
X128493190Y-119796428D02*
X128493190Y-120082142D01*
X128493190Y-119939285D02*
X127993190Y-119939285D01*
X128064619Y-119986904D01*
X128112238Y-120034523D01*
X128136047Y-120082142D01*
X127993190Y-119486904D02*
X127993190Y-119439285D01*
X128017000Y-119391666D01*
X128040809Y-119367857D01*
X128088428Y-119344047D01*
X128183666Y-119320238D01*
X128302714Y-119320238D01*
X128397952Y-119344047D01*
X128445571Y-119367857D01*
X128469380Y-119391666D01*
X128493190Y-119439285D01*
X128493190Y-119486904D01*
X128469380Y-119534523D01*
X128445571Y-119558333D01*
X128397952Y-119582142D01*
X128302714Y-119605952D01*
X128183666Y-119605952D01*
X128088428Y-119582142D01*
X128040809Y-119558333D01*
X128017000Y-119534523D01*
X127993190Y-119486904D01*
X128159857Y-118891666D02*
X128493190Y-118891666D01*
X128159857Y-119105952D02*
X128421761Y-119105952D01*
X128469380Y-119082142D01*
X128493190Y-119034523D01*
X128493190Y-118963095D01*
X128469380Y-118915476D01*
X128445571Y-118891666D01*
D12*
X129728571Y-119708333D02*
X129752380Y-119732142D01*
X129776190Y-119803571D01*
X129776190Y-119851190D01*
X129752380Y-119922619D01*
X129704761Y-119970238D01*
X129657142Y-119994047D01*
X129561904Y-120017857D01*
X129490476Y-120017857D01*
X129395238Y-119994047D01*
X129347619Y-119970238D01*
X129300000Y-119922619D01*
X129276190Y-119851190D01*
X129276190Y-119803571D01*
X129300000Y-119732142D01*
X129323809Y-119708333D01*
X129776190Y-119470238D02*
X129776190Y-119375000D01*
X129752380Y-119327380D01*
X129728571Y-119303571D01*
X129657142Y-119255952D01*
X129561904Y-119232142D01*
X129371428Y-119232142D01*
X129323809Y-119255952D01*
X129300000Y-119279761D01*
X129276190Y-119327380D01*
X129276190Y-119422619D01*
X129300000Y-119470238D01*
X129323809Y-119494047D01*
X129371428Y-119517857D01*
X129490476Y-119517857D01*
X129538095Y-119494047D01*
X129561904Y-119470238D01*
X129585714Y-119422619D01*
X129585714Y-119327380D01*
X129561904Y-119279761D01*
X129538095Y-119255952D01*
X129490476Y-119232142D01*
D10*
%TO.C,R12*%
X110566666Y-106151190D02*
X110280952Y-106151190D01*
X110423809Y-106151190D02*
X110423809Y-105651190D01*
X110376190Y-105722619D01*
X110328571Y-105770238D01*
X110280952Y-105794047D01*
X111019047Y-105651190D02*
X110780952Y-105651190D01*
X110757142Y-105889285D01*
X110780952Y-105865476D01*
X110828571Y-105841666D01*
X110947619Y-105841666D01*
X110995238Y-105865476D01*
X111019047Y-105889285D01*
X111042857Y-105936904D01*
X111042857Y-106055952D01*
X111019047Y-106103571D01*
X110995238Y-106127380D01*
X110947619Y-106151190D01*
X110828571Y-106151190D01*
X110780952Y-106127380D01*
X110757142Y-106103571D01*
X111352380Y-105651190D02*
X111400000Y-105651190D01*
X111447619Y-105675000D01*
X111471428Y-105698809D01*
X111495238Y-105746428D01*
X111519047Y-105841666D01*
X111519047Y-105960714D01*
X111495238Y-106055952D01*
X111471428Y-106103571D01*
X111447619Y-106127380D01*
X111400000Y-106151190D01*
X111352380Y-106151190D01*
X111304761Y-106127380D01*
X111280952Y-106103571D01*
X111257142Y-106055952D01*
X111233333Y-105960714D01*
X111233333Y-105841666D01*
X111257142Y-105746428D01*
X111280952Y-105698809D01*
X111304761Y-105675000D01*
X111352380Y-105651190D01*
D14*
X111467857Y-107180952D02*
X111334523Y-106990476D01*
X111239285Y-107180952D02*
X111239285Y-106780952D01*
X111391666Y-106780952D01*
X111429761Y-106800000D01*
X111448809Y-106819047D01*
X111467857Y-106857142D01*
X111467857Y-106914285D01*
X111448809Y-106952380D01*
X111429761Y-106971428D01*
X111391666Y-106990476D01*
X111239285Y-106990476D01*
X111848809Y-107180952D02*
X111620238Y-107180952D01*
X111734523Y-107180952D02*
X111734523Y-106780952D01*
X111696428Y-106838095D01*
X111658333Y-106876190D01*
X111620238Y-106895238D01*
X112001190Y-106819047D02*
X112020238Y-106800000D01*
X112058333Y-106780952D01*
X112153571Y-106780952D01*
X112191666Y-106800000D01*
X112210714Y-106819047D01*
X112229761Y-106857142D01*
X112229761Y-106895238D01*
X112210714Y-106952380D01*
X111982142Y-107180952D01*
X112229761Y-107180952D01*
D10*
%TO.C,R9*%
X118801190Y-87840476D02*
X118801190Y-88078571D01*
X119039285Y-88102380D01*
X119015476Y-88078571D01*
X118991666Y-88030952D01*
X118991666Y-87911904D01*
X119015476Y-87864285D01*
X119039285Y-87840476D01*
X119086904Y-87816666D01*
X119205952Y-87816666D01*
X119253571Y-87840476D01*
X119277380Y-87864285D01*
X119301190Y-87911904D01*
X119301190Y-88030952D01*
X119277380Y-88078571D01*
X119253571Y-88102380D01*
X119253571Y-87602380D02*
X119277380Y-87578571D01*
X119301190Y-87602380D01*
X119277380Y-87626190D01*
X119253571Y-87602380D01*
X119301190Y-87602380D01*
X119301190Y-87102380D02*
X119301190Y-87388095D01*
X119301190Y-87245238D02*
X118801190Y-87245238D01*
X118872619Y-87292857D01*
X118920238Y-87340476D01*
X118944047Y-87388095D01*
X119301190Y-86888095D02*
X118801190Y-86888095D01*
X119110714Y-86840476D02*
X119301190Y-86697619D01*
X118967857Y-86697619D02*
X119158333Y-86888095D01*
D11*
X118993095Y-85666666D02*
X118874047Y-85750000D01*
X118993095Y-85809523D02*
X118743095Y-85809523D01*
X118743095Y-85714285D01*
X118755000Y-85690476D01*
X118766904Y-85678571D01*
X118790714Y-85666666D01*
X118826428Y-85666666D01*
X118850238Y-85678571D01*
X118862142Y-85690476D01*
X118874047Y-85714285D01*
X118874047Y-85809523D01*
X118993095Y-85547619D02*
X118993095Y-85500000D01*
X118981190Y-85476190D01*
X118969285Y-85464285D01*
X118933571Y-85440476D01*
X118885952Y-85428571D01*
X118790714Y-85428571D01*
X118766904Y-85440476D01*
X118755000Y-85452380D01*
X118743095Y-85476190D01*
X118743095Y-85523809D01*
X118755000Y-85547619D01*
X118766904Y-85559523D01*
X118790714Y-85571428D01*
X118850238Y-85571428D01*
X118874047Y-85559523D01*
X118885952Y-85547619D01*
X118897857Y-85523809D01*
X118897857Y-85476190D01*
X118885952Y-85452380D01*
X118874047Y-85440476D01*
X118850238Y-85428571D01*
D10*
%TO.C,C11*%
X120316666Y-103951190D02*
X120030952Y-103951190D01*
X120173809Y-103951190D02*
X120173809Y-103451190D01*
X120126190Y-103522619D01*
X120078571Y-103570238D01*
X120030952Y-103594047D01*
X120745238Y-103617857D02*
X120745238Y-103951190D01*
X120530952Y-103617857D02*
X120530952Y-103879761D01*
X120554761Y-103927380D01*
X120602380Y-103951190D01*
X120673809Y-103951190D01*
X120721428Y-103927380D01*
X120745238Y-103903571D01*
D14*
X119042857Y-104934857D02*
X119023809Y-104953904D01*
X118966666Y-104972952D01*
X118928571Y-104972952D01*
X118871428Y-104953904D01*
X118833333Y-104915809D01*
X118814285Y-104877714D01*
X118795238Y-104801523D01*
X118795238Y-104744380D01*
X118814285Y-104668190D01*
X118833333Y-104630095D01*
X118871428Y-104592000D01*
X118928571Y-104572952D01*
X118966666Y-104572952D01*
X119023809Y-104592000D01*
X119042857Y-104611047D01*
X119423809Y-104972952D02*
X119195238Y-104972952D01*
X119309523Y-104972952D02*
X119309523Y-104572952D01*
X119271428Y-104630095D01*
X119233333Y-104668190D01*
X119195238Y-104687238D01*
X119804761Y-104972952D02*
X119576190Y-104972952D01*
X119690476Y-104972952D02*
X119690476Y-104572952D01*
X119652380Y-104630095D01*
X119614285Y-104668190D01*
X119576190Y-104687238D01*
D12*
%TO.C,D2*%
X119005952Y-134474404D02*
X119005952Y-134664880D01*
X118605952Y-134664880D01*
X118796428Y-134341071D02*
X118796428Y-134207738D01*
X119005952Y-134150595D02*
X119005952Y-134341071D01*
X118605952Y-134341071D01*
X118605952Y-134150595D01*
X119005952Y-133979166D02*
X118605952Y-133979166D01*
X118605952Y-133883928D01*
X118625000Y-133826785D01*
X118663095Y-133788690D01*
X118701190Y-133769642D01*
X118777380Y-133750595D01*
X118834523Y-133750595D01*
X118910714Y-133769642D01*
X118948809Y-133788690D01*
X118986904Y-133826785D01*
X119005952Y-133883928D01*
X119005952Y-133979166D01*
X119005952Y-133045833D02*
X118815476Y-133179166D01*
X119005952Y-133274404D02*
X118605952Y-133274404D01*
X118605952Y-133122023D01*
X118625000Y-133083928D01*
X118644047Y-133064880D01*
X118682142Y-133045833D01*
X118739285Y-133045833D01*
X118777380Y-133064880D01*
X118796428Y-133083928D01*
X118815476Y-133122023D01*
X118815476Y-133274404D01*
X118986904Y-132722023D02*
X119005952Y-132760119D01*
X119005952Y-132836309D01*
X118986904Y-132874404D01*
X118948809Y-132893452D01*
X118796428Y-132893452D01*
X118758333Y-132874404D01*
X118739285Y-132836309D01*
X118739285Y-132760119D01*
X118758333Y-132722023D01*
X118796428Y-132702976D01*
X118834523Y-132702976D01*
X118872619Y-132893452D01*
X119005952Y-132360119D02*
X118605952Y-132360119D01*
X118986904Y-132360119D02*
X119005952Y-132398214D01*
X119005952Y-132474404D01*
X118986904Y-132512500D01*
X118967857Y-132531547D01*
X118929761Y-132550595D01*
X118815476Y-132550595D01*
X118777380Y-132531547D01*
X118758333Y-132512500D01*
X118739285Y-132474404D01*
X118739285Y-132398214D01*
X118758333Y-132360119D01*
D14*
X119855952Y-133782738D02*
X119455952Y-133782738D01*
X119455952Y-133687500D01*
X119475000Y-133630357D01*
X119513095Y-133592261D01*
X119551190Y-133573214D01*
X119627380Y-133554166D01*
X119684523Y-133554166D01*
X119760714Y-133573214D01*
X119798809Y-133592261D01*
X119836904Y-133630357D01*
X119855952Y-133687500D01*
X119855952Y-133782738D01*
X119494047Y-133401785D02*
X119475000Y-133382738D01*
X119455952Y-133344642D01*
X119455952Y-133249404D01*
X119475000Y-133211309D01*
X119494047Y-133192261D01*
X119532142Y-133173214D01*
X119570238Y-133173214D01*
X119627380Y-133192261D01*
X119855952Y-133420833D01*
X119855952Y-133173214D01*
D13*
%TO.C,L1*%
X133791666Y-116661904D02*
X133410714Y-116661904D01*
X133410714Y-115861904D01*
X134477380Y-116661904D02*
X134020238Y-116661904D01*
X134248809Y-116661904D02*
X134248809Y-115861904D01*
X134172619Y-115976190D01*
X134096428Y-116052380D01*
X134020238Y-116090476D01*
D10*
%TO.C,U2*%
X144860828Y-52314285D02*
X144694161Y-52314285D01*
X144694161Y-52576190D02*
X144694161Y-52076190D01*
X144932257Y-52076190D01*
X145098923Y-52552380D02*
X145170352Y-52576190D01*
X145289400Y-52576190D01*
X145337019Y-52552380D01*
X145360828Y-52528571D01*
X145384638Y-52480952D01*
X145384638Y-52433333D01*
X145360828Y-52385714D01*
X145337019Y-52361904D01*
X145289400Y-52338095D01*
X145194161Y-52314285D01*
X145146542Y-52290476D01*
X145122733Y-52266666D01*
X145098923Y-52219047D01*
X145098923Y-52171428D01*
X145122733Y-52123809D01*
X145146542Y-52100000D01*
X145194161Y-52076190D01*
X145313209Y-52076190D01*
X145384638Y-52100000D01*
X145598923Y-52076190D02*
X145598923Y-52480952D01*
X145622733Y-52528571D01*
X145646542Y-52552380D01*
X145694161Y-52576190D01*
X145789400Y-52576190D01*
X145837019Y-52552380D01*
X145860828Y-52528571D01*
X145884638Y-52480952D01*
X145884638Y-52076190D01*
X146098923Y-52552380D02*
X146170352Y-52576190D01*
X146289400Y-52576190D01*
X146337019Y-52552380D01*
X146360828Y-52528571D01*
X146384638Y-52480952D01*
X146384638Y-52433333D01*
X146360828Y-52385714D01*
X146337019Y-52361904D01*
X146289400Y-52338095D01*
X146194161Y-52314285D01*
X146146542Y-52290476D01*
X146122733Y-52266666D01*
X146098923Y-52219047D01*
X146098923Y-52171428D01*
X146122733Y-52123809D01*
X146146542Y-52100000D01*
X146194161Y-52076190D01*
X146313209Y-52076190D01*
X146384638Y-52100000D01*
X146765590Y-52314285D02*
X146837019Y-52338095D01*
X146860828Y-52361904D01*
X146884638Y-52409523D01*
X146884638Y-52480952D01*
X146860828Y-52528571D01*
X146837019Y-52552380D01*
X146789400Y-52576190D01*
X146598923Y-52576190D01*
X146598923Y-52076190D01*
X146765590Y-52076190D01*
X146813209Y-52100000D01*
X146837019Y-52123809D01*
X146860828Y-52171428D01*
X146860828Y-52219047D01*
X146837019Y-52266666D01*
X146813209Y-52290476D01*
X146765590Y-52314285D01*
X146598923Y-52314285D01*
X147313209Y-52242857D02*
X147313209Y-52576190D01*
X147194161Y-52052380D02*
X147075114Y-52409523D01*
X147384638Y-52409523D01*
X147551304Y-52123809D02*
X147575114Y-52100000D01*
X147622733Y-52076190D01*
X147741780Y-52076190D01*
X147789400Y-52100000D01*
X147813209Y-52123809D01*
X147837019Y-52171428D01*
X147837019Y-52219047D01*
X147813209Y-52290476D01*
X147527495Y-52576190D01*
X147837019Y-52576190D01*
X148051304Y-52576190D02*
X148051304Y-52076190D01*
X148217971Y-52433333D01*
X148384638Y-52076190D01*
X148384638Y-52576190D01*
X148622733Y-52076190D02*
X148622733Y-52480952D01*
X148646542Y-52528571D01*
X148670352Y-52552380D01*
X148717971Y-52576190D01*
X148813209Y-52576190D01*
X148860828Y-52552380D01*
X148884638Y-52528571D01*
X148908447Y-52480952D01*
X148908447Y-52076190D01*
X149098923Y-52076190D02*
X149432257Y-52576190D01*
X149432257Y-52076190D02*
X149098923Y-52576190D01*
D13*
X146607257Y-54346428D02*
X146607257Y-54832142D01*
X146635828Y-54889285D01*
X146664400Y-54917857D01*
X146721542Y-54946428D01*
X146835828Y-54946428D01*
X146892971Y-54917857D01*
X146921542Y-54889285D01*
X146950114Y-54832142D01*
X146950114Y-54346428D01*
X147207257Y-54403571D02*
X147235828Y-54375000D01*
X147292971Y-54346428D01*
X147435828Y-54346428D01*
X147492971Y-54375000D01*
X147521542Y-54403571D01*
X147550114Y-54460714D01*
X147550114Y-54517857D01*
X147521542Y-54603571D01*
X147178685Y-54946428D01*
X147550114Y-54946428D01*
D10*
%TO.C,R14*%
X115201190Y-105209523D02*
X115201190Y-105495238D01*
X115201190Y-105352380D02*
X114701190Y-105352380D01*
X114772619Y-105400000D01*
X114820238Y-105447619D01*
X114844047Y-105495238D01*
X115201190Y-104995238D02*
X114701190Y-104995238D01*
X115010714Y-104947619D02*
X115201190Y-104804761D01*
X114867857Y-104804761D02*
X115058333Y-104995238D01*
D14*
X116230952Y-105407142D02*
X116040476Y-105540476D01*
X116230952Y-105635714D02*
X115830952Y-105635714D01*
X115830952Y-105483333D01*
X115850000Y-105445238D01*
X115869047Y-105426190D01*
X115907142Y-105407142D01*
X115964285Y-105407142D01*
X116002380Y-105426190D01*
X116021428Y-105445238D01*
X116040476Y-105483333D01*
X116040476Y-105635714D01*
X116230952Y-105026190D02*
X116230952Y-105254761D01*
X116230952Y-105140476D02*
X115830952Y-105140476D01*
X115888095Y-105178571D01*
X115926190Y-105216666D01*
X115945238Y-105254761D01*
X115964285Y-104683333D02*
X116230952Y-104683333D01*
X115811904Y-104778571D02*
X116097619Y-104873809D01*
X116097619Y-104626190D01*
D10*
%TO.C,J3*%
X143507142Y-131553571D02*
X143483333Y-131577380D01*
X143411904Y-131601190D01*
X143364285Y-131601190D01*
X143292857Y-131577380D01*
X143245238Y-131529761D01*
X143221428Y-131482142D01*
X143197619Y-131386904D01*
X143197619Y-131315476D01*
X143221428Y-131220238D01*
X143245238Y-131172619D01*
X143292857Y-131125000D01*
X143364285Y-131101190D01*
X143411904Y-131101190D01*
X143483333Y-131125000D01*
X143507142Y-131148809D01*
X143792857Y-131601190D02*
X143745238Y-131577380D01*
X143721428Y-131553571D01*
X143697619Y-131505952D01*
X143697619Y-131363095D01*
X143721428Y-131315476D01*
X143745238Y-131291666D01*
X143792857Y-131267857D01*
X143864285Y-131267857D01*
X143911904Y-131291666D01*
X143935714Y-131315476D01*
X143959523Y-131363095D01*
X143959523Y-131505952D01*
X143935714Y-131553571D01*
X143911904Y-131577380D01*
X143864285Y-131601190D01*
X143792857Y-131601190D01*
X144173809Y-131267857D02*
X144173809Y-131601190D01*
X144173809Y-131315476D02*
X144197619Y-131291666D01*
X144245238Y-131267857D01*
X144316666Y-131267857D01*
X144364285Y-131291666D01*
X144388095Y-131339285D01*
X144388095Y-131601190D01*
X144626190Y-131267857D02*
X144626190Y-131601190D01*
X144626190Y-131315476D02*
X144650000Y-131291666D01*
X144697619Y-131267857D01*
X144769047Y-131267857D01*
X144816666Y-131291666D01*
X144840476Y-131339285D01*
X144840476Y-131601190D01*
X144959523Y-131648809D02*
X145340476Y-131648809D01*
X145554761Y-131101190D02*
X145602380Y-131101190D01*
X145650000Y-131125000D01*
X145673809Y-131148809D01*
X145697619Y-131196428D01*
X145721428Y-131291666D01*
X145721428Y-131410714D01*
X145697619Y-131505952D01*
X145673809Y-131553571D01*
X145650000Y-131577380D01*
X145602380Y-131601190D01*
X145554761Y-131601190D01*
X145507142Y-131577380D01*
X145483333Y-131553571D01*
X145459523Y-131505952D01*
X145435714Y-131410714D01*
X145435714Y-131291666D01*
X145459523Y-131196428D01*
X145483333Y-131148809D01*
X145507142Y-131125000D01*
X145554761Y-131101190D01*
X146197619Y-131601190D02*
X145911904Y-131601190D01*
X146054761Y-131601190D02*
X146054761Y-131101190D01*
X146007142Y-131172619D01*
X145959523Y-131220238D01*
X145911904Y-131244047D01*
X146364285Y-131601190D02*
X146626190Y-131267857D01*
X146364285Y-131267857D02*
X146626190Y-131601190D01*
X146792857Y-131148809D02*
X146816666Y-131125000D01*
X146864285Y-131101190D01*
X146983333Y-131101190D01*
X147030952Y-131125000D01*
X147054761Y-131148809D01*
X147078571Y-131196428D01*
X147078571Y-131244047D01*
X147054761Y-131315476D01*
X146769047Y-131601190D01*
X147078571Y-131601190D01*
X147269047Y-131148809D02*
X147292857Y-131125000D01*
X147340476Y-131101190D01*
X147459523Y-131101190D01*
X147507142Y-131125000D01*
X147530952Y-131148809D01*
X147554761Y-131196428D01*
X147554761Y-131244047D01*
X147530952Y-131315476D01*
X147245238Y-131601190D01*
X147554761Y-131601190D01*
X147650000Y-131648809D02*
X148030952Y-131648809D01*
X148316666Y-131339285D02*
X148150000Y-131339285D01*
X148150000Y-131601190D02*
X148150000Y-131101190D01*
X148388095Y-131101190D01*
X148769047Y-131577380D02*
X148721428Y-131601190D01*
X148626190Y-131601190D01*
X148578571Y-131577380D01*
X148554761Y-131529761D01*
X148554761Y-131339285D01*
X148578571Y-131291666D01*
X148626190Y-131267857D01*
X148721428Y-131267857D01*
X148769047Y-131291666D01*
X148792857Y-131339285D01*
X148792857Y-131386904D01*
X148554761Y-131434523D01*
X149007142Y-131601190D02*
X149007142Y-131267857D01*
X149007142Y-131315476D02*
X149030952Y-131291666D01*
X149078571Y-131267857D01*
X149150000Y-131267857D01*
X149197619Y-131291666D01*
X149221428Y-131339285D01*
X149221428Y-131601190D01*
X149221428Y-131339285D02*
X149245238Y-131291666D01*
X149292857Y-131267857D01*
X149364285Y-131267857D01*
X149411904Y-131291666D01*
X149435714Y-131339285D01*
X149435714Y-131601190D01*
X149888095Y-131601190D02*
X149888095Y-131339285D01*
X149864285Y-131291666D01*
X149816666Y-131267857D01*
X149721428Y-131267857D01*
X149673809Y-131291666D01*
X149888095Y-131577380D02*
X149840476Y-131601190D01*
X149721428Y-131601190D01*
X149673809Y-131577380D01*
X149650000Y-131529761D01*
X149650000Y-131482142D01*
X149673809Y-131434523D01*
X149721428Y-131410714D01*
X149840476Y-131410714D01*
X149888095Y-131386904D01*
X150197619Y-131601190D02*
X150150000Y-131577380D01*
X150126190Y-131529761D01*
X150126190Y-131101190D01*
X150578571Y-131577380D02*
X150530952Y-131601190D01*
X150435714Y-131601190D01*
X150388095Y-131577380D01*
X150364285Y-131529761D01*
X150364285Y-131339285D01*
X150388095Y-131291666D01*
X150435714Y-131267857D01*
X150530952Y-131267857D01*
X150578571Y-131291666D01*
X150602380Y-131339285D01*
X150602380Y-131386904D01*
X150364285Y-131434523D01*
D13*
X146566666Y-132452380D02*
X146566666Y-133166666D01*
X146519047Y-133309523D01*
X146423809Y-133404761D01*
X146280952Y-133452380D01*
X146185714Y-133452380D01*
X146947619Y-132452380D02*
X147566666Y-132452380D01*
X147233333Y-132833333D01*
X147376190Y-132833333D01*
X147471428Y-132880952D01*
X147519047Y-132928571D01*
X147566666Y-133023809D01*
X147566666Y-133261904D01*
X147519047Y-133357142D01*
X147471428Y-133404761D01*
X147376190Y-133452380D01*
X147090476Y-133452380D01*
X146995238Y-133404761D01*
X146947619Y-133357142D01*
D10*
%TO.C,R2*%
X120207142Y-79951190D02*
X120207142Y-79451190D01*
X120326190Y-79451190D01*
X120397619Y-79475000D01*
X120445238Y-79522619D01*
X120469047Y-79570238D01*
X120492857Y-79665476D01*
X120492857Y-79736904D01*
X120469047Y-79832142D01*
X120445238Y-79879761D01*
X120397619Y-79927380D01*
X120326190Y-79951190D01*
X120207142Y-79951190D01*
X120707142Y-79951190D02*
X120707142Y-79451190D01*
X120992857Y-79951190D01*
X120992857Y-79451190D01*
X121230952Y-79951190D02*
X121230952Y-79451190D01*
X121421428Y-79451190D01*
X121469047Y-79475000D01*
X121492857Y-79498809D01*
X121516666Y-79546428D01*
X121516666Y-79617857D01*
X121492857Y-79665476D01*
X121469047Y-79689285D01*
X121421428Y-79713095D01*
X121230952Y-79713095D01*
D12*
X118291666Y-80626190D02*
X118125000Y-80388095D01*
X118005952Y-80626190D02*
X118005952Y-80126190D01*
X118196428Y-80126190D01*
X118244047Y-80150000D01*
X118267857Y-80173809D01*
X118291666Y-80221428D01*
X118291666Y-80292857D01*
X118267857Y-80340476D01*
X118244047Y-80364285D01*
X118196428Y-80388095D01*
X118005952Y-80388095D01*
X118482142Y-80173809D02*
X118505952Y-80150000D01*
X118553571Y-80126190D01*
X118672619Y-80126190D01*
X118720238Y-80150000D01*
X118744047Y-80173809D01*
X118767857Y-80221428D01*
X118767857Y-80269047D01*
X118744047Y-80340476D01*
X118458333Y-80626190D01*
X118767857Y-80626190D01*
D10*
%TO.C,R13*%
X110567857Y-107851190D02*
X110329761Y-107851190D01*
X110305952Y-108089285D01*
X110329761Y-108065476D01*
X110377380Y-108041666D01*
X110496428Y-108041666D01*
X110544047Y-108065476D01*
X110567857Y-108089285D01*
X110591666Y-108136904D01*
X110591666Y-108255952D01*
X110567857Y-108303571D01*
X110544047Y-108327380D01*
X110496428Y-108351190D01*
X110377380Y-108351190D01*
X110329761Y-108327380D01*
X110305952Y-108303571D01*
X111067857Y-108351190D02*
X110782142Y-108351190D01*
X110925000Y-108351190D02*
X110925000Y-107851190D01*
X110877380Y-107922619D01*
X110829761Y-107970238D01*
X110782142Y-107994047D01*
X111377380Y-107851190D02*
X111425000Y-107851190D01*
X111472619Y-107875000D01*
X111496428Y-107898809D01*
X111520238Y-107946428D01*
X111544047Y-108041666D01*
X111544047Y-108160714D01*
X111520238Y-108255952D01*
X111496428Y-108303571D01*
X111472619Y-108327380D01*
X111425000Y-108351190D01*
X111377380Y-108351190D01*
X111329761Y-108327380D01*
X111305952Y-108303571D01*
X111282142Y-108255952D01*
X111258333Y-108160714D01*
X111258333Y-108041666D01*
X111282142Y-107946428D01*
X111305952Y-107898809D01*
X111329761Y-107875000D01*
X111377380Y-107851190D01*
D14*
X111492857Y-109355952D02*
X111359523Y-109165476D01*
X111264285Y-109355952D02*
X111264285Y-108955952D01*
X111416666Y-108955952D01*
X111454761Y-108975000D01*
X111473809Y-108994047D01*
X111492857Y-109032142D01*
X111492857Y-109089285D01*
X111473809Y-109127380D01*
X111454761Y-109146428D01*
X111416666Y-109165476D01*
X111264285Y-109165476D01*
X111873809Y-109355952D02*
X111645238Y-109355952D01*
X111759523Y-109355952D02*
X111759523Y-108955952D01*
X111721428Y-109013095D01*
X111683333Y-109051190D01*
X111645238Y-109070238D01*
X112007142Y-108955952D02*
X112254761Y-108955952D01*
X112121428Y-109108333D01*
X112178571Y-109108333D01*
X112216666Y-109127380D01*
X112235714Y-109146428D01*
X112254761Y-109184523D01*
X112254761Y-109279761D01*
X112235714Y-109317857D01*
X112216666Y-109336904D01*
X112178571Y-109355952D01*
X112064285Y-109355952D01*
X112026190Y-109336904D01*
X112007142Y-109317857D01*
D10*
%TO.C,C17*%
X113603571Y-115551190D02*
X113317857Y-115551190D01*
X113460714Y-115551190D02*
X113460714Y-115051190D01*
X113413095Y-115122619D01*
X113365476Y-115170238D01*
X113317857Y-115194047D01*
X113913095Y-115051190D02*
X113960714Y-115051190D01*
X114008333Y-115075000D01*
X114032142Y-115098809D01*
X114055952Y-115146428D01*
X114079761Y-115241666D01*
X114079761Y-115360714D01*
X114055952Y-115455952D01*
X114032142Y-115503571D01*
X114008333Y-115527380D01*
X113960714Y-115551190D01*
X113913095Y-115551190D01*
X113865476Y-115527380D01*
X113841666Y-115503571D01*
X113817857Y-115455952D01*
X113794047Y-115360714D01*
X113794047Y-115241666D01*
X113817857Y-115146428D01*
X113841666Y-115098809D01*
X113865476Y-115075000D01*
X113913095Y-115051190D01*
X114508333Y-115217857D02*
X114508333Y-115551190D01*
X114294047Y-115217857D02*
X114294047Y-115479761D01*
X114317857Y-115527380D01*
X114365476Y-115551190D01*
X114436904Y-115551190D01*
X114484523Y-115527380D01*
X114508333Y-115503571D01*
D12*
X113603571Y-114328571D02*
X113579761Y-114352380D01*
X113508333Y-114376190D01*
X113460714Y-114376190D01*
X113389285Y-114352380D01*
X113341666Y-114304761D01*
X113317857Y-114257142D01*
X113294047Y-114161904D01*
X113294047Y-114090476D01*
X113317857Y-113995238D01*
X113341666Y-113947619D01*
X113389285Y-113900000D01*
X113460714Y-113876190D01*
X113508333Y-113876190D01*
X113579761Y-113900000D01*
X113603571Y-113923809D01*
X114079761Y-114376190D02*
X113794047Y-114376190D01*
X113936904Y-114376190D02*
X113936904Y-113876190D01*
X113889285Y-113947619D01*
X113841666Y-113995238D01*
X113794047Y-114019047D01*
X114246428Y-113876190D02*
X114579761Y-113876190D01*
X114365476Y-114376190D01*
D10*
%TO.C,C3*%
X151001190Y-125584523D02*
X151001190Y-125870238D01*
X151001190Y-125727380D02*
X150501190Y-125727380D01*
X150572619Y-125775000D01*
X150620238Y-125822619D01*
X150644047Y-125870238D01*
X150501190Y-125275000D02*
X150501190Y-125227380D01*
X150525000Y-125179761D01*
X150548809Y-125155952D01*
X150596428Y-125132142D01*
X150691666Y-125108333D01*
X150810714Y-125108333D01*
X150905952Y-125132142D01*
X150953571Y-125155952D01*
X150977380Y-125179761D01*
X151001190Y-125227380D01*
X151001190Y-125275000D01*
X150977380Y-125322619D01*
X150953571Y-125346428D01*
X150905952Y-125370238D01*
X150810714Y-125394047D01*
X150691666Y-125394047D01*
X150596428Y-125370238D01*
X150548809Y-125346428D01*
X150525000Y-125322619D01*
X150501190Y-125275000D01*
X150501190Y-124798809D02*
X150501190Y-124751190D01*
X150525000Y-124703571D01*
X150548809Y-124679761D01*
X150596428Y-124655952D01*
X150691666Y-124632142D01*
X150810714Y-124632142D01*
X150905952Y-124655952D01*
X150953571Y-124679761D01*
X150977380Y-124703571D01*
X151001190Y-124751190D01*
X151001190Y-124798809D01*
X150977380Y-124846428D01*
X150953571Y-124870238D01*
X150905952Y-124894047D01*
X150810714Y-124917857D01*
X150691666Y-124917857D01*
X150596428Y-124894047D01*
X150548809Y-124870238D01*
X150525000Y-124846428D01*
X150501190Y-124798809D01*
X150667857Y-124417857D02*
X151001190Y-124417857D01*
X150715476Y-124417857D02*
X150691666Y-124394047D01*
X150667857Y-124346428D01*
X150667857Y-124275000D01*
X150691666Y-124227380D01*
X150739285Y-124203571D01*
X151001190Y-124203571D01*
D11*
X151669285Y-125041666D02*
X151681190Y-125053571D01*
X151693095Y-125089285D01*
X151693095Y-125113095D01*
X151681190Y-125148809D01*
X151657380Y-125172619D01*
X151633571Y-125184523D01*
X151585952Y-125196428D01*
X151550238Y-125196428D01*
X151502619Y-125184523D01*
X151478809Y-125172619D01*
X151455000Y-125148809D01*
X151443095Y-125113095D01*
X151443095Y-125089285D01*
X151455000Y-125053571D01*
X151466904Y-125041666D01*
X151443095Y-124958333D02*
X151443095Y-124803571D01*
X151538333Y-124886904D01*
X151538333Y-124851190D01*
X151550238Y-124827380D01*
X151562142Y-124815476D01*
X151585952Y-124803571D01*
X151645476Y-124803571D01*
X151669285Y-124815476D01*
X151681190Y-124827380D01*
X151693095Y-124851190D01*
X151693095Y-124922619D01*
X151681190Y-124946428D01*
X151669285Y-124958333D01*
D10*
%TO.C,R3*%
X120282142Y-82101190D02*
X120282142Y-81601190D01*
X120401190Y-81601190D01*
X120472619Y-81625000D01*
X120520238Y-81672619D01*
X120544047Y-81720238D01*
X120567857Y-81815476D01*
X120567857Y-81886904D01*
X120544047Y-81982142D01*
X120520238Y-82029761D01*
X120472619Y-82077380D01*
X120401190Y-82101190D01*
X120282142Y-82101190D01*
X120782142Y-82101190D02*
X120782142Y-81601190D01*
X121067857Y-82101190D01*
X121067857Y-81601190D01*
X121305952Y-82101190D02*
X121305952Y-81601190D01*
X121496428Y-81601190D01*
X121544047Y-81625000D01*
X121567857Y-81648809D01*
X121591666Y-81696428D01*
X121591666Y-81767857D01*
X121567857Y-81815476D01*
X121544047Y-81839285D01*
X121496428Y-81863095D01*
X121305952Y-81863095D01*
D12*
X118291666Y-82751190D02*
X118125000Y-82513095D01*
X118005952Y-82751190D02*
X118005952Y-82251190D01*
X118196428Y-82251190D01*
X118244047Y-82275000D01*
X118267857Y-82298809D01*
X118291666Y-82346428D01*
X118291666Y-82417857D01*
X118267857Y-82465476D01*
X118244047Y-82489285D01*
X118196428Y-82513095D01*
X118005952Y-82513095D01*
X118458333Y-82251190D02*
X118767857Y-82251190D01*
X118601190Y-82441666D01*
X118672619Y-82441666D01*
X118720238Y-82465476D01*
X118744047Y-82489285D01*
X118767857Y-82536904D01*
X118767857Y-82655952D01*
X118744047Y-82703571D01*
X118720238Y-82727380D01*
X118672619Y-82751190D01*
X118529761Y-82751190D01*
X118482142Y-82727380D01*
X118458333Y-82703571D01*
D10*
%TO.C,C6*%
X147576190Y-122584523D02*
X147576190Y-122870238D01*
X147576190Y-122727380D02*
X147076190Y-122727380D01*
X147147619Y-122775000D01*
X147195238Y-122822619D01*
X147219047Y-122870238D01*
X147076190Y-122275000D02*
X147076190Y-122227380D01*
X147100000Y-122179761D01*
X147123809Y-122155952D01*
X147171428Y-122132142D01*
X147266666Y-122108333D01*
X147385714Y-122108333D01*
X147480952Y-122132142D01*
X147528571Y-122155952D01*
X147552380Y-122179761D01*
X147576190Y-122227380D01*
X147576190Y-122275000D01*
X147552380Y-122322619D01*
X147528571Y-122346428D01*
X147480952Y-122370238D01*
X147385714Y-122394047D01*
X147266666Y-122394047D01*
X147171428Y-122370238D01*
X147123809Y-122346428D01*
X147100000Y-122322619D01*
X147076190Y-122275000D01*
X147076190Y-121798809D02*
X147076190Y-121751190D01*
X147100000Y-121703571D01*
X147123809Y-121679761D01*
X147171428Y-121655952D01*
X147266666Y-121632142D01*
X147385714Y-121632142D01*
X147480952Y-121655952D01*
X147528571Y-121679761D01*
X147552380Y-121703571D01*
X147576190Y-121751190D01*
X147576190Y-121798809D01*
X147552380Y-121846428D01*
X147528571Y-121870238D01*
X147480952Y-121894047D01*
X147385714Y-121917857D01*
X147266666Y-121917857D01*
X147171428Y-121894047D01*
X147123809Y-121870238D01*
X147100000Y-121846428D01*
X147076190Y-121798809D01*
X147242857Y-121417857D02*
X147576190Y-121417857D01*
X147290476Y-121417857D02*
X147266666Y-121394047D01*
X147242857Y-121346428D01*
X147242857Y-121275000D01*
X147266666Y-121227380D01*
X147314285Y-121203571D01*
X147576190Y-121203571D01*
D11*
X148264285Y-121979166D02*
X148276190Y-121991071D01*
X148288095Y-122026785D01*
X148288095Y-122050595D01*
X148276190Y-122086309D01*
X148252380Y-122110119D01*
X148228571Y-122122023D01*
X148180952Y-122133928D01*
X148145238Y-122133928D01*
X148097619Y-122122023D01*
X148073809Y-122110119D01*
X148050000Y-122086309D01*
X148038095Y-122050595D01*
X148038095Y-122026785D01*
X148050000Y-121991071D01*
X148061904Y-121979166D01*
X148038095Y-121764880D02*
X148038095Y-121812500D01*
X148050000Y-121836309D01*
X148061904Y-121848214D01*
X148097619Y-121872023D01*
X148145238Y-121883928D01*
X148240476Y-121883928D01*
X148264285Y-121872023D01*
X148276190Y-121860119D01*
X148288095Y-121836309D01*
X148288095Y-121788690D01*
X148276190Y-121764880D01*
X148264285Y-121752976D01*
X148240476Y-121741071D01*
X148180952Y-121741071D01*
X148157142Y-121752976D01*
X148145238Y-121764880D01*
X148133333Y-121788690D01*
X148133333Y-121836309D01*
X148145238Y-121860119D01*
X148157142Y-121872023D01*
X148180952Y-121883928D01*
D10*
%TO.C,R6*%
X126360714Y-102148809D02*
X126384523Y-102125000D01*
X126432142Y-102101190D01*
X126551190Y-102101190D01*
X126598809Y-102125000D01*
X126622619Y-102148809D01*
X126646428Y-102196428D01*
X126646428Y-102244047D01*
X126622619Y-102315476D01*
X126336904Y-102601190D01*
X126646428Y-102601190D01*
X126860714Y-102553571D02*
X126884523Y-102577380D01*
X126860714Y-102601190D01*
X126836904Y-102577380D01*
X126860714Y-102553571D01*
X126860714Y-102601190D01*
X127075000Y-102148809D02*
X127098809Y-102125000D01*
X127146428Y-102101190D01*
X127265476Y-102101190D01*
X127313095Y-102125000D01*
X127336904Y-102148809D01*
X127360714Y-102196428D01*
X127360714Y-102244047D01*
X127336904Y-102315476D01*
X127051190Y-102601190D01*
X127360714Y-102601190D01*
X127575000Y-102601190D02*
X127575000Y-102101190D01*
X127860714Y-102601190D02*
X127646428Y-102315476D01*
X127860714Y-102101190D02*
X127575000Y-102386904D01*
X128717857Y-102601190D02*
X128432142Y-102601190D01*
X128575000Y-102601190D02*
X128575000Y-102101190D01*
X128527380Y-102172619D01*
X128479761Y-102220238D01*
X128432142Y-102244047D01*
X128908333Y-102601190D02*
X129289285Y-102101190D01*
X128979761Y-102101190D02*
X129027380Y-102125000D01*
X129051190Y-102172619D01*
X129027380Y-102220238D01*
X128979761Y-102244047D01*
X128932142Y-102220238D01*
X128908333Y-102172619D01*
X128932142Y-102125000D01*
X128979761Y-102101190D01*
X129265476Y-102577380D02*
X129289285Y-102529761D01*
X129265476Y-102482142D01*
X129217857Y-102458333D01*
X129170238Y-102482142D01*
X129146428Y-102529761D01*
X129170238Y-102577380D01*
X129217857Y-102601190D01*
X129265476Y-102577380D01*
D11*
X125208333Y-102488095D02*
X125125000Y-102369047D01*
X125065476Y-102488095D02*
X125065476Y-102238095D01*
X125160714Y-102238095D01*
X125184523Y-102250000D01*
X125196428Y-102261904D01*
X125208333Y-102285714D01*
X125208333Y-102321428D01*
X125196428Y-102345238D01*
X125184523Y-102357142D01*
X125160714Y-102369047D01*
X125065476Y-102369047D01*
X125422619Y-102238095D02*
X125375000Y-102238095D01*
X125351190Y-102250000D01*
X125339285Y-102261904D01*
X125315476Y-102297619D01*
X125303571Y-102345238D01*
X125303571Y-102440476D01*
X125315476Y-102464285D01*
X125327380Y-102476190D01*
X125351190Y-102488095D01*
X125398809Y-102488095D01*
X125422619Y-102476190D01*
X125434523Y-102464285D01*
X125446428Y-102440476D01*
X125446428Y-102380952D01*
X125434523Y-102357142D01*
X125422619Y-102345238D01*
X125398809Y-102333333D01*
X125351190Y-102333333D01*
X125327380Y-102345238D01*
X125315476Y-102357142D01*
X125303571Y-102380952D01*
D10*
%TO.C,U1*%
X115752380Y-125288690D02*
X116085714Y-125288690D01*
X115871428Y-125788690D01*
X116490476Y-125455357D02*
X116490476Y-125788690D01*
X116371428Y-125264880D02*
X116252380Y-125622023D01*
X116561904Y-125622023D01*
X116990476Y-125788690D02*
X116752380Y-125788690D01*
X116752380Y-125288690D01*
X117085714Y-125288690D02*
X117252380Y-125788690D01*
X117419047Y-125288690D01*
X117871428Y-125741071D02*
X117847619Y-125764880D01*
X117776190Y-125788690D01*
X117728571Y-125788690D01*
X117657142Y-125764880D01*
X117609523Y-125717261D01*
X117585714Y-125669642D01*
X117561904Y-125574404D01*
X117561904Y-125502976D01*
X117585714Y-125407738D01*
X117609523Y-125360119D01*
X117657142Y-125312500D01*
X117728571Y-125288690D01*
X117776190Y-125288690D01*
X117847619Y-125312500D01*
X117871428Y-125336309D01*
X118347619Y-125788690D02*
X118061904Y-125788690D01*
X118204761Y-125788690D02*
X118204761Y-125288690D01*
X118157142Y-125360119D01*
X118109523Y-125407738D01*
X118061904Y-125431547D01*
X118823809Y-125312500D02*
X118776190Y-125288690D01*
X118704761Y-125288690D01*
X118633333Y-125312500D01*
X118585714Y-125360119D01*
X118561904Y-125407738D01*
X118538095Y-125502976D01*
X118538095Y-125574404D01*
X118561904Y-125669642D01*
X118585714Y-125717261D01*
X118633333Y-125764880D01*
X118704761Y-125788690D01*
X118752380Y-125788690D01*
X118823809Y-125764880D01*
X118847619Y-125741071D01*
X118847619Y-125574404D01*
X118752380Y-125574404D01*
X119157142Y-125288690D02*
X119204761Y-125288690D01*
X119252380Y-125312500D01*
X119276190Y-125336309D01*
X119300000Y-125383928D01*
X119323809Y-125479166D01*
X119323809Y-125598214D01*
X119300000Y-125693452D01*
X119276190Y-125741071D01*
X119252380Y-125764880D01*
X119204761Y-125788690D01*
X119157142Y-125788690D01*
X119109523Y-125764880D01*
X119085714Y-125741071D01*
X119061904Y-125693452D01*
X119038095Y-125598214D01*
X119038095Y-125479166D01*
X119061904Y-125383928D01*
X119085714Y-125336309D01*
X119109523Y-125312500D01*
X119157142Y-125288690D01*
X119490476Y-125288690D02*
X119823809Y-125288690D01*
X119609523Y-125788690D01*
X119990476Y-125764880D02*
X120061904Y-125788690D01*
X120180952Y-125788690D01*
X120228571Y-125764880D01*
X120252380Y-125741071D01*
X120276190Y-125693452D01*
X120276190Y-125645833D01*
X120252380Y-125598214D01*
X120228571Y-125574404D01*
X120180952Y-125550595D01*
X120085714Y-125526785D01*
X120038095Y-125502976D01*
X120014285Y-125479166D01*
X119990476Y-125431547D01*
X119990476Y-125383928D01*
X120014285Y-125336309D01*
X120038095Y-125312500D01*
X120085714Y-125288690D01*
X120204761Y-125288690D01*
X120276190Y-125312500D01*
X120490476Y-125526785D02*
X120657142Y-125526785D01*
X120728571Y-125788690D02*
X120490476Y-125788690D01*
X120490476Y-125288690D01*
X120728571Y-125288690D01*
X120942857Y-125598214D02*
X121323809Y-125598214D01*
X121514285Y-125288690D02*
X121847619Y-125288690D01*
X121633333Y-125788690D01*
D15*
X118526190Y-127593452D02*
X118930952Y-127593452D01*
X118978571Y-127569642D01*
X119002380Y-127545833D01*
X119026190Y-127498214D01*
X119026190Y-127402976D01*
X119002380Y-127355357D01*
X118978571Y-127331547D01*
X118930952Y-127307738D01*
X118526190Y-127307738D01*
X119026190Y-126807738D02*
X119026190Y-127093452D01*
X119026190Y-126950595D02*
X118526190Y-126950595D01*
X118597619Y-126998214D01*
X118645238Y-127045833D01*
X118669047Y-127093452D01*
D10*
%TO.C,R8*%
X152473809Y-61164285D02*
X152450000Y-61140476D01*
X152426190Y-61092857D01*
X152426190Y-60973809D01*
X152450000Y-60926190D01*
X152473809Y-60902380D01*
X152521428Y-60878571D01*
X152569047Y-60878571D01*
X152640476Y-60902380D01*
X152926190Y-61188095D01*
X152926190Y-60878571D01*
X152878571Y-60664285D02*
X152902380Y-60640476D01*
X152926190Y-60664285D01*
X152902380Y-60688095D01*
X152878571Y-60664285D01*
X152926190Y-60664285D01*
X152473809Y-60450000D02*
X152450000Y-60426190D01*
X152426190Y-60378571D01*
X152426190Y-60259523D01*
X152450000Y-60211904D01*
X152473809Y-60188095D01*
X152521428Y-60164285D01*
X152569047Y-60164285D01*
X152640476Y-60188095D01*
X152926190Y-60473809D01*
X152926190Y-60164285D01*
X152926190Y-59950000D02*
X152426190Y-59950000D01*
X152926190Y-59664285D02*
X152640476Y-59878571D01*
X152426190Y-59664285D02*
X152711904Y-59950000D01*
X152926190Y-58807142D02*
X152926190Y-59092857D01*
X152926190Y-58950000D02*
X152426190Y-58950000D01*
X152497619Y-58997619D01*
X152545238Y-59045238D01*
X152569047Y-59092857D01*
X152926190Y-58616666D02*
X152426190Y-58235714D01*
X152426190Y-58545238D02*
X152450000Y-58497619D01*
X152497619Y-58473809D01*
X152545238Y-58497619D01*
X152569047Y-58545238D01*
X152545238Y-58592857D01*
X152497619Y-58616666D01*
X152450000Y-58592857D01*
X152426190Y-58545238D01*
X152902380Y-58259523D02*
X152854761Y-58235714D01*
X152807142Y-58259523D01*
X152783333Y-58307142D01*
X152807142Y-58354761D01*
X152854761Y-58378571D01*
X152902380Y-58354761D01*
X152926190Y-58307142D01*
X152902380Y-58259523D01*
D11*
X151588095Y-57166666D02*
X151469047Y-57250000D01*
X151588095Y-57309523D02*
X151338095Y-57309523D01*
X151338095Y-57214285D01*
X151350000Y-57190476D01*
X151361904Y-57178571D01*
X151385714Y-57166666D01*
X151421428Y-57166666D01*
X151445238Y-57178571D01*
X151457142Y-57190476D01*
X151469047Y-57214285D01*
X151469047Y-57309523D01*
X151445238Y-57023809D02*
X151433333Y-57047619D01*
X151421428Y-57059523D01*
X151397619Y-57071428D01*
X151385714Y-57071428D01*
X151361904Y-57059523D01*
X151350000Y-57047619D01*
X151338095Y-57023809D01*
X151338095Y-56976190D01*
X151350000Y-56952380D01*
X151361904Y-56940476D01*
X151385714Y-56928571D01*
X151397619Y-56928571D01*
X151421428Y-56940476D01*
X151433333Y-56952380D01*
X151445238Y-56976190D01*
X151445238Y-57023809D01*
X151457142Y-57047619D01*
X151469047Y-57059523D01*
X151492857Y-57071428D01*
X151540476Y-57071428D01*
X151564285Y-57059523D01*
X151576190Y-57047619D01*
X151588095Y-57023809D01*
X151588095Y-56976190D01*
X151576190Y-56952380D01*
X151564285Y-56940476D01*
X151540476Y-56928571D01*
X151492857Y-56928571D01*
X151469047Y-56940476D01*
X151457142Y-56952380D01*
X151445238Y-56976190D01*
D12*
%TO.C,D1*%
X117380952Y-134494642D02*
X117380952Y-134685119D01*
X116980952Y-134685119D01*
X117171428Y-134361309D02*
X117171428Y-134227976D01*
X117380952Y-134170833D02*
X117380952Y-134361309D01*
X116980952Y-134361309D01*
X116980952Y-134170833D01*
X117380952Y-133999404D02*
X116980952Y-133999404D01*
X116980952Y-133904166D01*
X117000000Y-133847023D01*
X117038095Y-133808928D01*
X117076190Y-133789880D01*
X117152380Y-133770833D01*
X117209523Y-133770833D01*
X117285714Y-133789880D01*
X117323809Y-133808928D01*
X117361904Y-133847023D01*
X117380952Y-133904166D01*
X117380952Y-133999404D01*
X117000000Y-133085119D02*
X116980952Y-133123214D01*
X116980952Y-133180357D01*
X117000000Y-133237500D01*
X117038095Y-133275595D01*
X117076190Y-133294642D01*
X117152380Y-133313690D01*
X117209523Y-133313690D01*
X117285714Y-133294642D01*
X117323809Y-133275595D01*
X117361904Y-133237500D01*
X117380952Y-133180357D01*
X117380952Y-133142261D01*
X117361904Y-133085119D01*
X117342857Y-133066071D01*
X117209523Y-133066071D01*
X117209523Y-133142261D01*
X117380952Y-132894642D02*
X117114285Y-132894642D01*
X117190476Y-132894642D02*
X117152380Y-132875595D01*
X117133333Y-132856547D01*
X117114285Y-132818452D01*
X117114285Y-132780357D01*
X117361904Y-132494642D02*
X117380952Y-132532738D01*
X117380952Y-132608928D01*
X117361904Y-132647023D01*
X117323809Y-132666071D01*
X117171428Y-132666071D01*
X117133333Y-132647023D01*
X117114285Y-132608928D01*
X117114285Y-132532738D01*
X117133333Y-132494642D01*
X117171428Y-132475595D01*
X117209523Y-132475595D01*
X117247619Y-132666071D01*
X117361904Y-132151785D02*
X117380952Y-132189880D01*
X117380952Y-132266071D01*
X117361904Y-132304166D01*
X117323809Y-132323214D01*
X117171428Y-132323214D01*
X117133333Y-132304166D01*
X117114285Y-132266071D01*
X117114285Y-132189880D01*
X117133333Y-132151785D01*
X117171428Y-132132738D01*
X117209523Y-132132738D01*
X117247619Y-132323214D01*
X117114285Y-131961309D02*
X117380952Y-131961309D01*
X117152380Y-131961309D02*
X117133333Y-131942261D01*
X117114285Y-131904166D01*
X117114285Y-131847023D01*
X117133333Y-131808928D01*
X117171428Y-131789880D01*
X117380952Y-131789880D01*
D14*
X118130952Y-133782738D02*
X117730952Y-133782738D01*
X117730952Y-133687500D01*
X117750000Y-133630357D01*
X117788095Y-133592261D01*
X117826190Y-133573214D01*
X117902380Y-133554166D01*
X117959523Y-133554166D01*
X118035714Y-133573214D01*
X118073809Y-133592261D01*
X118111904Y-133630357D01*
X118130952Y-133687500D01*
X118130952Y-133782738D01*
X118130952Y-133173214D02*
X118130952Y-133401785D01*
X118130952Y-133287500D02*
X117730952Y-133287500D01*
X117788095Y-133325595D01*
X117826190Y-133363690D01*
X117845238Y-133401785D01*
D10*
%TO.C,C5*%
X147526190Y-125609523D02*
X147526190Y-125895238D01*
X147526190Y-125752380D02*
X147026190Y-125752380D01*
X147097619Y-125800000D01*
X147145238Y-125847619D01*
X147169047Y-125895238D01*
X147026190Y-125300000D02*
X147026190Y-125252380D01*
X147050000Y-125204761D01*
X147073809Y-125180952D01*
X147121428Y-125157142D01*
X147216666Y-125133333D01*
X147335714Y-125133333D01*
X147430952Y-125157142D01*
X147478571Y-125180952D01*
X147502380Y-125204761D01*
X147526190Y-125252380D01*
X147526190Y-125300000D01*
X147502380Y-125347619D01*
X147478571Y-125371428D01*
X147430952Y-125395238D01*
X147335714Y-125419047D01*
X147216666Y-125419047D01*
X147121428Y-125395238D01*
X147073809Y-125371428D01*
X147050000Y-125347619D01*
X147026190Y-125300000D01*
X147026190Y-124823809D02*
X147026190Y-124776190D01*
X147050000Y-124728571D01*
X147073809Y-124704761D01*
X147121428Y-124680952D01*
X147216666Y-124657142D01*
X147335714Y-124657142D01*
X147430952Y-124680952D01*
X147478571Y-124704761D01*
X147502380Y-124728571D01*
X147526190Y-124776190D01*
X147526190Y-124823809D01*
X147502380Y-124871428D01*
X147478571Y-124895238D01*
X147430952Y-124919047D01*
X147335714Y-124942857D01*
X147216666Y-124942857D01*
X147121428Y-124919047D01*
X147073809Y-124895238D01*
X147050000Y-124871428D01*
X147026190Y-124823809D01*
X147192857Y-124442857D02*
X147526190Y-124442857D01*
X147240476Y-124442857D02*
X147216666Y-124419047D01*
X147192857Y-124371428D01*
X147192857Y-124300000D01*
X147216666Y-124252380D01*
X147264285Y-124228571D01*
X147526190Y-124228571D01*
D11*
X148239285Y-125054166D02*
X148251190Y-125066071D01*
X148263095Y-125101785D01*
X148263095Y-125125595D01*
X148251190Y-125161309D01*
X148227380Y-125185119D01*
X148203571Y-125197023D01*
X148155952Y-125208928D01*
X148120238Y-125208928D01*
X148072619Y-125197023D01*
X148048809Y-125185119D01*
X148025000Y-125161309D01*
X148013095Y-125125595D01*
X148013095Y-125101785D01*
X148025000Y-125066071D01*
X148036904Y-125054166D01*
X148013095Y-124827976D02*
X148013095Y-124947023D01*
X148132142Y-124958928D01*
X148120238Y-124947023D01*
X148108333Y-124923214D01*
X148108333Y-124863690D01*
X148120238Y-124839880D01*
X148132142Y-124827976D01*
X148155952Y-124816071D01*
X148215476Y-124816071D01*
X148239285Y-124827976D01*
X148251190Y-124839880D01*
X148263095Y-124863690D01*
X148263095Y-124923214D01*
X148251190Y-124947023D01*
X148239285Y-124958928D01*
D10*
%TO.C,C8*%
X150981190Y-122572023D02*
X150981190Y-122857738D01*
X150981190Y-122714880D02*
X150481190Y-122714880D01*
X150552619Y-122762500D01*
X150600238Y-122810119D01*
X150624047Y-122857738D01*
X150481190Y-122262500D02*
X150481190Y-122214880D01*
X150505000Y-122167261D01*
X150528809Y-122143452D01*
X150576428Y-122119642D01*
X150671666Y-122095833D01*
X150790714Y-122095833D01*
X150885952Y-122119642D01*
X150933571Y-122143452D01*
X150957380Y-122167261D01*
X150981190Y-122214880D01*
X150981190Y-122262500D01*
X150957380Y-122310119D01*
X150933571Y-122333928D01*
X150885952Y-122357738D01*
X150790714Y-122381547D01*
X150671666Y-122381547D01*
X150576428Y-122357738D01*
X150528809Y-122333928D01*
X150505000Y-122310119D01*
X150481190Y-122262500D01*
X150481190Y-121786309D02*
X150481190Y-121738690D01*
X150505000Y-121691071D01*
X150528809Y-121667261D01*
X150576428Y-121643452D01*
X150671666Y-121619642D01*
X150790714Y-121619642D01*
X150885952Y-121643452D01*
X150933571Y-121667261D01*
X150957380Y-121691071D01*
X150981190Y-121738690D01*
X150981190Y-121786309D01*
X150957380Y-121833928D01*
X150933571Y-121857738D01*
X150885952Y-121881547D01*
X150790714Y-121905357D01*
X150671666Y-121905357D01*
X150576428Y-121881547D01*
X150528809Y-121857738D01*
X150505000Y-121833928D01*
X150481190Y-121786309D01*
X150647857Y-121405357D02*
X150981190Y-121405357D01*
X150695476Y-121405357D02*
X150671666Y-121381547D01*
X150647857Y-121333928D01*
X150647857Y-121262500D01*
X150671666Y-121214880D01*
X150719285Y-121191071D01*
X150981190Y-121191071D01*
D11*
X151669285Y-121966666D02*
X151681190Y-121978571D01*
X151693095Y-122014285D01*
X151693095Y-122038095D01*
X151681190Y-122073809D01*
X151657380Y-122097619D01*
X151633571Y-122109523D01*
X151585952Y-122121428D01*
X151550238Y-122121428D01*
X151502619Y-122109523D01*
X151478809Y-122097619D01*
X151455000Y-122073809D01*
X151443095Y-122038095D01*
X151443095Y-122014285D01*
X151455000Y-121978571D01*
X151466904Y-121966666D01*
X151550238Y-121823809D02*
X151538333Y-121847619D01*
X151526428Y-121859523D01*
X151502619Y-121871428D01*
X151490714Y-121871428D01*
X151466904Y-121859523D01*
X151455000Y-121847619D01*
X151443095Y-121823809D01*
X151443095Y-121776190D01*
X151455000Y-121752380D01*
X151466904Y-121740476D01*
X151490714Y-121728571D01*
X151502619Y-121728571D01*
X151526428Y-121740476D01*
X151538333Y-121752380D01*
X151550238Y-121776190D01*
X151550238Y-121823809D01*
X151562142Y-121847619D01*
X151574047Y-121859523D01*
X151597857Y-121871428D01*
X151645476Y-121871428D01*
X151669285Y-121859523D01*
X151681190Y-121847619D01*
X151693095Y-121823809D01*
X151693095Y-121776190D01*
X151681190Y-121752380D01*
X151669285Y-121740476D01*
X151645476Y-121728571D01*
X151597857Y-121728571D01*
X151574047Y-121740476D01*
X151562142Y-121752380D01*
X151550238Y-121776190D01*
D10*
%TO.C,D4*%
X113478571Y-101926190D02*
X113311904Y-101688095D01*
X113192857Y-101926190D02*
X113192857Y-101426190D01*
X113383333Y-101426190D01*
X113430952Y-101450000D01*
X113454761Y-101473809D01*
X113478571Y-101521428D01*
X113478571Y-101592857D01*
X113454761Y-101640476D01*
X113430952Y-101664285D01*
X113383333Y-101688095D01*
X113192857Y-101688095D01*
X113692857Y-101664285D02*
X113859523Y-101664285D01*
X113930952Y-101926190D02*
X113692857Y-101926190D01*
X113692857Y-101426190D01*
X113930952Y-101426190D01*
X114145238Y-101926190D02*
X114145238Y-101426190D01*
X114264285Y-101426190D01*
X114335714Y-101450000D01*
X114383333Y-101497619D01*
X114407142Y-101545238D01*
X114430952Y-101640476D01*
X114430952Y-101711904D01*
X114407142Y-101807142D01*
X114383333Y-101854761D01*
X114335714Y-101902380D01*
X114264285Y-101926190D01*
X114145238Y-101926190D01*
D14*
X113429761Y-102980952D02*
X113429761Y-102580952D01*
X113525000Y-102580952D01*
X113582142Y-102600000D01*
X113620238Y-102638095D01*
X113639285Y-102676190D01*
X113658333Y-102752380D01*
X113658333Y-102809523D01*
X113639285Y-102885714D01*
X113620238Y-102923809D01*
X113582142Y-102961904D01*
X113525000Y-102980952D01*
X113429761Y-102980952D01*
X114001190Y-102714285D02*
X114001190Y-102980952D01*
X113905952Y-102561904D02*
X113810714Y-102847619D01*
X114058333Y-102847619D01*
D10*
%TO.C,C14*%
X119376190Y-106546428D02*
X119376190Y-106832142D01*
X119376190Y-106689285D02*
X118876190Y-106689285D01*
X118947619Y-106736904D01*
X118995238Y-106784523D01*
X119019047Y-106832142D01*
X118876190Y-106236904D02*
X118876190Y-106189285D01*
X118900000Y-106141666D01*
X118923809Y-106117857D01*
X118971428Y-106094047D01*
X119066666Y-106070238D01*
X119185714Y-106070238D01*
X119280952Y-106094047D01*
X119328571Y-106117857D01*
X119352380Y-106141666D01*
X119376190Y-106189285D01*
X119376190Y-106236904D01*
X119352380Y-106284523D01*
X119328571Y-106308333D01*
X119280952Y-106332142D01*
X119185714Y-106355952D01*
X119066666Y-106355952D01*
X118971428Y-106332142D01*
X118923809Y-106308333D01*
X118900000Y-106284523D01*
X118876190Y-106236904D01*
X119042857Y-105641666D02*
X119376190Y-105641666D01*
X119042857Y-105855952D02*
X119304761Y-105855952D01*
X119352380Y-105832142D01*
X119376190Y-105784523D01*
X119376190Y-105713095D01*
X119352380Y-105665476D01*
X119328571Y-105641666D01*
D12*
X120603571Y-107613428D02*
X120627380Y-107637238D01*
X120651190Y-107708666D01*
X120651190Y-107756285D01*
X120627380Y-107827714D01*
X120579761Y-107875333D01*
X120532142Y-107899142D01*
X120436904Y-107922952D01*
X120365476Y-107922952D01*
X120270238Y-107899142D01*
X120222619Y-107875333D01*
X120175000Y-107827714D01*
X120151190Y-107756285D01*
X120151190Y-107708666D01*
X120175000Y-107637238D01*
X120198809Y-107613428D01*
X120651190Y-107137238D02*
X120651190Y-107422952D01*
X120651190Y-107280095D02*
X120151190Y-107280095D01*
X120222619Y-107327714D01*
X120270238Y-107375333D01*
X120294047Y-107422952D01*
X120317857Y-106708666D02*
X120651190Y-106708666D01*
X120127380Y-106827714D02*
X120484523Y-106946761D01*
X120484523Y-106637238D01*
D10*
%TO.C,R15*%
X113151190Y-105209523D02*
X113151190Y-105495238D01*
X113151190Y-105352380D02*
X112651190Y-105352380D01*
X112722619Y-105400000D01*
X112770238Y-105447619D01*
X112794047Y-105495238D01*
X113151190Y-104995238D02*
X112651190Y-104995238D01*
X112960714Y-104947619D02*
X113151190Y-104804761D01*
X112817857Y-104804761D02*
X113008333Y-104995238D01*
D14*
X114180952Y-105407142D02*
X113990476Y-105540476D01*
X114180952Y-105635714D02*
X113780952Y-105635714D01*
X113780952Y-105483333D01*
X113800000Y-105445238D01*
X113819047Y-105426190D01*
X113857142Y-105407142D01*
X113914285Y-105407142D01*
X113952380Y-105426190D01*
X113971428Y-105445238D01*
X113990476Y-105483333D01*
X113990476Y-105635714D01*
X114180952Y-105026190D02*
X114180952Y-105254761D01*
X114180952Y-105140476D02*
X113780952Y-105140476D01*
X113838095Y-105178571D01*
X113876190Y-105216666D01*
X113895238Y-105254761D01*
X113780952Y-104664285D02*
X113780952Y-104854761D01*
X113971428Y-104873809D01*
X113952380Y-104854761D01*
X113933333Y-104816666D01*
X113933333Y-104721428D01*
X113952380Y-104683333D01*
X113971428Y-104664285D01*
X114009523Y-104645238D01*
X114104761Y-104645238D01*
X114142857Y-104664285D01*
X114161904Y-104683333D01*
X114180952Y-104721428D01*
X114180952Y-104816666D01*
X114161904Y-104854761D01*
X114142857Y-104873809D01*
D10*
%TO.C,J8*%
X115701190Y-90566666D02*
X116058333Y-90566666D01*
X116129761Y-90590476D01*
X116177380Y-90638095D01*
X116201190Y-90709523D01*
X116201190Y-90757142D01*
X115915476Y-90257142D02*
X115891666Y-90304761D01*
X115867857Y-90328571D01*
X115820238Y-90352380D01*
X115796428Y-90352380D01*
X115748809Y-90328571D01*
X115725000Y-90304761D01*
X115701190Y-90257142D01*
X115701190Y-90161904D01*
X115725000Y-90114285D01*
X115748809Y-90090476D01*
X115796428Y-90066666D01*
X115820238Y-90066666D01*
X115867857Y-90090476D01*
X115891666Y-90114285D01*
X115915476Y-90161904D01*
X115915476Y-90257142D01*
X115939285Y-90304761D01*
X115963095Y-90328571D01*
X116010714Y-90352380D01*
X116105952Y-90352380D01*
X116153571Y-90328571D01*
X116177380Y-90304761D01*
X116201190Y-90257142D01*
X116201190Y-90161904D01*
X116177380Y-90114285D01*
X116153571Y-90090476D01*
X116105952Y-90066666D01*
X116010714Y-90066666D01*
X115963095Y-90090476D01*
X115939285Y-90114285D01*
X115915476Y-90161904D01*
X110326190Y-94451190D02*
X110730952Y-94451190D01*
X110778571Y-94427380D01*
X110802380Y-94403571D01*
X110826190Y-94355952D01*
X110826190Y-94260714D01*
X110802380Y-94213095D01*
X110778571Y-94189285D01*
X110730952Y-94165476D01*
X110326190Y-94165476D01*
X110326190Y-93784523D02*
X110683333Y-93784523D01*
X110754761Y-93808333D01*
X110802380Y-93855952D01*
X110826190Y-93927380D01*
X110826190Y-93975000D01*
X110778571Y-93260714D02*
X110802380Y-93284523D01*
X110826190Y-93355952D01*
X110826190Y-93403571D01*
X110802380Y-93475000D01*
X110754761Y-93522619D01*
X110707142Y-93546428D01*
X110611904Y-93570238D01*
X110540476Y-93570238D01*
X110445238Y-93546428D01*
X110397619Y-93522619D01*
X110350000Y-93475000D01*
X110326190Y-93403571D01*
X110326190Y-93355952D01*
X110350000Y-93284523D01*
X110373809Y-93260714D01*
X110635714Y-93046428D02*
X110635714Y-92665476D01*
X110826190Y-92427380D02*
X110326190Y-92427380D01*
X110564285Y-92427380D02*
X110564285Y-92141666D01*
X110826190Y-92141666D02*
X110326190Y-92141666D01*
X110826190Y-91903571D02*
X110326190Y-91903571D01*
X110326190Y-91713095D01*
X110350000Y-91665476D01*
X110373809Y-91641666D01*
X110421428Y-91617857D01*
X110492857Y-91617857D01*
X110540476Y-91641666D01*
X110564285Y-91665476D01*
X110588095Y-91713095D01*
X110588095Y-91903571D01*
X110635714Y-91403571D02*
X110635714Y-91022619D01*
X110326190Y-90832142D02*
X110326190Y-90522619D01*
X110516666Y-90689285D01*
X110516666Y-90617857D01*
X110540476Y-90570238D01*
X110564285Y-90546428D01*
X110611904Y-90522619D01*
X110730952Y-90522619D01*
X110778571Y-90546428D01*
X110802380Y-90570238D01*
X110826190Y-90617857D01*
X110826190Y-90760714D01*
X110802380Y-90808333D01*
X110778571Y-90832142D01*
X110635714Y-90308333D02*
X110635714Y-89927380D01*
X110802380Y-89713095D02*
X110826190Y-89641666D01*
X110826190Y-89522619D01*
X110802380Y-89475000D01*
X110778571Y-89451190D01*
X110730952Y-89427380D01*
X110683333Y-89427380D01*
X110635714Y-89451190D01*
X110611904Y-89475000D01*
X110588095Y-89522619D01*
X110564285Y-89617857D01*
X110540476Y-89665476D01*
X110516666Y-89689285D01*
X110469047Y-89713095D01*
X110421428Y-89713095D01*
X110373809Y-89689285D01*
X110350000Y-89665476D01*
X110326190Y-89617857D01*
X110326190Y-89498809D01*
X110350000Y-89427380D01*
X110826190Y-89213095D02*
X110326190Y-89213095D01*
X110683333Y-89046428D01*
X110326190Y-88879761D01*
X110826190Y-88879761D01*
X110326190Y-88713095D02*
X110326190Y-88427380D01*
X110826190Y-88570238D02*
X110326190Y-88570238D01*
X110635714Y-88260714D02*
X110635714Y-87879761D01*
X110326190Y-87713095D02*
X110326190Y-87427380D01*
X110826190Y-87570238D02*
X110326190Y-87570238D01*
X110826190Y-86975000D02*
X110588095Y-87141666D01*
X110826190Y-87260714D02*
X110326190Y-87260714D01*
X110326190Y-87070238D01*
X110350000Y-87022619D01*
X110373809Y-86998809D01*
X110421428Y-86975000D01*
X110492857Y-86975000D01*
X110540476Y-86998809D01*
X110564285Y-87022619D01*
X110588095Y-87070238D01*
X110588095Y-87260714D01*
%TO.C,R5*%
X126410714Y-100498809D02*
X126434523Y-100475000D01*
X126482142Y-100451190D01*
X126601190Y-100451190D01*
X126648809Y-100475000D01*
X126672619Y-100498809D01*
X126696428Y-100546428D01*
X126696428Y-100594047D01*
X126672619Y-100665476D01*
X126386904Y-100951190D01*
X126696428Y-100951190D01*
X126910714Y-100903571D02*
X126934523Y-100927380D01*
X126910714Y-100951190D01*
X126886904Y-100927380D01*
X126910714Y-100903571D01*
X126910714Y-100951190D01*
X127125000Y-100498809D02*
X127148809Y-100475000D01*
X127196428Y-100451190D01*
X127315476Y-100451190D01*
X127363095Y-100475000D01*
X127386904Y-100498809D01*
X127410714Y-100546428D01*
X127410714Y-100594047D01*
X127386904Y-100665476D01*
X127101190Y-100951190D01*
X127410714Y-100951190D01*
X127625000Y-100951190D02*
X127625000Y-100451190D01*
X127910714Y-100951190D02*
X127696428Y-100665476D01*
X127910714Y-100451190D02*
X127625000Y-100736904D01*
X128767857Y-100951190D02*
X128482142Y-100951190D01*
X128625000Y-100951190D02*
X128625000Y-100451190D01*
X128577380Y-100522619D01*
X128529761Y-100570238D01*
X128482142Y-100594047D01*
X128958333Y-100951190D02*
X129339285Y-100451190D01*
X129029761Y-100451190D02*
X129077380Y-100475000D01*
X129101190Y-100522619D01*
X129077380Y-100570238D01*
X129029761Y-100594047D01*
X128982142Y-100570238D01*
X128958333Y-100522619D01*
X128982142Y-100475000D01*
X129029761Y-100451190D01*
X129315476Y-100927380D02*
X129339285Y-100879761D01*
X129315476Y-100832142D01*
X129267857Y-100808333D01*
X129220238Y-100832142D01*
X129196428Y-100879761D01*
X129220238Y-100927380D01*
X129267857Y-100951190D01*
X129315476Y-100927380D01*
D11*
X125208333Y-100838095D02*
X125125000Y-100719047D01*
X125065476Y-100838095D02*
X125065476Y-100588095D01*
X125160714Y-100588095D01*
X125184523Y-100600000D01*
X125196428Y-100611904D01*
X125208333Y-100635714D01*
X125208333Y-100671428D01*
X125196428Y-100695238D01*
X125184523Y-100707142D01*
X125160714Y-100719047D01*
X125065476Y-100719047D01*
X125434523Y-100588095D02*
X125315476Y-100588095D01*
X125303571Y-100707142D01*
X125315476Y-100695238D01*
X125339285Y-100683333D01*
X125398809Y-100683333D01*
X125422619Y-100695238D01*
X125434523Y-100707142D01*
X125446428Y-100730952D01*
X125446428Y-100790476D01*
X125434523Y-100814285D01*
X125422619Y-100826190D01*
X125398809Y-100838095D01*
X125339285Y-100838095D01*
X125315476Y-100826190D01*
X125303571Y-100814285D01*
D13*
%TO.C,U4*%
X135310380Y-121525000D02*
X135548476Y-121525000D01*
X135453238Y-121763095D02*
X135548476Y-121525000D01*
X135453238Y-121286904D01*
X135738952Y-121667857D02*
X135548476Y-121525000D01*
X135738952Y-121382142D01*
D10*
%TO.C,C12*%
X140551190Y-122896428D02*
X140551190Y-123182142D01*
X140551190Y-123039285D02*
X140051190Y-123039285D01*
X140122619Y-123086904D01*
X140170238Y-123134523D01*
X140194047Y-123182142D01*
X140051190Y-122586904D02*
X140051190Y-122539285D01*
X140075000Y-122491666D01*
X140098809Y-122467857D01*
X140146428Y-122444047D01*
X140241666Y-122420238D01*
X140360714Y-122420238D01*
X140455952Y-122444047D01*
X140503571Y-122467857D01*
X140527380Y-122491666D01*
X140551190Y-122539285D01*
X140551190Y-122586904D01*
X140527380Y-122634523D01*
X140503571Y-122658333D01*
X140455952Y-122682142D01*
X140360714Y-122705952D01*
X140241666Y-122705952D01*
X140146428Y-122682142D01*
X140098809Y-122658333D01*
X140075000Y-122634523D01*
X140051190Y-122586904D01*
X140217857Y-121991666D02*
X140551190Y-121991666D01*
X140217857Y-122205952D02*
X140479761Y-122205952D01*
X140527380Y-122182142D01*
X140551190Y-122134523D01*
X140551190Y-122063095D01*
X140527380Y-122015476D01*
X140503571Y-121991666D01*
D12*
X141486571Y-121896428D02*
X141510380Y-121920238D01*
X141534190Y-121991666D01*
X141534190Y-122039285D01*
X141510380Y-122110714D01*
X141462761Y-122158333D01*
X141415142Y-122182142D01*
X141319904Y-122205952D01*
X141248476Y-122205952D01*
X141153238Y-122182142D01*
X141105619Y-122158333D01*
X141058000Y-122110714D01*
X141034190Y-122039285D01*
X141034190Y-121991666D01*
X141058000Y-121920238D01*
X141081809Y-121896428D01*
X141534190Y-121420238D02*
X141534190Y-121705952D01*
X141534190Y-121563095D02*
X141034190Y-121563095D01*
X141105619Y-121610714D01*
X141153238Y-121658333D01*
X141177047Y-121705952D01*
X141081809Y-121229761D02*
X141058000Y-121205952D01*
X141034190Y-121158333D01*
X141034190Y-121039285D01*
X141058000Y-120991666D01*
X141081809Y-120967857D01*
X141129428Y-120944047D01*
X141177047Y-120944047D01*
X141248476Y-120967857D01*
X141534190Y-121253571D01*
X141534190Y-120944047D01*
D10*
%TO.C,D3*%
X115891666Y-101475000D02*
X115844047Y-101451190D01*
X115772619Y-101451190D01*
X115701190Y-101475000D01*
X115653571Y-101522619D01*
X115629761Y-101570238D01*
X115605952Y-101665476D01*
X115605952Y-101736904D01*
X115629761Y-101832142D01*
X115653571Y-101879761D01*
X115701190Y-101927380D01*
X115772619Y-101951190D01*
X115820238Y-101951190D01*
X115891666Y-101927380D01*
X115915476Y-101903571D01*
X115915476Y-101736904D01*
X115820238Y-101736904D01*
X116415476Y-101951190D02*
X116248809Y-101713095D01*
X116129761Y-101951190D02*
X116129761Y-101451190D01*
X116320238Y-101451190D01*
X116367857Y-101475000D01*
X116391666Y-101498809D01*
X116415476Y-101546428D01*
X116415476Y-101617857D01*
X116391666Y-101665476D01*
X116367857Y-101689285D01*
X116320238Y-101713095D01*
X116129761Y-101713095D01*
X116629761Y-101689285D02*
X116796428Y-101689285D01*
X116867857Y-101951190D02*
X116629761Y-101951190D01*
X116629761Y-101451190D01*
X116867857Y-101451190D01*
X117082142Y-101689285D02*
X117248809Y-101689285D01*
X117320238Y-101951190D02*
X117082142Y-101951190D01*
X117082142Y-101451190D01*
X117320238Y-101451190D01*
X117534523Y-101951190D02*
X117534523Y-101451190D01*
X117820238Y-101951190D01*
X117820238Y-101451190D01*
D14*
X116554761Y-102980952D02*
X116554761Y-102580952D01*
X116650000Y-102580952D01*
X116707142Y-102600000D01*
X116745238Y-102638095D01*
X116764285Y-102676190D01*
X116783333Y-102752380D01*
X116783333Y-102809523D01*
X116764285Y-102885714D01*
X116745238Y-102923809D01*
X116707142Y-102961904D01*
X116650000Y-102980952D01*
X116554761Y-102980952D01*
X116916666Y-102580952D02*
X117164285Y-102580952D01*
X117030952Y-102733333D01*
X117088095Y-102733333D01*
X117126190Y-102752380D01*
X117145238Y-102771428D01*
X117164285Y-102809523D01*
X117164285Y-102904761D01*
X117145238Y-102942857D01*
X117126190Y-102961904D01*
X117088095Y-102980952D01*
X116973809Y-102980952D01*
X116935714Y-102961904D01*
X116916666Y-102942857D01*
D10*
%TO.C,J7*%
X135619047Y-50326190D02*
X135619047Y-50730952D01*
X135642857Y-50778571D01*
X135666666Y-50802380D01*
X135714285Y-50826190D01*
X135809523Y-50826190D01*
X135857142Y-50802380D01*
X135880952Y-50778571D01*
X135904761Y-50730952D01*
X135904761Y-50326190D01*
X136119047Y-50802380D02*
X136190476Y-50826190D01*
X136309523Y-50826190D01*
X136357142Y-50802380D01*
X136380952Y-50778571D01*
X136404761Y-50730952D01*
X136404761Y-50683333D01*
X136380952Y-50635714D01*
X136357142Y-50611904D01*
X136309523Y-50588095D01*
X136214285Y-50564285D01*
X136166666Y-50540476D01*
X136142857Y-50516666D01*
X136119047Y-50469047D01*
X136119047Y-50421428D01*
X136142857Y-50373809D01*
X136166666Y-50350000D01*
X136214285Y-50326190D01*
X136333333Y-50326190D01*
X136404761Y-50350000D01*
X136785714Y-50564285D02*
X136857142Y-50588095D01*
X136880952Y-50611904D01*
X136904761Y-50659523D01*
X136904761Y-50730952D01*
X136880952Y-50778571D01*
X136857142Y-50802380D01*
X136809523Y-50826190D01*
X136619047Y-50826190D01*
X136619047Y-50326190D01*
X136785714Y-50326190D01*
X136833333Y-50350000D01*
X136857142Y-50373809D01*
X136880952Y-50421428D01*
X136880952Y-50469047D01*
X136857142Y-50516666D01*
X136833333Y-50540476D01*
X136785714Y-50564285D01*
X136619047Y-50564285D01*
D13*
X135916666Y-52179880D02*
X135916666Y-52894166D01*
X135869047Y-53037023D01*
X135773809Y-53132261D01*
X135630952Y-53179880D01*
X135535714Y-53179880D01*
X136297619Y-52179880D02*
X136964285Y-52179880D01*
X136535714Y-53179880D01*
D10*
%TO.C,J4*%
X121001190Y-103116666D02*
X121358333Y-103116666D01*
X121429761Y-103140476D01*
X121477380Y-103188095D01*
X121501190Y-103259523D01*
X121501190Y-103307142D01*
X121167857Y-102664285D02*
X121501190Y-102664285D01*
X120977380Y-102783333D02*
X121334523Y-102902380D01*
X121334523Y-102592857D01*
%TO.C,C2*%
X153126190Y-121296428D02*
X153126190Y-121582142D01*
X153126190Y-121439285D02*
X152626190Y-121439285D01*
X152697619Y-121486904D01*
X152745238Y-121534523D01*
X152769047Y-121582142D01*
X152626190Y-120986904D02*
X152626190Y-120939285D01*
X152650000Y-120891666D01*
X152673809Y-120867857D01*
X152721428Y-120844047D01*
X152816666Y-120820238D01*
X152935714Y-120820238D01*
X153030952Y-120844047D01*
X153078571Y-120867857D01*
X153102380Y-120891666D01*
X153126190Y-120939285D01*
X153126190Y-120986904D01*
X153102380Y-121034523D01*
X153078571Y-121058333D01*
X153030952Y-121082142D01*
X152935714Y-121105952D01*
X152816666Y-121105952D01*
X152721428Y-121082142D01*
X152673809Y-121058333D01*
X152650000Y-121034523D01*
X152626190Y-120986904D01*
X152792857Y-120391666D02*
X153126190Y-120391666D01*
X152792857Y-120605952D02*
X153054761Y-120605952D01*
X153102380Y-120582142D01*
X153126190Y-120534523D01*
X153126190Y-120463095D01*
X153102380Y-120415476D01*
X153078571Y-120391666D01*
D12*
X153778571Y-123495833D02*
X153802380Y-123519642D01*
X153826190Y-123591071D01*
X153826190Y-123638690D01*
X153802380Y-123710119D01*
X153754761Y-123757738D01*
X153707142Y-123781547D01*
X153611904Y-123805357D01*
X153540476Y-123805357D01*
X153445238Y-123781547D01*
X153397619Y-123757738D01*
X153350000Y-123710119D01*
X153326190Y-123638690D01*
X153326190Y-123591071D01*
X153350000Y-123519642D01*
X153373809Y-123495833D01*
X153373809Y-123305357D02*
X153350000Y-123281547D01*
X153326190Y-123233928D01*
X153326190Y-123114880D01*
X153350000Y-123067261D01*
X153373809Y-123043452D01*
X153421428Y-123019642D01*
X153469047Y-123019642D01*
X153540476Y-123043452D01*
X153826190Y-123329166D01*
X153826190Y-123019642D01*
D13*
%TO.C,B1*%
X111411904Y-123621428D02*
X111983333Y-123621428D01*
X112097619Y-123659523D01*
X112173809Y-123735714D01*
X112211904Y-123850000D01*
X112211904Y-123926190D01*
X112173809Y-123278571D02*
X112211904Y-123164285D01*
X112211904Y-122973809D01*
X112173809Y-122897619D01*
X112135714Y-122859523D01*
X112059523Y-122821428D01*
X111983333Y-122821428D01*
X111907142Y-122859523D01*
X111869047Y-122897619D01*
X111830952Y-122973809D01*
X111792857Y-123126190D01*
X111754761Y-123202380D01*
X111716666Y-123240476D01*
X111640476Y-123278571D01*
X111564285Y-123278571D01*
X111488095Y-123240476D01*
X111450000Y-123202380D01*
X111411904Y-123126190D01*
X111411904Y-122935714D01*
X111450000Y-122821428D01*
X111411904Y-122592857D02*
X111411904Y-122135714D01*
X112211904Y-122364285D02*
X111411904Y-122364285D01*
X111488095Y-121297619D02*
X111450000Y-121259523D01*
X111411904Y-121183333D01*
X111411904Y-120992857D01*
X111450000Y-120916666D01*
X111488095Y-120878571D01*
X111564285Y-120840476D01*
X111640476Y-120840476D01*
X111754761Y-120878571D01*
X112211904Y-121335714D01*
X112211904Y-120840476D01*
X111907142Y-120497619D02*
X111907142Y-119888095D01*
X112211904Y-119507142D02*
X111411904Y-119507142D01*
X111411904Y-119202380D01*
X111450000Y-119126190D01*
X111488095Y-119088095D01*
X111564285Y-119050000D01*
X111678571Y-119050000D01*
X111754761Y-119088095D01*
X111792857Y-119126190D01*
X111830952Y-119202380D01*
X111830952Y-119507142D01*
X112211904Y-118707142D02*
X111411904Y-118707142D01*
X111792857Y-118707142D02*
X111792857Y-118250000D01*
X112211904Y-118250000D02*
X111411904Y-118250000D01*
X115853571Y-121479761D02*
X115901190Y-121336904D01*
X115948809Y-121289285D01*
X116044047Y-121241666D01*
X116186904Y-121241666D01*
X116282142Y-121289285D01*
X116329761Y-121336904D01*
X116377380Y-121432142D01*
X116377380Y-121813095D01*
X115377380Y-121813095D01*
X115377380Y-121479761D01*
X115425000Y-121384523D01*
X115472619Y-121336904D01*
X115567857Y-121289285D01*
X115663095Y-121289285D01*
X115758333Y-121336904D01*
X115805952Y-121384523D01*
X115853571Y-121479761D01*
X115853571Y-121813095D01*
X116377380Y-120289285D02*
X116377380Y-120860714D01*
X116377380Y-120575000D02*
X115377380Y-120575000D01*
X115520238Y-120670238D01*
X115615476Y-120765476D01*
X115663095Y-120860714D01*
D10*
%TO.C,C16*%
X122167857Y-110313095D02*
X122501190Y-110313095D01*
X121977380Y-110432142D02*
X122334523Y-110551190D01*
X122334523Y-110241666D01*
X122453571Y-110051190D02*
X122477380Y-110027380D01*
X122501190Y-110051190D01*
X122477380Y-110075000D01*
X122453571Y-110051190D01*
X122501190Y-110051190D01*
X122001190Y-109860714D02*
X122001190Y-109527380D01*
X122501190Y-109741666D01*
X122167857Y-109122619D02*
X122501190Y-109122619D01*
X122167857Y-109336904D02*
X122429761Y-109336904D01*
X122477380Y-109313095D01*
X122501190Y-109265476D01*
X122501190Y-109194047D01*
X122477380Y-109146428D01*
X122453571Y-109122619D01*
D14*
X120092857Y-109934857D02*
X120073809Y-109953904D01*
X120016666Y-109972952D01*
X119978571Y-109972952D01*
X119921428Y-109953904D01*
X119883333Y-109915809D01*
X119864285Y-109877714D01*
X119845238Y-109801523D01*
X119845238Y-109744380D01*
X119864285Y-109668190D01*
X119883333Y-109630095D01*
X119921428Y-109592000D01*
X119978571Y-109572952D01*
X120016666Y-109572952D01*
X120073809Y-109592000D01*
X120092857Y-109611047D01*
X120473809Y-109972952D02*
X120245238Y-109972952D01*
X120359523Y-109972952D02*
X120359523Y-109572952D01*
X120321428Y-109630095D01*
X120283333Y-109668190D01*
X120245238Y-109687238D01*
X120816666Y-109572952D02*
X120740476Y-109572952D01*
X120702380Y-109592000D01*
X120683333Y-109611047D01*
X120645238Y-109668190D01*
X120626190Y-109744380D01*
X120626190Y-109896761D01*
X120645238Y-109934857D01*
X120664285Y-109953904D01*
X120702380Y-109972952D01*
X120778571Y-109972952D01*
X120816666Y-109953904D01*
X120835714Y-109934857D01*
X120854761Y-109896761D01*
X120854761Y-109801523D01*
X120835714Y-109763428D01*
X120816666Y-109744380D01*
X120778571Y-109725333D01*
X120702380Y-109725333D01*
X120664285Y-109744380D01*
X120645238Y-109763428D01*
X120626190Y-109801523D01*
D10*
%TO.C,R16*%
X111277380Y-110401190D02*
X110991666Y-110401190D01*
X111134523Y-110401190D02*
X111134523Y-109901190D01*
X111086904Y-109972619D01*
X111039285Y-110020238D01*
X110991666Y-110044047D01*
X111586904Y-109901190D02*
X111634523Y-109901190D01*
X111682142Y-109925000D01*
X111705952Y-109948809D01*
X111729761Y-109996428D01*
X111753571Y-110091666D01*
X111753571Y-110210714D01*
X111729761Y-110305952D01*
X111705952Y-110353571D01*
X111682142Y-110377380D01*
X111634523Y-110401190D01*
X111586904Y-110401190D01*
X111539285Y-110377380D01*
X111515476Y-110353571D01*
X111491666Y-110305952D01*
X111467857Y-110210714D01*
X111467857Y-110091666D01*
X111491666Y-109996428D01*
X111515476Y-109948809D01*
X111539285Y-109925000D01*
X111586904Y-109901190D01*
X111967857Y-110401190D02*
X111967857Y-109901190D01*
X112015476Y-110210714D02*
X112158333Y-110401190D01*
X112158333Y-110067857D02*
X111967857Y-110258333D01*
D11*
X111739285Y-111088095D02*
X111655952Y-110969047D01*
X111596428Y-111088095D02*
X111596428Y-110838095D01*
X111691666Y-110838095D01*
X111715476Y-110850000D01*
X111727380Y-110861904D01*
X111739285Y-110885714D01*
X111739285Y-110921428D01*
X111727380Y-110945238D01*
X111715476Y-110957142D01*
X111691666Y-110969047D01*
X111596428Y-110969047D01*
X111977380Y-111088095D02*
X111834523Y-111088095D01*
X111905952Y-111088095D02*
X111905952Y-110838095D01*
X111882142Y-110873809D01*
X111858333Y-110897619D01*
X111834523Y-110909523D01*
X112191666Y-110838095D02*
X112144047Y-110838095D01*
X112120238Y-110850000D01*
X112108333Y-110861904D01*
X112084523Y-110897619D01*
X112072619Y-110945238D01*
X112072619Y-111040476D01*
X112084523Y-111064285D01*
X112096428Y-111076190D01*
X112120238Y-111088095D01*
X112167857Y-111088095D01*
X112191666Y-111076190D01*
X112203571Y-111064285D01*
X112215476Y-111040476D01*
X112215476Y-110980952D01*
X112203571Y-110957142D01*
X112191666Y-110945238D01*
X112167857Y-110933333D01*
X112120238Y-110933333D01*
X112096428Y-110945238D01*
X112084523Y-110957142D01*
X112072619Y-110980952D01*
D10*
%TO.C,R10*%
X157425000Y-125175000D02*
X157425000Y-126175000D01*
X156925000Y-126175000D02*
X156925000Y-125175000D01*
X157425000Y-126175000D02*
X156925000Y-126175000D01*
X156925000Y-125175000D02*
X157425000Y-125175000D01*
%TO.C,R11*%
X120705000Y-86125000D02*
X120205000Y-86125000D01*
X120205000Y-85125000D02*
X120705000Y-85125000D01*
X120205000Y-86125000D02*
X120205000Y-85125000D01*
X120705000Y-85125000D02*
X120705000Y-86125000D01*
%TO.C,R17*%
X111400000Y-112542000D02*
X111400000Y-112042000D01*
X112400000Y-112542000D02*
X111400000Y-112542000D01*
X112400000Y-112042000D02*
X112400000Y-112542000D01*
X111400000Y-112042000D02*
X112400000Y-112042000D01*
D16*
%TO.C,U5*%
X114050000Y-107467000D02*
X118200000Y-107467000D01*
X118200000Y-111617000D02*
X118200000Y-107467000D01*
X114050000Y-111617000D02*
X118200000Y-111617000D01*
X114050000Y-111617000D02*
X114050000Y-107467000D01*
D17*
X117475000Y-106512000D02*
G75*
G03*
X117475000Y-106512000I-100000J0D01*
G01*
D10*
%TO.C,C10*%
X138633000Y-120575000D02*
X139833000Y-120575000D01*
X139833000Y-120575000D02*
X139833000Y-122575000D01*
X139833000Y-122575000D02*
X138633000Y-122575000D01*
X138633000Y-122575000D02*
X138633000Y-120575000D01*
%TO.C,C4*%
X149620000Y-124500000D02*
X150120000Y-124500000D01*
X149620000Y-125500000D02*
X149620000Y-124500000D01*
X150120000Y-124500000D02*
X150120000Y-125500000D01*
X150120000Y-125500000D02*
X149620000Y-125500000D01*
%TO.C,R7*%
X152900000Y-57650000D02*
X152400000Y-57650000D01*
X152400000Y-57650000D02*
X152400000Y-56650000D01*
X152400000Y-56650000D02*
X152900000Y-56650000D01*
X152900000Y-56650000D02*
X152900000Y-57650000D01*
%TO.C,C13*%
X142783000Y-122575000D02*
X142783000Y-120575000D01*
X143983000Y-120575000D02*
X143983000Y-122575000D01*
X143983000Y-122575000D02*
X142783000Y-122575000D01*
X142783000Y-120575000D02*
X143983000Y-120575000D01*
%TO.C,J5*%
X122850000Y-133700000D02*
X129800000Y-133700000D01*
X136250000Y-132700000D02*
X136250000Y-133000000D01*
X129800000Y-128100000D02*
X122750000Y-128100000D01*
X136850000Y-128100000D02*
X136850000Y-132700000D01*
X136750000Y-133000000D02*
X136750000Y-133700000D01*
X136750000Y-133700000D02*
X129800000Y-133700000D01*
X136850000Y-132700000D02*
X136250000Y-132700000D01*
X136250000Y-133000000D02*
X136750000Y-133000000D01*
X123350000Y-132700000D02*
X123350000Y-133000000D01*
X122750000Y-128100000D02*
X122750000Y-132700000D01*
X122850000Y-133000000D02*
X122850000Y-133700000D01*
X123350000Y-133000000D02*
X122850000Y-133000000D01*
X122750000Y-132700000D02*
X123350000Y-132700000D01*
X129800000Y-128100000D02*
X136850000Y-128100000D01*
X124050000Y-128100000D02*
X124550000Y-128807107D01*
X124550000Y-128807107D02*
X125050000Y-128100000D01*
%TO.C,C15*%
X120775000Y-111350000D02*
X120775000Y-112950000D01*
X119975000Y-111350000D02*
X120775000Y-111350000D01*
X119975000Y-112950000D02*
X119975000Y-111350000D01*
X120775000Y-112950000D02*
X119975000Y-112950000D01*
%TO.C,C7*%
X149645000Y-121425000D02*
X150145000Y-121425000D01*
X149645000Y-122425000D02*
X149645000Y-121425000D01*
X150145000Y-121425000D02*
X150145000Y-122425000D01*
X150145000Y-122425000D02*
X149645000Y-122425000D01*
%TO.C,J6*%
X118175000Y-50252500D02*
X118175000Y-55252500D01*
X123425000Y-55762500D02*
X123025000Y-55762500D01*
X124925000Y-50950796D02*
X118925000Y-50950796D01*
X123225000Y-55352500D02*
X123425000Y-55552500D01*
X125675000Y-50250796D02*
X118175000Y-50250796D01*
X123025000Y-55762500D02*
X123025000Y-55552500D01*
X123025000Y-55552500D02*
X123225000Y-55352500D01*
X123425000Y-55762500D02*
X123425000Y-55552500D01*
X125675000Y-50252500D02*
X125675000Y-55252500D01*
X125675000Y-55252500D02*
X118175000Y-55252500D01*
D16*
%TO.C,J2*%
X110600000Y-84625000D02*
X110600000Y-78625000D01*
X110600000Y-78625000D02*
X114850000Y-78625000D01*
X114850000Y-84625000D02*
X110600000Y-84625000D01*
X114850000Y-78625000D02*
X114850000Y-84625000D01*
D18*
X115660000Y-79175000D02*
G75*
G03*
X115660000Y-79175000I-100000J0D01*
G01*
D10*
%TO.C,J9*%
X143040000Y-119420000D02*
X140500000Y-119420000D01*
X138680000Y-115290000D02*
X140500000Y-115290000D01*
X143040000Y-117830000D02*
X149040000Y-117830000D01*
X149040000Y-117830000D02*
X149040000Y-118470000D01*
X143040000Y-114340000D02*
X143040000Y-119420000D01*
X143040000Y-115290000D02*
X149040000Y-115290000D01*
X141135000Y-114340000D02*
X143040000Y-114340000D01*
X138680000Y-118470000D02*
X140500000Y-118470000D01*
X138680000Y-117830000D02*
X140500000Y-117830000D01*
X140500000Y-119420000D02*
X140500000Y-114975000D01*
X138680000Y-117830000D02*
X138680000Y-118470000D01*
X143040000Y-118470000D02*
X149040000Y-118470000D01*
X143040000Y-115930000D02*
X149040000Y-115930000D01*
X140500000Y-114975000D02*
X141135000Y-114340000D01*
X138680000Y-115930000D02*
X140500000Y-115930000D01*
X138680000Y-115290000D02*
X138680000Y-115930000D01*
X149040000Y-115290000D02*
X149040000Y-115930000D01*
D19*
%TO.C,L2*%
X124250000Y-113900000D02*
X122975000Y-115250000D01*
X128075000Y-117950000D02*
X128075000Y-115250000D01*
X124250000Y-119300000D02*
X126800000Y-119300000D01*
X122975000Y-117950000D02*
X124250000Y-119300000D01*
X126800000Y-119300000D02*
X128075000Y-117950000D01*
X122975000Y-115250000D02*
X122975000Y-117950000D01*
X126800000Y-113900000D02*
X124250000Y-113900000D01*
X128075000Y-115250000D02*
X126800000Y-113900000D01*
D10*
%TO.C,J1*%
X120045000Y-67660000D02*
X118225000Y-67660000D01*
X109685000Y-63220000D02*
X109685000Y-62580000D01*
X120045000Y-73380000D02*
X120045000Y-72740000D01*
X109685000Y-70840000D02*
X109685000Y-70200000D01*
X120045000Y-63220000D02*
X120045000Y-62580000D01*
X115685000Y-65760000D02*
X109685000Y-65760000D01*
X115685000Y-70840000D02*
X109685000Y-70840000D01*
X115685000Y-59090000D02*
X118225000Y-59090000D01*
X109685000Y-60680000D02*
X109685000Y-60040000D01*
X117590000Y-76870000D02*
X115685000Y-76870000D01*
X120045000Y-70200000D02*
X118225000Y-70200000D01*
X120045000Y-65120000D02*
X118225000Y-65120000D01*
X115685000Y-63220000D02*
X109685000Y-63220000D01*
X109685000Y-65760000D02*
X109685000Y-65120000D01*
X109685000Y-73380000D02*
X109685000Y-72740000D01*
X115685000Y-68300000D02*
X109685000Y-68300000D01*
X120045000Y-60680000D02*
X118225000Y-60680000D01*
X109685000Y-75920000D02*
X109685000Y-75280000D01*
X120045000Y-65760000D02*
X118225000Y-65760000D01*
X120045000Y-68300000D02*
X120045000Y-67660000D01*
X120045000Y-70840000D02*
X120045000Y-70200000D01*
X120045000Y-72740000D02*
X118225000Y-72740000D01*
X120045000Y-60040000D02*
X118225000Y-60040000D01*
X115685000Y-60040000D02*
X109685000Y-60040000D01*
X118225000Y-76235000D02*
X117590000Y-76870000D01*
X115685000Y-75920000D02*
X109685000Y-75920000D01*
X115685000Y-70200000D02*
X109685000Y-70200000D01*
X109685000Y-68300000D02*
X109685000Y-67660000D01*
X120045000Y-65760000D02*
X120045000Y-65120000D01*
X115685000Y-65120000D02*
X109685000Y-65120000D01*
X120045000Y-73380000D02*
X118225000Y-73380000D01*
X115685000Y-75280000D02*
X109685000Y-75280000D01*
X115685000Y-60680000D02*
X109685000Y-60680000D01*
X120045000Y-63220000D02*
X118225000Y-63220000D01*
X120045000Y-62580000D02*
X118225000Y-62580000D01*
X120045000Y-68300000D02*
X118225000Y-68300000D01*
X115685000Y-62580000D02*
X109685000Y-62580000D01*
X120045000Y-70840000D02*
X118225000Y-70840000D01*
X120045000Y-75920000D02*
X118225000Y-75920000D01*
X120045000Y-60680000D02*
X120045000Y-60040000D01*
X115685000Y-72740000D02*
X109685000Y-72740000D01*
X120045000Y-75280000D02*
X118225000Y-75280000D01*
X115685000Y-67660000D02*
X109685000Y-67660000D01*
X118225000Y-59090000D02*
X118225000Y-76235000D01*
X115685000Y-73380000D02*
X109685000Y-73380000D01*
X115685000Y-76870000D02*
X115685000Y-59090000D01*
X120045000Y-75920000D02*
X120045000Y-75280000D01*
%TO.C,R4*%
X119275000Y-129512500D02*
X120075000Y-129512500D01*
X119275000Y-131112500D02*
X119275000Y-129512500D01*
X120075000Y-131112500D02*
X119275000Y-131112500D01*
X120075000Y-129512500D02*
X120075000Y-131112500D01*
%TO.C,R1*%
X118400000Y-129512500D02*
X118400000Y-131112500D01*
X118400000Y-131112500D02*
X117600000Y-131112500D01*
X117600000Y-131112500D02*
X117600000Y-129512500D01*
X117600000Y-129512500D02*
X118400000Y-129512500D01*
%TO.C,C1*%
X155000000Y-124412500D02*
X155000000Y-122412500D01*
X155000000Y-122412500D02*
X156200000Y-122412500D01*
X156200000Y-122412500D02*
X156200000Y-124412500D01*
X156200000Y-124412500D02*
X155000000Y-124412500D01*
D16*
%TO.C,S1*%
X164025000Y-124127500D02*
X164025000Y-122627500D01*
X164025000Y-122627500D02*
X161775000Y-122627500D01*
X161775000Y-127127500D02*
X158275000Y-127127500D01*
X158275000Y-127127500D02*
X158275000Y-118127500D01*
X161775000Y-122627500D02*
X161775000Y-124127500D01*
X158275000Y-118127500D02*
X161775000Y-118127500D01*
X161775000Y-124127500D02*
X161775000Y-127127500D01*
X161775000Y-118127500D02*
X161775000Y-122627500D01*
X161775000Y-124127500D02*
X164025000Y-124127500D01*
D17*
X158345000Y-127827500D02*
G75*
G03*
X158345000Y-127827500I-120000J0D01*
G01*
D19*
%TO.C,CR1*%
X115256000Y-99679900D02*
X115751300Y-99679900D01*
X118431000Y-97686000D02*
X117669000Y-97178000D01*
X118431000Y-97686000D02*
X117669000Y-97559000D01*
X120844000Y-97470100D02*
X120348700Y-97470100D01*
X115751300Y-97470100D02*
X115256000Y-97470100D01*
X115751300Y-99679900D02*
X115751300Y-97470100D01*
X115751300Y-100556200D02*
X120348700Y-100556200D01*
X120348700Y-96593800D02*
X115751300Y-96593800D01*
X118431000Y-97686000D02*
X117669000Y-97940000D01*
X118431000Y-97686000D02*
X117669000Y-98067000D01*
X118431000Y-97686000D02*
X117669000Y-97051000D01*
X118431000Y-97686000D02*
X117669000Y-97305000D01*
X118431000Y-98321000D02*
X118431000Y-97051000D01*
X120348700Y-99565600D02*
X119358100Y-100556200D01*
X120844000Y-99679900D02*
X120844000Y-97470100D01*
X118431000Y-97686000D02*
X117669000Y-97432000D01*
X118431000Y-97686000D02*
X117669000Y-98321000D01*
X120348700Y-99679900D02*
X120844000Y-99679900D01*
X120348700Y-97470100D02*
X120348700Y-99679900D01*
X118431000Y-97686000D02*
X117669000Y-98194000D01*
X115256000Y-97470100D02*
X115256000Y-99679900D01*
X115751300Y-96593800D02*
X115751300Y-100556200D01*
X117415000Y-97686000D02*
X118685000Y-97686000D01*
X118431000Y-97686000D02*
X117669000Y-97813000D01*
X120348700Y-100556200D02*
X120348700Y-96593800D01*
X120348700Y-97584400D02*
X119358100Y-96593800D01*
X117669000Y-98321000D02*
X117669000Y-97051000D01*
D10*
%TO.C,C18*%
X116400000Y-114750000D02*
X116400000Y-113550000D01*
X118400000Y-114750000D02*
X116400000Y-114750000D01*
X118400000Y-113550000D02*
X118400000Y-114750000D01*
X116400000Y-113550000D02*
X118400000Y-113550000D01*
%TO.C,C9*%
X128950000Y-120625000D02*
X128950000Y-118625000D01*
X130150000Y-118625000D02*
X130150000Y-120625000D01*
X128950000Y-118625000D02*
X130150000Y-118625000D01*
X130150000Y-120625000D02*
X128950000Y-120625000D01*
%TO.C,R12*%
X110925000Y-106600000D02*
X112525000Y-106600000D01*
X112525000Y-107400000D02*
X110925000Y-107400000D01*
X112525000Y-106600000D02*
X112525000Y-107400000D01*
X110925000Y-107400000D02*
X110925000Y-106600000D01*
%TO.C,R9*%
X119130000Y-85125000D02*
X119130000Y-86125000D01*
X119130000Y-86125000D02*
X118630000Y-86125000D01*
X118630000Y-85125000D02*
X119130000Y-85125000D01*
X118630000Y-86125000D02*
X118630000Y-85125000D01*
%TO.C,C11*%
X118500000Y-104392000D02*
X120100000Y-104392000D01*
X120100000Y-104392000D02*
X120100000Y-105192000D01*
X120100000Y-105192000D02*
X118500000Y-105192000D01*
X118500000Y-105192000D02*
X118500000Y-104392000D01*
%TO.C,D2*%
X119775000Y-132687500D02*
X119275000Y-132687500D01*
X120075000Y-134287500D02*
X120075000Y-132987500D01*
X120075000Y-132987500D02*
X119775000Y-132687500D01*
X119275000Y-134287500D02*
X120075000Y-134287500D01*
X119275000Y-132687500D02*
X119275000Y-134287500D01*
D19*
%TO.C,L1*%
X136625000Y-117575000D02*
X136625000Y-115025000D01*
X132575000Y-113750000D02*
X131225000Y-115025000D01*
X132575000Y-118850000D02*
X135275000Y-118850000D01*
X131225000Y-115025000D02*
X131225000Y-117575000D01*
X135275000Y-113750000D02*
X132575000Y-113750000D01*
X131225000Y-117575000D02*
X132575000Y-118850000D01*
X135275000Y-118850000D02*
X136625000Y-117575000D01*
X136625000Y-115025000D02*
X135275000Y-113750000D01*
D13*
%TO.C,U2*%
X145564400Y-56175000D02*
X145564400Y-53175000D01*
X145564400Y-53175000D02*
X148564400Y-53175000D01*
X147564400Y-56175000D02*
X145564400Y-56175000D01*
X148564400Y-55175000D02*
X147564400Y-56175000D01*
X148564400Y-53175000D02*
X148564400Y-55175000D01*
D10*
%TO.C,R14*%
X115650000Y-104350000D02*
X116450000Y-104350000D01*
X115650000Y-105950000D02*
X115650000Y-104350000D01*
X116450000Y-104350000D02*
X116450000Y-105950000D01*
X116450000Y-105950000D02*
X115650000Y-105950000D01*
%TO.C,J3*%
X140450000Y-132700000D02*
X140450000Y-133000000D01*
X140450000Y-133000000D02*
X139950000Y-133000000D01*
X153850000Y-133700000D02*
X146900000Y-133700000D01*
X139950000Y-133700000D02*
X146900000Y-133700000D01*
X139850000Y-128100000D02*
X139850000Y-132700000D01*
X153950000Y-132700000D02*
X153350000Y-132700000D01*
X139850000Y-132700000D02*
X140450000Y-132700000D01*
X146900000Y-128100000D02*
X139850000Y-128100000D01*
X153350000Y-132700000D02*
X153350000Y-133000000D01*
X141150000Y-128100000D02*
X141650000Y-128807107D01*
X153850000Y-133000000D02*
X153850000Y-133700000D01*
X146900000Y-128100000D02*
X153950000Y-128100000D01*
X141650000Y-128807107D02*
X142150000Y-128100000D01*
X153350000Y-133000000D02*
X153850000Y-133000000D01*
X153950000Y-128100000D02*
X153950000Y-132700000D01*
X139950000Y-133000000D02*
X139950000Y-133700000D01*
%TO.C,R2*%
X119375000Y-79800000D02*
X119375000Y-81000000D01*
X117375000Y-79800000D02*
X119375000Y-79800000D01*
X119375000Y-81000000D02*
X117375000Y-81000000D01*
X117375000Y-81000000D02*
X117375000Y-79800000D01*
%TO.C,R13*%
X112550000Y-108775000D02*
X112550000Y-109575000D01*
X112550000Y-109575000D02*
X110950000Y-109575000D01*
X110950000Y-109575000D02*
X110950000Y-108775000D01*
X110950000Y-108775000D02*
X112550000Y-108775000D01*
%TO.C,C17*%
X112925000Y-114750000D02*
X112925000Y-113550000D01*
X112925000Y-113550000D02*
X114925000Y-113550000D01*
X114925000Y-113550000D02*
X114925000Y-114750000D01*
X114925000Y-114750000D02*
X112925000Y-114750000D01*
%TO.C,C3*%
X151830000Y-125500000D02*
X151330000Y-125500000D01*
X151330000Y-125500000D02*
X151330000Y-124500000D01*
X151330000Y-124500000D02*
X151830000Y-124500000D01*
X151830000Y-124500000D02*
X151830000Y-125500000D01*
%TO.C,R3*%
X117375000Y-83125000D02*
X117375000Y-81925000D01*
X117375000Y-81925000D02*
X119375000Y-81925000D01*
X119375000Y-83125000D02*
X117375000Y-83125000D01*
X119375000Y-81925000D02*
X119375000Y-83125000D01*
%TO.C,C6*%
X148425000Y-121437500D02*
X148425000Y-122437500D01*
X147925000Y-122437500D02*
X147925000Y-121437500D01*
X147925000Y-121437500D02*
X148425000Y-121437500D01*
X148425000Y-122437500D02*
X147925000Y-122437500D01*
%TO.C,R6*%
X124750000Y-102625000D02*
X124750000Y-102125000D01*
X125750000Y-102625000D02*
X124750000Y-102625000D01*
X125750000Y-102125000D02*
X125750000Y-102625000D01*
X124750000Y-102125000D02*
X125750000Y-102125000D01*
%TO.C,U1*%
X118125000Y-128312500D02*
X118125000Y-126112500D01*
X118125000Y-126112500D02*
X119475000Y-126112500D01*
X118125000Y-128312500D02*
X118975000Y-128312500D01*
X118975000Y-128312500D02*
X119475000Y-127812500D01*
X119475000Y-127812500D02*
X119475000Y-126112500D01*
%TO.C,R8*%
X151225000Y-56625000D02*
X151725000Y-56625000D01*
X151725000Y-57625000D02*
X151225000Y-57625000D01*
X151725000Y-56625000D02*
X151725000Y-57625000D01*
X151225000Y-57625000D02*
X151225000Y-56625000D01*
%TO.C,D1*%
X118350000Y-132987500D02*
X118050000Y-132687500D01*
X118050000Y-132687500D02*
X117550000Y-132687500D01*
X117550000Y-134287500D02*
X118350000Y-134287500D01*
X117550000Y-132687500D02*
X117550000Y-134287500D01*
X118350000Y-134287500D02*
X118350000Y-132987500D01*
%TO.C,C5*%
X147900000Y-125512500D02*
X147900000Y-124512500D01*
X148400000Y-124512500D02*
X148400000Y-125512500D01*
X148400000Y-125512500D02*
X147900000Y-125512500D01*
X147900000Y-124512500D02*
X148400000Y-124512500D01*
%TO.C,C8*%
X151830000Y-121425000D02*
X151830000Y-122425000D01*
X151330000Y-121425000D02*
X151830000Y-121425000D01*
X151330000Y-122425000D02*
X151330000Y-121425000D01*
X151830000Y-122425000D02*
X151330000Y-122425000D01*
%TO.C,D4*%
X112925000Y-102400000D02*
X112925000Y-103200000D01*
X114525000Y-102900000D02*
X114525000Y-102400000D01*
X112925000Y-103200000D02*
X114225000Y-103200000D01*
X114525000Y-102400000D02*
X112925000Y-102400000D01*
X114225000Y-103200000D02*
X114525000Y-102900000D01*
%TO.C,C14*%
X119825000Y-108292000D02*
X119825000Y-106292000D01*
X121025000Y-108292000D02*
X119825000Y-108292000D01*
X121025000Y-106292000D02*
X121025000Y-108292000D01*
X119825000Y-106292000D02*
X121025000Y-106292000D01*
%TO.C,R15*%
X114400000Y-105950000D02*
X113600000Y-105950000D01*
X113600000Y-105950000D02*
X113600000Y-104350000D01*
X114400000Y-104350000D02*
X114400000Y-105950000D01*
X113600000Y-104350000D02*
X114400000Y-104350000D01*
D19*
%TO.C,J8*%
X109370600Y-86179600D02*
X109370600Y-95120400D01*
X109370600Y-95120400D02*
X116279401Y-95120400D01*
X116279401Y-86179600D02*
X109370600Y-86179600D01*
X116279401Y-95120400D02*
X116279401Y-86179600D01*
X118235401Y-87900000D02*
G75*
G03*
X118235401Y-87900000I-381000J0D01*
G01*
D10*
%TO.C,R5*%
X124750000Y-100975000D02*
X124750000Y-100475000D01*
X124750000Y-100475000D02*
X125750000Y-100475000D01*
X125750000Y-100975000D02*
X124750000Y-100975000D01*
X125750000Y-100475000D02*
X125750000Y-100975000D01*
D19*
%TO.C,U4*%
X134558000Y-120225000D02*
X137158000Y-120225000D01*
X134558000Y-122825000D02*
X137158000Y-122825000D01*
X137158000Y-120225000D02*
X137158000Y-122825000D01*
X134558000Y-120225000D02*
X134558000Y-122825000D01*
X136853775Y-120650000D02*
G75*
G03*
X136853775Y-120650000I-145774J0D01*
G01*
D10*
%TO.C,C12*%
X140708000Y-122575000D02*
X140708000Y-120575000D01*
X141908000Y-122575000D02*
X140708000Y-122575000D01*
X140708000Y-120575000D02*
X141908000Y-120575000D01*
X141908000Y-120575000D02*
X141908000Y-122575000D01*
%TO.C,D3*%
X116350000Y-102400000D02*
X116050000Y-102700000D01*
X116050000Y-102700000D02*
X116050000Y-103200000D01*
X117650000Y-103200000D02*
X117650000Y-102400000D01*
X117650000Y-102400000D02*
X116350000Y-102400000D01*
X116050000Y-103200000D02*
X117650000Y-103200000D01*
%TO.C,J7*%
X137550000Y-55327500D02*
X137750000Y-55527500D01*
X137350000Y-55527500D02*
X137550000Y-55327500D01*
X137750000Y-55737500D02*
X137750000Y-55527500D01*
X139250000Y-50925796D02*
X133250000Y-50925796D01*
X140000000Y-50227500D02*
X140000000Y-55227500D01*
X137750000Y-55737500D02*
X137350000Y-55737500D01*
X140000000Y-50225796D02*
X132500000Y-50225796D01*
X140000000Y-55227500D02*
X132500000Y-55227500D01*
X137350000Y-55737500D02*
X137350000Y-55527500D01*
X132500000Y-50227500D02*
X132500000Y-55227500D01*
%TO.C,C2*%
X154200000Y-124412500D02*
X153000000Y-124412500D01*
X154200000Y-122412500D02*
X154200000Y-124412500D01*
X153000000Y-122412500D02*
X154200000Y-122412500D01*
X153000000Y-124412500D02*
X153000000Y-122412500D01*
%TO.C,B1*%
X119025000Y-119575000D02*
X118317893Y-120075000D01*
X118317893Y-120075000D02*
X119025000Y-120575000D01*
X119025000Y-124225000D02*
X120625000Y-124225000D01*
X120625000Y-124225000D02*
X120625000Y-125025000D01*
X120625000Y-125025000D02*
X113025000Y-125025000D01*
X120625000Y-117125000D02*
X113025000Y-117125000D01*
X120625000Y-117125000D02*
X120625000Y-117925000D01*
X119025000Y-117925000D02*
X119025000Y-124225000D01*
X120625000Y-117925000D02*
X119025000Y-117925000D01*
X113025000Y-117125000D02*
X113025000Y-125025000D01*
%TO.C,C16*%
X121150000Y-110192000D02*
X119550000Y-110192000D01*
X119550000Y-109392000D02*
X121150000Y-109392000D01*
X121150000Y-109392000D02*
X121150000Y-110192000D01*
X119550000Y-110192000D02*
X119550000Y-109392000D01*
%TO.C,R16*%
X111400000Y-110725000D02*
X112400000Y-110725000D01*
X112400000Y-110725000D02*
X112400000Y-111225000D01*
X112400000Y-111225000D02*
X111400000Y-111225000D01*
X111400000Y-111225000D02*
X111400000Y-110725000D01*
%TD*%
M02*
