%TF.GenerationSoftware,KiCad,Pcbnew,(5.99.0-10362-gce3a84f579)*%
%TF.CreationDate,2021-05-11T10:28:48-04:00*%
%TF.ProjectId,rpi-cm4-carrier,7270692d-636d-4342-9d63-617272696572,v01*%
%TF.SameCoordinates,Original*%
%TF.FileFunction,Legend,Top*%
%TF.FilePolarity,Positive*%
%FSLAX46Y46*%
G04 Gerber Fmt 4.6, Leading zero omitted, Abs format (unit mm)*
G04 Created by KiCad (PCBNEW (5.99.0-10362-gce3a84f579)) date 2021-05-11 10:28:48*
%MOMM*%
%LPD*%
G01*
G04 APERTURE LIST*
%ADD10C,0.160000*%
%ADD11C,0.150000*%
%ADD12C,0.127000*%
%ADD13C,0.200000*%
%ADD14C,0.120000*%
%ADD15C,0.300000*%
%ADD16C,0.152400*%
G04 APERTURE END LIST*
D10*
X121142857Y-118585714D02*
X122057142Y-118585714D01*
X121600000Y-119042857D02*
X121600000Y-118128571D01*
D11*
X145312380Y-111846547D02*
X145550476Y-111846547D01*
X145455238Y-112084642D02*
X145550476Y-111846547D01*
X145455238Y-111608452D01*
X145740952Y-111989404D02*
X145550476Y-111846547D01*
X145740952Y-111703690D01*
X145312380Y-111084642D02*
X145550476Y-111084642D01*
X145455238Y-111322738D02*
X145550476Y-111084642D01*
X145455238Y-110846547D01*
X145740952Y-111227500D02*
X145550476Y-111084642D01*
X145740952Y-110941785D01*
X145312380Y-110322738D02*
X145550476Y-110322738D01*
X145455238Y-110560833D02*
X145550476Y-110322738D01*
X145455238Y-110084642D01*
X145740952Y-110465595D02*
X145550476Y-110322738D01*
X145740952Y-110179880D01*
X146312380Y-109703690D02*
X145312380Y-109703690D01*
X145312380Y-109465595D01*
X145360000Y-109322738D01*
X145455238Y-109227500D01*
X145550476Y-109179880D01*
X145740952Y-109132261D01*
X145883809Y-109132261D01*
X146074285Y-109179880D01*
X146169523Y-109227500D01*
X146264761Y-109322738D01*
X146312380Y-109465595D01*
X146312380Y-109703690D01*
X146312380Y-108560833D02*
X146264761Y-108656071D01*
X146217142Y-108703690D01*
X146121904Y-108751309D01*
X145836190Y-108751309D01*
X145740952Y-108703690D01*
X145693333Y-108656071D01*
X145645714Y-108560833D01*
X145645714Y-108417976D01*
X145693333Y-108322738D01*
X145740952Y-108275119D01*
X145836190Y-108227500D01*
X146121904Y-108227500D01*
X146217142Y-108275119D01*
X146264761Y-108322738D01*
X146312380Y-108417976D01*
X146312380Y-108560833D01*
X145645714Y-107370357D02*
X146312380Y-107370357D01*
X145645714Y-107798928D02*
X146169523Y-107798928D01*
X146264761Y-107751309D01*
X146312380Y-107656071D01*
X146312380Y-107513214D01*
X146264761Y-107417976D01*
X146217142Y-107370357D01*
X146312380Y-106894166D02*
X145312380Y-106894166D01*
X145693333Y-106894166D02*
X145645714Y-106798928D01*
X145645714Y-106608452D01*
X145693333Y-106513214D01*
X145740952Y-106465595D01*
X145836190Y-106417976D01*
X146121904Y-106417976D01*
X146217142Y-106465595D01*
X146264761Y-106513214D01*
X146312380Y-106608452D01*
X146312380Y-106798928D01*
X146264761Y-106894166D01*
X146312380Y-105846547D02*
X146264761Y-105941785D01*
X146169523Y-105989404D01*
X145312380Y-105989404D01*
X146264761Y-105084642D02*
X146312380Y-105179880D01*
X146312380Y-105370357D01*
X146264761Y-105465595D01*
X146169523Y-105513214D01*
X145788571Y-105513214D01*
X145693333Y-105465595D01*
X145645714Y-105370357D01*
X145645714Y-105179880D01*
X145693333Y-105084642D01*
X145788571Y-105037023D01*
X145883809Y-105037023D01*
X145979047Y-105513214D01*
X145931428Y-104608452D02*
X145931428Y-103846547D01*
X146264761Y-102941785D02*
X146312380Y-103037023D01*
X146312380Y-103227500D01*
X146264761Y-103322738D01*
X146217142Y-103370357D01*
X146121904Y-103417976D01*
X145836190Y-103417976D01*
X145740952Y-103370357D01*
X145693333Y-103322738D01*
X145645714Y-103227500D01*
X145645714Y-103037023D01*
X145693333Y-102941785D01*
X146312380Y-102513214D02*
X145312380Y-102513214D01*
X146312380Y-102084642D02*
X145788571Y-102084642D01*
X145693333Y-102132261D01*
X145645714Y-102227500D01*
X145645714Y-102370357D01*
X145693333Y-102465595D01*
X145740952Y-102513214D01*
X146264761Y-101227500D02*
X146312380Y-101322738D01*
X146312380Y-101513214D01*
X146264761Y-101608452D01*
X146169523Y-101656071D01*
X145788571Y-101656071D01*
X145693333Y-101608452D01*
X145645714Y-101513214D01*
X145645714Y-101322738D01*
X145693333Y-101227500D01*
X145788571Y-101179880D01*
X145883809Y-101179880D01*
X145979047Y-101656071D01*
X146264761Y-100322738D02*
X146312380Y-100417976D01*
X146312380Y-100608452D01*
X146264761Y-100703690D01*
X146217142Y-100751309D01*
X146121904Y-100798928D01*
X145836190Y-100798928D01*
X145740952Y-100751309D01*
X145693333Y-100703690D01*
X145645714Y-100608452D01*
X145645714Y-100417976D01*
X145693333Y-100322738D01*
X146312380Y-99894166D02*
X145312380Y-99894166D01*
X145931428Y-99798928D02*
X146312380Y-99513214D01*
X145645714Y-99513214D02*
X146026666Y-99894166D01*
X146312380Y-98322738D02*
X145312380Y-98322738D01*
X145693333Y-98322738D02*
X145645714Y-98227500D01*
X145645714Y-98037023D01*
X145693333Y-97941785D01*
X145740952Y-97894166D01*
X145836190Y-97846547D01*
X146121904Y-97846547D01*
X146217142Y-97894166D01*
X146264761Y-97941785D01*
X146312380Y-98037023D01*
X146312380Y-98227500D01*
X146264761Y-98322738D01*
X146312380Y-96989404D02*
X145788571Y-96989404D01*
X145693333Y-97037023D01*
X145645714Y-97132261D01*
X145645714Y-97322738D01*
X145693333Y-97417976D01*
X146264761Y-96989404D02*
X146312380Y-97084642D01*
X146312380Y-97322738D01*
X146264761Y-97417976D01*
X146169523Y-97465595D01*
X146074285Y-97465595D01*
X145979047Y-97417976D01*
X145931428Y-97322738D01*
X145931428Y-97084642D01*
X145883809Y-96989404D01*
X145645714Y-96656071D02*
X145645714Y-96275119D01*
X145312380Y-96513214D02*
X146169523Y-96513214D01*
X146264761Y-96465595D01*
X146312380Y-96370357D01*
X146312380Y-96275119D01*
X145645714Y-96084642D02*
X145645714Y-95703690D01*
X145312380Y-95941785D02*
X146169523Y-95941785D01*
X146264761Y-95894166D01*
X146312380Y-95798928D01*
X146312380Y-95703690D01*
X146264761Y-94989404D02*
X146312380Y-95084642D01*
X146312380Y-95275119D01*
X146264761Y-95370357D01*
X146169523Y-95417976D01*
X145788571Y-95417976D01*
X145693333Y-95370357D01*
X145645714Y-95275119D01*
X145645714Y-95084642D01*
X145693333Y-94989404D01*
X145788571Y-94941785D01*
X145883809Y-94941785D01*
X145979047Y-95417976D01*
X146312380Y-94513214D02*
X145645714Y-94513214D01*
X145836190Y-94513214D02*
X145740952Y-94465595D01*
X145693333Y-94417976D01*
X145645714Y-94322738D01*
X145645714Y-94227500D01*
X145645714Y-93989404D02*
X146312380Y-93751309D01*
X145645714Y-93513214D02*
X146312380Y-93751309D01*
X146550476Y-93846547D01*
X146598095Y-93894166D01*
X146645714Y-93989404D01*
X145645714Y-92370357D02*
X146645714Y-92370357D01*
X145693333Y-92370357D02*
X145645714Y-92275119D01*
X145645714Y-92084642D01*
X145693333Y-91989404D01*
X145740952Y-91941785D01*
X145836190Y-91894166D01*
X146121904Y-91894166D01*
X146217142Y-91941785D01*
X146264761Y-91989404D01*
X146312380Y-92084642D01*
X146312380Y-92275119D01*
X146264761Y-92370357D01*
X146312380Y-91322738D02*
X146264761Y-91417976D01*
X146217142Y-91465595D01*
X146121904Y-91513214D01*
X145836190Y-91513214D01*
X145740952Y-91465595D01*
X145693333Y-91417976D01*
X145645714Y-91322738D01*
X145645714Y-91179880D01*
X145693333Y-91084642D01*
X145740952Y-91037023D01*
X145836190Y-90989404D01*
X146121904Y-90989404D01*
X146217142Y-91037023D01*
X146264761Y-91084642D01*
X146312380Y-91179880D01*
X146312380Y-91322738D01*
X146312380Y-90417976D02*
X146264761Y-90513214D01*
X146169523Y-90560833D01*
X145312380Y-90560833D01*
X146312380Y-89608452D02*
X145788571Y-89608452D01*
X145693333Y-89656071D01*
X145645714Y-89751309D01*
X145645714Y-89941785D01*
X145693333Y-90037023D01*
X146264761Y-89608452D02*
X146312380Y-89703690D01*
X146312380Y-89941785D01*
X146264761Y-90037023D01*
X146169523Y-90084642D01*
X146074285Y-90084642D01*
X145979047Y-90037023D01*
X145931428Y-89941785D01*
X145931428Y-89703690D01*
X145883809Y-89608452D01*
X146312380Y-89132261D02*
X145645714Y-89132261D01*
X145836190Y-89132261D02*
X145740952Y-89084642D01*
X145693333Y-89037023D01*
X145645714Y-88941785D01*
X145645714Y-88846547D01*
X146312380Y-88513214D02*
X145645714Y-88513214D01*
X145312380Y-88513214D02*
X145360000Y-88560833D01*
X145407619Y-88513214D01*
X145360000Y-88465595D01*
X145312380Y-88513214D01*
X145407619Y-88513214D01*
X145645714Y-88179880D02*
X145645714Y-87798928D01*
X145312380Y-88037023D02*
X146169523Y-88037023D01*
X146264761Y-87989404D01*
X146312380Y-87894166D01*
X146312380Y-87798928D01*
X145645714Y-87560833D02*
X146312380Y-87322738D01*
X145645714Y-87084642D02*
X146312380Y-87322738D01*
X146550476Y-87417976D01*
X146598095Y-87465595D01*
X146645714Y-87560833D01*
X146312380Y-85941785D02*
X145312380Y-85941785D01*
X145693333Y-85941785D02*
X145645714Y-85846547D01*
X145645714Y-85656071D01*
X145693333Y-85560833D01*
X145740952Y-85513214D01*
X145836190Y-85465595D01*
X146121904Y-85465595D01*
X146217142Y-85513214D01*
X146264761Y-85560833D01*
X146312380Y-85656071D01*
X146312380Y-85846547D01*
X146264761Y-85941785D01*
X146264761Y-84656071D02*
X146312380Y-84751309D01*
X146312380Y-84941785D01*
X146264761Y-85037023D01*
X146169523Y-85084642D01*
X145788571Y-85084642D01*
X145693333Y-85037023D01*
X145645714Y-84941785D01*
X145645714Y-84751309D01*
X145693333Y-84656071D01*
X145788571Y-84608452D01*
X145883809Y-84608452D01*
X145979047Y-85084642D01*
X145645714Y-84322738D02*
X145645714Y-83941785D01*
X146312380Y-84179880D02*
X145455238Y-84179880D01*
X145360000Y-84132261D01*
X145312380Y-84037023D01*
X145312380Y-83941785D01*
X146312380Y-83465595D02*
X146264761Y-83560833D01*
X146217142Y-83608452D01*
X146121904Y-83656071D01*
X145836190Y-83656071D01*
X145740952Y-83608452D01*
X145693333Y-83560833D01*
X145645714Y-83465595D01*
X145645714Y-83322738D01*
X145693333Y-83227500D01*
X145740952Y-83179880D01*
X145836190Y-83132261D01*
X146121904Y-83132261D01*
X146217142Y-83179880D01*
X146264761Y-83227500D01*
X146312380Y-83322738D01*
X146312380Y-83465595D01*
X146312380Y-82703690D02*
X145645714Y-82703690D01*
X145836190Y-82703690D02*
X145740952Y-82656071D01*
X145693333Y-82608452D01*
X145645714Y-82513214D01*
X145645714Y-82417976D01*
X146264761Y-81703690D02*
X146312380Y-81798928D01*
X146312380Y-81989404D01*
X146264761Y-82084642D01*
X146169523Y-82132261D01*
X145788571Y-82132261D01*
X145693333Y-82084642D01*
X145645714Y-81989404D01*
X145645714Y-81798928D01*
X145693333Y-81703690D01*
X145788571Y-81656071D01*
X145883809Y-81656071D01*
X145979047Y-82132261D01*
X145645714Y-80465595D02*
X146645714Y-80465595D01*
X145693333Y-80465595D02*
X145645714Y-80370357D01*
X145645714Y-80179880D01*
X145693333Y-80084642D01*
X145740952Y-80037023D01*
X145836190Y-79989404D01*
X146121904Y-79989404D01*
X146217142Y-80037023D01*
X146264761Y-80084642D01*
X146312380Y-80179880D01*
X146312380Y-80370357D01*
X146264761Y-80465595D01*
X146312380Y-79417976D02*
X146264761Y-79513214D01*
X146169523Y-79560833D01*
X145312380Y-79560833D01*
X145645714Y-78608452D02*
X146312380Y-78608452D01*
X145645714Y-79037023D02*
X146169523Y-79037023D01*
X146264761Y-78989404D01*
X146312380Y-78894166D01*
X146312380Y-78751309D01*
X146264761Y-78656071D01*
X146217142Y-78608452D01*
X145645714Y-77703690D02*
X146455238Y-77703690D01*
X146550476Y-77751309D01*
X146598095Y-77798928D01*
X146645714Y-77894166D01*
X146645714Y-78037023D01*
X146598095Y-78132261D01*
X146264761Y-77703690D02*
X146312380Y-77798928D01*
X146312380Y-77989404D01*
X146264761Y-78084642D01*
X146217142Y-78132261D01*
X146121904Y-78179880D01*
X145836190Y-78179880D01*
X145740952Y-78132261D01*
X145693333Y-78084642D01*
X145645714Y-77989404D01*
X145645714Y-77798928D01*
X145693333Y-77703690D01*
X145645714Y-76798928D02*
X146455238Y-76798928D01*
X146550476Y-76846547D01*
X146598095Y-76894166D01*
X146645714Y-76989404D01*
X146645714Y-77132261D01*
X146598095Y-77227500D01*
X146264761Y-76798928D02*
X146312380Y-76894166D01*
X146312380Y-77084642D01*
X146264761Y-77179880D01*
X146217142Y-77227500D01*
X146121904Y-77275119D01*
X145836190Y-77275119D01*
X145740952Y-77227500D01*
X145693333Y-77179880D01*
X145645714Y-77084642D01*
X145645714Y-76894166D01*
X145693333Y-76798928D01*
X146312380Y-76322738D02*
X145645714Y-76322738D01*
X145312380Y-76322738D02*
X145360000Y-76370357D01*
X145407619Y-76322738D01*
X145360000Y-76275119D01*
X145312380Y-76322738D01*
X145407619Y-76322738D01*
X145645714Y-75846547D02*
X146312380Y-75846547D01*
X145740952Y-75846547D02*
X145693333Y-75798928D01*
X145645714Y-75703690D01*
X145645714Y-75560833D01*
X145693333Y-75465595D01*
X145788571Y-75417976D01*
X146312380Y-75417976D01*
X145645714Y-74513214D02*
X146455238Y-74513214D01*
X146550476Y-74560833D01*
X146598095Y-74608452D01*
X146645714Y-74703690D01*
X146645714Y-74846547D01*
X146598095Y-74941785D01*
X146264761Y-74513214D02*
X146312380Y-74608452D01*
X146312380Y-74798928D01*
X146264761Y-74894166D01*
X146217142Y-74941785D01*
X146121904Y-74989404D01*
X145836190Y-74989404D01*
X145740952Y-74941785D01*
X145693333Y-74894166D01*
X145645714Y-74798928D01*
X145645714Y-74608452D01*
X145693333Y-74513214D01*
X146312380Y-73275119D02*
X145645714Y-73275119D01*
X145312380Y-73275119D02*
X145360000Y-73322738D01*
X145407619Y-73275119D01*
X145360000Y-73227500D01*
X145312380Y-73275119D01*
X145407619Y-73275119D01*
X145645714Y-72798928D02*
X146312380Y-72798928D01*
X145740952Y-72798928D02*
X145693333Y-72751309D01*
X145645714Y-72656071D01*
X145645714Y-72513214D01*
X145693333Y-72417976D01*
X145788571Y-72370357D01*
X146312380Y-72370357D01*
X146217142Y-71894166D02*
X146264761Y-71846547D01*
X146312380Y-71894166D01*
X146264761Y-71941785D01*
X146217142Y-71894166D01*
X146312380Y-71894166D01*
X145931428Y-71894166D02*
X145360000Y-71941785D01*
X145312380Y-71894166D01*
X145360000Y-71846547D01*
X145931428Y-71894166D01*
X145312380Y-71894166D01*
X147922380Y-111989404D02*
X146922380Y-111989404D01*
X147636666Y-111656071D01*
X146922380Y-111322738D01*
X147922380Y-111322738D01*
X147922380Y-110417976D02*
X147398571Y-110417976D01*
X147303333Y-110465595D01*
X147255714Y-110560833D01*
X147255714Y-110751309D01*
X147303333Y-110846547D01*
X147874761Y-110417976D02*
X147922380Y-110513214D01*
X147922380Y-110751309D01*
X147874761Y-110846547D01*
X147779523Y-110894166D01*
X147684285Y-110894166D01*
X147589047Y-110846547D01*
X147541428Y-110751309D01*
X147541428Y-110513214D01*
X147493809Y-110417976D01*
X147922380Y-109513214D02*
X146922380Y-109513214D01*
X147874761Y-109513214D02*
X147922380Y-109608452D01*
X147922380Y-109798928D01*
X147874761Y-109894166D01*
X147827142Y-109941785D01*
X147731904Y-109989404D01*
X147446190Y-109989404D01*
X147350952Y-109941785D01*
X147303333Y-109894166D01*
X147255714Y-109798928D01*
X147255714Y-109608452D01*
X147303333Y-109513214D01*
X147874761Y-108656071D02*
X147922380Y-108751309D01*
X147922380Y-108941785D01*
X147874761Y-109037023D01*
X147779523Y-109084642D01*
X147398571Y-109084642D01*
X147303333Y-109037023D01*
X147255714Y-108941785D01*
X147255714Y-108751309D01*
X147303333Y-108656071D01*
X147398571Y-108608452D01*
X147493809Y-108608452D01*
X147589047Y-109084642D01*
X147255714Y-107560833D02*
X147255714Y-107179880D01*
X146922380Y-107417976D02*
X147779523Y-107417976D01*
X147874761Y-107370357D01*
X147922380Y-107275119D01*
X147922380Y-107179880D01*
X147922380Y-106703690D02*
X147874761Y-106798928D01*
X147827142Y-106846547D01*
X147731904Y-106894166D01*
X147446190Y-106894166D01*
X147350952Y-106846547D01*
X147303333Y-106798928D01*
X147255714Y-106703690D01*
X147255714Y-106560833D01*
X147303333Y-106465595D01*
X147350952Y-106417976D01*
X147446190Y-106370357D01*
X147731904Y-106370357D01*
X147827142Y-106417976D01*
X147874761Y-106465595D01*
X147922380Y-106560833D01*
X147922380Y-106703690D01*
X147922380Y-105179880D02*
X146922380Y-105179880D01*
X147303333Y-105179880D02*
X147255714Y-105084642D01*
X147255714Y-104894166D01*
X147303333Y-104798928D01*
X147350952Y-104751309D01*
X147446190Y-104703690D01*
X147731904Y-104703690D01*
X147827142Y-104751309D01*
X147874761Y-104798928D01*
X147922380Y-104894166D01*
X147922380Y-105084642D01*
X147874761Y-105179880D01*
X147874761Y-103894166D02*
X147922380Y-103989404D01*
X147922380Y-104179880D01*
X147874761Y-104275119D01*
X147779523Y-104322738D01*
X147398571Y-104322738D01*
X147303333Y-104275119D01*
X147255714Y-104179880D01*
X147255714Y-103989404D01*
X147303333Y-103894166D01*
X147398571Y-103846547D01*
X147493809Y-103846547D01*
X147589047Y-104322738D01*
X147874761Y-102227500D02*
X147922380Y-102322738D01*
X147922380Y-102513214D01*
X147874761Y-102608452D01*
X147827142Y-102656071D01*
X147731904Y-102703690D01*
X147446190Y-102703690D01*
X147350952Y-102656071D01*
X147303333Y-102608452D01*
X147255714Y-102513214D01*
X147255714Y-102322738D01*
X147303333Y-102227500D01*
X147922380Y-101656071D02*
X147874761Y-101751309D01*
X147827142Y-101798928D01*
X147731904Y-101846547D01*
X147446190Y-101846547D01*
X147350952Y-101798928D01*
X147303333Y-101751309D01*
X147255714Y-101656071D01*
X147255714Y-101513214D01*
X147303333Y-101417976D01*
X147350952Y-101370357D01*
X147446190Y-101322738D01*
X147731904Y-101322738D01*
X147827142Y-101370357D01*
X147874761Y-101417976D01*
X147922380Y-101513214D01*
X147922380Y-101656071D01*
X147922380Y-100894166D02*
X147255714Y-100894166D01*
X147350952Y-100894166D02*
X147303333Y-100846547D01*
X147255714Y-100751309D01*
X147255714Y-100608452D01*
X147303333Y-100513214D01*
X147398571Y-100465595D01*
X147922380Y-100465595D01*
X147398571Y-100465595D02*
X147303333Y-100417976D01*
X147255714Y-100322738D01*
X147255714Y-100179880D01*
X147303333Y-100084642D01*
X147398571Y-100037023D01*
X147922380Y-100037023D01*
X147255714Y-99560833D02*
X148255714Y-99560833D01*
X147303333Y-99560833D02*
X147255714Y-99465595D01*
X147255714Y-99275119D01*
X147303333Y-99179880D01*
X147350952Y-99132261D01*
X147446190Y-99084642D01*
X147731904Y-99084642D01*
X147827142Y-99132261D01*
X147874761Y-99179880D01*
X147922380Y-99275119D01*
X147922380Y-99465595D01*
X147874761Y-99560833D01*
X147922380Y-98227500D02*
X147398571Y-98227500D01*
X147303333Y-98275119D01*
X147255714Y-98370357D01*
X147255714Y-98560833D01*
X147303333Y-98656071D01*
X147874761Y-98227500D02*
X147922380Y-98322738D01*
X147922380Y-98560833D01*
X147874761Y-98656071D01*
X147779523Y-98703690D01*
X147684285Y-98703690D01*
X147589047Y-98656071D01*
X147541428Y-98560833D01*
X147541428Y-98322738D01*
X147493809Y-98227500D01*
X147255714Y-97894166D02*
X147255714Y-97513214D01*
X146922380Y-97751309D02*
X147779523Y-97751309D01*
X147874761Y-97703690D01*
X147922380Y-97608452D01*
X147922380Y-97513214D01*
X147922380Y-97179880D02*
X147255714Y-97179880D01*
X146922380Y-97179880D02*
X146970000Y-97227500D01*
X147017619Y-97179880D01*
X146970000Y-97132261D01*
X146922380Y-97179880D01*
X147017619Y-97179880D01*
X147922380Y-96703690D02*
X146922380Y-96703690D01*
X147303333Y-96703690D02*
X147255714Y-96608452D01*
X147255714Y-96417976D01*
X147303333Y-96322738D01*
X147350952Y-96275119D01*
X147446190Y-96227500D01*
X147731904Y-96227500D01*
X147827142Y-96275119D01*
X147874761Y-96322738D01*
X147922380Y-96417976D01*
X147922380Y-96608452D01*
X147874761Y-96703690D01*
X147922380Y-95656071D02*
X147874761Y-95751309D01*
X147779523Y-95798928D01*
X146922380Y-95798928D01*
X147874761Y-94894166D02*
X147922380Y-94989404D01*
X147922380Y-95179880D01*
X147874761Y-95275119D01*
X147779523Y-95322738D01*
X147398571Y-95322738D01*
X147303333Y-95275119D01*
X147255714Y-95179880D01*
X147255714Y-94989404D01*
X147303333Y-94894166D01*
X147398571Y-94846547D01*
X147493809Y-94846547D01*
X147589047Y-95322738D01*
X147255714Y-93751309D02*
X147922380Y-93560833D01*
X147446190Y-93370357D01*
X147922380Y-93179880D01*
X147255714Y-92989404D01*
X147922380Y-92608452D02*
X147255714Y-92608452D01*
X146922380Y-92608452D02*
X146970000Y-92656071D01*
X147017619Y-92608452D01*
X146970000Y-92560833D01*
X146922380Y-92608452D01*
X147017619Y-92608452D01*
X147255714Y-92275119D02*
X147255714Y-91894166D01*
X146922380Y-92132261D02*
X147779523Y-92132261D01*
X147874761Y-92084642D01*
X147922380Y-91989404D01*
X147922380Y-91894166D01*
X147922380Y-91560833D02*
X146922380Y-91560833D01*
X147922380Y-91132261D02*
X147398571Y-91132261D01*
X147303333Y-91179880D01*
X147255714Y-91275119D01*
X147255714Y-91417976D01*
X147303333Y-91513214D01*
X147350952Y-91560833D01*
X147636666Y-89941785D02*
X147636666Y-89465595D01*
X147922380Y-90037023D02*
X146922380Y-89703690D01*
X147922380Y-89370357D01*
X147922380Y-88608452D02*
X146922380Y-88608452D01*
X147874761Y-88608452D02*
X147922380Y-88703690D01*
X147922380Y-88894166D01*
X147874761Y-88989404D01*
X147827142Y-89037023D01*
X147731904Y-89084642D01*
X147446190Y-89084642D01*
X147350952Y-89037023D01*
X147303333Y-88989404D01*
X147255714Y-88894166D01*
X147255714Y-88703690D01*
X147303333Y-88608452D01*
X147922380Y-87703690D02*
X147398571Y-87703690D01*
X147303333Y-87751309D01*
X147255714Y-87846547D01*
X147255714Y-88037023D01*
X147303333Y-88132261D01*
X147874761Y-87703690D02*
X147922380Y-87798928D01*
X147922380Y-88037023D01*
X147874761Y-88132261D01*
X147779523Y-88179880D01*
X147684285Y-88179880D01*
X147589047Y-88132261D01*
X147541428Y-88037023D01*
X147541428Y-87798928D01*
X147493809Y-87703690D01*
X147255714Y-87370357D02*
X147255714Y-86989404D01*
X147922380Y-87227500D02*
X147065238Y-87227500D01*
X146970000Y-87179880D01*
X146922380Y-87084642D01*
X146922380Y-86989404D01*
X147922380Y-86656071D02*
X147255714Y-86656071D01*
X147446190Y-86656071D02*
X147350952Y-86608452D01*
X147303333Y-86560833D01*
X147255714Y-86465595D01*
X147255714Y-86370357D01*
X147255714Y-85608452D02*
X147922380Y-85608452D01*
X147255714Y-86037023D02*
X147779523Y-86037023D01*
X147874761Y-85989404D01*
X147922380Y-85894166D01*
X147922380Y-85751309D01*
X147874761Y-85656071D01*
X147827142Y-85608452D01*
X147922380Y-85132261D02*
X147255714Y-85132261D01*
X146922380Y-85132261D02*
X146970000Y-85179880D01*
X147017619Y-85132261D01*
X146970000Y-85084642D01*
X146922380Y-85132261D01*
X147017619Y-85132261D01*
X147255714Y-84798928D02*
X147255714Y-84417976D01*
X146922380Y-84656071D02*
X147779523Y-84656071D01*
X147874761Y-84608452D01*
X147922380Y-84513214D01*
X147922380Y-84417976D01*
X146922380Y-84037023D02*
X147112857Y-84132261D01*
X147874761Y-83656071D02*
X147922380Y-83560833D01*
X147922380Y-83370357D01*
X147874761Y-83275119D01*
X147779523Y-83227500D01*
X147731904Y-83227500D01*
X147636666Y-83275119D01*
X147589047Y-83370357D01*
X147589047Y-83513214D01*
X147541428Y-83608452D01*
X147446190Y-83656071D01*
X147398571Y-83656071D01*
X147303333Y-83608452D01*
X147255714Y-83513214D01*
X147255714Y-83370357D01*
X147303333Y-83275119D01*
X146922380Y-82132261D02*
X146922380Y-81513214D01*
X147303333Y-81846547D01*
X147303333Y-81703690D01*
X147350952Y-81608452D01*
X147398571Y-81560833D01*
X147493809Y-81513214D01*
X147731904Y-81513214D01*
X147827142Y-81560833D01*
X147874761Y-81608452D01*
X147922380Y-81703690D01*
X147922380Y-81989404D01*
X147874761Y-82084642D01*
X147827142Y-82132261D01*
X147827142Y-81084642D02*
X147874761Y-81037023D01*
X147922380Y-81084642D01*
X147874761Y-81132261D01*
X147827142Y-81084642D01*
X147922380Y-81084642D01*
X146922380Y-80703690D02*
X146922380Y-80037023D01*
X147922380Y-80465595D01*
X146922380Y-79798928D02*
X147922380Y-79465595D01*
X146922380Y-79132261D01*
X146922380Y-77751309D02*
X147636666Y-77751309D01*
X147779523Y-77798928D01*
X147874761Y-77894166D01*
X147922380Y-78037023D01*
X147922380Y-78132261D01*
X147874761Y-77322738D02*
X147922380Y-77179880D01*
X147922380Y-76941785D01*
X147874761Y-76846547D01*
X147827142Y-76798928D01*
X147731904Y-76751309D01*
X147636666Y-76751309D01*
X147541428Y-76798928D01*
X147493809Y-76846547D01*
X147446190Y-76941785D01*
X147398571Y-77132261D01*
X147350952Y-77227500D01*
X147303333Y-77275119D01*
X147208095Y-77322738D01*
X147112857Y-77322738D01*
X147017619Y-77275119D01*
X146970000Y-77227500D01*
X146922380Y-77132261D01*
X146922380Y-76894166D01*
X146970000Y-76751309D01*
X146922380Y-76465595D02*
X146922380Y-75894166D01*
X147922380Y-76179880D02*
X146922380Y-76179880D01*
X147541428Y-75560833D02*
X147541428Y-74798928D01*
X147922380Y-74322738D02*
X146922380Y-74322738D01*
X146922380Y-73941785D01*
X146970000Y-73846547D01*
X147017619Y-73798928D01*
X147112857Y-73751309D01*
X147255714Y-73751309D01*
X147350952Y-73798928D01*
X147398571Y-73846547D01*
X147446190Y-73941785D01*
X147446190Y-74322738D01*
X147922380Y-73322738D02*
X146922380Y-73322738D01*
X147398571Y-73322738D02*
X147398571Y-72751309D01*
X147922380Y-72751309D02*
X146922380Y-72751309D01*
X148017619Y-72513214D02*
X148017619Y-71751309D01*
X147017619Y-71560833D02*
X146970000Y-71513214D01*
X146922380Y-71417976D01*
X146922380Y-71179880D01*
X146970000Y-71084642D01*
X147017619Y-71037023D01*
X147112857Y-70989404D01*
X147208095Y-70989404D01*
X147350952Y-71037023D01*
X147922380Y-71608452D01*
X147922380Y-70989404D01*
X147827142Y-70560833D02*
X147874761Y-70513214D01*
X147922380Y-70560833D01*
X147874761Y-70608452D01*
X147827142Y-70560833D01*
X147922380Y-70560833D01*
X146922380Y-69894166D02*
X146922380Y-69798928D01*
X146970000Y-69703690D01*
X147017619Y-69656071D01*
X147112857Y-69608452D01*
X147303333Y-69560833D01*
X147541428Y-69560833D01*
X147731904Y-69608452D01*
X147827142Y-69656071D01*
X147874761Y-69703690D01*
X147922380Y-69798928D01*
X147922380Y-69894166D01*
X147874761Y-69989404D01*
X147827142Y-70037023D01*
X147731904Y-70084642D01*
X147541428Y-70132261D01*
X147303333Y-70132261D01*
X147112857Y-70084642D01*
X147017619Y-70037023D01*
X146970000Y-69989404D01*
X146922380Y-69894166D01*
X146922380Y-68941785D02*
X146922380Y-68846547D01*
X146970000Y-68751309D01*
X147017619Y-68703690D01*
X147112857Y-68656071D01*
X147303333Y-68608452D01*
X147541428Y-68608452D01*
X147731904Y-68656071D01*
X147827142Y-68703690D01*
X147874761Y-68751309D01*
X147922380Y-68846547D01*
X147922380Y-68941785D01*
X147874761Y-69037023D01*
X147827142Y-69084642D01*
X147731904Y-69132261D01*
X147541428Y-69179880D01*
X147303333Y-69179880D01*
X147112857Y-69132261D01*
X147017619Y-69084642D01*
X146970000Y-69037023D01*
X146922380Y-68941785D01*
X147922380Y-68179880D02*
X147255714Y-68179880D01*
X147350952Y-68179880D02*
X147303333Y-68132261D01*
X147255714Y-68037023D01*
X147255714Y-67894166D01*
X147303333Y-67798928D01*
X147398571Y-67751309D01*
X147922380Y-67751309D01*
X147398571Y-67751309D02*
X147303333Y-67703690D01*
X147255714Y-67608452D01*
X147255714Y-67465595D01*
X147303333Y-67370357D01*
X147398571Y-67322738D01*
X147922380Y-67322738D01*
X147922380Y-66846547D02*
X147255714Y-66846547D01*
X147350952Y-66846547D02*
X147303333Y-66798928D01*
X147255714Y-66703690D01*
X147255714Y-66560833D01*
X147303333Y-66465595D01*
X147398571Y-66417976D01*
X147922380Y-66417976D01*
X147398571Y-66417976D02*
X147303333Y-66370357D01*
X147255714Y-66275119D01*
X147255714Y-66132261D01*
X147303333Y-66037023D01*
X147398571Y-65989404D01*
X147922380Y-65989404D01*
X149532380Y-111989404D02*
X148532380Y-111989404D01*
X148913333Y-111989404D02*
X148865714Y-111894166D01*
X148865714Y-111703690D01*
X148913333Y-111608452D01*
X148960952Y-111560833D01*
X149056190Y-111513214D01*
X149341904Y-111513214D01*
X149437142Y-111560833D01*
X149484761Y-111608452D01*
X149532380Y-111703690D01*
X149532380Y-111894166D01*
X149484761Y-111989404D01*
X149532380Y-110656071D02*
X149008571Y-110656071D01*
X148913333Y-110703690D01*
X148865714Y-110798928D01*
X148865714Y-110989404D01*
X148913333Y-111084642D01*
X149484761Y-110656071D02*
X149532380Y-110751309D01*
X149532380Y-110989404D01*
X149484761Y-111084642D01*
X149389523Y-111132261D01*
X149294285Y-111132261D01*
X149199047Y-111084642D01*
X149151428Y-110989404D01*
X149151428Y-110751309D01*
X149103809Y-110656071D01*
X148865714Y-110322738D02*
X148865714Y-109941785D01*
X148532380Y-110179880D02*
X149389523Y-110179880D01*
X149484761Y-110132261D01*
X149532380Y-110037023D01*
X149532380Y-109941785D01*
X148865714Y-109751309D02*
X148865714Y-109370357D01*
X148532380Y-109608452D02*
X149389523Y-109608452D01*
X149484761Y-109560833D01*
X149532380Y-109465595D01*
X149532380Y-109370357D01*
X149484761Y-108656071D02*
X149532380Y-108751309D01*
X149532380Y-108941785D01*
X149484761Y-109037023D01*
X149389523Y-109084642D01*
X149008571Y-109084642D01*
X148913333Y-109037023D01*
X148865714Y-108941785D01*
X148865714Y-108751309D01*
X148913333Y-108656071D01*
X149008571Y-108608452D01*
X149103809Y-108608452D01*
X149199047Y-109084642D01*
X149532380Y-108179880D02*
X148865714Y-108179880D01*
X149056190Y-108179880D02*
X148960952Y-108132261D01*
X148913333Y-108084642D01*
X148865714Y-107989404D01*
X148865714Y-107894166D01*
X148865714Y-107656071D02*
X149532380Y-107417976D01*
X148865714Y-107179880D02*
X149532380Y-107417976D01*
X149770476Y-107513214D01*
X149818095Y-107560833D01*
X149865714Y-107656071D01*
X149484761Y-105608452D02*
X149532380Y-105703690D01*
X149532380Y-105894166D01*
X149484761Y-105989404D01*
X149437142Y-106037023D01*
X149341904Y-106084642D01*
X149056190Y-106084642D01*
X148960952Y-106037023D01*
X148913333Y-105989404D01*
X148865714Y-105894166D01*
X148865714Y-105703690D01*
X148913333Y-105608452D01*
X149532380Y-105037023D02*
X149484761Y-105132261D01*
X149437142Y-105179880D01*
X149341904Y-105227500D01*
X149056190Y-105227500D01*
X148960952Y-105179880D01*
X148913333Y-105132261D01*
X148865714Y-105037023D01*
X148865714Y-104894166D01*
X148913333Y-104798928D01*
X148960952Y-104751309D01*
X149056190Y-104703690D01*
X149341904Y-104703690D01*
X149437142Y-104751309D01*
X149484761Y-104798928D01*
X149532380Y-104894166D01*
X149532380Y-105037023D01*
X148865714Y-104275119D02*
X149532380Y-104275119D01*
X148960952Y-104275119D02*
X148913333Y-104227500D01*
X148865714Y-104132261D01*
X148865714Y-103989404D01*
X148913333Y-103894166D01*
X149008571Y-103846547D01*
X149532380Y-103846547D01*
X148865714Y-103370357D02*
X149532380Y-103370357D01*
X148960952Y-103370357D02*
X148913333Y-103322738D01*
X148865714Y-103227500D01*
X148865714Y-103084642D01*
X148913333Y-102989404D01*
X149008571Y-102941785D01*
X149532380Y-102941785D01*
X149484761Y-102084642D02*
X149532380Y-102179880D01*
X149532380Y-102370357D01*
X149484761Y-102465595D01*
X149389523Y-102513214D01*
X149008571Y-102513214D01*
X148913333Y-102465595D01*
X148865714Y-102370357D01*
X148865714Y-102179880D01*
X148913333Y-102084642D01*
X149008571Y-102037023D01*
X149103809Y-102037023D01*
X149199047Y-102513214D01*
X149484761Y-101179880D02*
X149532380Y-101275119D01*
X149532380Y-101465595D01*
X149484761Y-101560833D01*
X149437142Y-101608452D01*
X149341904Y-101656071D01*
X149056190Y-101656071D01*
X148960952Y-101608452D01*
X148913333Y-101560833D01*
X148865714Y-101465595D01*
X148865714Y-101275119D01*
X148913333Y-101179880D01*
X148865714Y-100894166D02*
X148865714Y-100513214D01*
X148532380Y-100751309D02*
X149389523Y-100751309D01*
X149484761Y-100703690D01*
X149532380Y-100608452D01*
X149532380Y-100513214D01*
X149532380Y-100037023D02*
X149484761Y-100132261D01*
X149437142Y-100179880D01*
X149341904Y-100227500D01*
X149056190Y-100227500D01*
X148960952Y-100179880D01*
X148913333Y-100132261D01*
X148865714Y-100037023D01*
X148865714Y-99894166D01*
X148913333Y-99798928D01*
X148960952Y-99751309D01*
X149056190Y-99703690D01*
X149341904Y-99703690D01*
X149437142Y-99751309D01*
X149484761Y-99798928D01*
X149532380Y-99894166D01*
X149532380Y-100037023D01*
X149532380Y-99275119D02*
X148865714Y-99275119D01*
X149056190Y-99275119D02*
X148960952Y-99227500D01*
X148913333Y-99179880D01*
X148865714Y-99084642D01*
X148865714Y-98989404D01*
X149437142Y-98656071D02*
X149484761Y-98608452D01*
X149532380Y-98656071D01*
X149484761Y-98703690D01*
X149437142Y-98656071D01*
X149532380Y-98656071D01*
X148532380Y-97227500D02*
X148532380Y-97037023D01*
X148580000Y-96941785D01*
X148675238Y-96846547D01*
X148865714Y-96798928D01*
X149199047Y-96798928D01*
X149389523Y-96846547D01*
X149484761Y-96941785D01*
X149532380Y-97037023D01*
X149532380Y-97227500D01*
X149484761Y-97322738D01*
X149389523Y-97417976D01*
X149199047Y-97465595D01*
X148865714Y-97465595D01*
X148675238Y-97417976D01*
X148580000Y-97322738D01*
X148532380Y-97227500D01*
X148865714Y-96513214D02*
X148865714Y-96132261D01*
X148532380Y-96370357D02*
X149389523Y-96370357D01*
X149484761Y-96322738D01*
X149532380Y-96227500D01*
X149532380Y-96132261D01*
X149532380Y-95798928D02*
X148532380Y-95798928D01*
X149532380Y-95370357D02*
X149008571Y-95370357D01*
X148913333Y-95417976D01*
X148865714Y-95513214D01*
X148865714Y-95656071D01*
X148913333Y-95751309D01*
X148960952Y-95798928D01*
X149484761Y-94513214D02*
X149532380Y-94608452D01*
X149532380Y-94798928D01*
X149484761Y-94894166D01*
X149389523Y-94941785D01*
X149008571Y-94941785D01*
X148913333Y-94894166D01*
X148865714Y-94798928D01*
X148865714Y-94608452D01*
X148913333Y-94513214D01*
X149008571Y-94465595D01*
X149103809Y-94465595D01*
X149199047Y-94941785D01*
X149532380Y-94037023D02*
X148865714Y-94037023D01*
X149056190Y-94037023D02*
X148960952Y-93989404D01*
X148913333Y-93941785D01*
X148865714Y-93846547D01*
X148865714Y-93751309D01*
X149532380Y-92656071D02*
X148532380Y-92656071D01*
X148913333Y-92656071D02*
X148865714Y-92560833D01*
X148865714Y-92370357D01*
X148913333Y-92275119D01*
X148960952Y-92227500D01*
X149056190Y-92179880D01*
X149341904Y-92179880D01*
X149437142Y-92227500D01*
X149484761Y-92275119D01*
X149532380Y-92370357D01*
X149532380Y-92560833D01*
X149484761Y-92656071D01*
X149532380Y-91322738D02*
X149008571Y-91322738D01*
X148913333Y-91370357D01*
X148865714Y-91465595D01*
X148865714Y-91656071D01*
X148913333Y-91751309D01*
X149484761Y-91322738D02*
X149532380Y-91417976D01*
X149532380Y-91656071D01*
X149484761Y-91751309D01*
X149389523Y-91798928D01*
X149294285Y-91798928D01*
X149199047Y-91751309D01*
X149151428Y-91656071D01*
X149151428Y-91417976D01*
X149103809Y-91322738D01*
X148865714Y-90989404D02*
X148865714Y-90608452D01*
X148532380Y-90846547D02*
X149389523Y-90846547D01*
X149484761Y-90798928D01*
X149532380Y-90703690D01*
X149532380Y-90608452D01*
X148865714Y-90417976D02*
X148865714Y-90037023D01*
X148532380Y-90275119D02*
X149389523Y-90275119D01*
X149484761Y-90227500D01*
X149532380Y-90132261D01*
X149532380Y-90037023D01*
X149484761Y-89322738D02*
X149532380Y-89417976D01*
X149532380Y-89608452D01*
X149484761Y-89703690D01*
X149389523Y-89751309D01*
X149008571Y-89751309D01*
X148913333Y-89703690D01*
X148865714Y-89608452D01*
X148865714Y-89417976D01*
X148913333Y-89322738D01*
X149008571Y-89275119D01*
X149103809Y-89275119D01*
X149199047Y-89751309D01*
X149532380Y-88846547D02*
X148865714Y-88846547D01*
X149056190Y-88846547D02*
X148960952Y-88798928D01*
X148913333Y-88751309D01*
X148865714Y-88656071D01*
X148865714Y-88560833D01*
X149532380Y-88227500D02*
X148865714Y-88227500D01*
X148532380Y-88227500D02*
X148580000Y-88275119D01*
X148627619Y-88227500D01*
X148580000Y-88179880D01*
X148532380Y-88227500D01*
X148627619Y-88227500D01*
X149484761Y-87370357D02*
X149532380Y-87465595D01*
X149532380Y-87656071D01*
X149484761Y-87751309D01*
X149389523Y-87798928D01*
X149008571Y-87798928D01*
X148913333Y-87751309D01*
X148865714Y-87656071D01*
X148865714Y-87465595D01*
X148913333Y-87370357D01*
X149008571Y-87322738D01*
X149103809Y-87322738D01*
X149199047Y-87798928D01*
X149484761Y-86941785D02*
X149532380Y-86846547D01*
X149532380Y-86656071D01*
X149484761Y-86560833D01*
X149389523Y-86513214D01*
X149341904Y-86513214D01*
X149246666Y-86560833D01*
X149199047Y-86656071D01*
X149199047Y-86798928D01*
X149151428Y-86894166D01*
X149056190Y-86941785D01*
X149008571Y-86941785D01*
X148913333Y-86894166D01*
X148865714Y-86798928D01*
X148865714Y-86656071D01*
X148913333Y-86560833D01*
X149532380Y-85322738D02*
X148865714Y-85322738D01*
X148960952Y-85322738D02*
X148913333Y-85275119D01*
X148865714Y-85179880D01*
X148865714Y-85037023D01*
X148913333Y-84941785D01*
X149008571Y-84894166D01*
X149532380Y-84894166D01*
X149008571Y-84894166D02*
X148913333Y-84846547D01*
X148865714Y-84751309D01*
X148865714Y-84608452D01*
X148913333Y-84513214D01*
X149008571Y-84465595D01*
X149532380Y-84465595D01*
X149532380Y-83989404D02*
X148865714Y-83989404D01*
X148532380Y-83989404D02*
X148580000Y-84037023D01*
X148627619Y-83989404D01*
X148580000Y-83941785D01*
X148532380Y-83989404D01*
X148627619Y-83989404D01*
X148865714Y-83084642D02*
X149675238Y-83084642D01*
X149770476Y-83132261D01*
X149818095Y-83179880D01*
X149865714Y-83275119D01*
X149865714Y-83417976D01*
X149818095Y-83513214D01*
X149484761Y-83084642D02*
X149532380Y-83179880D01*
X149532380Y-83370357D01*
X149484761Y-83465595D01*
X149437142Y-83513214D01*
X149341904Y-83560833D01*
X149056190Y-83560833D01*
X148960952Y-83513214D01*
X148913333Y-83465595D01*
X148865714Y-83370357D01*
X148865714Y-83179880D01*
X148913333Y-83084642D01*
X149532380Y-82608452D02*
X148532380Y-82608452D01*
X149532380Y-82179880D02*
X149008571Y-82179880D01*
X148913333Y-82227500D01*
X148865714Y-82322738D01*
X148865714Y-82465595D01*
X148913333Y-82560833D01*
X148960952Y-82608452D01*
X148865714Y-81846547D02*
X148865714Y-81465595D01*
X148532380Y-81703690D02*
X149389523Y-81703690D01*
X149484761Y-81656071D01*
X149532380Y-81560833D01*
X149532380Y-81465595D01*
X149532380Y-80370357D02*
X148532380Y-80370357D01*
X149532380Y-79941785D02*
X149008571Y-79941785D01*
X148913333Y-79989404D01*
X148865714Y-80084642D01*
X148865714Y-80227500D01*
X148913333Y-80322738D01*
X148960952Y-80370357D01*
X149532380Y-79037023D02*
X149008571Y-79037023D01*
X148913333Y-79084642D01*
X148865714Y-79179880D01*
X148865714Y-79370357D01*
X148913333Y-79465595D01*
X149484761Y-79037023D02*
X149532380Y-79132261D01*
X149532380Y-79370357D01*
X149484761Y-79465595D01*
X149389523Y-79513214D01*
X149294285Y-79513214D01*
X149199047Y-79465595D01*
X149151428Y-79370357D01*
X149151428Y-79132261D01*
X149103809Y-79037023D01*
X148865714Y-78656071D02*
X149532380Y-78417976D01*
X148865714Y-78179880D01*
X149484761Y-77417976D02*
X149532380Y-77513214D01*
X149532380Y-77703690D01*
X149484761Y-77798928D01*
X149389523Y-77846547D01*
X149008571Y-77846547D01*
X148913333Y-77798928D01*
X148865714Y-77703690D01*
X148865714Y-77513214D01*
X148913333Y-77417976D01*
X149008571Y-77370357D01*
X149103809Y-77370357D01*
X149199047Y-77846547D01*
X149532380Y-76037023D02*
X149484761Y-76132261D01*
X149389523Y-76179880D01*
X148532380Y-76179880D01*
X149484761Y-75275119D02*
X149532380Y-75370357D01*
X149532380Y-75560833D01*
X149484761Y-75656071D01*
X149389523Y-75703690D01*
X149008571Y-75703690D01*
X148913333Y-75656071D01*
X148865714Y-75560833D01*
X148865714Y-75370357D01*
X148913333Y-75275119D01*
X149008571Y-75227500D01*
X149103809Y-75227500D01*
X149199047Y-75703690D01*
X149532380Y-74370357D02*
X149008571Y-74370357D01*
X148913333Y-74417976D01*
X148865714Y-74513214D01*
X148865714Y-74703690D01*
X148913333Y-74798928D01*
X149484761Y-74370357D02*
X149532380Y-74465595D01*
X149532380Y-74703690D01*
X149484761Y-74798928D01*
X149389523Y-74846547D01*
X149294285Y-74846547D01*
X149199047Y-74798928D01*
X149151428Y-74703690D01*
X149151428Y-74465595D01*
X149103809Y-74370357D01*
X149532380Y-73465595D02*
X148532380Y-73465595D01*
X149484761Y-73465595D02*
X149532380Y-73560833D01*
X149532380Y-73751309D01*
X149484761Y-73846547D01*
X149437142Y-73894166D01*
X149341904Y-73941785D01*
X149056190Y-73941785D01*
X148960952Y-73894166D01*
X148913333Y-73846547D01*
X148865714Y-73751309D01*
X148865714Y-73560833D01*
X148913333Y-73465595D01*
X149484761Y-73037023D02*
X149532380Y-72941785D01*
X149532380Y-72751309D01*
X149484761Y-72656071D01*
X149389523Y-72608452D01*
X149341904Y-72608452D01*
X149246666Y-72656071D01*
X149199047Y-72751309D01*
X149199047Y-72894166D01*
X149151428Y-72989404D01*
X149056190Y-73037023D01*
X149008571Y-73037023D01*
X148913333Y-72989404D01*
X148865714Y-72894166D01*
X148865714Y-72751309D01*
X148913333Y-72656071D01*
X149532380Y-70989404D02*
X149008571Y-70989404D01*
X148913333Y-71037023D01*
X148865714Y-71132261D01*
X148865714Y-71322738D01*
X148913333Y-71417976D01*
X149484761Y-70989404D02*
X149532380Y-71084642D01*
X149532380Y-71322738D01*
X149484761Y-71417976D01*
X149389523Y-71465595D01*
X149294285Y-71465595D01*
X149199047Y-71417976D01*
X149151428Y-71322738D01*
X149151428Y-71084642D01*
X149103809Y-70989404D01*
X148865714Y-70656071D02*
X148865714Y-70275119D01*
X148532380Y-70513214D02*
X149389523Y-70513214D01*
X149484761Y-70465595D01*
X149532380Y-70370357D01*
X149532380Y-70275119D01*
X151142380Y-111846547D02*
X151094761Y-111941785D01*
X151047142Y-111989404D01*
X150951904Y-112037023D01*
X150666190Y-112037023D01*
X150570952Y-111989404D01*
X150523333Y-111941785D01*
X150475714Y-111846547D01*
X150475714Y-111703690D01*
X150523333Y-111608452D01*
X150570952Y-111560833D01*
X150666190Y-111513214D01*
X150951904Y-111513214D01*
X151047142Y-111560833D01*
X151094761Y-111608452D01*
X151142380Y-111703690D01*
X151142380Y-111846547D01*
X150475714Y-111084642D02*
X151475714Y-111084642D01*
X150523333Y-111084642D02*
X150475714Y-110989404D01*
X150475714Y-110798928D01*
X150523333Y-110703690D01*
X150570952Y-110656071D01*
X150666190Y-110608452D01*
X150951904Y-110608452D01*
X151047142Y-110656071D01*
X151094761Y-110703690D01*
X151142380Y-110798928D01*
X151142380Y-110989404D01*
X151094761Y-111084642D01*
X150475714Y-110179880D02*
X151475714Y-110179880D01*
X150523333Y-110179880D02*
X150475714Y-110084642D01*
X150475714Y-109894166D01*
X150523333Y-109798928D01*
X150570952Y-109751309D01*
X150666190Y-109703690D01*
X150951904Y-109703690D01*
X151047142Y-109751309D01*
X151094761Y-109798928D01*
X151142380Y-109894166D01*
X151142380Y-110084642D01*
X151094761Y-110179880D01*
X151142380Y-109132261D02*
X151094761Y-109227500D01*
X151047142Y-109275119D01*
X150951904Y-109322738D01*
X150666190Y-109322738D01*
X150570952Y-109275119D01*
X150523333Y-109227500D01*
X150475714Y-109132261D01*
X150475714Y-108989404D01*
X150523333Y-108894166D01*
X150570952Y-108846547D01*
X150666190Y-108798928D01*
X150951904Y-108798928D01*
X151047142Y-108846547D01*
X151094761Y-108894166D01*
X151142380Y-108989404D01*
X151142380Y-109132261D01*
X151094761Y-108417976D02*
X151142380Y-108322738D01*
X151142380Y-108132261D01*
X151094761Y-108037023D01*
X150999523Y-107989404D01*
X150951904Y-107989404D01*
X150856666Y-108037023D01*
X150809047Y-108132261D01*
X150809047Y-108275119D01*
X150761428Y-108370357D01*
X150666190Y-108417976D01*
X150618571Y-108417976D01*
X150523333Y-108370357D01*
X150475714Y-108275119D01*
X150475714Y-108132261D01*
X150523333Y-108037023D01*
X151142380Y-107560833D02*
X150475714Y-107560833D01*
X150142380Y-107560833D02*
X150190000Y-107608452D01*
X150237619Y-107560833D01*
X150190000Y-107513214D01*
X150142380Y-107560833D01*
X150237619Y-107560833D01*
X150475714Y-107227500D02*
X150475714Y-106846547D01*
X150142380Y-107084642D02*
X150999523Y-107084642D01*
X151094761Y-107037023D01*
X151142380Y-106941785D01*
X151142380Y-106846547D01*
X151094761Y-106132261D02*
X151142380Y-106227500D01*
X151142380Y-106417976D01*
X151094761Y-106513214D01*
X150999523Y-106560833D01*
X150618571Y-106560833D01*
X150523333Y-106513214D01*
X150475714Y-106417976D01*
X150475714Y-106227500D01*
X150523333Y-106132261D01*
X150618571Y-106084642D01*
X150713809Y-106084642D01*
X150809047Y-106560833D01*
X150475714Y-104894166D02*
X151475714Y-104894166D01*
X150523333Y-104894166D02*
X150475714Y-104798928D01*
X150475714Y-104608452D01*
X150523333Y-104513214D01*
X150570952Y-104465595D01*
X150666190Y-104417976D01*
X150951904Y-104417976D01*
X151047142Y-104465595D01*
X151094761Y-104513214D01*
X151142380Y-104608452D01*
X151142380Y-104798928D01*
X151094761Y-104894166D01*
X151142380Y-103846547D02*
X151094761Y-103941785D01*
X151047142Y-103989404D01*
X150951904Y-104037023D01*
X150666190Y-104037023D01*
X150570952Y-103989404D01*
X150523333Y-103941785D01*
X150475714Y-103846547D01*
X150475714Y-103703690D01*
X150523333Y-103608452D01*
X150570952Y-103560833D01*
X150666190Y-103513214D01*
X150951904Y-103513214D01*
X151047142Y-103560833D01*
X151094761Y-103608452D01*
X151142380Y-103703690D01*
X151142380Y-103846547D01*
X151094761Y-103132261D02*
X151142380Y-103037023D01*
X151142380Y-102846547D01*
X151094761Y-102751309D01*
X150999523Y-102703690D01*
X150951904Y-102703690D01*
X150856666Y-102751309D01*
X150809047Y-102846547D01*
X150809047Y-102989404D01*
X150761428Y-103084642D01*
X150666190Y-103132261D01*
X150618571Y-103132261D01*
X150523333Y-103084642D01*
X150475714Y-102989404D01*
X150475714Y-102846547D01*
X150523333Y-102751309D01*
X151142380Y-102275119D02*
X150475714Y-102275119D01*
X150142380Y-102275119D02*
X150190000Y-102322738D01*
X150237619Y-102275119D01*
X150190000Y-102227500D01*
X150142380Y-102275119D01*
X150237619Y-102275119D01*
X150475714Y-101941785D02*
X150475714Y-101560833D01*
X150142380Y-101798928D02*
X150999523Y-101798928D01*
X151094761Y-101751309D01*
X151142380Y-101656071D01*
X151142380Y-101560833D01*
X151142380Y-101227500D02*
X150475714Y-101227500D01*
X150142380Y-101227500D02*
X150190000Y-101275119D01*
X150237619Y-101227500D01*
X150190000Y-101179880D01*
X150142380Y-101227500D01*
X150237619Y-101227500D01*
X151142380Y-100608452D02*
X151094761Y-100703690D01*
X151047142Y-100751309D01*
X150951904Y-100798928D01*
X150666190Y-100798928D01*
X150570952Y-100751309D01*
X150523333Y-100703690D01*
X150475714Y-100608452D01*
X150475714Y-100465595D01*
X150523333Y-100370357D01*
X150570952Y-100322738D01*
X150666190Y-100275119D01*
X150951904Y-100275119D01*
X151047142Y-100322738D01*
X151094761Y-100370357D01*
X151142380Y-100465595D01*
X151142380Y-100608452D01*
X150475714Y-99846547D02*
X151142380Y-99846547D01*
X150570952Y-99846547D02*
X150523333Y-99798928D01*
X150475714Y-99703690D01*
X150475714Y-99560833D01*
X150523333Y-99465595D01*
X150618571Y-99417976D01*
X151142380Y-99417976D01*
X151047142Y-98941785D02*
X151094761Y-98894166D01*
X151142380Y-98941785D01*
X151094761Y-98989404D01*
X151047142Y-98941785D01*
X151142380Y-98941785D01*
X150761428Y-98941785D02*
X150190000Y-98989404D01*
X150142380Y-98941785D01*
X150190000Y-98894166D01*
X150761428Y-98941785D01*
X150142380Y-98941785D01*
X114472619Y-78361904D02*
X114472619Y-77561904D01*
X114815476Y-77638095D02*
X114853571Y-77600000D01*
X114929761Y-77561904D01*
X115120238Y-77561904D01*
X115196428Y-77600000D01*
X115234523Y-77638095D01*
X115272619Y-77714285D01*
X115272619Y-77790476D01*
X115234523Y-77904761D01*
X114777380Y-78361904D01*
X115272619Y-78361904D01*
X115958333Y-78323809D02*
X115882142Y-78361904D01*
X115729761Y-78361904D01*
X115653571Y-78323809D01*
X115615476Y-78285714D01*
X115577380Y-78209523D01*
X115577380Y-77980952D01*
X115615476Y-77904761D01*
X115653571Y-77866666D01*
X115729761Y-77828571D01*
X115882142Y-77828571D01*
X115958333Y-77866666D01*
X116910714Y-78361904D02*
X116910714Y-77561904D01*
X117215476Y-77561904D01*
X117291666Y-77600000D01*
X117329761Y-77638095D01*
X117367857Y-77714285D01*
X117367857Y-77828571D01*
X117329761Y-77904761D01*
X117291666Y-77942857D01*
X117215476Y-77980952D01*
X116910714Y-77980952D01*
X118053571Y-77828571D02*
X118053571Y-78361904D01*
X117710714Y-77828571D02*
X117710714Y-78247619D01*
X117748809Y-78323809D01*
X117825000Y-78361904D01*
X117939285Y-78361904D01*
X118015476Y-78323809D01*
X118053571Y-78285714D01*
X118548809Y-78361904D02*
X118472619Y-78323809D01*
X118434523Y-78247619D01*
X118434523Y-77561904D01*
X118967857Y-78361904D02*
X118891666Y-78323809D01*
X118853571Y-78247619D01*
X118853571Y-77561904D01*
X119272619Y-78057142D02*
X119882142Y-78057142D01*
X120605952Y-77828571D02*
X120605952Y-78361904D01*
X120263095Y-77828571D02*
X120263095Y-78247619D01*
X120301190Y-78323809D01*
X120377380Y-78361904D01*
X120491666Y-78361904D01*
X120567857Y-78323809D01*
X120605952Y-78285714D01*
X120986904Y-77828571D02*
X120986904Y-78628571D01*
X120986904Y-77866666D02*
X121063095Y-77828571D01*
X121215476Y-77828571D01*
X121291666Y-77866666D01*
X121329761Y-77904761D01*
X121367857Y-77980952D01*
X121367857Y-78209523D01*
X121329761Y-78285714D01*
X121291666Y-78323809D01*
X121215476Y-78361904D01*
X121063095Y-78361904D01*
X120986904Y-78323809D01*
X121672619Y-78323809D02*
X121748809Y-78361904D01*
X121901190Y-78361904D01*
X121977380Y-78323809D01*
X122015476Y-78247619D01*
X122015476Y-78209523D01*
X121977380Y-78133333D01*
X121901190Y-78095238D01*
X121786904Y-78095238D01*
X121710714Y-78057142D01*
X121672619Y-77980952D01*
X121672619Y-77942857D01*
X121710714Y-77866666D01*
X121786904Y-77828571D01*
X121901190Y-77828571D01*
X121977380Y-77866666D01*
X143864285Y-113886904D02*
X143864285Y-114458333D01*
X143826190Y-114572619D01*
X143750000Y-114648809D01*
X143635714Y-114686904D01*
X143559523Y-114686904D01*
X144588095Y-114153571D02*
X144588095Y-114686904D01*
X144245238Y-114153571D02*
X144245238Y-114572619D01*
X144283333Y-114648809D01*
X144359523Y-114686904D01*
X144473809Y-114686904D01*
X144550000Y-114648809D01*
X144588095Y-114610714D01*
X144969047Y-114686904D02*
X144969047Y-114153571D01*
X144969047Y-114229761D02*
X145007142Y-114191666D01*
X145083333Y-114153571D01*
X145197619Y-114153571D01*
X145273809Y-114191666D01*
X145311904Y-114267857D01*
X145311904Y-114686904D01*
X145311904Y-114267857D02*
X145350000Y-114191666D01*
X145426190Y-114153571D01*
X145540476Y-114153571D01*
X145616666Y-114191666D01*
X145654761Y-114267857D01*
X145654761Y-114686904D01*
X146035714Y-114153571D02*
X146035714Y-114953571D01*
X146035714Y-114191666D02*
X146111904Y-114153571D01*
X146264285Y-114153571D01*
X146340476Y-114191666D01*
X146378571Y-114229761D01*
X146416666Y-114305952D01*
X146416666Y-114534523D01*
X146378571Y-114610714D01*
X146340476Y-114648809D01*
X146264285Y-114686904D01*
X146111904Y-114686904D01*
X146035714Y-114648809D01*
X147064285Y-114648809D02*
X146988095Y-114686904D01*
X146835714Y-114686904D01*
X146759523Y-114648809D01*
X146721428Y-114572619D01*
X146721428Y-114267857D01*
X146759523Y-114191666D01*
X146835714Y-114153571D01*
X146988095Y-114153571D01*
X147064285Y-114191666D01*
X147102380Y-114267857D01*
X147102380Y-114344047D01*
X146721428Y-114420238D01*
X147445238Y-114686904D02*
X147445238Y-114153571D01*
X147445238Y-114305952D02*
X147483333Y-114229761D01*
X147521428Y-114191666D01*
X147597619Y-114153571D01*
X147673809Y-114153571D01*
X148435714Y-114153571D02*
X148740476Y-114153571D01*
X148550000Y-113886904D02*
X148550000Y-114572619D01*
X148588095Y-114648809D01*
X148664285Y-114686904D01*
X148740476Y-114686904D01*
X149121428Y-114686904D02*
X149045238Y-114648809D01*
X149007142Y-114610714D01*
X148969047Y-114534523D01*
X148969047Y-114305952D01*
X149007142Y-114229761D01*
X149045238Y-114191666D01*
X149121428Y-114153571D01*
X149235714Y-114153571D01*
X149311904Y-114191666D01*
X149350000Y-114229761D01*
X149388095Y-114305952D01*
X149388095Y-114534523D01*
X149350000Y-114610714D01*
X149311904Y-114648809D01*
X149235714Y-114686904D01*
X149121428Y-114686904D01*
X150683333Y-114686904D02*
X150683333Y-113886904D01*
X150683333Y-114648809D02*
X150607142Y-114686904D01*
X150454761Y-114686904D01*
X150378571Y-114648809D01*
X150340476Y-114610714D01*
X150302380Y-114534523D01*
X150302380Y-114305952D01*
X150340476Y-114229761D01*
X150378571Y-114191666D01*
X150454761Y-114153571D01*
X150607142Y-114153571D01*
X150683333Y-114191666D01*
X151064285Y-114686904D02*
X151064285Y-114153571D01*
X151064285Y-113886904D02*
X151026190Y-113925000D01*
X151064285Y-113963095D01*
X151102380Y-113925000D01*
X151064285Y-113886904D01*
X151064285Y-113963095D01*
X151407142Y-114648809D02*
X151483333Y-114686904D01*
X151635714Y-114686904D01*
X151711904Y-114648809D01*
X151750000Y-114572619D01*
X151750000Y-114534523D01*
X151711904Y-114458333D01*
X151635714Y-114420238D01*
X151521428Y-114420238D01*
X151445238Y-114382142D01*
X151407142Y-114305952D01*
X151407142Y-114267857D01*
X151445238Y-114191666D01*
X151521428Y-114153571D01*
X151635714Y-114153571D01*
X151711904Y-114191666D01*
X152435714Y-114686904D02*
X152435714Y-114267857D01*
X152397619Y-114191666D01*
X152321428Y-114153571D01*
X152169047Y-114153571D01*
X152092857Y-114191666D01*
X152435714Y-114648809D02*
X152359523Y-114686904D01*
X152169047Y-114686904D01*
X152092857Y-114648809D01*
X152054761Y-114572619D01*
X152054761Y-114496428D01*
X152092857Y-114420238D01*
X152169047Y-114382142D01*
X152359523Y-114382142D01*
X152435714Y-114344047D01*
X152816666Y-114686904D02*
X152816666Y-113886904D01*
X152816666Y-114191666D02*
X152892857Y-114153571D01*
X153045238Y-114153571D01*
X153121428Y-114191666D01*
X153159523Y-114229761D01*
X153197619Y-114305952D01*
X153197619Y-114534523D01*
X153159523Y-114610714D01*
X153121428Y-114648809D01*
X153045238Y-114686904D01*
X152892857Y-114686904D01*
X152816666Y-114648809D01*
X153654761Y-114686904D02*
X153578571Y-114648809D01*
X153540476Y-114572619D01*
X153540476Y-113886904D01*
X154264285Y-114648809D02*
X154188095Y-114686904D01*
X154035714Y-114686904D01*
X153959523Y-114648809D01*
X153921428Y-114572619D01*
X153921428Y-114267857D01*
X153959523Y-114191666D01*
X154035714Y-114153571D01*
X154188095Y-114153571D01*
X154264285Y-114191666D01*
X154302380Y-114267857D01*
X154302380Y-114344047D01*
X153921428Y-114420238D01*
X122673809Y-99853571D02*
X122711904Y-99739285D01*
X122711904Y-99548809D01*
X122673809Y-99472619D01*
X122635714Y-99434523D01*
X122559523Y-99396428D01*
X122483333Y-99396428D01*
X122407142Y-99434523D01*
X122369047Y-99472619D01*
X122330952Y-99548809D01*
X122292857Y-99701190D01*
X122254761Y-99777380D01*
X122216666Y-99815476D01*
X122140476Y-99853571D01*
X122064285Y-99853571D01*
X121988095Y-99815476D01*
X121950000Y-99777380D01*
X121911904Y-99701190D01*
X121911904Y-99510714D01*
X121950000Y-99396428D01*
X122711904Y-99053571D02*
X121911904Y-99053571D01*
X122711904Y-98710714D02*
X122292857Y-98710714D01*
X122216666Y-98748809D01*
X122178571Y-98825000D01*
X122178571Y-98939285D01*
X122216666Y-99015476D01*
X122254761Y-99053571D01*
X122711904Y-98215476D02*
X122673809Y-98291666D01*
X122635714Y-98329761D01*
X122559523Y-98367857D01*
X122330952Y-98367857D01*
X122254761Y-98329761D01*
X122216666Y-98291666D01*
X122178571Y-98215476D01*
X122178571Y-98101190D01*
X122216666Y-98025000D01*
X122254761Y-97986904D01*
X122330952Y-97948809D01*
X122559523Y-97948809D01*
X122635714Y-97986904D01*
X122673809Y-98025000D01*
X122711904Y-98101190D01*
X122711904Y-98215476D01*
X122711904Y-97605952D02*
X122178571Y-97605952D01*
X122330952Y-97605952D02*
X122254761Y-97567857D01*
X122216666Y-97529761D01*
X122178571Y-97453571D01*
X122178571Y-97377380D01*
X122178571Y-97225000D02*
X122178571Y-96920238D01*
X121911904Y-97110714D02*
X122597619Y-97110714D01*
X122673809Y-97072619D01*
X122711904Y-96996428D01*
X122711904Y-96920238D01*
X121911904Y-96158333D02*
X122711904Y-95891666D01*
X121911904Y-95625000D01*
X122292857Y-95091666D02*
X122330952Y-94977380D01*
X122369047Y-94939285D01*
X122445238Y-94901190D01*
X122559523Y-94901190D01*
X122635714Y-94939285D01*
X122673809Y-94977380D01*
X122711904Y-95053571D01*
X122711904Y-95358333D01*
X121911904Y-95358333D01*
X121911904Y-95091666D01*
X121950000Y-95015476D01*
X121988095Y-94977380D01*
X122064285Y-94939285D01*
X122140476Y-94939285D01*
X122216666Y-94977380D01*
X122254761Y-95015476D01*
X122292857Y-95091666D01*
X122292857Y-95358333D01*
X122711904Y-93301190D02*
X122711904Y-93339285D01*
X122673809Y-93415476D01*
X122559523Y-93529761D01*
X122330952Y-93720238D01*
X122216666Y-93796428D01*
X122102380Y-93834523D01*
X122026190Y-93834523D01*
X121950000Y-93796428D01*
X121911904Y-93720238D01*
X121911904Y-93682142D01*
X121950000Y-93605952D01*
X122026190Y-93567857D01*
X122064285Y-93567857D01*
X122140476Y-93605952D01*
X122178571Y-93644047D01*
X122330952Y-93872619D01*
X122369047Y-93910714D01*
X122445238Y-93948809D01*
X122559523Y-93948809D01*
X122635714Y-93910714D01*
X122673809Y-93872619D01*
X122711904Y-93796428D01*
X122711904Y-93682142D01*
X122673809Y-93605952D01*
X122635714Y-93567857D01*
X122483333Y-93453571D01*
X122369047Y-93415476D01*
X122292857Y-93415476D01*
X121911904Y-91967857D02*
X121911904Y-92348809D01*
X122292857Y-92386904D01*
X122254761Y-92348809D01*
X122216666Y-92272619D01*
X122216666Y-92082142D01*
X122254761Y-92005952D01*
X122292857Y-91967857D01*
X122369047Y-91929761D01*
X122559523Y-91929761D01*
X122635714Y-91967857D01*
X122673809Y-92005952D01*
X122711904Y-92082142D01*
X122711904Y-92272619D01*
X122673809Y-92348809D01*
X122635714Y-92386904D01*
X121911904Y-91701190D02*
X122711904Y-91434523D01*
X121911904Y-91167857D01*
X122178571Y-90405952D02*
X122178571Y-90101190D01*
X122711904Y-90291666D02*
X122026190Y-90291666D01*
X121950000Y-90253571D01*
X121911904Y-90177380D01*
X121911904Y-90101190D01*
X122711904Y-89720238D02*
X122673809Y-89796428D01*
X122635714Y-89834523D01*
X122559523Y-89872619D01*
X122330952Y-89872619D01*
X122254761Y-89834523D01*
X122216666Y-89796428D01*
X122178571Y-89720238D01*
X122178571Y-89605952D01*
X122216666Y-89529761D01*
X122254761Y-89491666D01*
X122330952Y-89453571D01*
X122559523Y-89453571D01*
X122635714Y-89491666D01*
X122673809Y-89529761D01*
X122711904Y-89605952D01*
X122711904Y-89720238D01*
X122711904Y-89110714D02*
X122178571Y-89110714D01*
X122330952Y-89110714D02*
X122254761Y-89072619D01*
X122216666Y-89034523D01*
X122178571Y-88958333D01*
X122178571Y-88882142D01*
X122711904Y-87663095D02*
X121911904Y-87663095D01*
X122673809Y-87663095D02*
X122711904Y-87739285D01*
X122711904Y-87891666D01*
X122673809Y-87967857D01*
X122635714Y-88005952D01*
X122559523Y-88044047D01*
X122330952Y-88044047D01*
X122254761Y-88005952D01*
X122216666Y-87967857D01*
X122178571Y-87891666D01*
X122178571Y-87739285D01*
X122216666Y-87663095D01*
X122711904Y-87282142D02*
X122178571Y-87282142D01*
X121911904Y-87282142D02*
X121950000Y-87320238D01*
X121988095Y-87282142D01*
X121950000Y-87244047D01*
X121911904Y-87282142D01*
X121988095Y-87282142D01*
X122711904Y-86901190D02*
X122178571Y-86901190D01*
X122330952Y-86901190D02*
X122254761Y-86863095D01*
X122216666Y-86825000D01*
X122178571Y-86748809D01*
X122178571Y-86672619D01*
X122673809Y-86101190D02*
X122711904Y-86177380D01*
X122711904Y-86329761D01*
X122673809Y-86405952D01*
X122597619Y-86444047D01*
X122292857Y-86444047D01*
X122216666Y-86405952D01*
X122178571Y-86329761D01*
X122178571Y-86177380D01*
X122216666Y-86101190D01*
X122292857Y-86063095D01*
X122369047Y-86063095D01*
X122445238Y-86444047D01*
X122673809Y-85377380D02*
X122711904Y-85453571D01*
X122711904Y-85605952D01*
X122673809Y-85682142D01*
X122635714Y-85720238D01*
X122559523Y-85758333D01*
X122330952Y-85758333D01*
X122254761Y-85720238D01*
X122216666Y-85682142D01*
X122178571Y-85605952D01*
X122178571Y-85453571D01*
X122216666Y-85377380D01*
X122178571Y-85148809D02*
X122178571Y-84844047D01*
X121911904Y-85034523D02*
X122597619Y-85034523D01*
X122673809Y-84996428D01*
X122711904Y-84920238D01*
X122711904Y-84844047D01*
X122711904Y-83967857D02*
X121911904Y-83967857D01*
X121911904Y-83663095D01*
X121950000Y-83586904D01*
X121988095Y-83548809D01*
X122064285Y-83510714D01*
X122178571Y-83510714D01*
X122254761Y-83548809D01*
X122292857Y-83586904D01*
X122330952Y-83663095D01*
X122330952Y-83967857D01*
X121911904Y-83244047D02*
X122711904Y-83053571D01*
X122140476Y-82901190D01*
X122711904Y-82748809D01*
X121911904Y-82558333D01*
X122711904Y-81796428D02*
X122330952Y-82063095D01*
X122711904Y-82253571D02*
X121911904Y-82253571D01*
X121911904Y-81948809D01*
X121950000Y-81872619D01*
X121988095Y-81834523D01*
X122064285Y-81796428D01*
X122178571Y-81796428D01*
X122254761Y-81834523D01*
X122292857Y-81872619D01*
X122330952Y-81948809D01*
X122330952Y-82253571D01*
D10*
X121117857Y-123260714D02*
X122032142Y-123260714D01*
D11*
X143795238Y-116942857D02*
X144061904Y-116942857D01*
X144176190Y-117361904D02*
X143795238Y-117361904D01*
X143795238Y-116561904D01*
X144176190Y-116561904D01*
X144519047Y-117361904D02*
X144519047Y-116561904D01*
X144785714Y-117133333D01*
X145052380Y-116561904D01*
X145052380Y-117361904D01*
X145433333Y-117361904D02*
X145433333Y-116561904D01*
X145700000Y-117133333D01*
X145966666Y-116561904D01*
X145966666Y-117361904D01*
X146804761Y-117285714D02*
X146766666Y-117323809D01*
X146652380Y-117361904D01*
X146576190Y-117361904D01*
X146461904Y-117323809D01*
X146385714Y-117247619D01*
X146347619Y-117171428D01*
X146309523Y-117019047D01*
X146309523Y-116904761D01*
X146347619Y-116752380D01*
X146385714Y-116676190D01*
X146461904Y-116600000D01*
X146576190Y-116561904D01*
X146652380Y-116561904D01*
X146766666Y-116600000D01*
X146804761Y-116638095D01*
X147757142Y-117361904D02*
X147757142Y-116561904D01*
X147757142Y-116866666D02*
X147833333Y-116828571D01*
X147985714Y-116828571D01*
X148061904Y-116866666D01*
X148100000Y-116904761D01*
X148138095Y-116980952D01*
X148138095Y-117209523D01*
X148100000Y-117285714D01*
X148061904Y-117323809D01*
X147985714Y-117361904D01*
X147833333Y-117361904D01*
X147757142Y-117323809D01*
X148595238Y-117361904D02*
X148519047Y-117323809D01*
X148480952Y-117285714D01*
X148442857Y-117209523D01*
X148442857Y-116980952D01*
X148480952Y-116904761D01*
X148519047Y-116866666D01*
X148595238Y-116828571D01*
X148709523Y-116828571D01*
X148785714Y-116866666D01*
X148823809Y-116904761D01*
X148861904Y-116980952D01*
X148861904Y-117209523D01*
X148823809Y-117285714D01*
X148785714Y-117323809D01*
X148709523Y-117361904D01*
X148595238Y-117361904D01*
X149319047Y-117361904D02*
X149242857Y-117323809D01*
X149204761Y-117285714D01*
X149166666Y-117209523D01*
X149166666Y-116980952D01*
X149204761Y-116904761D01*
X149242857Y-116866666D01*
X149319047Y-116828571D01*
X149433333Y-116828571D01*
X149509523Y-116866666D01*
X149547619Y-116904761D01*
X149585714Y-116980952D01*
X149585714Y-117209523D01*
X149547619Y-117285714D01*
X149509523Y-117323809D01*
X149433333Y-117361904D01*
X149319047Y-117361904D01*
X149814285Y-116828571D02*
X150119047Y-116828571D01*
X149928571Y-116561904D02*
X149928571Y-117247619D01*
X149966666Y-117323809D01*
X150042857Y-117361904D01*
X150119047Y-117361904D01*
%TO.C,J10*%
X122697619Y-100261904D02*
X122316666Y-100261904D01*
X122278571Y-100642857D01*
X122316666Y-100604761D01*
X122392857Y-100566666D01*
X122583333Y-100566666D01*
X122659523Y-100604761D01*
X122697619Y-100642857D01*
X122735714Y-100719047D01*
X122735714Y-100909523D01*
X122697619Y-100985714D01*
X122659523Y-101023809D01*
X122583333Y-101061904D01*
X122392857Y-101061904D01*
X122316666Y-101023809D01*
X122278571Y-100985714D01*
X122964285Y-100261904D02*
X123230952Y-101061904D01*
X123497619Y-100261904D01*
%TO.C,J11*%
X123725000Y-106184523D02*
X123686904Y-106260714D01*
X123686904Y-106375000D01*
X123725000Y-106489285D01*
X123801190Y-106565476D01*
X123877380Y-106603571D01*
X124029761Y-106641666D01*
X124144047Y-106641666D01*
X124296428Y-106603571D01*
X124372619Y-106565476D01*
X124448809Y-106489285D01*
X124486904Y-106375000D01*
X124486904Y-106298809D01*
X124448809Y-106184523D01*
X124410714Y-106146428D01*
X124144047Y-106146428D01*
X124144047Y-106298809D01*
X124486904Y-105803571D02*
X123686904Y-105803571D01*
X124486904Y-105346428D01*
X123686904Y-105346428D01*
X124486904Y-104965476D02*
X123686904Y-104965476D01*
X123686904Y-104775000D01*
X123725000Y-104660714D01*
X123801190Y-104584523D01*
X123877380Y-104546428D01*
X124029761Y-104508333D01*
X124144047Y-104508333D01*
X124296428Y-104546428D01*
X124372619Y-104584523D01*
X124448809Y-104660714D01*
X124486904Y-104775000D01*
X124486904Y-104965476D01*
%TO.C,J4*%
X117583333Y-101061904D02*
X117850000Y-101861904D01*
X118116666Y-101061904D01*
X118650000Y-101442857D02*
X118764285Y-101480952D01*
X118802380Y-101519047D01*
X118840476Y-101595238D01*
X118840476Y-101709523D01*
X118802380Y-101785714D01*
X118764285Y-101823809D01*
X118688095Y-101861904D01*
X118383333Y-101861904D01*
X118383333Y-101061904D01*
X118650000Y-101061904D01*
X118726190Y-101100000D01*
X118764285Y-101138095D01*
X118802380Y-101214285D01*
X118802380Y-101290476D01*
X118764285Y-101366666D01*
X118726190Y-101404761D01*
X118650000Y-101442857D01*
X118383333Y-101442857D01*
D12*
%TO.C,U5*%
X118200000Y-111617000D02*
X118200000Y-111242000D01*
X118200000Y-111617000D02*
X117825000Y-111617000D01*
X114050000Y-111617000D02*
X114050000Y-111242000D01*
X118200000Y-107467000D02*
X117825000Y-107467000D01*
X114050000Y-107467000D02*
X114050000Y-107842000D01*
X118200000Y-107467000D02*
X118200000Y-107842000D01*
X114050000Y-111617000D02*
X114425000Y-111617000D01*
X114050000Y-107467000D02*
X114425000Y-107467000D01*
D13*
X117475000Y-106512000D02*
G75*
G03*
X117475000Y-106512000I-100000J0D01*
G01*
D14*
%TO.C,C10*%
X139943000Y-121833578D02*
X139943000Y-121316422D01*
X138523000Y-121833578D02*
X138523000Y-121316422D01*
%TO.C,C13*%
X142673000Y-121833578D02*
X142673000Y-121316422D01*
X144093000Y-121833578D02*
X144093000Y-121316422D01*
%TO.C,J5*%
X136950000Y-128000000D02*
X136950000Y-129340000D01*
X122650000Y-128000000D02*
X122650000Y-129340000D01*
X136950000Y-133800000D02*
X136950000Y-132060000D01*
X124140000Y-128000000D02*
X124140000Y-126800000D01*
X124140000Y-128000000D02*
X122650000Y-128000000D01*
X122650000Y-133800000D02*
X136950000Y-133800000D01*
X135460000Y-128000000D02*
X136950000Y-128000000D01*
X122650000Y-132060000D02*
X122650000Y-133800000D01*
%TO.C,C15*%
X119865000Y-112312779D02*
X119865000Y-111987221D01*
X120885000Y-112312779D02*
X120885000Y-111987221D01*
%TO.C,J6*%
X118025000Y-51002500D02*
X118025000Y-51252500D01*
X125825000Y-53552500D02*
X125825000Y-55402500D01*
X118025000Y-53552500D02*
X118025000Y-55402500D01*
X125825000Y-51002500D02*
X125825000Y-51252500D01*
X118025000Y-55402500D02*
X118475000Y-55402500D01*
X123625000Y-55952500D02*
X123625000Y-55502500D01*
X123625000Y-55952500D02*
X123175000Y-55952500D01*
X125825000Y-55402500D02*
X125375000Y-55402500D01*
D12*
%TO.C,J2*%
X110600000Y-79825000D02*
X110600000Y-83425000D01*
X114850000Y-79425000D02*
X114850000Y-78625000D01*
X114850000Y-83825000D02*
X114850000Y-84625000D01*
X114850000Y-84625000D02*
X112575000Y-84625000D01*
X114850000Y-78625000D02*
X112575000Y-78625000D01*
D15*
X115660000Y-79175000D02*
G75*
G03*
X115660000Y-79175000I-100000J0D01*
G01*
D14*
%TO.C,J9*%
X140042929Y-118530000D02*
X140440000Y-118530000D01*
X140440000Y-114280000D02*
X140440000Y-119480000D01*
X143100000Y-114280000D02*
X140440000Y-114280000D01*
X140440000Y-119480000D02*
X143100000Y-119480000D01*
X140042929Y-117770000D02*
X140440000Y-117770000D01*
X143100000Y-115230000D02*
X149100000Y-115230000D01*
X149100000Y-115990000D02*
X143100000Y-115990000D01*
X149100000Y-115230000D02*
X149100000Y-115990000D01*
X143100000Y-115290000D02*
X149100000Y-115290000D01*
X143100000Y-115650000D02*
X149100000Y-115650000D01*
X143100000Y-115530000D02*
X149100000Y-115530000D01*
X143100000Y-117770000D02*
X149100000Y-117770000D01*
X137730000Y-115610000D02*
X137730000Y-114340000D01*
X149100000Y-117770000D02*
X149100000Y-118530000D01*
X143100000Y-115770000D02*
X149100000Y-115770000D01*
X140110000Y-115230000D02*
X140440000Y-115230000D01*
X140440000Y-116880000D02*
X143100000Y-116880000D01*
X143100000Y-119480000D02*
X143100000Y-114280000D01*
X137730000Y-114340000D02*
X139000000Y-114340000D01*
X143100000Y-115890000D02*
X149100000Y-115890000D01*
X143100000Y-115410000D02*
X149100000Y-115410000D01*
X140110000Y-115990000D02*
X140440000Y-115990000D01*
X149100000Y-118530000D02*
X143100000Y-118530000D01*
D16*
%TO.C,L2*%
X128202000Y-118077000D02*
X128202000Y-115123000D01*
X122848000Y-115123000D02*
X122848000Y-118077000D01*
X123942260Y-113964372D02*
X122848000Y-115123000D01*
X122848000Y-118077000D02*
X123942260Y-119235628D01*
X127107740Y-119235628D02*
X128202000Y-118077000D01*
X128202000Y-115123000D02*
X127107740Y-113964372D01*
D14*
%TO.C,J1*%
X115625000Y-76930000D02*
X118285000Y-76930000D01*
X120995000Y-76870000D02*
X119725000Y-76870000D01*
X120995000Y-75600000D02*
X120995000Y-76870000D01*
X118682071Y-70900000D02*
X118285000Y-70900000D01*
X115625000Y-68360000D02*
X109625000Y-68360000D01*
X115625000Y-75440000D02*
X109625000Y-75440000D01*
X109625000Y-62520000D02*
X115625000Y-62520000D01*
X118615000Y-75980000D02*
X118285000Y-75980000D01*
X118682071Y-65060000D02*
X118285000Y-65060000D01*
X115625000Y-75980000D02*
X109625000Y-75980000D01*
X118682071Y-73440000D02*
X118285000Y-73440000D01*
X109625000Y-75220000D02*
X115625000Y-75220000D01*
X115625000Y-75320000D02*
X109625000Y-75320000D01*
X109625000Y-68360000D02*
X109625000Y-67600000D01*
X118682071Y-70140000D02*
X118285000Y-70140000D01*
X118682071Y-62520000D02*
X118285000Y-62520000D01*
X118285000Y-59030000D02*
X115625000Y-59030000D01*
X109625000Y-70900000D02*
X109625000Y-70140000D01*
X115625000Y-75680000D02*
X109625000Y-75680000D01*
X109625000Y-60740000D02*
X109625000Y-59980000D01*
X118285000Y-61630000D02*
X115625000Y-61630000D01*
X118682071Y-72680000D02*
X118285000Y-72680000D01*
X109625000Y-72680000D02*
X115625000Y-72680000D01*
X118615000Y-75220000D02*
X118285000Y-75220000D01*
X109625000Y-59980000D02*
X115625000Y-59980000D01*
X118285000Y-71790000D02*
X115625000Y-71790000D01*
X115625000Y-65820000D02*
X109625000Y-65820000D01*
X115625000Y-73440000D02*
X109625000Y-73440000D01*
X115625000Y-59030000D02*
X115625000Y-76930000D01*
X118285000Y-69250000D02*
X115625000Y-69250000D01*
X118285000Y-76930000D02*
X118285000Y-59030000D01*
X109625000Y-67600000D02*
X115625000Y-67600000D01*
X109625000Y-65820000D02*
X109625000Y-65060000D01*
X109625000Y-65060000D02*
X115625000Y-65060000D01*
X118682071Y-67600000D02*
X118285000Y-67600000D01*
X109625000Y-70140000D02*
X115625000Y-70140000D01*
X115625000Y-75800000D02*
X109625000Y-75800000D01*
X118682071Y-68360000D02*
X118285000Y-68360000D01*
X109625000Y-63280000D02*
X109625000Y-62520000D01*
X115625000Y-70900000D02*
X109625000Y-70900000D01*
X118682071Y-60740000D02*
X118285000Y-60740000D01*
X115625000Y-75920000D02*
X109625000Y-75920000D01*
X118285000Y-66710000D02*
X115625000Y-66710000D01*
X118682071Y-63280000D02*
X118285000Y-63280000D01*
X115625000Y-75560000D02*
X109625000Y-75560000D01*
X109625000Y-75980000D02*
X109625000Y-75220000D01*
X115625000Y-63280000D02*
X109625000Y-63280000D01*
X109625000Y-73440000D02*
X109625000Y-72680000D01*
X118285000Y-64170000D02*
X115625000Y-64170000D01*
X118682071Y-59980000D02*
X118285000Y-59980000D01*
X118682071Y-65820000D02*
X118285000Y-65820000D01*
X115625000Y-60740000D02*
X109625000Y-60740000D01*
X118285000Y-74330000D02*
X115625000Y-74330000D01*
%TO.C,R4*%
X120185000Y-130475279D02*
X120185000Y-130149721D01*
X119165000Y-130475279D02*
X119165000Y-130149721D01*
%TO.C,R1*%
X117490000Y-130475279D02*
X117490000Y-130149721D01*
X118510000Y-130475279D02*
X118510000Y-130149721D01*
%TO.C,C1*%
X156310000Y-123153922D02*
X156310000Y-123671078D01*
X154890000Y-123153922D02*
X154890000Y-123671078D01*
D12*
%TO.C,S1*%
X161775000Y-118127500D02*
X161775000Y-118927500D01*
X158275000Y-127127500D02*
X161775000Y-127127500D01*
X158275000Y-126277500D02*
X158275000Y-127127500D01*
X158275000Y-118927500D02*
X158275000Y-118127500D01*
X161775000Y-127127500D02*
X161775000Y-126327500D01*
X158275000Y-118127500D02*
X161775000Y-118127500D01*
D13*
X158345000Y-127827500D02*
G75*
G03*
X158345000Y-127827500I-120000J0D01*
G01*
D16*
%TO.C,CR1*%
X118431000Y-97686000D02*
X117669000Y-97051000D01*
X117669000Y-98321000D02*
X117669000Y-97051000D01*
X115624300Y-100038040D02*
X115624300Y-100683200D01*
X118431000Y-97686000D02*
X117669000Y-97305000D01*
X118431000Y-97686000D02*
X117669000Y-97813000D01*
X118431000Y-97686000D02*
X117669000Y-97178000D01*
X120475700Y-97111960D02*
X120475700Y-96466800D01*
X118431000Y-97686000D02*
X117669000Y-98321000D01*
X118431000Y-97686000D02*
X117669000Y-98067000D01*
X118431000Y-97686000D02*
X117669000Y-97559000D01*
X118431000Y-97686000D02*
X117669000Y-98194000D01*
X115624300Y-100683200D02*
X120475700Y-100683200D01*
X118431000Y-97686000D02*
X117669000Y-97432000D01*
X120475700Y-96466800D02*
X115624300Y-96466800D01*
X120475700Y-100683200D02*
X120475700Y-100038040D01*
X115624300Y-96466800D02*
X115624300Y-97111960D01*
X118431000Y-97686000D02*
X117669000Y-97940000D01*
X117415000Y-97686000D02*
X118685000Y-97686000D01*
X118431000Y-98321000D02*
X118431000Y-97051000D01*
D14*
%TO.C,Module1*%
X157270000Y-76675000D02*
X161050000Y-76675000D01*
X161050000Y-76675000D02*
X161050000Y-77675000D01*
X161050000Y-99475000D02*
X161050000Y-98475000D01*
X127130000Y-99475000D02*
X127130000Y-98475000D01*
X157270000Y-76675000D02*
X157270000Y-77675000D01*
X158700000Y-58075000D02*
X125700000Y-58075000D01*
X123350000Y-99475000D02*
X127130000Y-99475000D01*
X123350000Y-76675000D02*
X127130000Y-76675000D01*
X157270000Y-99475000D02*
X157270000Y-98475000D01*
X123350000Y-99475000D02*
X123350000Y-98475000D01*
X125700000Y-113075000D02*
X158700000Y-113075000D01*
X122200000Y-61575000D02*
X122200000Y-76555000D01*
X157270000Y-99475000D02*
X161050000Y-99475000D01*
X162200000Y-109575000D02*
X162200000Y-61575000D01*
X125700000Y-113075000D02*
G75*
G02*
X122200000Y-109575000I0J3500000D01*
G01*
X162200000Y-109575000D02*
G75*
G02*
X158700000Y-113075000I-3500000J0D01*
G01*
X158700000Y-58075000D02*
G75*
G02*
X162200000Y-61575000I0J-3500000D01*
G01*
X122200000Y-61575000D02*
G75*
G02*
X125700000Y-58075000I3500000J0D01*
G01*
%TO.C,C18*%
X117141422Y-113440000D02*
X117658578Y-113440000D01*
X117141422Y-114860000D02*
X117658578Y-114860000D01*
%TO.C,C9*%
X128840000Y-119366422D02*
X128840000Y-119883578D01*
X130260000Y-119366422D02*
X130260000Y-119883578D01*
%TO.C,R12*%
X111562221Y-106490000D02*
X111887779Y-106490000D01*
X111562221Y-107510000D02*
X111887779Y-107510000D01*
%TO.C,C11*%
X119137221Y-104282000D02*
X119462779Y-104282000D01*
X119137221Y-105302000D02*
X119462779Y-105302000D01*
%TO.C,D2*%
X118940000Y-132002500D02*
X118940000Y-134287500D01*
X120410000Y-132002500D02*
X118940000Y-132002500D01*
X120410000Y-134287500D02*
X120410000Y-132002500D01*
D16*
%TO.C,L1*%
X132448000Y-113623000D02*
X131289372Y-114717260D01*
X135402000Y-118977000D02*
X136560628Y-117882740D01*
X136560628Y-114717260D02*
X135402000Y-113623000D01*
X131289372Y-117882740D02*
X132448000Y-118977000D01*
X135402000Y-113623000D02*
X132448000Y-113623000D01*
X132448000Y-118977000D02*
X135402000Y-118977000D01*
D11*
%TO.C,U2*%
X148739400Y-53000000D02*
X148739400Y-53300000D01*
X148739400Y-56125000D02*
X149964400Y-56125000D01*
X145389400Y-53000000D02*
X145389400Y-53300000D01*
X148739400Y-53000000D02*
X145389400Y-53000000D01*
X148739400Y-56350000D02*
X148739400Y-56125000D01*
X148739400Y-56350000D02*
X145389400Y-56350000D01*
X145389400Y-56350000D02*
X145389400Y-56050000D01*
D14*
%TO.C,R14*%
X116560000Y-104987221D02*
X116560000Y-105312779D01*
X115540000Y-104987221D02*
X115540000Y-105312779D01*
%TO.C,J3*%
X139750000Y-132060000D02*
X139750000Y-133800000D01*
X141240000Y-128000000D02*
X139750000Y-128000000D01*
X154050000Y-128000000D02*
X154050000Y-129340000D01*
X141240000Y-128000000D02*
X141240000Y-126800000D01*
X152560000Y-128000000D02*
X154050000Y-128000000D01*
X139750000Y-128000000D02*
X139750000Y-129340000D01*
X139750000Y-133800000D02*
X154050000Y-133800000D01*
X154050000Y-133800000D02*
X154050000Y-132060000D01*
%TO.C,R2*%
X118633578Y-81110000D02*
X118116422Y-81110000D01*
X118633578Y-79690000D02*
X118116422Y-79690000D01*
%TO.C,R13*%
X111587221Y-109685000D02*
X111912779Y-109685000D01*
X111587221Y-108665000D02*
X111912779Y-108665000D01*
%TO.C,C17*%
X114183578Y-113440000D02*
X113666422Y-113440000D01*
X114183578Y-114860000D02*
X113666422Y-114860000D01*
%TO.C,R3*%
X118633578Y-81815000D02*
X118116422Y-81815000D01*
X118633578Y-83235000D02*
X118116422Y-83235000D01*
%TO.C,U1*%
X119500000Y-126052500D02*
X118100000Y-126052500D01*
X118100000Y-128372500D02*
X120000000Y-128372500D01*
%TO.C,D1*%
X118685000Y-134287500D02*
X118685000Y-132002500D01*
X117215000Y-132002500D02*
X117215000Y-134287500D01*
X118685000Y-132002500D02*
X117215000Y-132002500D01*
%TO.C,D4*%
X115210000Y-102065000D02*
X112925000Y-102065000D01*
X112925000Y-103535000D02*
X115210000Y-103535000D01*
X115210000Y-103535000D02*
X115210000Y-102065000D01*
%TO.C,C14*%
X119715000Y-107550578D02*
X119715000Y-107033422D01*
X121135000Y-107550578D02*
X121135000Y-107033422D01*
%TO.C,R15*%
X113490000Y-104987221D02*
X113490000Y-105312779D01*
X114510000Y-104987221D02*
X114510000Y-105312779D01*
D16*
%TO.C,J8*%
X113285958Y-95247400D02*
X114812842Y-95247400D01*
X114812842Y-86052600D02*
X113285958Y-86052600D01*
X111012843Y-86052600D02*
X109243600Y-86052600D01*
X109243600Y-95247400D02*
X111012843Y-95247400D01*
X109243600Y-86052600D02*
X109243600Y-95247400D01*
X116330401Y-84274600D02*
G75*
G03*
X116330401Y-84274600I-381000J0D01*
G01*
%TO.C,U4*%
X137078000Y-120125000D02*
X137258000Y-120125000D01*
X134458000Y-120125000D02*
X134458000Y-120300001D01*
X137258000Y-120125000D02*
X137258000Y-120850000D01*
X137108000Y-122925000D02*
X137258000Y-122925000D01*
X134458000Y-122775000D02*
X134458000Y-122925000D01*
X137258000Y-122749999D02*
X137258000Y-122925000D01*
X134458000Y-120125000D02*
X134608000Y-120125000D01*
X134458000Y-122925000D02*
X134633001Y-122925000D01*
D14*
%TO.C,C12*%
X140598000Y-121833578D02*
X140598000Y-121316422D01*
X142018000Y-121833578D02*
X142018000Y-121316422D01*
%TO.C,D3*%
X115365000Y-103535000D02*
X117650000Y-103535000D01*
X115365000Y-102065000D02*
X115365000Y-103535000D01*
X117650000Y-102065000D02*
X115365000Y-102065000D01*
%TO.C,J7*%
X132350000Y-53527500D02*
X132350000Y-55377500D01*
X132350000Y-55377500D02*
X132800000Y-55377500D01*
X132350000Y-50977500D02*
X132350000Y-51227500D01*
X140150000Y-55377500D02*
X139700000Y-55377500D01*
X137950000Y-55927500D02*
X137950000Y-55477500D01*
X140150000Y-53527500D02*
X140150000Y-55377500D01*
X137950000Y-55927500D02*
X137500000Y-55927500D01*
X140150000Y-50977500D02*
X140150000Y-51227500D01*
%TO.C,C2*%
X152890000Y-123153922D02*
X152890000Y-123671078D01*
X154310000Y-123153922D02*
X154310000Y-123671078D01*
%TO.C,B1*%
X119135000Y-118035000D02*
X119135000Y-119315000D01*
X119135000Y-124115000D02*
X119135000Y-122835000D01*
X112915000Y-118735000D02*
X112915000Y-123415000D01*
X120735000Y-118035000D02*
X119135000Y-118035000D01*
X120735000Y-117015000D02*
X120735000Y-118035000D01*
X116485000Y-125135000D02*
X120735000Y-125135000D01*
X119135000Y-119315000D02*
X122025000Y-119315000D01*
X120735000Y-124115000D02*
X119135000Y-124115000D01*
X116485000Y-117015000D02*
X120735000Y-117015000D01*
X120735000Y-125135000D02*
X120735000Y-124115000D01*
%TO.C,C16*%
X120187221Y-110302000D02*
X120512779Y-110302000D01*
X120187221Y-109282000D02*
X120512779Y-109282000D01*
%TD*%
M02*
