%TF.GenerationSoftware,KiCad,Pcbnew,(5.99.0-10362-gce3a84f579)*%
%TF.CreationDate,2021-05-11T09:50:07-04:00*%
%TF.ProjectId,rpi-cm4-carrier,7270692d-636d-4342-9d63-617272696572,v01*%
%TF.SameCoordinates,Original*%
%TF.FileFunction,Soldermask,Top*%
%TF.FilePolarity,Negative*%
%FSLAX46Y46*%
G04 Gerber Fmt 4.6, Leading zero omitted, Abs format (unit mm)*
G04 Created by KiCad (PCBNEW (5.99.0-10362-gce3a84f579)) date 2021-05-11 09:50:07*
%MOMM*%
%LPD*%
G01*
G04 APERTURE LIST*
G04 Aperture macros list*
%AMRoundRect*
0 Rectangle with rounded corners*
0 $1 Rounding radius*
0 $2 $3 $4 $5 $6 $7 $8 $9 X,Y pos of 4 corners*
0 Add a 4 corners polygon primitive as box body*
4,1,4,$2,$3,$4,$5,$6,$7,$8,$9,$2,$3,0*
0 Add four circle primitives for the rounded corners*
1,1,$1+$1,$2,$3*
1,1,$1+$1,$4,$5*
1,1,$1+$1,$6,$7*
1,1,$1+$1,$8,$9*
0 Add four rect primitives between the rounded corners*
20,1,$1+$1,$2,$3,$4,$5,0*
20,1,$1+$1,$4,$5,$6,$7,0*
20,1,$1+$1,$6,$7,$8,$9,0*
20,1,$1+$1,$8,$9,$2,$3,0*%
G04 Aperture macros list end*
%ADD10C,0.152400*%
%ADD11RoundRect,0.147500X-0.172500X0.147500X-0.172500X-0.147500X0.172500X-0.147500X0.172500X0.147500X0*%
%ADD12R,1.500000X1.500000*%
%ADD13RoundRect,0.147500X0.172500X-0.147500X0.172500X0.147500X-0.172500X0.147500X-0.172500X-0.147500X0*%
%ADD14RoundRect,0.147500X-0.147500X-0.172500X0.147500X-0.172500X0.147500X0.172500X-0.147500X0.172500X0*%
%ADD15R,0.260000X0.890000*%
%ADD16R,0.890000X0.260000*%
%ADD17R,2.450000X2.450000*%
%ADD18RoundRect,0.243750X0.456250X-0.243750X0.456250X0.243750X-0.456250X0.243750X-0.456250X-0.243750X0*%
%ADD19R,0.300000X1.300000*%
%ADD20R,1.800000X2.200000*%
%ADD21RoundRect,0.218750X0.256250X-0.218750X0.256250X0.218750X-0.256250X0.218750X-0.256250X-0.218750X0*%
%ADD22R,0.400000X1.350000*%
%ADD23R,1.200000X1.900000*%
%ADD24C,1.450000*%
%ADD25O,1.200000X1.900000*%
%ADD26R,1.500000X1.900000*%
%ADD27R,1.550000X0.600000*%
%ADD28R,1.800000X1.200000*%
%ADD29R,1.700000X1.700000*%
%ADD30O,1.700000X1.700000*%
%ADD31R,2.500000X1.400000*%
%ADD32RoundRect,0.243750X-0.456250X0.243750X-0.456250X-0.243750X0.456250X-0.243750X0.456250X0.243750X0*%
%ADD33C,0.800000*%
%ADD34R,1.600000X1.000000*%
%ADD35R,2.209800X2.260600*%
%ADD36C,6.100000*%
%ADD37R,0.700000X0.200000*%
%ADD38RoundRect,0.243750X-0.243750X-0.456250X0.243750X-0.456250X0.243750X0.456250X-0.243750X0.456250X0*%
%ADD39RoundRect,0.218750X-0.218750X-0.256250X0.218750X-0.256250X0.218750X0.256250X-0.218750X0.256250X0*%
%ADD40C,2.200000*%
%ADD41RoundRect,0.218750X-0.256250X0.218750X-0.256250X-0.218750X0.256250X-0.218750X0.256250X0.218750X0*%
%ADD42R,1.400000X2.500000*%
%ADD43R,1.400000X0.300000*%
%ADD44RoundRect,0.243750X0.243750X0.456250X-0.243750X0.456250X-0.243750X-0.456250X0.243750X-0.456250X0*%
%ADD45R,0.650000X0.400000*%
%ADD46RoundRect,0.218750X0.218750X0.256250X-0.218750X0.256250X-0.218750X-0.256250X0.218750X-0.256250X0*%
%ADD47O,1.701800X1.016000*%
%ADD48R,1.143000X0.889000*%
%ADD49R,1.143000X0.812800*%
%ADD50R,1.143000X0.711200*%
%ADD51R,0.439999X1.240000*%
%ADD52R,0.439999X3.039999*%
%ADD53R,0.249999X0.599999*%
%ADD54R,0.599999X0.249999*%
%ADD55R,0.439999X1.589999*%
%ADD56RoundRect,0.250000X-1.500000X0.250000X-1.500000X-0.250000X1.500000X-0.250000X1.500000X0.250000X0*%
%ADD57RoundRect,0.250001X-1.449999X0.499999X-1.449999X-0.499999X1.449999X-0.499999X1.449999X0.499999X0*%
%ADD58RoundRect,0.147500X0.147500X0.172500X-0.147500X0.172500X-0.147500X-0.172500X0.147500X-0.172500X0*%
G04 APERTURE END LIST*
D10*
%TO.C,U4*%
X135728000Y-121037500D02*
X135728000Y-122012500D01*
X136108000Y-121037500D02*
X135728000Y-121037500D01*
X136108000Y-122012500D02*
X136108000Y-121037500D01*
X135728000Y-122012500D02*
X136108000Y-122012500D01*
%TD*%
D11*
%TO.C,R10*%
X157175000Y-125190000D03*
X157175000Y-126160000D03*
%TD*%
D12*
%TO.C,J10*%
X122450000Y-102325000D03*
%TD*%
D13*
%TO.C,R11*%
X120455000Y-86110000D03*
X120455000Y-85140000D03*
%TD*%
D14*
%TO.C,R17*%
X111415000Y-112292000D03*
X112385000Y-112292000D03*
%TD*%
D15*
%TO.C,U5*%
X117375000Y-107602000D03*
X116875000Y-107602000D03*
X116375000Y-107602000D03*
X115875000Y-107602000D03*
X115375000Y-107602000D03*
X114875000Y-107602000D03*
D16*
X114185000Y-108292000D03*
X114185000Y-108792000D03*
X114185000Y-109292000D03*
X114185000Y-109792000D03*
X114185000Y-110292000D03*
X114185000Y-110792000D03*
D15*
X114875000Y-111482000D03*
X115375000Y-111482000D03*
X115875000Y-111482000D03*
X116375000Y-111482000D03*
X116875000Y-111482000D03*
X117375000Y-111482000D03*
D16*
X118065000Y-110792000D03*
X118065000Y-110292000D03*
X118065000Y-109792000D03*
X118065000Y-109292000D03*
X118065000Y-108792000D03*
X118065000Y-108292000D03*
D17*
X116125000Y-109542000D03*
%TD*%
D18*
%TO.C,C10*%
X139233000Y-122512500D03*
X139233000Y-120637500D03*
%TD*%
D11*
%TO.C,C4*%
X149870000Y-124515000D03*
X149870000Y-125485000D03*
%TD*%
%TO.C,R7*%
X152650000Y-56665000D03*
X152650000Y-57635000D03*
%TD*%
D18*
%TO.C,C13*%
X143383000Y-122512500D03*
X143383000Y-120637500D03*
%TD*%
D12*
%TO.C,J11*%
X122500000Y-105925000D03*
%TD*%
D19*
%TO.C,J5*%
X124550000Y-127450000D03*
X125050000Y-127450000D03*
X125550000Y-127450000D03*
X126050000Y-127450000D03*
X126550000Y-127450000D03*
X127050000Y-127450000D03*
X127550000Y-127450000D03*
X128050000Y-127450000D03*
X128550000Y-127450000D03*
X129050000Y-127450000D03*
X129550000Y-127450000D03*
X130050000Y-127450000D03*
X130550000Y-127450000D03*
X131050000Y-127450000D03*
X131550000Y-127450000D03*
X132050000Y-127450000D03*
X132550000Y-127450000D03*
X133050000Y-127450000D03*
X133550000Y-127450000D03*
X134050000Y-127450000D03*
X134550000Y-127450000D03*
X135050000Y-127450000D03*
D20*
X136950000Y-130700000D03*
X122650000Y-130700000D03*
%TD*%
D21*
%TO.C,C15*%
X120375000Y-112937500D03*
X120375000Y-111362500D03*
%TD*%
D13*
%TO.C,C7*%
X149895000Y-122410000D03*
X149895000Y-121440000D03*
%TD*%
D22*
%TO.C,J6*%
X123225000Y-55102500D03*
X122575000Y-55102500D03*
X121925000Y-55102500D03*
X121275000Y-55102500D03*
X120625000Y-55102500D03*
D23*
X119025000Y-52402500D03*
D24*
X124425000Y-55102500D03*
D25*
X125425000Y-52402500D03*
D24*
X119425000Y-55102500D03*
D26*
X120925000Y-52402500D03*
D25*
X118425000Y-52402500D03*
D26*
X122925000Y-52402500D03*
D23*
X124825000Y-52402500D03*
%TD*%
D27*
%TO.C,J2*%
X115175000Y-80125000D03*
X115175000Y-81125000D03*
X115175000Y-82125000D03*
X115175000Y-83125000D03*
D28*
X111300000Y-78825000D03*
X111300000Y-84425000D03*
%TD*%
D29*
%TO.C,J9*%
X139000000Y-115610000D03*
D30*
X139000000Y-118150000D03*
%TD*%
D31*
%TO.C,L2*%
X125525000Y-114400001D03*
X125525000Y-118799999D03*
%TD*%
D29*
%TO.C,J1*%
X119725000Y-75600000D03*
D30*
X119725000Y-73060000D03*
X119725000Y-70520000D03*
X119725000Y-67980000D03*
X119725000Y-65440000D03*
X119725000Y-62900000D03*
X119725000Y-60360000D03*
%TD*%
D21*
%TO.C,R4*%
X119675000Y-131100000D03*
X119675000Y-129525000D03*
%TD*%
%TO.C,R1*%
X118000000Y-131100000D03*
X118000000Y-129525000D03*
%TD*%
D32*
%TO.C,C1*%
X155600000Y-122475000D03*
X155600000Y-124350000D03*
%TD*%
D33*
%TO.C,S1*%
X160025000Y-126027500D03*
X160025000Y-119227500D03*
D34*
X158825000Y-125127500D03*
X161225000Y-125127500D03*
X158825000Y-122627500D03*
X161225000Y-122627500D03*
X158825000Y-120127500D03*
X161225000Y-120127500D03*
%TD*%
D35*
%TO.C,CR1*%
X120094700Y-98575000D03*
X116005300Y-98575000D03*
%TD*%
D36*
%TO.C,Module1*%
X125700000Y-109575000D03*
X158700000Y-61575000D03*
X125700000Y-61575000D03*
X158700000Y-109575000D03*
D37*
X123700000Y-78275000D03*
X126780000Y-78275000D03*
X123700000Y-78675000D03*
X126780000Y-78675000D03*
X123700000Y-79075000D03*
X126780000Y-79075000D03*
X123700000Y-79475000D03*
X126780000Y-79475000D03*
X123700000Y-79875000D03*
X126780000Y-79875000D03*
X123700000Y-80275000D03*
X126780000Y-80275000D03*
X123700000Y-80675000D03*
X126780000Y-80675000D03*
X123700000Y-81075000D03*
X126780000Y-81075000D03*
X123700000Y-81475000D03*
X126780000Y-81475000D03*
X123700000Y-81875000D03*
X126780000Y-81875000D03*
X123700000Y-82275000D03*
X126780000Y-82275000D03*
X123700000Y-82675000D03*
X126780000Y-82675000D03*
X123700000Y-83075000D03*
X126780000Y-83075000D03*
X123700000Y-83475000D03*
X126780000Y-83475000D03*
X123700000Y-83875000D03*
X126780000Y-83875000D03*
X123700000Y-84275000D03*
X126780000Y-84275000D03*
X123700000Y-84675000D03*
X126780000Y-84675000D03*
X123700000Y-85075000D03*
X126780000Y-85075000D03*
X123700000Y-85475000D03*
X126780000Y-85475000D03*
X123700000Y-85875000D03*
X126780000Y-85875000D03*
X123700000Y-86275000D03*
X126780000Y-86275000D03*
X123700000Y-86675000D03*
X126780000Y-86675000D03*
X123700000Y-87075000D03*
X126780000Y-87075000D03*
X123700000Y-87475000D03*
X126780000Y-87475000D03*
X123700000Y-87875000D03*
X126780000Y-87875000D03*
X123700000Y-88275000D03*
X126780000Y-88275000D03*
X123700000Y-88675000D03*
X126780000Y-88675000D03*
X123700000Y-89075000D03*
X126780000Y-89075000D03*
X123700000Y-89475000D03*
X126780000Y-89475000D03*
X123700000Y-89875000D03*
X126780000Y-89875000D03*
X123700000Y-90275000D03*
X126780000Y-90275000D03*
X123700000Y-90675000D03*
X126780000Y-90675000D03*
X123700000Y-91075000D03*
X126780000Y-91075000D03*
X123700000Y-91475000D03*
X126780000Y-91475000D03*
X123700000Y-91875000D03*
X126780000Y-91875000D03*
X123700000Y-92275000D03*
X126780000Y-92275000D03*
X123700000Y-92675000D03*
X126780000Y-92675000D03*
X123700000Y-93075000D03*
X126780000Y-93075000D03*
X123700000Y-93475000D03*
X126780000Y-93475000D03*
X123700000Y-93875000D03*
X126780000Y-93875000D03*
X123700000Y-94275000D03*
X126780000Y-94275000D03*
X123700000Y-94675000D03*
X126780000Y-94675000D03*
X123700000Y-95075000D03*
X126780000Y-95075000D03*
X123700000Y-95475000D03*
X126780000Y-95475000D03*
X123700000Y-95875000D03*
X126780000Y-95875000D03*
X123700000Y-96275000D03*
X126780000Y-96275000D03*
X123700000Y-96675000D03*
X126780000Y-96675000D03*
X123700000Y-97075000D03*
X126780000Y-97075000D03*
X123700000Y-97475000D03*
X126780000Y-97475000D03*
X123700000Y-97875000D03*
X126780000Y-97875000D03*
X157620000Y-78275000D03*
X160700000Y-78275000D03*
X157620000Y-78675000D03*
X160700000Y-78675000D03*
X157620000Y-79075000D03*
X160700000Y-79075000D03*
X157620000Y-79475000D03*
X160700000Y-79475000D03*
X157620000Y-79875000D03*
X160700000Y-79875000D03*
X157620000Y-80275000D03*
X160700000Y-80275000D03*
X157620000Y-80675000D03*
X160700000Y-80675000D03*
X157620000Y-81075000D03*
X160700000Y-81075000D03*
X157620000Y-81475000D03*
X160700000Y-81475000D03*
X157620000Y-81875000D03*
X160700000Y-81875000D03*
X157620000Y-82275000D03*
X160700000Y-82275000D03*
X157620000Y-82675000D03*
X160700000Y-82675000D03*
X157620000Y-83075000D03*
X160700000Y-83075000D03*
X157620000Y-83475000D03*
X160700000Y-83475000D03*
X157620000Y-83875000D03*
X160700000Y-83875000D03*
X157620000Y-84275000D03*
X160700000Y-84275000D03*
X157620000Y-84675000D03*
X160700000Y-84675000D03*
X157620000Y-85075000D03*
X160700000Y-85075000D03*
X157620000Y-85475000D03*
X160700000Y-85475000D03*
X157620000Y-85875000D03*
X160700000Y-85875000D03*
X157620000Y-86275000D03*
X160700000Y-86275000D03*
X157620000Y-86675000D03*
X160700000Y-86675000D03*
X157620000Y-87075000D03*
X160700000Y-87075000D03*
X157620000Y-87475000D03*
X160700000Y-87475000D03*
X157620000Y-87875000D03*
X160700000Y-87875000D03*
X157620000Y-88275000D03*
X160700000Y-88275000D03*
X157620000Y-88675000D03*
X160700000Y-88675000D03*
X157620000Y-89075000D03*
X160700000Y-89075000D03*
X157620000Y-89475000D03*
X160700000Y-89475000D03*
X157620000Y-89875000D03*
X160700000Y-89875000D03*
X157620000Y-90275000D03*
X160700000Y-90275000D03*
X157620000Y-90675000D03*
X160700000Y-90675000D03*
X157620000Y-91075000D03*
X160700000Y-91075000D03*
X157620000Y-91475000D03*
X160700000Y-91475000D03*
X157620000Y-91875000D03*
X160700000Y-91875000D03*
X157620000Y-92275000D03*
X160700000Y-92275000D03*
X157620000Y-92675000D03*
X160700000Y-92675000D03*
X157620000Y-93075000D03*
X160700000Y-93075000D03*
X157620000Y-93475000D03*
X160700000Y-93475000D03*
X157620000Y-93875000D03*
X160700000Y-93875000D03*
X157620000Y-94275000D03*
X160700000Y-94275000D03*
X157620000Y-94675000D03*
X160700000Y-94675000D03*
X157620000Y-95075000D03*
X160700000Y-95075000D03*
X157620000Y-95475000D03*
X160700000Y-95475000D03*
X157620000Y-95875000D03*
X160700000Y-95875000D03*
X157620000Y-96275000D03*
X160700000Y-96275000D03*
X157620000Y-96675000D03*
X160700000Y-96675000D03*
X157620000Y-97075000D03*
X160700000Y-97075000D03*
X157620000Y-97475000D03*
X160700000Y-97475000D03*
X157620000Y-97875000D03*
X160700000Y-97875000D03*
%TD*%
D38*
%TO.C,C18*%
X116462500Y-114150000D03*
X118337500Y-114150000D03*
%TD*%
D32*
%TO.C,C9*%
X129550000Y-118687500D03*
X129550000Y-120562500D03*
%TD*%
D39*
%TO.C,R12*%
X110937500Y-107000000D03*
X112512500Y-107000000D03*
%TD*%
D40*
%TO.C,REF\u002A\u002A*%
X112025000Y-99525000D03*
%TD*%
D13*
%TO.C,R9*%
X118880000Y-86110000D03*
X118880000Y-85140000D03*
%TD*%
D39*
%TO.C,C11*%
X118512500Y-104792000D03*
X120087500Y-104792000D03*
%TD*%
D41*
%TO.C,D2*%
X119675000Y-132700000D03*
X119675000Y-134275000D03*
%TD*%
D42*
%TO.C,L1*%
X131725001Y-116300000D03*
X136124999Y-116300000D03*
%TD*%
D43*
%TO.C,U2*%
X149264400Y-55675000D03*
X149264400Y-55175000D03*
X149264400Y-54675000D03*
X149264400Y-54175000D03*
X149264400Y-53675000D03*
X144864400Y-53675000D03*
X144864400Y-54175000D03*
X144864400Y-54675000D03*
X144864400Y-55175000D03*
X144864400Y-55675000D03*
%TD*%
D40*
%TO.C,REF\u002A\u002A*%
X160600000Y-115350000D03*
%TD*%
D41*
%TO.C,R14*%
X116050000Y-104362500D03*
X116050000Y-105937500D03*
%TD*%
D19*
%TO.C,J3*%
X141650000Y-127450000D03*
X142150000Y-127450000D03*
X142650000Y-127450000D03*
X143150000Y-127450000D03*
X143650000Y-127450000D03*
X144150000Y-127450000D03*
X144650000Y-127450000D03*
X145150000Y-127450000D03*
X145650000Y-127450000D03*
X146150000Y-127450000D03*
X146650000Y-127450000D03*
X147150000Y-127450000D03*
X147650000Y-127450000D03*
X148150000Y-127450000D03*
X148650000Y-127450000D03*
X149150000Y-127450000D03*
X149650000Y-127450000D03*
X150150000Y-127450000D03*
X150650000Y-127450000D03*
X151150000Y-127450000D03*
X151650000Y-127450000D03*
X152150000Y-127450000D03*
D20*
X139750000Y-130700000D03*
X154050000Y-130700000D03*
%TD*%
D44*
%TO.C,R2*%
X119312500Y-80400000D03*
X117437500Y-80400000D03*
%TD*%
D39*
%TO.C,R13*%
X110962500Y-109175000D03*
X112537500Y-109175000D03*
%TD*%
D44*
%TO.C,C17*%
X114862500Y-114150000D03*
X112987500Y-114150000D03*
%TD*%
D11*
%TO.C,C3*%
X151580000Y-124515000D03*
X151580000Y-125485000D03*
%TD*%
D44*
%TO.C,R3*%
X119312500Y-82525000D03*
X117437500Y-82525000D03*
%TD*%
D13*
%TO.C,C6*%
X148175000Y-122422500D03*
X148175000Y-121452500D03*
%TD*%
D14*
%TO.C,R6*%
X124765000Y-102375000D03*
X125735000Y-102375000D03*
%TD*%
D45*
%TO.C,U1*%
X119750000Y-127862500D03*
X119750000Y-127212500D03*
X119750000Y-126562500D03*
X117850000Y-126562500D03*
X117850000Y-127862500D03*
%TD*%
D13*
%TO.C,R8*%
X151475000Y-57610000D03*
X151475000Y-56640000D03*
%TD*%
D41*
%TO.C,D1*%
X117950000Y-132700000D03*
X117950000Y-134275000D03*
%TD*%
D11*
%TO.C,C5*%
X148150000Y-124527500D03*
X148150000Y-125497500D03*
%TD*%
D40*
%TO.C,REF\u002A\u002A*%
X129125000Y-53550000D03*
%TD*%
D13*
%TO.C,C8*%
X151580000Y-122410000D03*
X151580000Y-121440000D03*
%TD*%
D40*
%TO.C,REF\u002A\u002A*%
X153000000Y-53550000D03*
%TD*%
D46*
%TO.C,D4*%
X114512500Y-102800000D03*
X112937500Y-102800000D03*
%TD*%
D18*
%TO.C,C14*%
X120425000Y-108229500D03*
X120425000Y-106354500D03*
%TD*%
D41*
%TO.C,R15*%
X114000000Y-104362500D03*
X114000000Y-105937500D03*
%TD*%
D47*
%TO.C,J8*%
X112149401Y-94969999D03*
X112149401Y-86330001D03*
X115949401Y-94970002D03*
X115949401Y-86329998D03*
D48*
X115949401Y-93400000D03*
D49*
X115949401Y-92170000D03*
D50*
X115949401Y-91149999D03*
X115949401Y-90150001D03*
D49*
X115949401Y-89130000D03*
D48*
X115949401Y-87900000D03*
%TD*%
D14*
%TO.C,R5*%
X124765000Y-100725000D03*
X125735000Y-100725000D03*
%TD*%
D51*
%TO.C,U4*%
X136628001Y-120624999D03*
D52*
X136028000Y-121525000D03*
D53*
X135383000Y-120375000D03*
D54*
X134708000Y-120774999D03*
X134708000Y-121275000D03*
X134708000Y-121775000D03*
X134708000Y-122274998D03*
D53*
X135383000Y-122675000D03*
D55*
X136628001Y-122250000D03*
%TD*%
D18*
%TO.C,C12*%
X141308000Y-122512500D03*
X141308000Y-120637500D03*
%TD*%
D39*
%TO.C,D3*%
X116062500Y-102800000D03*
X117637500Y-102800000D03*
%TD*%
D22*
%TO.C,J7*%
X137550000Y-55077500D03*
X136900000Y-55077500D03*
X136250000Y-55077500D03*
X135600000Y-55077500D03*
X134950000Y-55077500D03*
D23*
X139150000Y-52377500D03*
D24*
X133750000Y-55077500D03*
X138750000Y-55077500D03*
D26*
X135250000Y-52377500D03*
D23*
X133350000Y-52377500D03*
D25*
X132750000Y-52377500D03*
X139750000Y-52377500D03*
D26*
X137250000Y-52377500D03*
%TD*%
D12*
%TO.C,J4*%
X119875000Y-102325000D03*
%TD*%
D32*
%TO.C,C2*%
X153600000Y-122475000D03*
X153600000Y-124350000D03*
%TD*%
D56*
%TO.C,B1*%
X120275000Y-122075000D03*
X120275000Y-120075000D03*
D57*
X114525000Y-124425000D03*
X114525000Y-117725000D03*
%TD*%
D39*
%TO.C,C16*%
X119562500Y-109792000D03*
X121137500Y-109792000D03*
%TD*%
D58*
%TO.C,R16*%
X112385000Y-110975000D03*
X111415000Y-110975000D03*
%TD*%
M02*
