G04 #@! TF.GenerationSoftware,KiCad,Pcbnew,(5.99.0-10362-gce3a84f579)*
G04 #@! TF.CreationDate,2021-05-11T11:50:45-04:00*
G04 #@! TF.ProjectId,rpi-cm4-carrier,7270692d-636d-4342-9d63-617272696572,v01*
G04 #@! TF.SameCoordinates,Original*
G04 #@! TF.FileFunction,Copper,L1,Top*
G04 #@! TF.FilePolarity,Positive*
%FSLAX46Y46*%
G04 Gerber Fmt 4.6, Leading zero omitted, Abs format (unit mm)*
G04 Created by KiCad (PCBNEW (5.99.0-10362-gce3a84f579)) date 2021-05-11 11:50:45*
%MOMM*%
%LPD*%
G01*
G04 APERTURE LIST*
G04 Aperture macros list*
%AMRoundRect*
0 Rectangle with rounded corners*
0 $1 Rounding radius*
0 $2 $3 $4 $5 $6 $7 $8 $9 X,Y pos of 4 corners*
0 Add a 4 corners polygon primitive as box body*
4,1,4,$2,$3,$4,$5,$6,$7,$8,$9,$2,$3,0*
0 Add four circle primitives for the rounded corners*
1,1,$1+$1,$2,$3*
1,1,$1+$1,$4,$5*
1,1,$1+$1,$6,$7*
1,1,$1+$1,$8,$9*
0 Add four rect primitives between the rounded corners*
20,1,$1+$1,$2,$3,$4,$5,0*
20,1,$1+$1,$4,$5,$6,$7,0*
20,1,$1+$1,$6,$7,$8,$9,0*
20,1,$1+$1,$8,$9,$2,$3,0*%
G04 Aperture macros list end*
G04 #@! TA.AperFunction,SMDPad,CuDef*
%ADD10RoundRect,0.147500X-0.172500X0.147500X-0.172500X-0.147500X0.172500X-0.147500X0.172500X0.147500X0*%
G04 #@! TD*
G04 #@! TA.AperFunction,SMDPad,CuDef*
%ADD11R,1.500000X1.500000*%
G04 #@! TD*
G04 #@! TA.AperFunction,SMDPad,CuDef*
%ADD12RoundRect,0.147500X0.172500X-0.147500X0.172500X0.147500X-0.172500X0.147500X-0.172500X-0.147500X0*%
G04 #@! TD*
G04 #@! TA.AperFunction,SMDPad,CuDef*
%ADD13RoundRect,0.147500X-0.147500X-0.172500X0.147500X-0.172500X0.147500X0.172500X-0.147500X0.172500X0*%
G04 #@! TD*
G04 #@! TA.AperFunction,SMDPad,CuDef*
%ADD14R,0.260000X0.890000*%
G04 #@! TD*
G04 #@! TA.AperFunction,SMDPad,CuDef*
%ADD15R,0.890000X0.260000*%
G04 #@! TD*
G04 #@! TA.AperFunction,SMDPad,CuDef*
%ADD16R,2.450000X2.450000*%
G04 #@! TD*
G04 #@! TA.AperFunction,SMDPad,CuDef*
%ADD17RoundRect,0.243750X0.456250X-0.243750X0.456250X0.243750X-0.456250X0.243750X-0.456250X-0.243750X0*%
G04 #@! TD*
G04 #@! TA.AperFunction,SMDPad,CuDef*
%ADD18R,0.300000X1.300000*%
G04 #@! TD*
G04 #@! TA.AperFunction,SMDPad,CuDef*
%ADD19R,1.800000X2.200000*%
G04 #@! TD*
G04 #@! TA.AperFunction,SMDPad,CuDef*
%ADD20RoundRect,0.218750X0.256250X-0.218750X0.256250X0.218750X-0.256250X0.218750X-0.256250X-0.218750X0*%
G04 #@! TD*
G04 #@! TA.AperFunction,SMDPad,CuDef*
%ADD21R,0.400000X1.350000*%
G04 #@! TD*
G04 #@! TA.AperFunction,SMDPad,CuDef*
%ADD22R,1.200000X1.900000*%
G04 #@! TD*
G04 #@! TA.AperFunction,ComponentPad*
%ADD23C,1.450000*%
G04 #@! TD*
G04 #@! TA.AperFunction,ComponentPad*
%ADD24O,1.200000X1.900000*%
G04 #@! TD*
G04 #@! TA.AperFunction,SMDPad,CuDef*
%ADD25R,1.500000X1.900000*%
G04 #@! TD*
G04 #@! TA.AperFunction,SMDPad,CuDef*
%ADD26R,1.550000X0.600000*%
G04 #@! TD*
G04 #@! TA.AperFunction,SMDPad,CuDef*
%ADD27R,1.800000X1.200000*%
G04 #@! TD*
G04 #@! TA.AperFunction,ComponentPad*
%ADD28R,1.700000X1.700000*%
G04 #@! TD*
G04 #@! TA.AperFunction,ComponentPad*
%ADD29O,1.700000X1.700000*%
G04 #@! TD*
G04 #@! TA.AperFunction,SMDPad,CuDef*
%ADD30R,2.500000X1.400000*%
G04 #@! TD*
G04 #@! TA.AperFunction,SMDPad,CuDef*
%ADD31RoundRect,0.243750X-0.456250X0.243750X-0.456250X-0.243750X0.456250X-0.243750X0.456250X0.243750X0*%
G04 #@! TD*
G04 #@! TA.AperFunction,SMDPad,CuDef*
%ADD32R,1.600000X1.000000*%
G04 #@! TD*
G04 #@! TA.AperFunction,SMDPad,CuDef*
%ADD33R,2.209800X2.260600*%
G04 #@! TD*
G04 #@! TA.AperFunction,SMDPad,CuDef*
%ADD34R,0.700000X0.200000*%
G04 #@! TD*
G04 #@! TA.AperFunction,SMDPad,CuDef*
%ADD35RoundRect,0.243750X-0.243750X-0.456250X0.243750X-0.456250X0.243750X0.456250X-0.243750X0.456250X0*%
G04 #@! TD*
G04 #@! TA.AperFunction,SMDPad,CuDef*
%ADD36RoundRect,0.218750X-0.218750X-0.256250X0.218750X-0.256250X0.218750X0.256250X-0.218750X0.256250X0*%
G04 #@! TD*
G04 #@! TA.AperFunction,SMDPad,CuDef*
%ADD37RoundRect,0.218750X-0.256250X0.218750X-0.256250X-0.218750X0.256250X-0.218750X0.256250X0.218750X0*%
G04 #@! TD*
G04 #@! TA.AperFunction,SMDPad,CuDef*
%ADD38R,1.400000X2.500000*%
G04 #@! TD*
G04 #@! TA.AperFunction,SMDPad,CuDef*
%ADD39R,1.400000X0.300000*%
G04 #@! TD*
G04 #@! TA.AperFunction,SMDPad,CuDef*
%ADD40RoundRect,0.243750X0.243750X0.456250X-0.243750X0.456250X-0.243750X-0.456250X0.243750X-0.456250X0*%
G04 #@! TD*
G04 #@! TA.AperFunction,SMDPad,CuDef*
%ADD41R,0.650000X0.400000*%
G04 #@! TD*
G04 #@! TA.AperFunction,SMDPad,CuDef*
%ADD42RoundRect,0.218750X0.218750X0.256250X-0.218750X0.256250X-0.218750X-0.256250X0.218750X-0.256250X0*%
G04 #@! TD*
G04 #@! TA.AperFunction,SMDPad,CuDef*
%ADD43R,1.143000X0.889000*%
G04 #@! TD*
G04 #@! TA.AperFunction,SMDPad,CuDef*
%ADD44R,1.143000X0.812800*%
G04 #@! TD*
G04 #@! TA.AperFunction,SMDPad,CuDef*
%ADD45R,1.143000X0.711200*%
G04 #@! TD*
G04 #@! TA.AperFunction,ComponentPad*
%ADD46O,1.701800X1.016000*%
G04 #@! TD*
G04 #@! TA.AperFunction,SMDPad,CuDef*
%ADD47R,0.439999X1.240000*%
G04 #@! TD*
G04 #@! TA.AperFunction,SMDPad,CuDef*
%ADD48R,0.439999X3.039999*%
G04 #@! TD*
G04 #@! TA.AperFunction,SMDPad,CuDef*
%ADD49R,0.249999X0.599999*%
G04 #@! TD*
G04 #@! TA.AperFunction,SMDPad,CuDef*
%ADD50R,0.599999X0.249999*%
G04 #@! TD*
G04 #@! TA.AperFunction,SMDPad,CuDef*
%ADD51R,0.439999X1.589999*%
G04 #@! TD*
G04 #@! TA.AperFunction,SMDPad,CuDef*
%ADD52RoundRect,0.250000X-1.500000X0.250000X-1.500000X-0.250000X1.500000X-0.250000X1.500000X0.250000X0*%
G04 #@! TD*
G04 #@! TA.AperFunction,SMDPad,CuDef*
%ADD53RoundRect,0.250001X-1.449999X0.499999X-1.449999X-0.499999X1.449999X-0.499999X1.449999X0.499999X0*%
G04 #@! TD*
G04 #@! TA.AperFunction,SMDPad,CuDef*
%ADD54RoundRect,0.147500X0.147500X0.172500X-0.147500X0.172500X-0.147500X-0.172500X0.147500X-0.172500X0*%
G04 #@! TD*
G04 #@! TA.AperFunction,ViaPad*
%ADD55C,0.508000*%
G04 #@! TD*
G04 #@! TA.AperFunction,Conductor*
%ADD56C,0.152400*%
G04 #@! TD*
G04 #@! TA.AperFunction,Conductor*
%ADD57C,0.500000*%
G04 #@! TD*
G04 #@! TA.AperFunction,Conductor*
%ADD58C,0.750000*%
G04 #@! TD*
G04 #@! TA.AperFunction,Conductor*
%ADD59C,1.500000*%
G04 #@! TD*
G04 #@! TA.AperFunction,Conductor*
%ADD60C,0.200000*%
G04 #@! TD*
G04 #@! TA.AperFunction,Conductor*
%ADD61C,0.160000*%
G04 #@! TD*
G04 #@! TA.AperFunction,Conductor*
%ADD62C,0.175000*%
G04 #@! TD*
G04 #@! TA.AperFunction,Conductor*
%ADD63C,0.212000*%
G04 #@! TD*
G04 APERTURE END LIST*
D10*
G04 #@! TO.P,R10,1*
G04 #@! TO.N,Net-(R10-Pad1)*
X157175000Y-125190000D03*
G04 #@! TO.P,R10,2*
G04 #@! TO.N,GND*
X157175000Y-126160000D03*
G04 #@! TD*
D11*
G04 #@! TO.P,J10,1,Pin_1*
G04 #@! TO.N,/+5v*
X122450000Y-102325000D03*
G04 #@! TD*
D12*
G04 #@! TO.P,R11,1*
G04 #@! TO.N,Net-(J8-Pad4)*
X120455000Y-86110000D03*
G04 #@! TO.P,R11,2*
G04 #@! TO.N,GND*
X120455000Y-85140000D03*
G04 #@! TD*
D13*
G04 #@! TO.P,R17,1*
G04 #@! TO.N,GND*
X111415000Y-112292000D03*
G04 #@! TO.P,R17,2*
G04 #@! TO.N,Net-(R16-Pad1)*
X112385000Y-112292000D03*
G04 #@! TD*
D14*
G04 #@! TO.P,U5,1,VAC*
G04 #@! TO.N,/PSUs/VBUS*
X117375000Y-107602000D03*
G04 #@! TO.P,U5,2,ACDRV*
G04 #@! TO.N,unconnected-(U5-Pad2)*
X116875000Y-107602000D03*
G04 #@! TO.P,U5,3,D+*
G04 #@! TO.N,unconnected-(U5-Pad3)*
X116375000Y-107602000D03*
G04 #@! TO.P,U5,4,D-*
G04 #@! TO.N,unconnected-(U5-Pad4)*
X115875000Y-107602000D03*
G04 #@! TO.P,U5,5,STAT*
G04 #@! TO.N,Net-(R14-Pad2)*
X115375000Y-107602000D03*
G04 #@! TO.P,U5,6,OTG*
G04 #@! TO.N,unconnected-(U5-Pad6)*
X114875000Y-107602000D03*
D15*
G04 #@! TO.P,U5,7,PG*
G04 #@! TO.N,Net-(R15-Pad2)*
X114185000Y-108292000D03*
G04 #@! TO.P,U5,8,ILIM*
G04 #@! TO.N,Net-(R12-Pad2)*
X114185000Y-108792000D03*
G04 #@! TO.P,U5,9,CE*
G04 #@! TO.N,/PSUs/VBUS*
X114185000Y-109292000D03*
G04 #@! TO.P,U5,10,ICHG*
G04 #@! TO.N,Net-(R13-Pad2)*
X114185000Y-109792000D03*
G04 #@! TO.P,U5,11,TS*
G04 #@! TO.N,Net-(R16-Pad1)*
X114185000Y-110292000D03*
G04 #@! TO.P,U5,12,VSET*
G04 #@! TO.N,unconnected-(U5-Pad12)*
X114185000Y-110792000D03*
D14*
G04 #@! TO.P,U5,13,BAT*
G04 #@! TO.N,Net-(B1-Pad2)*
X114875000Y-111482000D03*
G04 #@! TO.P,U5,14,BAT*
X115375000Y-111482000D03*
G04 #@! TO.P,U5,15,SYS*
G04 #@! TO.N,/PSUs/SYS*
X115875000Y-111482000D03*
G04 #@! TO.P,U5,16,SYS*
X116375000Y-111482000D03*
G04 #@! TO.P,U5,17,GND*
G04 #@! TO.N,GND*
X116875000Y-111482000D03*
G04 #@! TO.P,U5,18,GND*
X117375000Y-111482000D03*
D15*
G04 #@! TO.P,U5,19,SW*
G04 #@! TO.N,Net-(C15-Pad1)*
X118065000Y-110792000D03*
G04 #@! TO.P,U5,20,SW*
X118065000Y-110292000D03*
G04 #@! TO.P,U5,21,BTST*
G04 #@! TO.N,Net-(C15-Pad2)*
X118065000Y-109792000D03*
G04 #@! TO.P,U5,22,REGN*
G04 #@! TO.N,/PSUs/REGN*
X118065000Y-109292000D03*
G04 #@! TO.P,U5,23,PMID*
G04 #@! TO.N,Net-(C14-Pad1)*
X118065000Y-108792000D03*
G04 #@! TO.P,U5,24,VBUS*
G04 #@! TO.N,/PSUs/VBUS*
X118065000Y-108292000D03*
D16*
G04 #@! TO.P,U5,25,ThermalPAD*
G04 #@! TO.N,GND*
X116125000Y-109542000D03*
G04 #@! TD*
D17*
G04 #@! TO.P,C10,1*
G04 #@! TO.N,/+5v*
X139233000Y-122512500D03*
G04 #@! TO.P,C10,2*
G04 #@! TO.N,GND*
X139233000Y-120637500D03*
G04 #@! TD*
D10*
G04 #@! TO.P,C4,1*
G04 #@! TO.N,/+3.3v*
X149870000Y-124515000D03*
G04 #@! TO.P,C4,2*
G04 #@! TO.N,GND*
X149870000Y-125485000D03*
G04 #@! TD*
G04 #@! TO.P,R7,1*
G04 #@! TO.N,/CM4 High Speed/USBOTG*
X152650000Y-56665000D03*
G04 #@! TO.P,R7,2*
G04 #@! TO.N,GND*
X152650000Y-57635000D03*
G04 #@! TD*
D17*
G04 #@! TO.P,C13,1*
G04 #@! TO.N,/+5v*
X143383000Y-122512500D03*
G04 #@! TO.P,C13,2*
G04 #@! TO.N,GND*
X143383000Y-120637500D03*
G04 #@! TD*
D11*
G04 #@! TO.P,J11,1,Pin_1*
G04 #@! TO.N,GND*
X122500000Y-105925000D03*
G04 #@! TD*
D18*
G04 #@! TO.P,J5,1,Pin_1*
G04 #@! TO.N,GND*
X124550000Y-127450000D03*
G04 #@! TO.P,J5,2,Pin_2*
G04 #@! TO.N,/CM4 High Speed/CAM1_D0_N*
X125050000Y-127450000D03*
G04 #@! TO.P,J5,3,Pin_3*
G04 #@! TO.N,/CM4 High Speed/CAM1_D0_P*
X125550000Y-127450000D03*
G04 #@! TO.P,J5,4,Pin_4*
G04 #@! TO.N,GND*
X126050000Y-127450000D03*
G04 #@! TO.P,J5,5,Pin_5*
G04 #@! TO.N,/CM4 High Speed/CAM1_D1_N*
X126550000Y-127450000D03*
G04 #@! TO.P,J5,6,Pin_6*
G04 #@! TO.N,/CM4 High Speed/CAM1_D1_P*
X127050000Y-127450000D03*
G04 #@! TO.P,J5,7,Pin_7*
G04 #@! TO.N,GND*
X127550000Y-127450000D03*
G04 #@! TO.P,J5,8,Pin_8*
G04 #@! TO.N,/CM4 High Speed/CAM1_C_N*
X128050000Y-127450000D03*
G04 #@! TO.P,J5,9,Pin_9*
G04 #@! TO.N,/CM4 High Speed/CAM1_C_P*
X128550000Y-127450000D03*
G04 #@! TO.P,J5,10,Pin_10*
G04 #@! TO.N,GND*
X129050000Y-127450000D03*
G04 #@! TO.P,J5,11,Pin_11*
G04 #@! TO.N,/CM4 High Speed/CAM1_D2_N*
X129550000Y-127450000D03*
G04 #@! TO.P,J5,12,Pin_12*
G04 #@! TO.N,/CM4 High Speed/CAM1_D2_P*
X130050000Y-127450000D03*
G04 #@! TO.P,J5,13,Pin_13*
G04 #@! TO.N,GND*
X130550000Y-127450000D03*
G04 #@! TO.P,J5,14,Pin_14*
G04 #@! TO.N,/CM4 High Speed/CAM1_D3_N*
X131050000Y-127450000D03*
G04 #@! TO.P,J5,15,Pin_15*
G04 #@! TO.N,/CM4 High Speed/CAM1_D3_P*
X131550000Y-127450000D03*
G04 #@! TO.P,J5,16,Pin_16*
G04 #@! TO.N,GND*
X132050000Y-127450000D03*
G04 #@! TO.P,J5,17,Pin_17*
G04 #@! TO.N,/CM4 High Speed/CAM_GPIO*
X132550000Y-127450000D03*
G04 #@! TO.P,J5,18,Pin_18*
G04 #@! TO.N,unconnected-(J5-Pad18)*
X133050000Y-127450000D03*
G04 #@! TO.P,J5,19,Pin_19*
G04 #@! TO.N,GND*
X133550000Y-127450000D03*
G04 #@! TO.P,J5,20,Pin_20*
G04 #@! TO.N,/CM4 High Speed/SCL0*
X134050000Y-127450000D03*
G04 #@! TO.P,J5,21,Pin_21*
G04 #@! TO.N,/CM4 High Speed/SDA0*
X134550000Y-127450000D03*
G04 #@! TO.P,J5,22,Pin_22*
G04 #@! TO.N,/+3.3v*
X135050000Y-127450000D03*
D19*
G04 #@! TO.P,J5,MP*
G04 #@! TO.N,N/C*
X136950000Y-130700000D03*
X122650000Y-130700000D03*
G04 #@! TD*
D20*
G04 #@! TO.P,C15,1*
G04 #@! TO.N,Net-(C15-Pad1)*
X120375000Y-112937500D03*
G04 #@! TO.P,C15,2*
G04 #@! TO.N,Net-(C15-Pad2)*
X120375000Y-111362500D03*
G04 #@! TD*
D12*
G04 #@! TO.P,C7,1*
G04 #@! TO.N,/+3.3v*
X149895000Y-122410000D03*
G04 #@! TO.P,C7,2*
G04 #@! TO.N,GND*
X149895000Y-121440000D03*
G04 #@! TD*
D21*
G04 #@! TO.P,J6,1,VBUS*
G04 #@! TO.N,Net-(J6-Pad1)*
X123225000Y-55102500D03*
G04 #@! TO.P,J6,2,D-*
G04 #@! TO.N,/USB/USBD_N*
X122575000Y-55102500D03*
G04 #@! TO.P,J6,3,D+*
G04 #@! TO.N,/USB/USBD_P*
X121925000Y-55102500D03*
G04 #@! TO.P,J6,4,ID*
G04 #@! TO.N,unconnected-(J6-Pad4)*
X121275000Y-55102500D03*
G04 #@! TO.P,J6,5,GND*
G04 #@! TO.N,GND*
X120625000Y-55102500D03*
D22*
G04 #@! TO.P,J6,6,Shield*
X119025000Y-52402500D03*
D23*
X124425000Y-55102500D03*
D24*
X125425000Y-52402500D03*
D23*
X119425000Y-55102500D03*
D25*
X120925000Y-52402500D03*
D24*
X118425000Y-52402500D03*
D25*
X122925000Y-52402500D03*
D22*
X124825000Y-52402500D03*
G04 #@! TD*
D26*
G04 #@! TO.P,J2,1,1*
G04 #@! TO.N,GND*
X115175000Y-80125000D03*
G04 #@! TO.P,J2,2,2*
G04 #@! TO.N,/+3.3v*
X115175000Y-81125000D03*
G04 #@! TO.P,J2,3,3*
G04 #@! TO.N,/CM4 GPIO/GPIO2*
X115175000Y-82125000D03*
G04 #@! TO.P,J2,4,4*
G04 #@! TO.N,/CM4 GPIO/GPIO3*
X115175000Y-83125000D03*
D27*
G04 #@! TO.P,J2,S1,SHIELD*
G04 #@! TO.N,unconnected-(J2-PadS1)*
X111300000Y-78825000D03*
G04 #@! TO.P,J2,S2,SHIELD*
X111300000Y-84425000D03*
G04 #@! TD*
D28*
G04 #@! TO.P,J9,1,Pin_1*
G04 #@! TO.N,/CM4 GPIO/nRPIBOOT*
X139000000Y-115610000D03*
D29*
G04 #@! TO.P,J9,2,Pin_2*
G04 #@! TO.N,GND*
X139000000Y-118150000D03*
G04 #@! TD*
D30*
G04 #@! TO.P,L2,1,1*
G04 #@! TO.N,Net-(C15-Pad1)*
X125525000Y-114400001D03*
G04 #@! TO.P,L2,2,2*
G04 #@! TO.N,/PSUs/SYS*
X125525000Y-118799999D03*
G04 #@! TD*
D28*
G04 #@! TO.P,J1,1,Pin_1*
G04 #@! TO.N,GND*
X119725000Y-75600000D03*
D29*
G04 #@! TO.P,J1,2,Pin_2*
G04 #@! TO.N,/CM4 GPIO/GPIO14*
X119725000Y-73060000D03*
G04 #@! TO.P,J1,3,Pin_3*
G04 #@! TO.N,/CM4 GPIO/GPIO15*
X119725000Y-70520000D03*
G04 #@! TO.P,J1,4,Pin_4*
G04 #@! TO.N,GND*
X119725000Y-67980000D03*
G04 #@! TO.P,J1,5,Pin_5*
G04 #@! TO.N,/CM4 GPIO/GPIO12*
X119725000Y-65440000D03*
G04 #@! TO.P,J1,6,Pin_6*
G04 #@! TO.N,/CM4 GPIO/GPIO13*
X119725000Y-62900000D03*
G04 #@! TO.P,J1,7,Pin_7*
G04 #@! TO.N,/+5v*
X119725000Y-60360000D03*
G04 #@! TD*
D20*
G04 #@! TO.P,R4,1*
G04 #@! TO.N,Net-(D2-Pad1)*
X119675000Y-131100000D03*
G04 #@! TO.P,R4,2*
G04 #@! TO.N,Net-(R4-Pad2)*
X119675000Y-129525000D03*
G04 #@! TD*
G04 #@! TO.P,R1,1*
G04 #@! TO.N,Net-(D1-Pad1)*
X118000000Y-131100000D03*
G04 #@! TO.P,R1,2*
G04 #@! TO.N,/CM4 GPIO/nLED_Activity*
X118000000Y-129525000D03*
G04 #@! TD*
D31*
G04 #@! TO.P,C1,1*
G04 #@! TO.N,/+3.3v*
X155600000Y-122475000D03*
G04 #@! TO.P,C1,2*
G04 #@! TO.N,GND*
X155600000Y-124350000D03*
G04 #@! TD*
D32*
G04 #@! TO.P,S1,1,1*
G04 #@! TO.N,Net-(R10-Pad1)*
X158825000Y-125127500D03*
G04 #@! TO.P,S1,1.1,1*
X161225000Y-125127500D03*
G04 #@! TO.P,S1,2,2*
G04 #@! TO.N,Net-(S1-Pad2)*
X158825000Y-122627500D03*
G04 #@! TO.P,S1,2.1,2*
X161225000Y-122627500D03*
G04 #@! TO.P,S1,3,3*
G04 #@! TO.N,/PSUs/SYS*
X158825000Y-120127500D03*
G04 #@! TO.P,S1,3.1,3*
X161225000Y-120127500D03*
G04 #@! TD*
D33*
G04 #@! TO.P,CR1,1,1*
G04 #@! TO.N,/PSUs/VBUS*
X120094700Y-98575000D03*
G04 #@! TO.P,CR1,2,2*
G04 #@! TO.N,GND*
X116005300Y-98575000D03*
G04 #@! TD*
D34*
G04 #@! TO.P,Module1,1,GND*
G04 #@! TO.N,GND*
X123700000Y-78275000D03*
G04 #@! TO.P,Module1,2,GND*
X126780000Y-78275000D03*
G04 #@! TO.P,Module1,3,Ethernet_Pair3_P*
G04 #@! TO.N,unconnected-(Module1-Pad3)*
X123700000Y-78675000D03*
G04 #@! TO.P,Module1,4,Ethernet_Pair1_P*
G04 #@! TO.N,unconnected-(Module1-Pad4)*
X126780000Y-78675000D03*
G04 #@! TO.P,Module1,5,Ethernet_Pair3_N*
G04 #@! TO.N,unconnected-(Module1-Pad5)*
X123700000Y-79075000D03*
G04 #@! TO.P,Module1,6,Ethernet_Pair1_N*
G04 #@! TO.N,unconnected-(Module1-Pad6)*
X126780000Y-79075000D03*
G04 #@! TO.P,Module1,7,GND*
G04 #@! TO.N,GND*
X123700000Y-79475000D03*
G04 #@! TO.P,Module1,8,GND*
X126780000Y-79475000D03*
G04 #@! TO.P,Module1,9,Ethernet_Pair2_N*
G04 #@! TO.N,unconnected-(Module1-Pad9)*
X123700000Y-79875000D03*
G04 #@! TO.P,Module1,10,Ethernet_Pair0_N*
G04 #@! TO.N,unconnected-(Module1-Pad10)*
X126780000Y-79875000D03*
G04 #@! TO.P,Module1,11,Ethernet_Pair2_P*
G04 #@! TO.N,unconnected-(Module1-Pad11)*
X123700000Y-80275000D03*
G04 #@! TO.P,Module1,12,Ethernet_Pair0_P*
G04 #@! TO.N,unconnected-(Module1-Pad12)*
X126780000Y-80275000D03*
G04 #@! TO.P,Module1,13,GND*
G04 #@! TO.N,GND*
X123700000Y-80675000D03*
G04 #@! TO.P,Module1,14,GND*
X126780000Y-80675000D03*
G04 #@! TO.P,Module1,15,Ethernet_nLED3(3.3v)*
G04 #@! TO.N,unconnected-(Module1-Pad15)*
X123700000Y-81075000D03*
G04 #@! TO.P,Module1,16,Ethernet_SYNC_IN(1.8v)*
G04 #@! TO.N,unconnected-(Module1-Pad16)*
X126780000Y-81075000D03*
G04 #@! TO.P,Module1,17,Ethernet_nLED2(3.3v)*
G04 #@! TO.N,unconnected-(Module1-Pad17)*
X123700000Y-81475000D03*
G04 #@! TO.P,Module1,18,Ethernet_SYNC_OUT(1.8v)*
G04 #@! TO.N,unconnected-(Module1-Pad18)*
X126780000Y-81475000D03*
G04 #@! TO.P,Module1,19,Ethernet_nLED1(3.3v)*
G04 #@! TO.N,unconnected-(Module1-Pad19)*
X123700000Y-81875000D03*
G04 #@! TO.P,Module1,20,EEPROM_nWP*
G04 #@! TO.N,/CM4 GPIO/EEPROM_nWP*
X126780000Y-81875000D03*
G04 #@! TO.P,Module1,21,PI_nLED_Activity*
G04 #@! TO.N,/CM4 GPIO/nLED_Activity*
X123700000Y-82275000D03*
G04 #@! TO.P,Module1,22,GND*
G04 #@! TO.N,GND*
X126780000Y-82275000D03*
G04 #@! TO.P,Module1,23,GND*
X123700000Y-82675000D03*
G04 #@! TO.P,Module1,24,GPIO26*
G04 #@! TO.N,unconnected-(Module1-Pad24)*
X126780000Y-82675000D03*
G04 #@! TO.P,Module1,25,GPIO21*
G04 #@! TO.N,unconnected-(Module1-Pad25)*
X123700000Y-83075000D03*
G04 #@! TO.P,Module1,26,GPIO19*
G04 #@! TO.N,unconnected-(Module1-Pad26)*
X126780000Y-83075000D03*
G04 #@! TO.P,Module1,27,GPIO20*
G04 #@! TO.N,unconnected-(Module1-Pad27)*
X123700000Y-83475000D03*
G04 #@! TO.P,Module1,28,GPIO13*
G04 #@! TO.N,/CM4 GPIO/GPIO13*
X126780000Y-83475000D03*
G04 #@! TO.P,Module1,29,GPIO16*
G04 #@! TO.N,unconnected-(Module1-Pad29)*
X123700000Y-83875000D03*
G04 #@! TO.P,Module1,30,GPIO6*
G04 #@! TO.N,unconnected-(Module1-Pad30)*
X126780000Y-83875000D03*
G04 #@! TO.P,Module1,31,GPIO12*
G04 #@! TO.N,/CM4 GPIO/GPIO12*
X123700000Y-84275000D03*
G04 #@! TO.P,Module1,32,GND*
G04 #@! TO.N,GND*
X126780000Y-84275000D03*
G04 #@! TO.P,Module1,33,GND*
X123700000Y-84675000D03*
G04 #@! TO.P,Module1,34,GPIO5*
G04 #@! TO.N,unconnected-(Module1-Pad34)*
X126780000Y-84675000D03*
G04 #@! TO.P,Module1,35,ID_SC*
G04 #@! TO.N,/CM4 High Speed/ID_SC*
X123700000Y-85075000D03*
G04 #@! TO.P,Module1,36,ID_SD*
G04 #@! TO.N,/CM4 High Speed/ID_SD*
X126780000Y-85075000D03*
G04 #@! TO.P,Module1,37,GPIO7*
G04 #@! TO.N,unconnected-(Module1-Pad37)*
X123700000Y-85475000D03*
G04 #@! TO.P,Module1,38,GPIO11*
G04 #@! TO.N,unconnected-(Module1-Pad38)*
X126780000Y-85475000D03*
G04 #@! TO.P,Module1,39,GPIO8*
G04 #@! TO.N,unconnected-(Module1-Pad39)*
X123700000Y-85875000D03*
G04 #@! TO.P,Module1,40,GPIO9*
G04 #@! TO.N,unconnected-(Module1-Pad40)*
X126780000Y-85875000D03*
G04 #@! TO.P,Module1,41,GPIO25*
G04 #@! TO.N,unconnected-(Module1-Pad41)*
X123700000Y-86275000D03*
G04 #@! TO.P,Module1,42,GND*
G04 #@! TO.N,GND*
X126780000Y-86275000D03*
G04 #@! TO.P,Module1,43,GND*
X123700000Y-86675000D03*
G04 #@! TO.P,Module1,44,GPIO10*
G04 #@! TO.N,unconnected-(Module1-Pad44)*
X126780000Y-86675000D03*
G04 #@! TO.P,Module1,45,GPIO24*
G04 #@! TO.N,unconnected-(Module1-Pad45)*
X123700000Y-87075000D03*
G04 #@! TO.P,Module1,46,GPIO22*
G04 #@! TO.N,unconnected-(Module1-Pad46)*
X126780000Y-87075000D03*
G04 #@! TO.P,Module1,47,GPIO23*
G04 #@! TO.N,unconnected-(Module1-Pad47)*
X123700000Y-87475000D03*
G04 #@! TO.P,Module1,48,GPIO27*
G04 #@! TO.N,unconnected-(Module1-Pad48)*
X126780000Y-87475000D03*
G04 #@! TO.P,Module1,49,GPIO18*
G04 #@! TO.N,unconnected-(Module1-Pad49)*
X123700000Y-87875000D03*
G04 #@! TO.P,Module1,50,GPIO17*
G04 #@! TO.N,unconnected-(Module1-Pad50)*
X126780000Y-87875000D03*
G04 #@! TO.P,Module1,51,GPIO15*
G04 #@! TO.N,/CM4 GPIO/GPIO15*
X123700000Y-88275000D03*
G04 #@! TO.P,Module1,52,GND*
G04 #@! TO.N,GND*
X126780000Y-88275000D03*
G04 #@! TO.P,Module1,53,GND*
X123700000Y-88675000D03*
G04 #@! TO.P,Module1,54,GPIO4*
G04 #@! TO.N,unconnected-(Module1-Pad54)*
X126780000Y-88675000D03*
G04 #@! TO.P,Module1,55,GPIO14*
G04 #@! TO.N,/CM4 GPIO/GPIO14*
X123700000Y-89075000D03*
G04 #@! TO.P,Module1,56,GPIO3*
G04 #@! TO.N,/CM4 GPIO/GPIO3*
X126780000Y-89075000D03*
G04 #@! TO.P,Module1,57,SD_CLK*
G04 #@! TO.N,unconnected-(Module1-Pad57)*
X123700000Y-89475000D03*
G04 #@! TO.P,Module1,58,GPIO2*
G04 #@! TO.N,/CM4 GPIO/GPIO2*
X126780000Y-89475000D03*
G04 #@! TO.P,Module1,59,GND*
G04 #@! TO.N,GND*
X123700000Y-89875000D03*
G04 #@! TO.P,Module1,60,GND*
X126780000Y-89875000D03*
G04 #@! TO.P,Module1,61,SD_DAT3*
G04 #@! TO.N,unconnected-(Module1-Pad61)*
X123700000Y-90275000D03*
G04 #@! TO.P,Module1,62,SD_CMD*
G04 #@! TO.N,unconnected-(Module1-Pad62)*
X126780000Y-90275000D03*
G04 #@! TO.P,Module1,63,SD_DAT0*
G04 #@! TO.N,unconnected-(Module1-Pad63)*
X123700000Y-90675000D03*
G04 #@! TO.P,Module1,64,SD_DAT5*
G04 #@! TO.N,unconnected-(Module1-Pad64)*
X126780000Y-90675000D03*
G04 #@! TO.P,Module1,65,GND*
G04 #@! TO.N,GND*
X123700000Y-91075000D03*
G04 #@! TO.P,Module1,66,GND*
X126780000Y-91075000D03*
G04 #@! TO.P,Module1,67,SD_DAT1*
G04 #@! TO.N,unconnected-(Module1-Pad67)*
X123700000Y-91475000D03*
G04 #@! TO.P,Module1,68,SD_DAT4*
G04 #@! TO.N,unconnected-(Module1-Pad68)*
X126780000Y-91475000D03*
G04 #@! TO.P,Module1,69,SD_DAT2*
G04 #@! TO.N,unconnected-(Module1-Pad69)*
X123700000Y-91875000D03*
G04 #@! TO.P,Module1,70,SD_DAT7*
G04 #@! TO.N,unconnected-(Module1-Pad70)*
X126780000Y-91875000D03*
G04 #@! TO.P,Module1,71,GND*
G04 #@! TO.N,GND*
X123700000Y-92275000D03*
G04 #@! TO.P,Module1,72,SD_DAT6*
G04 #@! TO.N,unconnected-(Module1-Pad72)*
X126780000Y-92275000D03*
G04 #@! TO.P,Module1,73,SD_VDD_Override*
G04 #@! TO.N,unconnected-(Module1-Pad73)*
X123700000Y-92675000D03*
G04 #@! TO.P,Module1,74,GND*
G04 #@! TO.N,GND*
X126780000Y-92675000D03*
G04 #@! TO.P,Module1,75,SD_PWR_ON*
G04 #@! TO.N,unconnected-(Module1-Pad75)*
X123700000Y-93075000D03*
G04 #@! TO.P,Module1,76,Reserved*
G04 #@! TO.N,unconnected-(Module1-Pad76)*
X126780000Y-93075000D03*
G04 #@! TO.P,Module1,77,+5v_(Input)*
G04 #@! TO.N,/+5v*
X123700000Y-93475000D03*
G04 #@! TO.P,Module1,78,GPIO_VREF(1.8v/3.3v_Input)*
G04 #@! TO.N,/+3.3v*
X126780000Y-93475000D03*
G04 #@! TO.P,Module1,79,+5v_(Input)*
G04 #@! TO.N,/+5v*
X123700000Y-93875000D03*
G04 #@! TO.P,Module1,80,SCL0*
G04 #@! TO.N,/CM4 High Speed/SCL0*
X126780000Y-93875000D03*
G04 #@! TO.P,Module1,81,+5v_(Input)*
G04 #@! TO.N,/+5v*
X123700000Y-94275000D03*
G04 #@! TO.P,Module1,82,SDA0*
G04 #@! TO.N,/CM4 High Speed/SDA0*
X126780000Y-94275000D03*
G04 #@! TO.P,Module1,83,+5v_(Input)*
G04 #@! TO.N,/+5v*
X123700000Y-94675000D03*
G04 #@! TO.P,Module1,84,+3.3v_(Output)*
G04 #@! TO.N,/+3.3v*
X126780000Y-94675000D03*
G04 #@! TO.P,Module1,85,+5v_(Input)*
G04 #@! TO.N,/+5v*
X123700000Y-95075000D03*
G04 #@! TO.P,Module1,86,+3.3v_(Output)*
G04 #@! TO.N,/+3.3v*
X126780000Y-95075000D03*
G04 #@! TO.P,Module1,87,+5v_(Input)*
G04 #@! TO.N,/+5v*
X123700000Y-95475000D03*
G04 #@! TO.P,Module1,88,+1.8v_(Output)*
G04 #@! TO.N,unconnected-(Module1-Pad88)*
X126780000Y-95475000D03*
G04 #@! TO.P,Module1,89,WiFi_nDisable*
G04 #@! TO.N,unconnected-(Module1-Pad89)*
X123700000Y-95875000D03*
G04 #@! TO.P,Module1,90,+1.8v_(Output)*
G04 #@! TO.N,unconnected-(Module1-Pad90)*
X126780000Y-95875000D03*
G04 #@! TO.P,Module1,91,BT_nDisable*
G04 #@! TO.N,unconnected-(Module1-Pad91)*
X123700000Y-96275000D03*
G04 #@! TO.P,Module1,92,RUN_PG*
G04 #@! TO.N,unconnected-(Module1-Pad92)*
X126780000Y-96275000D03*
G04 #@! TO.P,Module1,93,nRPIBOOT*
G04 #@! TO.N,/CM4 GPIO/nRPIBOOT*
X123700000Y-96675000D03*
G04 #@! TO.P,Module1,94,AnalogIP0*
G04 #@! TO.N,unconnected-(Module1-Pad94)*
X126780000Y-96675000D03*
G04 #@! TO.P,Module1,95,nPI_LED_PWR*
G04 #@! TO.N,/CM4 GPIO/nPWR_LED*
X123700000Y-97075000D03*
G04 #@! TO.P,Module1,96,AnalogIP1*
G04 #@! TO.N,unconnected-(Module1-Pad96)*
X126780000Y-97075000D03*
G04 #@! TO.P,Module1,97,Camera_GPIO*
G04 #@! TO.N,/CM4 High Speed/CAM_GPIO*
X123700000Y-97475000D03*
G04 #@! TO.P,Module1,98,GND*
G04 #@! TO.N,GND*
X126780000Y-97475000D03*
G04 #@! TO.P,Module1,99,Global_EN*
G04 #@! TO.N,unconnected-(Module1-Pad99)*
X123700000Y-97875000D03*
G04 #@! TO.P,Module1,100,nEXTRST*
G04 #@! TO.N,unconnected-(Module1-Pad100)*
X126780000Y-97875000D03*
G04 #@! TO.P,Module1,101,USB_OTG_ID*
G04 #@! TO.N,/CM4 High Speed/USBOTG*
X157620000Y-78275000D03*
G04 #@! TO.P,Module1,102,PCIe_CLK_nREQ*
G04 #@! TO.N,unconnected-(Module1-Pad102)*
X160700000Y-78275000D03*
G04 #@! TO.P,Module1,103,USB2_N*
G04 #@! TO.N,/CM4 High Speed/USB2_N*
X157620000Y-78675000D03*
G04 #@! TO.P,Module1,104,Reserved*
G04 #@! TO.N,unconnected-(Module1-Pad104)*
X160700000Y-78675000D03*
G04 #@! TO.P,Module1,105,USB2_P*
G04 #@! TO.N,/CM4 High Speed/USB2_P*
X157620000Y-79075000D03*
G04 #@! TO.P,Module1,106,Reserved*
G04 #@! TO.N,unconnected-(Module1-Pad106)*
X160700000Y-79075000D03*
G04 #@! TO.P,Module1,107,GND*
G04 #@! TO.N,GND*
X157620000Y-79475000D03*
G04 #@! TO.P,Module1,108,GND*
X160700000Y-79475000D03*
G04 #@! TO.P,Module1,109,PCIe_nRST*
G04 #@! TO.N,unconnected-(Module1-Pad109)*
X157620000Y-79875000D03*
G04 #@! TO.P,Module1,110,PCIe_CLK_P*
G04 #@! TO.N,unconnected-(Module1-Pad110)*
X160700000Y-79875000D03*
G04 #@! TO.P,Module1,111,VDAC_COMP*
G04 #@! TO.N,unconnected-(Module1-Pad111)*
X157620000Y-80275000D03*
G04 #@! TO.P,Module1,112,PCIe_CLK_N*
G04 #@! TO.N,unconnected-(Module1-Pad112)*
X160700000Y-80275000D03*
G04 #@! TO.P,Module1,113,GND*
G04 #@! TO.N,GND*
X157620000Y-80675000D03*
G04 #@! TO.P,Module1,114,GND*
X160700000Y-80675000D03*
G04 #@! TO.P,Module1,115,CAM1_D0_N*
G04 #@! TO.N,/CM4 High Speed/CAM1_D0_N*
X157620000Y-81075000D03*
G04 #@! TO.P,Module1,116,PCIe_RX_P*
G04 #@! TO.N,unconnected-(Module1-Pad116)*
X160700000Y-81075000D03*
G04 #@! TO.P,Module1,117,CAM1_D0_P*
G04 #@! TO.N,/CM4 High Speed/CAM1_D0_P*
X157620000Y-81475000D03*
G04 #@! TO.P,Module1,118,PCIe_RX_N*
G04 #@! TO.N,unconnected-(Module1-Pad118)*
X160700000Y-81475000D03*
G04 #@! TO.P,Module1,119,GND*
G04 #@! TO.N,GND*
X157620000Y-81875000D03*
G04 #@! TO.P,Module1,120,GND*
X160700000Y-81875000D03*
G04 #@! TO.P,Module1,121,CAM1_D1_N*
G04 #@! TO.N,/CM4 High Speed/CAM1_D1_N*
X157620000Y-82275000D03*
G04 #@! TO.P,Module1,122,PCIe_TX_P*
G04 #@! TO.N,unconnected-(Module1-Pad122)*
X160700000Y-82275000D03*
G04 #@! TO.P,Module1,123,CAM1_D1_P*
G04 #@! TO.N,/CM4 High Speed/CAM1_D1_P*
X157620000Y-82675000D03*
G04 #@! TO.P,Module1,124,PCIe_TX_N*
G04 #@! TO.N,unconnected-(Module1-Pad124)*
X160700000Y-82675000D03*
G04 #@! TO.P,Module1,125,GND*
G04 #@! TO.N,GND*
X157620000Y-83075000D03*
G04 #@! TO.P,Module1,126,GND*
X160700000Y-83075000D03*
G04 #@! TO.P,Module1,127,CAM1_C_N*
G04 #@! TO.N,/CM4 High Speed/CAM1_C_N*
X157620000Y-83475000D03*
G04 #@! TO.P,Module1,128,CAM0_D0_N*
G04 #@! TO.N,/CM4 High Speed/CAM0_D0_N*
X160700000Y-83475000D03*
G04 #@! TO.P,Module1,129,CAM1_C_P*
G04 #@! TO.N,/CM4 High Speed/CAM1_C_P*
X157620000Y-83875000D03*
G04 #@! TO.P,Module1,130,CAM0_D0_P*
G04 #@! TO.N,/CM4 High Speed/CAM0_D0_P*
X160700000Y-83875000D03*
G04 #@! TO.P,Module1,131,GND*
G04 #@! TO.N,GND*
X157620000Y-84275000D03*
G04 #@! TO.P,Module1,132,GND*
X160700000Y-84275000D03*
G04 #@! TO.P,Module1,133,CAM1_D2_N*
G04 #@! TO.N,/CM4 High Speed/CAM1_D2_N*
X157620000Y-84675000D03*
G04 #@! TO.P,Module1,134,CAM0_D1_N*
G04 #@! TO.N,/CM4 High Speed/CAM0_D1_N*
X160700000Y-84675000D03*
G04 #@! TO.P,Module1,135,CAM1_D2_P*
G04 #@! TO.N,/CM4 High Speed/CAM1_D2_P*
X157620000Y-85075000D03*
G04 #@! TO.P,Module1,136,CAM0_D1_P*
G04 #@! TO.N,/CM4 High Speed/CAM0_D1_P*
X160700000Y-85075000D03*
G04 #@! TO.P,Module1,137,GND*
G04 #@! TO.N,GND*
X157620000Y-85475000D03*
G04 #@! TO.P,Module1,138,GND*
X160700000Y-85475000D03*
G04 #@! TO.P,Module1,139,CAM1_D3_N*
G04 #@! TO.N,/CM4 High Speed/CAM1_D3_N*
X157620000Y-85875000D03*
G04 #@! TO.P,Module1,140,CAM0_C_N*
G04 #@! TO.N,/CM4 High Speed/CAM0_C_N*
X160700000Y-85875000D03*
G04 #@! TO.P,Module1,141,CAM1_D3_P*
G04 #@! TO.N,/CM4 High Speed/CAM1_D3_P*
X157620000Y-86275000D03*
G04 #@! TO.P,Module1,142,CAM0_C_P*
G04 #@! TO.N,/CM4 High Speed/CAM0_C_P*
X160700000Y-86275000D03*
G04 #@! TO.P,Module1,143,HDMI1_HOTPLUG*
G04 #@! TO.N,unconnected-(Module1-Pad143)*
X157620000Y-86675000D03*
G04 #@! TO.P,Module1,144,GND*
G04 #@! TO.N,GND*
X160700000Y-86675000D03*
G04 #@! TO.P,Module1,145,HDMI1_SDA*
G04 #@! TO.N,unconnected-(Module1-Pad145)*
X157620000Y-87075000D03*
G04 #@! TO.P,Module1,146,HDMI1_TX2_P*
G04 #@! TO.N,unconnected-(Module1-Pad146)*
X160700000Y-87075000D03*
G04 #@! TO.P,Module1,147,HDMI1_SCL*
G04 #@! TO.N,unconnected-(Module1-Pad147)*
X157620000Y-87475000D03*
G04 #@! TO.P,Module1,148,HDMI1_TX2_N*
G04 #@! TO.N,unconnected-(Module1-Pad148)*
X160700000Y-87475000D03*
G04 #@! TO.P,Module1,149,HDMI1_CEC*
G04 #@! TO.N,unconnected-(Module1-Pad149)*
X157620000Y-87875000D03*
G04 #@! TO.P,Module1,150,GND*
G04 #@! TO.N,GND*
X160700000Y-87875000D03*
G04 #@! TO.P,Module1,151,HDMI0_CEC*
G04 #@! TO.N,unconnected-(Module1-Pad151)*
X157620000Y-88275000D03*
G04 #@! TO.P,Module1,152,HDMI1_TX1_P*
G04 #@! TO.N,unconnected-(Module1-Pad152)*
X160700000Y-88275000D03*
G04 #@! TO.P,Module1,153,HDMI0_HOTPLUG*
G04 #@! TO.N,unconnected-(Module1-Pad153)*
X157620000Y-88675000D03*
G04 #@! TO.P,Module1,154,HDMI1_TX1_N*
G04 #@! TO.N,unconnected-(Module1-Pad154)*
X160700000Y-88675000D03*
G04 #@! TO.P,Module1,155,GND*
G04 #@! TO.N,GND*
X157620000Y-89075000D03*
G04 #@! TO.P,Module1,156,GND*
X160700000Y-89075000D03*
G04 #@! TO.P,Module1,157,DSI0_D0_N*
G04 #@! TO.N,unconnected-(Module1-Pad157)*
X157620000Y-89475000D03*
G04 #@! TO.P,Module1,158,HDMI1_TX0_P*
G04 #@! TO.N,unconnected-(Module1-Pad158)*
X160700000Y-89475000D03*
G04 #@! TO.P,Module1,159,DSI0_D0_P*
G04 #@! TO.N,unconnected-(Module1-Pad159)*
X157620000Y-89875000D03*
G04 #@! TO.P,Module1,160,HDMI1_TX0_N*
G04 #@! TO.N,unconnected-(Module1-Pad160)*
X160700000Y-89875000D03*
G04 #@! TO.P,Module1,161,GND*
G04 #@! TO.N,GND*
X157620000Y-90275000D03*
G04 #@! TO.P,Module1,162,GND*
X160700000Y-90275000D03*
G04 #@! TO.P,Module1,163,DSI0_D1_N*
G04 #@! TO.N,unconnected-(Module1-Pad163)*
X157620000Y-90675000D03*
G04 #@! TO.P,Module1,164,HDMI1_CLK_P*
G04 #@! TO.N,unconnected-(Module1-Pad164)*
X160700000Y-90675000D03*
G04 #@! TO.P,Module1,165,DSI0_D1_P*
G04 #@! TO.N,unconnected-(Module1-Pad165)*
X157620000Y-91075000D03*
G04 #@! TO.P,Module1,166,HDMI1_CLK_N*
G04 #@! TO.N,unconnected-(Module1-Pad166)*
X160700000Y-91075000D03*
G04 #@! TO.P,Module1,167,GND*
G04 #@! TO.N,GND*
X157620000Y-91475000D03*
G04 #@! TO.P,Module1,168,GND*
X160700000Y-91475000D03*
G04 #@! TO.P,Module1,169,DSI0_C_N*
G04 #@! TO.N,unconnected-(Module1-Pad169)*
X157620000Y-91875000D03*
G04 #@! TO.P,Module1,170,HDMI0_TX2_P*
G04 #@! TO.N,unconnected-(Module1-Pad170)*
X160700000Y-91875000D03*
G04 #@! TO.P,Module1,171,DSI0_C_P*
G04 #@! TO.N,unconnected-(Module1-Pad171)*
X157620000Y-92275000D03*
G04 #@! TO.P,Module1,172,HDMI0_TX2_N*
G04 #@! TO.N,unconnected-(Module1-Pad172)*
X160700000Y-92275000D03*
G04 #@! TO.P,Module1,173,GND*
G04 #@! TO.N,GND*
X157620000Y-92675000D03*
G04 #@! TO.P,Module1,174,GND*
X160700000Y-92675000D03*
G04 #@! TO.P,Module1,175,DSI1_D0_N*
G04 #@! TO.N,unconnected-(Module1-Pad175)*
X157620000Y-93075000D03*
G04 #@! TO.P,Module1,176,HDMI0_TX1_P*
G04 #@! TO.N,unconnected-(Module1-Pad176)*
X160700000Y-93075000D03*
G04 #@! TO.P,Module1,177,DSI1_D0_P*
G04 #@! TO.N,unconnected-(Module1-Pad177)*
X157620000Y-93475000D03*
G04 #@! TO.P,Module1,178,HDMI0_TX1_N*
G04 #@! TO.N,unconnected-(Module1-Pad178)*
X160700000Y-93475000D03*
G04 #@! TO.P,Module1,179,GND*
G04 #@! TO.N,GND*
X157620000Y-93875000D03*
G04 #@! TO.P,Module1,180,GND*
X160700000Y-93875000D03*
G04 #@! TO.P,Module1,181,DSI1_D1_N*
G04 #@! TO.N,unconnected-(Module1-Pad181)*
X157620000Y-94275000D03*
G04 #@! TO.P,Module1,182,HDMI0_TX0_P*
G04 #@! TO.N,unconnected-(Module1-Pad182)*
X160700000Y-94275000D03*
G04 #@! TO.P,Module1,183,DSI1_D1_P*
G04 #@! TO.N,unconnected-(Module1-Pad183)*
X157620000Y-94675000D03*
G04 #@! TO.P,Module1,184,HDMI0_TX0_N*
G04 #@! TO.N,unconnected-(Module1-Pad184)*
X160700000Y-94675000D03*
G04 #@! TO.P,Module1,185,GND*
G04 #@! TO.N,GND*
X157620000Y-95075000D03*
G04 #@! TO.P,Module1,186,GND*
X160700000Y-95075000D03*
G04 #@! TO.P,Module1,187,DSI1_C_N*
G04 #@! TO.N,unconnected-(Module1-Pad187)*
X157620000Y-95475000D03*
G04 #@! TO.P,Module1,188,HDMI0_CLK_P*
G04 #@! TO.N,unconnected-(Module1-Pad188)*
X160700000Y-95475000D03*
G04 #@! TO.P,Module1,189,DSI1_C_P*
G04 #@! TO.N,unconnected-(Module1-Pad189)*
X157620000Y-95875000D03*
G04 #@! TO.P,Module1,190,HDMI0_CLK_N*
G04 #@! TO.N,unconnected-(Module1-Pad190)*
X160700000Y-95875000D03*
G04 #@! TO.P,Module1,191,GND*
G04 #@! TO.N,GND*
X157620000Y-96275000D03*
G04 #@! TO.P,Module1,192,GND*
X160700000Y-96275000D03*
G04 #@! TO.P,Module1,193,DSI1_D2_N*
G04 #@! TO.N,unconnected-(Module1-Pad193)*
X157620000Y-96675000D03*
G04 #@! TO.P,Module1,194,DSI1_D3_N*
G04 #@! TO.N,unconnected-(Module1-Pad194)*
X160700000Y-96675000D03*
G04 #@! TO.P,Module1,195,DSI1_D2_P*
G04 #@! TO.N,unconnected-(Module1-Pad195)*
X157620000Y-97075000D03*
G04 #@! TO.P,Module1,196,DSI1_D3_P*
G04 #@! TO.N,unconnected-(Module1-Pad196)*
X160700000Y-97075000D03*
G04 #@! TO.P,Module1,197,GND*
G04 #@! TO.N,GND*
X157620000Y-97475000D03*
G04 #@! TO.P,Module1,198,GND*
X160700000Y-97475000D03*
G04 #@! TO.P,Module1,199,HDMI0_SDA*
G04 #@! TO.N,unconnected-(Module1-Pad199)*
X157620000Y-97875000D03*
G04 #@! TO.P,Module1,200,HDMI0_SCL*
G04 #@! TO.N,unconnected-(Module1-Pad200)*
X160700000Y-97875000D03*
G04 #@! TD*
D35*
G04 #@! TO.P,C18,1*
G04 #@! TO.N,/PSUs/SYS*
X116462500Y-114150000D03*
G04 #@! TO.P,C18,2*
G04 #@! TO.N,GND*
X118337500Y-114150000D03*
G04 #@! TD*
D31*
G04 #@! TO.P,C9,1*
G04 #@! TO.N,/PSUs/SYS*
X129550000Y-118687500D03*
G04 #@! TO.P,C9,2*
G04 #@! TO.N,GND*
X129550000Y-120562500D03*
G04 #@! TD*
D36*
G04 #@! TO.P,R12,1*
G04 #@! TO.N,GND*
X110937500Y-107000000D03*
G04 #@! TO.P,R12,2*
G04 #@! TO.N,Net-(R12-Pad2)*
X112512500Y-107000000D03*
G04 #@! TD*
D12*
G04 #@! TO.P,R9,1*
G04 #@! TO.N,Net-(J8-Pad3)*
X118880000Y-86110000D03*
G04 #@! TO.P,R9,2*
G04 #@! TO.N,GND*
X118880000Y-85140000D03*
G04 #@! TD*
D36*
G04 #@! TO.P,C11,1*
G04 #@! TO.N,/PSUs/VBUS*
X118512500Y-104792000D03*
G04 #@! TO.P,C11,2*
G04 #@! TO.N,GND*
X120087500Y-104792000D03*
G04 #@! TD*
D37*
G04 #@! TO.P,D2,1,K*
G04 #@! TO.N,Net-(D2-Pad1)*
X119675000Y-132700000D03*
G04 #@! TO.P,D2,2,A*
G04 #@! TO.N,/+3.3v*
X119675000Y-134275000D03*
G04 #@! TD*
D38*
G04 #@! TO.P,L1,1,1*
G04 #@! TO.N,/PSUs/SYS*
X131725001Y-116300000D03*
G04 #@! TO.P,L1,2,2*
G04 #@! TO.N,Net-(L1-Pad2)*
X136124999Y-116300000D03*
G04 #@! TD*
D39*
G04 #@! TO.P,U2,1,VCC*
G04 #@! TO.N,/+3.3v*
X149264400Y-55675000D03*
G04 #@! TO.P,U2,2,SEL*
G04 #@! TO.N,/CM4 High Speed/USBOTG*
X149264400Y-55175000D03*
G04 #@! TO.P,U2,3,D_P*
G04 #@! TO.N,/CM4 High Speed/USB2_P*
X149264400Y-54675000D03*
G04 #@! TO.P,U2,4,D_N*
G04 #@! TO.N,/CM4 High Speed/USB2_N*
X149264400Y-54175000D03*
G04 #@! TO.P,U2,5,GND*
G04 #@! TO.N,GND*
X149264400Y-53675000D03*
G04 #@! TO.P,U2,6,HSD0_M*
G04 #@! TO.N,/USB/USBH_N*
X144864400Y-53675000D03*
G04 #@! TO.P,U2,7,HSD0_P*
G04 #@! TO.N,/USB/USBH_P*
X144864400Y-54175000D03*
G04 #@! TO.P,U2,8,HSD1_M*
G04 #@! TO.N,/USB/USBD_N*
X144864400Y-54675000D03*
G04 #@! TO.P,U2,9,HSD1_P*
G04 #@! TO.N,/USB/USBD_P*
X144864400Y-55175000D03*
G04 #@! TO.P,U2,10,nOE*
G04 #@! TO.N,GND*
X144864400Y-55675000D03*
G04 #@! TD*
D37*
G04 #@! TO.P,R14,1*
G04 #@! TO.N,Net-(D3-Pad1)*
X116050000Y-104362500D03*
G04 #@! TO.P,R14,2*
G04 #@! TO.N,Net-(R14-Pad2)*
X116050000Y-105937500D03*
G04 #@! TD*
D18*
G04 #@! TO.P,J3,1,Pin_1*
G04 #@! TO.N,GND*
X141650000Y-127450000D03*
G04 #@! TO.P,J3,2,Pin_2*
G04 #@! TO.N,/CM4 High Speed/CAM0_D0_N*
X142150000Y-127450000D03*
G04 #@! TO.P,J3,3,Pin_3*
G04 #@! TO.N,/CM4 High Speed/CAM0_D0_P*
X142650000Y-127450000D03*
G04 #@! TO.P,J3,4,Pin_4*
G04 #@! TO.N,GND*
X143150000Y-127450000D03*
G04 #@! TO.P,J3,5,Pin_5*
G04 #@! TO.N,/CM4 High Speed/CAM0_D1_N*
X143650000Y-127450000D03*
G04 #@! TO.P,J3,6,Pin_6*
G04 #@! TO.N,/CM4 High Speed/CAM0_D1_P*
X144150000Y-127450000D03*
G04 #@! TO.P,J3,7,Pin_7*
G04 #@! TO.N,GND*
X144650000Y-127450000D03*
G04 #@! TO.P,J3,8,Pin_8*
G04 #@! TO.N,/CM4 High Speed/CAM0_C_N*
X145150000Y-127450000D03*
G04 #@! TO.P,J3,9,Pin_9*
G04 #@! TO.N,/CM4 High Speed/CAM0_C_P*
X145650000Y-127450000D03*
G04 #@! TO.P,J3,10,Pin_10*
G04 #@! TO.N,GND*
X146150000Y-127450000D03*
G04 #@! TO.P,J3,11,Pin_11*
G04 #@! TO.N,unconnected-(J3-Pad11)*
X146650000Y-127450000D03*
G04 #@! TO.P,J3,12,Pin_12*
G04 #@! TO.N,unconnected-(J3-Pad12)*
X147150000Y-127450000D03*
G04 #@! TO.P,J3,13,Pin_13*
G04 #@! TO.N,GND*
X147650000Y-127450000D03*
G04 #@! TO.P,J3,14,Pin_14*
G04 #@! TO.N,unconnected-(J3-Pad14)*
X148150000Y-127450000D03*
G04 #@! TO.P,J3,15,Pin_15*
G04 #@! TO.N,unconnected-(J3-Pad15)*
X148650000Y-127450000D03*
G04 #@! TO.P,J3,16,Pin_16*
G04 #@! TO.N,GND*
X149150000Y-127450000D03*
G04 #@! TO.P,J3,17,Pin_17*
G04 #@! TO.N,/CM4 High Speed/CAM_GPIO*
X149650000Y-127450000D03*
G04 #@! TO.P,J3,18,Pin_18*
G04 #@! TO.N,unconnected-(J3-Pad18)*
X150150000Y-127450000D03*
G04 #@! TO.P,J3,19,Pin_19*
G04 #@! TO.N,GND*
X150650000Y-127450000D03*
G04 #@! TO.P,J3,20,Pin_20*
G04 #@! TO.N,/CM4 High Speed/ID_SC*
X151150000Y-127450000D03*
G04 #@! TO.P,J3,21,Pin_21*
G04 #@! TO.N,/CM4 High Speed/ID_SD*
X151650000Y-127450000D03*
G04 #@! TO.P,J3,22,Pin_22*
G04 #@! TO.N,/+3.3v*
X152150000Y-127450000D03*
D19*
G04 #@! TO.P,J3,MP*
G04 #@! TO.N,N/C*
X139750000Y-130700000D03*
X154050000Y-130700000D03*
G04 #@! TD*
D40*
G04 #@! TO.P,R2,1*
G04 #@! TO.N,/+3.3v*
X119312500Y-80400000D03*
G04 #@! TO.P,R2,2*
G04 #@! TO.N,/CM4 GPIO/GPIO2*
X117437500Y-80400000D03*
G04 #@! TD*
D36*
G04 #@! TO.P,R13,1*
G04 #@! TO.N,GND*
X110962500Y-109175000D03*
G04 #@! TO.P,R13,2*
G04 #@! TO.N,Net-(R13-Pad2)*
X112537500Y-109175000D03*
G04 #@! TD*
D40*
G04 #@! TO.P,C17,1*
G04 #@! TO.N,Net-(B1-Pad2)*
X114862500Y-114150000D03*
G04 #@! TO.P,C17,2*
G04 #@! TO.N,GND*
X112987500Y-114150000D03*
G04 #@! TD*
D10*
G04 #@! TO.P,C3,1*
G04 #@! TO.N,/+3.3v*
X151580000Y-124515000D03*
G04 #@! TO.P,C3,2*
G04 #@! TO.N,GND*
X151580000Y-125485000D03*
G04 #@! TD*
D40*
G04 #@! TO.P,R3,1*
G04 #@! TO.N,/+3.3v*
X119312500Y-82525000D03*
G04 #@! TO.P,R3,2*
G04 #@! TO.N,/CM4 GPIO/GPIO3*
X117437500Y-82525000D03*
G04 #@! TD*
D12*
G04 #@! TO.P,C6,1*
G04 #@! TO.N,/+3.3v*
X148175000Y-122422500D03*
G04 #@! TO.P,C6,2*
G04 #@! TO.N,GND*
X148175000Y-121452500D03*
G04 #@! TD*
D13*
G04 #@! TO.P,R6,1*
G04 #@! TO.N,/+3.3v*
X124765000Y-102375000D03*
G04 #@! TO.P,R6,2*
G04 #@! TO.N,/CM4 High Speed/ID_SD*
X125735000Y-102375000D03*
G04 #@! TD*
D41*
G04 #@! TO.P,U1,1*
G04 #@! TO.N,N/C*
X119750000Y-127862500D03*
G04 #@! TO.P,U1,2*
G04 #@! TO.N,/CM4 GPIO/nPWR_LED*
X119750000Y-127212500D03*
G04 #@! TO.P,U1,3,GND*
G04 #@! TO.N,GND*
X119750000Y-126562500D03*
G04 #@! TO.P,U1,4*
G04 #@! TO.N,Net-(R4-Pad2)*
X117850000Y-126562500D03*
G04 #@! TO.P,U1,5,VCC*
G04 #@! TO.N,/+3.3v*
X117850000Y-127862500D03*
G04 #@! TD*
D12*
G04 #@! TO.P,R8,1*
G04 #@! TO.N,Net-(J6-Pad1)*
X151475000Y-57610000D03*
G04 #@! TO.P,R8,2*
G04 #@! TO.N,/CM4 High Speed/USBOTG*
X151475000Y-56640000D03*
G04 #@! TD*
D37*
G04 #@! TO.P,D1,1,K*
G04 #@! TO.N,Net-(D1-Pad1)*
X117950000Y-132700000D03*
G04 #@! TO.P,D1,2,A*
G04 #@! TO.N,/+3.3v*
X117950000Y-134275000D03*
G04 #@! TD*
D10*
G04 #@! TO.P,C5,1*
G04 #@! TO.N,/+3.3v*
X148150000Y-124527500D03*
G04 #@! TO.P,C5,2*
G04 #@! TO.N,GND*
X148150000Y-125497500D03*
G04 #@! TD*
D12*
G04 #@! TO.P,C8,1*
G04 #@! TO.N,/+3.3v*
X151580000Y-122410000D03*
G04 #@! TO.P,C8,2*
G04 #@! TO.N,GND*
X151580000Y-121440000D03*
G04 #@! TD*
D42*
G04 #@! TO.P,D4,1,K*
G04 #@! TO.N,Net-(D4-Pad1)*
X114512500Y-102800000D03*
G04 #@! TO.P,D4,2,A*
G04 #@! TO.N,/PSUs/SYS*
X112937500Y-102800000D03*
G04 #@! TD*
D17*
G04 #@! TO.P,C14,1*
G04 #@! TO.N,Net-(C14-Pad1)*
X120425000Y-108229500D03*
G04 #@! TO.P,C14,2*
G04 #@! TO.N,GND*
X120425000Y-106354500D03*
G04 #@! TD*
D37*
G04 #@! TO.P,R15,1*
G04 #@! TO.N,Net-(D4-Pad1)*
X114000000Y-104362500D03*
G04 #@! TO.P,R15,2*
G04 #@! TO.N,Net-(R15-Pad2)*
X114000000Y-105937500D03*
G04 #@! TD*
D43*
G04 #@! TO.P,J8,1,1*
G04 #@! TO.N,GND*
X115949401Y-87900000D03*
D44*
G04 #@! TO.P,J8,2,2*
G04 #@! TO.N,/PSUs/VBUS*
X115949401Y-89130000D03*
D45*
G04 #@! TO.P,J8,3,3*
G04 #@! TO.N,Net-(J8-Pad3)*
X115949401Y-90150001D03*
G04 #@! TO.P,J8,4,4*
G04 #@! TO.N,Net-(J8-Pad4)*
X115949401Y-91149999D03*
D44*
G04 #@! TO.P,J8,5,5*
G04 #@! TO.N,/PSUs/VBUS*
X115949401Y-92170000D03*
D43*
G04 #@! TO.P,J8,6,6*
G04 #@! TO.N,GND*
X115949401Y-93400000D03*
D46*
G04 #@! TO.P,J8,7*
G04 #@! TO.N,N/C*
X115949401Y-86329998D03*
G04 #@! TO.P,J8,8*
X115949401Y-94970002D03*
G04 #@! TO.P,J8,9*
X112149401Y-86330001D03*
G04 #@! TO.P,J8,10*
X112149401Y-94969999D03*
G04 #@! TD*
D13*
G04 #@! TO.P,R5,1*
G04 #@! TO.N,/+3.3v*
X124765000Y-100725000D03*
G04 #@! TO.P,R5,2*
G04 #@! TO.N,/CM4 High Speed/ID_SC*
X125735000Y-100725000D03*
G04 #@! TD*
D47*
G04 #@! TO.P,U4,1,PGND*
G04 #@! TO.N,GND*
X136628001Y-120624999D03*
D48*
G04 #@! TO.P,U4,2,SW*
G04 #@! TO.N,Net-(L1-Pad2)*
X136028000Y-121525000D03*
D49*
G04 #@! TO.P,U4,3,VIN*
G04 #@! TO.N,/PSUs/SYS*
X135383000Y-120375000D03*
D50*
G04 #@! TO.P,U4,4,CC*
G04 #@! TO.N,GND*
X134708000Y-120774999D03*
G04 #@! TO.P,U4,5,AGND*
X134708000Y-121275000D03*
G04 #@! TO.P,U4,6,FB*
G04 #@! TO.N,/+5v*
X134708000Y-121775000D03*
G04 #@! TO.P,U4,7,EN*
G04 #@! TO.N,Net-(S1-Pad2)*
X134708000Y-122274998D03*
D49*
G04 #@! TO.P,U4,8,INACT*
G04 #@! TO.N,GND*
X135383000Y-122675000D03*
D51*
G04 #@! TO.P,U4,9,VOUT*
G04 #@! TO.N,/+5v*
X136628001Y-122250000D03*
G04 #@! TD*
D17*
G04 #@! TO.P,C12,1*
G04 #@! TO.N,/+5v*
X141308000Y-122512500D03*
G04 #@! TO.P,C12,2*
G04 #@! TO.N,GND*
X141308000Y-120637500D03*
G04 #@! TD*
D36*
G04 #@! TO.P,D3,1,K*
G04 #@! TO.N,Net-(D3-Pad1)*
X116062500Y-102800000D03*
G04 #@! TO.P,D3,2,A*
G04 #@! TO.N,/PSUs/SYS*
X117637500Y-102800000D03*
G04 #@! TD*
D21*
G04 #@! TO.P,J7,1,VBUS*
G04 #@! TO.N,/+5v*
X137550000Y-55077500D03*
G04 #@! TO.P,J7,2,D-*
G04 #@! TO.N,/USB/USBH_N*
X136900000Y-55077500D03*
G04 #@! TO.P,J7,3,D+*
G04 #@! TO.N,/USB/USBH_P*
X136250000Y-55077500D03*
G04 #@! TO.P,J7,4,ID*
G04 #@! TO.N,unconnected-(J7-Pad4)*
X135600000Y-55077500D03*
G04 #@! TO.P,J7,5,GND*
G04 #@! TO.N,GND*
X134950000Y-55077500D03*
D22*
G04 #@! TO.P,J7,6,Shield*
X139150000Y-52377500D03*
D23*
X133750000Y-55077500D03*
X138750000Y-55077500D03*
D25*
X135250000Y-52377500D03*
D22*
X133350000Y-52377500D03*
D24*
X132750000Y-52377500D03*
X139750000Y-52377500D03*
D25*
X137250000Y-52377500D03*
G04 #@! TD*
D11*
G04 #@! TO.P,J4,1,Pin_1*
G04 #@! TO.N,/PSUs/VBUS*
X119875000Y-102325000D03*
G04 #@! TD*
D31*
G04 #@! TO.P,C2,1*
G04 #@! TO.N,/+3.3v*
X153600000Y-122475000D03*
G04 #@! TO.P,C2,2*
G04 #@! TO.N,GND*
X153600000Y-124350000D03*
G04 #@! TD*
D52*
G04 #@! TO.P,B1,1,-*
G04 #@! TO.N,GND*
X120275000Y-122075000D03*
G04 #@! TO.P,B1,2,+*
G04 #@! TO.N,Net-(B1-Pad2)*
X120275000Y-120075000D03*
D53*
G04 #@! TO.P,B1,MP*
G04 #@! TO.N,N/C*
X114525000Y-124425000D03*
X114525000Y-117725000D03*
G04 #@! TD*
D36*
G04 #@! TO.P,C16,1*
G04 #@! TO.N,/PSUs/REGN*
X119562500Y-109792000D03*
G04 #@! TO.P,C16,2*
G04 #@! TO.N,GND*
X121137500Y-109792000D03*
G04 #@! TD*
D54*
G04 #@! TO.P,R16,1*
G04 #@! TO.N,Net-(R16-Pad1)*
X112385000Y-110975000D03*
G04 #@! TO.P,R16,2*
G04 #@! TO.N,/PSUs/REGN*
X111415000Y-110975000D03*
G04 #@! TD*
D55*
G04 #@! TO.N,GND*
X127700000Y-88275000D03*
X121875000Y-108400000D03*
X118100000Y-112650000D03*
X161575000Y-93875000D03*
X123600000Y-122400000D03*
X114850000Y-89175000D03*
X113850000Y-90375000D03*
X127175000Y-131200000D03*
X128275000Y-131200000D03*
X150000000Y-130200000D03*
X156725000Y-95075000D03*
X122875000Y-122400000D03*
X158525000Y-81875000D03*
X124300000Y-122400000D03*
X113850000Y-91625000D03*
X161600000Y-80675000D03*
X141775000Y-118075000D03*
X141800000Y-118800000D03*
X161600000Y-89100000D03*
X161600000Y-84275000D03*
X124300000Y-121725000D03*
X141775000Y-117400000D03*
X124625000Y-78275000D03*
X116975000Y-110325000D03*
X142575000Y-119500000D03*
X126700000Y-121725000D03*
X122875000Y-121725000D03*
X131950000Y-129975000D03*
X129450000Y-129950000D03*
X147300000Y-125875000D03*
X121875000Y-109050000D03*
X124600000Y-80675000D03*
X112800000Y-89175000D03*
X125600000Y-84700000D03*
X116125000Y-109525000D03*
X141800000Y-119500000D03*
X127700000Y-89850000D03*
X113700000Y-113175000D03*
X121350000Y-107275000D03*
X161600000Y-83075000D03*
X146350000Y-130175000D03*
X114850000Y-90375000D03*
X155025000Y-85775000D03*
X127725000Y-80675000D03*
X124625000Y-79075000D03*
X141000000Y-118800000D03*
X129425000Y-131200000D03*
X161575000Y-96275000D03*
X161575000Y-90275000D03*
X156750000Y-96275000D03*
X131412500Y-120562500D03*
X149239100Y-123065900D03*
X156725000Y-93875000D03*
X127700000Y-92675000D03*
X116975000Y-108675000D03*
X124700000Y-90400000D03*
X127475000Y-121750000D03*
X141000000Y-119500000D03*
X115300000Y-109525000D03*
X148725000Y-130175000D03*
X113850000Y-92825000D03*
X116125000Y-110350000D03*
X121837500Y-107762500D03*
X112800000Y-88050000D03*
X146325000Y-131375000D03*
X156250000Y-84050000D03*
X114850000Y-91625000D03*
X111700000Y-92850000D03*
X161600000Y-87875000D03*
X113825000Y-80125000D03*
X132012500Y-120562500D03*
X161600000Y-81850000D03*
X156250000Y-79400000D03*
X161600000Y-86675000D03*
X140975000Y-118075000D03*
X145250000Y-130175000D03*
X111700000Y-88075000D03*
X123600000Y-121725000D03*
X116975000Y-109500000D03*
X147475000Y-131375000D03*
X156750000Y-91475000D03*
X153875000Y-58600000D03*
X142575000Y-118800000D03*
X161575000Y-92675000D03*
X115300000Y-110350000D03*
X111700000Y-89200000D03*
X131925000Y-131225000D03*
X130650000Y-131200000D03*
X130675000Y-129950000D03*
X127700000Y-91050000D03*
X112800000Y-92825000D03*
X149975000Y-131400000D03*
X125975000Y-122400000D03*
X130812500Y-120562500D03*
X161575000Y-95075000D03*
X124525000Y-83475000D03*
X145225000Y-131375000D03*
X127725000Y-79450000D03*
X140975000Y-117400000D03*
X148700000Y-131375000D03*
X116125000Y-108700000D03*
X142550000Y-118075000D03*
X111700000Y-91650000D03*
X114850000Y-88050000D03*
X111700000Y-90400000D03*
X126700000Y-122400000D03*
X124475000Y-86675000D03*
X127650000Y-94900000D03*
X161600000Y-85475000D03*
X127725000Y-82675000D03*
X112800000Y-90375000D03*
X142550000Y-117400000D03*
X114850000Y-92825000D03*
X156175000Y-80400000D03*
X127200000Y-129950000D03*
X156750000Y-90275000D03*
X113850000Y-89175000D03*
X161575000Y-97475000D03*
X113850000Y-88050000D03*
X127725000Y-86275000D03*
X118750000Y-126762500D03*
X113225000Y-80125000D03*
X150900000Y-53450000D03*
X128300000Y-129950000D03*
X127725000Y-78275000D03*
X147500000Y-130175000D03*
X156725000Y-92675000D03*
X161600000Y-79475000D03*
X156750000Y-97475000D03*
X156750000Y-89075000D03*
X125975000Y-121725000D03*
X124500000Y-92275000D03*
X161575000Y-91475000D03*
X115300000Y-108700000D03*
X112800000Y-91625000D03*
X148604034Y-123629034D03*
G04 #@! TO.N,/+3.3v*
X149925000Y-123800000D03*
X126061420Y-93475000D03*
X135300000Y-126450000D03*
X149025000Y-124575000D03*
X153525000Y-125900000D03*
X153600000Y-121525000D03*
X154600000Y-122475000D03*
X151575000Y-123775000D03*
X116951920Y-79298080D03*
X123925000Y-99900000D03*
X121226885Y-82151885D03*
X118675000Y-128762500D03*
X149895000Y-123205000D03*
X149450000Y-56975000D03*
X151575000Y-123125000D03*
X118223080Y-79298080D03*
X126061420Y-94675000D03*
X153600000Y-120700000D03*
X121238944Y-81561056D03*
X120925000Y-134012500D03*
G04 #@! TO.N,/PSUs/SYS*
X133775000Y-119925000D03*
X148083465Y-116033465D03*
X112375000Y-103375000D03*
X116350000Y-112750000D03*
G04 #@! TO.N,/PSUs/VBUS*
X112374989Y-108100000D03*
X117925000Y-107500000D03*
G04 #@! TO.N,/PSUs/REGN*
X118900000Y-109325000D03*
X112505737Y-110137469D03*
G04 #@! TO.N,/+5v*
X133975000Y-121459300D03*
X139675000Y-56100000D03*
X138309215Y-56515785D03*
X132414330Y-113825020D03*
X139075000Y-56500000D03*
G04 #@! TO.N,/CM4 GPIO/GPIO14*
X124650000Y-89350000D03*
X122639617Y-74395794D03*
G04 #@! TO.N,/CM4 GPIO/nRPIBOOT*
X124450000Y-96075000D03*
G04 #@! TO.N,/CM4 GPIO/GPIO2*
X124634101Y-88615893D03*
X120125000Y-81339780D03*
G04 #@! TO.N,/CM4 GPIO/GPIO3*
X124612500Y-87912499D03*
X120583022Y-83600000D03*
G04 #@! TO.N,/CM4 High Speed/CAM0_D0_N*
X156776947Y-102579136D03*
X142541513Y-124266513D03*
G04 #@! TO.N,/CM4 High Speed/CAM0_D0_P*
X157437347Y-102579136D03*
X143008487Y-124733487D03*
G04 #@! TO.N,/CM4 High Speed/CAM0_D1_N*
X158096949Y-102554748D03*
X144166513Y-124766513D03*
G04 #@! TO.N,/CM4 High Speed/CAM0_D1_P*
X144633487Y-125233487D03*
X158757349Y-102554748D03*
G04 #@! TO.N,/CM4 High Speed/CAM0_C_N*
X159416513Y-102516513D03*
X159416513Y-102516513D03*
X145666513Y-125191513D03*
X145666513Y-125191513D03*
G04 #@! TO.N,/CM4 High Speed/CAM0_C_P*
X146133487Y-125658487D03*
X159883487Y-102983487D03*
X159883487Y-102983487D03*
X146133487Y-125658487D03*
G04 #@! TO.N,/CM4 High Speed/CAM1_D0_N*
X126066513Y-123841513D03*
X150219800Y-84350000D03*
X126066513Y-123841513D03*
X126066513Y-123841513D03*
X150219800Y-84350000D03*
G04 #@! TO.N,/CM4 High Speed/CAM1_D0_P*
X126533487Y-124308487D03*
X150880200Y-84350000D03*
X126533487Y-124308487D03*
X126533487Y-124308487D03*
X150880200Y-84350000D03*
G04 #@! TO.N,/CM4 High Speed/CAM1_D1_N*
X151245813Y-85154288D03*
X128566513Y-123666513D03*
X128566513Y-123666513D03*
X151245813Y-85154288D03*
G04 #@! TO.N,/CM4 High Speed/CAM1_D1_P*
X129033487Y-124133487D03*
X129033487Y-124133487D03*
X151906213Y-85154288D03*
X151906213Y-85154288D03*
G04 #@! TO.N,/CM4 High Speed/CAM1_C_N*
X152269800Y-85900000D03*
X152269800Y-85900000D03*
X131016513Y-123516513D03*
G04 #@! TO.N,/CM4 High Speed/CAM1_C_P*
X152930200Y-85900000D03*
X152930200Y-85900000D03*
X131483487Y-123983487D03*
G04 #@! TO.N,/CM4 High Speed/CAM1_D2_N*
X153315452Y-86671302D03*
X138750000Y-123997499D03*
G04 #@! TO.N,/CM4 High Speed/CAM1_D2_P*
X153975852Y-86671302D03*
X138750000Y-124657899D03*
G04 #@! TO.N,/CM4 High Speed/CAM1_D3_N*
X154369800Y-87300000D03*
X139525000Y-124969800D03*
X154369800Y-87300000D03*
G04 #@! TO.N,/CM4 High Speed/CAM1_D3_P*
X155030200Y-87300000D03*
X139525000Y-125630200D03*
X155030200Y-87300000D03*
G04 #@! TO.N,Net-(J6-Pad1)*
X141725000Y-57825000D03*
X124325000Y-57296685D03*
G04 #@! TO.N,Net-(J8-Pad3)*
X118050000Y-90125000D03*
X118875000Y-86775000D03*
G04 #@! TO.N,Net-(J8-Pad4)*
X118681600Y-90418908D03*
X119357100Y-87426827D03*
G04 #@! TO.N,/CM4 GPIO/nLED_Activity*
X124500000Y-82275000D03*
X119875000Y-125887500D03*
G04 #@! TO.N,/CM4 GPIO/nPWR_LED*
X123825000Y-98600000D03*
X120455057Y-126219979D03*
G04 #@! TO.N,/CM4 High Speed/USBOTG*
X153903653Y-57940720D03*
X155525000Y-58175000D03*
G04 #@! TO.N,Net-(S1-Pad2)*
X130200000Y-123650000D03*
X157325000Y-122750000D03*
G04 #@! TO.N,/CM4 High Speed/ID_SD*
X125975000Y-90150000D03*
X125900000Y-87075000D03*
G04 #@! TO.N,/CM4 High Speed/SCL0*
X133870096Y-126431458D03*
X129697220Y-95440897D03*
G04 #@! TO.N,/CM4 High Speed/ID_SC*
X125598312Y-87675000D03*
X127179138Y-103059829D03*
X125725000Y-101500000D03*
X125275000Y-90000000D03*
G04 #@! TO.N,/CM4 High Speed/CAM_GPIO*
X132950000Y-126250000D03*
X124455111Y-97749681D03*
G04 #@! TO.N,/CM4 High Speed/SDA0*
X134335823Y-125963944D03*
X129425000Y-94800000D03*
G04 #@! TD*
D56*
G04 #@! TO.N,GND*
X126025000Y-84275000D02*
X125600000Y-84700000D01*
D57*
X120087500Y-106012500D02*
X120087500Y-104792000D01*
D56*
X127282400Y-97475000D02*
X127650000Y-97107400D01*
X127325000Y-82275000D02*
X127725000Y-82675000D01*
D57*
X151900000Y-121440000D02*
X152498080Y-122038080D01*
X132537500Y-120562500D02*
X132775000Y-120800000D01*
D56*
X135350000Y-121581402D02*
X135350000Y-122700000D01*
D58*
X125375000Y-52375000D02*
X125400000Y-52400000D01*
D57*
X121137500Y-109792000D02*
X121183000Y-109792000D01*
D56*
X161575000Y-81875000D02*
X161600000Y-81850000D01*
D59*
X122500000Y-105925000D02*
X120900000Y-105925000D01*
D56*
X127240600Y-84275000D02*
X127725000Y-83790600D01*
X161600000Y-84275000D02*
X160700000Y-84275000D01*
X157620000Y-97475000D02*
X156750000Y-97475000D01*
D57*
X120625000Y-55102500D02*
X119402500Y-55102500D01*
D56*
X156325000Y-79475000D02*
X156250000Y-79400000D01*
X149264400Y-53675000D02*
X147625000Y-53675000D01*
X160700000Y-97475000D02*
X161575000Y-97475000D01*
D57*
X121183000Y-109792000D02*
X121875000Y-109100000D01*
D56*
X157620000Y-80675000D02*
X156450000Y-80675000D01*
X113700000Y-113437500D02*
X112987500Y-114150000D01*
X126780000Y-84275000D02*
X127240600Y-84275000D01*
X113700000Y-113175000D02*
X113700000Y-113437500D01*
X160700000Y-89075000D02*
X161575000Y-89075000D01*
D59*
X140287500Y-120637500D02*
X138423689Y-120637500D01*
D56*
X161600000Y-86675000D02*
X160700000Y-86675000D01*
X118028421Y-86896579D02*
X116975000Y-87950000D01*
X157650000Y-79475000D02*
X157650000Y-79500000D01*
D59*
X139000000Y-119550000D02*
X139000000Y-120310000D01*
D56*
X160700000Y-80675000D02*
X161600000Y-80675000D01*
D57*
X119400000Y-55100000D02*
X118425000Y-54125000D01*
D56*
X126780000Y-79475000D02*
X127700000Y-79475000D01*
D57*
X121837500Y-107762500D02*
X121350000Y-107275000D01*
D56*
X160700000Y-95075000D02*
X161575000Y-95075000D01*
D57*
X152498080Y-123223080D02*
X153425000Y-124150000D01*
D58*
X115250000Y-80125000D02*
X113825000Y-80125000D01*
D56*
X124202400Y-82675000D02*
X124525000Y-82997600D01*
X126780000Y-88275000D02*
X127700000Y-88275000D01*
X134708000Y-120774999D02*
X134708000Y-120751305D01*
D57*
X132775000Y-120800000D02*
X133400000Y-120800000D01*
D56*
X123700000Y-84675000D02*
X125575000Y-84675000D01*
X127675000Y-91075000D02*
X127700000Y-91050000D01*
D57*
X131412500Y-120562500D02*
X132012500Y-120562500D01*
D56*
X110962500Y-109617500D02*
X110891880Y-109688120D01*
X118950000Y-126562500D02*
X118750000Y-126762500D01*
X160700000Y-96275000D02*
X161575000Y-96275000D01*
X123700000Y-80675000D02*
X124600000Y-80675000D01*
X118028421Y-85671579D02*
X118028421Y-86896579D01*
D57*
X148175000Y-121452500D02*
X147855000Y-121452500D01*
D56*
X118910000Y-85140000D02*
X118900000Y-85130000D01*
X160700000Y-83075000D02*
X161600000Y-83075000D01*
D57*
X121875000Y-108400000D02*
X121875000Y-107800000D01*
X147855000Y-121452500D02*
X147453080Y-121854420D01*
D56*
X161600000Y-85475000D02*
X160675000Y-85475000D01*
X126780000Y-97475000D02*
X127282400Y-97475000D01*
D57*
X148175000Y-121452500D02*
X149872500Y-121452500D01*
D56*
X134708000Y-120774999D02*
X134708000Y-121242000D01*
X123700000Y-86675000D02*
X124475000Y-86675000D01*
X158225000Y-83075000D02*
X158525000Y-82775000D01*
X124700000Y-90577400D02*
X124202400Y-91075000D01*
D57*
X148150000Y-125497500D02*
X148752500Y-125497500D01*
D56*
X127725000Y-83790600D02*
X127725000Y-82675000D01*
D57*
X121875000Y-109050000D02*
X121875000Y-108400000D01*
X148752500Y-125497500D02*
X149302500Y-125497500D01*
D56*
X158525000Y-82775000D02*
X158525000Y-81875000D01*
D57*
X121350000Y-107275000D02*
X120087500Y-106012500D01*
X120087500Y-104792000D02*
X120087500Y-105112500D01*
D56*
X110962500Y-109175000D02*
X110962500Y-109617500D01*
X126780000Y-89875000D02*
X127675000Y-89875000D01*
X123700000Y-78275000D02*
X124625000Y-78275000D01*
X126780000Y-84275000D02*
X126025000Y-84275000D01*
X123700000Y-82675000D02*
X124202400Y-82675000D01*
X156450000Y-80675000D02*
X156175000Y-80400000D01*
X157620000Y-93875000D02*
X156725000Y-93875000D01*
X160700000Y-79475000D02*
X161600000Y-79475000D01*
X157620000Y-85475000D02*
X155325000Y-85475000D01*
X150675000Y-53675000D02*
X150900000Y-53450000D01*
X157620000Y-83075000D02*
X158225000Y-83075000D01*
D57*
X121875000Y-107800000D02*
X121837500Y-107762500D01*
D56*
X127700000Y-79475000D02*
X127725000Y-79450000D01*
D57*
X148675966Y-123629034D02*
X149239100Y-123065900D01*
X134777500Y-55077500D02*
X134897500Y-55077500D01*
X148277464Y-123629034D02*
X148604034Y-123629034D01*
D56*
X124700000Y-90400000D02*
X124700000Y-90372600D01*
X126780000Y-82275000D02*
X127325000Y-82275000D01*
D57*
X133400000Y-120800000D02*
X133425001Y-120774999D01*
D56*
X118560000Y-85140000D02*
X118028421Y-85671579D01*
X123350000Y-89900000D02*
X123725000Y-89900000D01*
X124700000Y-90372600D02*
X124202400Y-89875000D01*
X124202400Y-91075000D02*
X123700000Y-91075000D01*
D59*
X143383000Y-120637500D02*
X140287500Y-120637500D01*
D56*
X135190488Y-121421890D02*
X135350000Y-121581402D01*
D58*
X118425000Y-52402500D02*
X125347500Y-52402500D01*
D56*
X126780000Y-78275000D02*
X127725000Y-78275000D01*
X149264400Y-53675000D02*
X150675000Y-53675000D01*
X118880000Y-85140000D02*
X118560000Y-85140000D01*
X160700000Y-81875000D02*
X161575000Y-81875000D01*
X156475000Y-84275000D02*
X156250000Y-84050000D01*
X126780000Y-91075000D02*
X127675000Y-91075000D01*
X123197600Y-88675000D02*
X123121889Y-88750711D01*
D57*
X152498080Y-122038080D02*
X152498080Y-123223080D01*
D56*
X110937500Y-107075000D02*
X110937500Y-109112500D01*
D59*
X128000000Y-122075000D02*
X128625000Y-121450000D01*
D56*
X120455000Y-85140000D02*
X118910000Y-85140000D01*
X160650000Y-80675000D02*
X160675000Y-80675000D01*
D57*
X121875000Y-109100000D02*
X121875000Y-109050000D01*
D56*
X134708000Y-121308000D02*
X134821890Y-121421890D01*
X127650000Y-97107400D02*
X127650000Y-94900000D01*
D57*
X118425000Y-54125000D02*
X118425000Y-52425000D01*
D56*
X126780000Y-92675000D02*
X127700000Y-92675000D01*
X157620000Y-96275000D02*
X156750000Y-96275000D01*
X110891880Y-112066880D02*
X113000000Y-114175000D01*
D57*
X133750000Y-55077500D02*
X134777500Y-55077500D01*
D56*
X160700000Y-93875000D02*
X161575000Y-93875000D01*
D59*
X139000000Y-118150000D02*
X139000000Y-119550000D01*
D56*
X124225000Y-79475000D02*
X124625000Y-79075000D01*
D57*
X151580000Y-121440000D02*
X151900000Y-121440000D01*
D56*
X124700000Y-90400000D02*
X124700000Y-90577400D01*
X160700000Y-91475000D02*
X161575000Y-91475000D01*
X123700000Y-92275000D02*
X124500000Y-92275000D01*
X157620000Y-81875000D02*
X158525000Y-81875000D01*
X134708000Y-120774999D02*
X133425001Y-120774999D01*
D57*
X120087500Y-105112500D02*
X120900000Y-105925000D01*
X149302500Y-125497500D02*
X149867500Y-125497500D01*
D56*
X127675000Y-89875000D02*
X127700000Y-89850000D01*
D57*
X129333000Y-120562500D02*
X130812500Y-120562500D01*
D56*
X160700000Y-92675000D02*
X161575000Y-92675000D01*
D57*
X152590000Y-125485000D02*
X153675000Y-124400000D01*
D58*
X125347500Y-52402500D02*
X125375000Y-52375000D01*
D56*
X126780000Y-80675000D02*
X127725000Y-80675000D01*
X153875000Y-58600000D02*
X152910000Y-57635000D01*
X110891880Y-109688120D02*
X110891880Y-112066880D01*
X157620000Y-92675000D02*
X156725000Y-92675000D01*
X157620000Y-91475000D02*
X156750000Y-91475000D01*
X157620000Y-79475000D02*
X156325000Y-79475000D01*
X123700000Y-88675000D02*
X123197600Y-88675000D01*
X126780000Y-86275000D02*
X127725000Y-86275000D01*
D57*
X132750000Y-52377500D02*
X139677500Y-52377500D01*
D56*
X156750000Y-89075000D02*
X157625000Y-89075000D01*
X155325000Y-85475000D02*
X155025000Y-85775000D01*
D57*
X147453080Y-121854420D02*
X147453080Y-122804650D01*
D58*
X113825000Y-80125000D02*
X113225000Y-80125000D01*
D56*
X110937500Y-109112500D02*
X110937500Y-109137500D01*
D59*
X128625000Y-121450000D02*
X129500000Y-120575000D01*
D56*
X134821890Y-121421890D02*
X135190488Y-121421890D01*
D57*
X130812500Y-120562500D02*
X131412500Y-120562500D01*
D56*
X123700000Y-79475000D02*
X124225000Y-79475000D01*
X152910000Y-57635000D02*
X152650000Y-57635000D01*
X123121889Y-88750711D02*
X123121889Y-89671889D01*
D57*
X151580000Y-125485000D02*
X152590000Y-125485000D01*
D56*
X124525000Y-82997600D02*
X124525000Y-83475000D01*
D59*
X120275000Y-122075000D02*
X128000000Y-122075000D01*
D57*
X153600000Y-124350000D02*
X155625000Y-124350000D01*
X147453080Y-122804650D02*
X148277464Y-123629034D01*
D56*
X161575000Y-89075000D02*
X161600000Y-89100000D01*
X124202400Y-89875000D02*
X123700000Y-89875000D01*
D57*
X119402500Y-55102500D02*
X119400000Y-55100000D01*
X132012500Y-120562500D02*
X132537500Y-120562500D01*
D56*
X123121889Y-89671889D02*
X123350000Y-89900000D01*
X125575000Y-84675000D02*
X125600000Y-84700000D01*
X160700000Y-87875000D02*
X161600000Y-87875000D01*
X147625000Y-53675000D02*
X145625000Y-55675000D01*
X157620000Y-84275000D02*
X156475000Y-84275000D01*
X119750000Y-126562500D02*
X118950000Y-126562500D01*
X134708000Y-121242000D02*
X134700000Y-121250000D01*
X157620000Y-95075000D02*
X156725000Y-95075000D01*
D57*
X148604034Y-123629034D02*
X148675966Y-123629034D01*
D56*
X157620000Y-90275000D02*
X156750000Y-90275000D01*
X160700000Y-90275000D02*
X161575000Y-90275000D01*
X134708000Y-121275000D02*
X134708000Y-121308000D01*
G04 #@! TO.N,/+3.3v*
X152150000Y-127275000D02*
X153525000Y-125900000D01*
X149895000Y-122410000D02*
X148415000Y-122410000D01*
X149800000Y-55675000D02*
X149800000Y-56500000D01*
X149025000Y-124575000D02*
X149072500Y-124527500D01*
D57*
X116426911Y-80746529D02*
X116048440Y-81125000D01*
X115150000Y-81125000D02*
X116048440Y-81125000D01*
X149895000Y-123830000D02*
X149895000Y-124430000D01*
D56*
X148977500Y-124527500D02*
X149025000Y-124575000D01*
D57*
X116801920Y-79298080D02*
X116426911Y-79673089D01*
X148185000Y-122410000D02*
X148175000Y-122420000D01*
X153600000Y-122475000D02*
X153600000Y-121525000D01*
X154600000Y-122475000D02*
X155600000Y-122475000D01*
D56*
X149800000Y-56500000D02*
X149450000Y-56850000D01*
X149450000Y-56850000D02*
X149450000Y-56975000D01*
X119662500Y-134275000D02*
X119675000Y-134262500D01*
X148150000Y-124527500D02*
X148977500Y-124527500D01*
D57*
X120155969Y-80400000D02*
X119475000Y-80400000D01*
D56*
X135050000Y-127450000D02*
X135050000Y-126700000D01*
D57*
X149895000Y-123205000D02*
X149895000Y-123770000D01*
X148150000Y-124527500D02*
X149797500Y-124527500D01*
D56*
X124765000Y-100725000D02*
X124750000Y-100725000D01*
D57*
X149895000Y-123770000D02*
X149925000Y-123800000D01*
D56*
X124750000Y-100725000D02*
X123925000Y-99900000D01*
D57*
X149895000Y-122410000D02*
X149895000Y-123205000D01*
X153600000Y-121525000D02*
X153600000Y-120700000D01*
D56*
X119675000Y-134275000D02*
X120662500Y-134275000D01*
X126780000Y-93475000D02*
X126061420Y-93475000D01*
D57*
X121226885Y-82151885D02*
X121238944Y-82139827D01*
D56*
X148175000Y-122422500D02*
X148175000Y-122650000D01*
D57*
X120853771Y-82525000D02*
X121226885Y-82151885D01*
X121238944Y-81561056D02*
X121238944Y-81482975D01*
X116951920Y-79298080D02*
X116801920Y-79298080D01*
X116951920Y-79298080D02*
X118223080Y-79298080D01*
D56*
X135050000Y-126700000D02*
X135300000Y-126450000D01*
D57*
X116426911Y-79673089D02*
X116426911Y-80746529D01*
X151580000Y-123780000D02*
X151580000Y-124495000D01*
X114975000Y-81125000D02*
X115773440Y-81125000D01*
D56*
X117950000Y-134275000D02*
X119662500Y-134275000D01*
D57*
X121238944Y-82139827D02*
X121238944Y-81561056D01*
X116919234Y-79298080D02*
X116951920Y-79298080D01*
X119312500Y-82525000D02*
X120853771Y-82525000D01*
X151575000Y-123775000D02*
X151580000Y-123780000D01*
D56*
X120662500Y-134275000D02*
X120925000Y-134012500D01*
X152150000Y-127500000D02*
X152150000Y-127275000D01*
X117850000Y-127937500D02*
X118675000Y-128762500D01*
D57*
X118325000Y-79400000D02*
X119350000Y-80425000D01*
X153600000Y-122475000D02*
X154600000Y-122475000D01*
X149925000Y-123800000D02*
X149895000Y-123830000D01*
X118223080Y-79298080D02*
X118325000Y-79400000D01*
X116426911Y-79673089D02*
X116426911Y-80065403D01*
D56*
X126780000Y-94675000D02*
X126061420Y-94675000D01*
D57*
X149895000Y-122410000D02*
X148185000Y-122410000D01*
X151580000Y-122410000D02*
X151580000Y-123120000D01*
X121238944Y-81482975D02*
X120155969Y-80400000D01*
D56*
X149072500Y-124527500D02*
X149802500Y-124527500D01*
X124765000Y-102375000D02*
X124765000Y-100740000D01*
X117850000Y-127862500D02*
X117850000Y-127937500D01*
D57*
X151575000Y-123775000D02*
X151575000Y-123125000D01*
X151580000Y-123120000D02*
X151575000Y-123125000D01*
D56*
G04 #@! TO.N,/PSUs/SYS*
X150875000Y-118825000D02*
X157750000Y-118825000D01*
X116946880Y-102096880D02*
X117625000Y-102775000D01*
X113640620Y-102096880D02*
X116946880Y-102096880D01*
X117625000Y-102775000D02*
X117625000Y-102800000D01*
X148083465Y-116033465D02*
X150875000Y-118825000D01*
X112937500Y-102800000D02*
X112937500Y-102812500D01*
X158850000Y-119875000D02*
X161225000Y-119875000D01*
X112937500Y-102812500D02*
X112375000Y-103375000D01*
X112937500Y-102800000D02*
X113640620Y-102096880D01*
X158825000Y-119900000D02*
X158850000Y-119875000D01*
X157750000Y-118825000D02*
X158825000Y-119900000D01*
D59*
G04 #@! TO.N,/PSUs/VBUS*
X118212562Y-104600000D02*
X118212562Y-104637562D01*
X119725000Y-92200000D02*
X119725000Y-97350000D01*
D58*
X116970000Y-92170000D02*
X117000000Y-92200000D01*
X119062500Y-92112500D02*
X119000000Y-92175000D01*
X119000000Y-92175000D02*
X118950000Y-92225000D01*
D56*
X112374989Y-108100000D02*
X112576542Y-108100000D01*
D59*
X119950000Y-102862562D02*
X118212562Y-104600000D01*
D56*
X113203120Y-109097746D02*
X113397374Y-109292000D01*
D58*
X115949401Y-89130000D02*
X119180000Y-89130000D01*
D59*
X119725000Y-97525000D02*
X120725000Y-98525000D01*
D58*
X119180000Y-89130000D02*
X119575000Y-89525000D01*
D59*
X119837500Y-89787500D02*
X119575000Y-89525000D01*
X119837500Y-92087500D02*
X119837500Y-89787500D01*
X119950000Y-98550000D02*
X119950000Y-102862562D01*
D58*
X115949401Y-89130000D02*
X116949401Y-89130000D01*
D56*
X113203120Y-108726578D02*
X113203120Y-109097746D01*
D58*
X119725000Y-92200000D02*
X117000000Y-92200000D01*
X115949401Y-92170000D02*
X116970000Y-92170000D01*
D56*
X112576542Y-108100000D02*
X113203120Y-108726578D01*
X113397374Y-109292000D02*
X114185000Y-109292000D01*
G04 #@! TO.N,Net-(C14-Pad1)*
X119908000Y-108792000D02*
X120450000Y-108250000D01*
X118065000Y-108792000D02*
X119908000Y-108792000D01*
G04 #@! TO.N,Net-(C15-Pad2)*
X119356458Y-110700000D02*
X120031458Y-111375000D01*
X118896880Y-110240422D02*
X119356458Y-110700000D01*
X118896880Y-110171880D02*
X118896880Y-110240422D01*
X120031458Y-111375000D02*
X120375000Y-111375000D01*
X118065000Y-109792000D02*
X118517000Y-109792000D01*
X118517000Y-109792000D02*
X118896880Y-110171880D01*
D60*
G04 #@! TO.N,/PSUs/REGN*
X118850000Y-109275000D02*
X118075000Y-109275000D01*
X119075000Y-109325000D02*
X119550000Y-109800000D01*
X112505737Y-110137469D02*
X112019531Y-110137469D01*
X118900000Y-109325000D02*
X119075000Y-109325000D01*
X118900000Y-109325000D02*
X118850000Y-109275000D01*
X112019531Y-110137469D02*
X111415000Y-110742000D01*
D56*
G04 #@! TO.N,Net-(D1-Pad1)*
X118000000Y-130797500D02*
X118000000Y-132437500D01*
X118000000Y-132437500D02*
X118000000Y-132687500D01*
G04 #@! TO.N,Net-(D2-Pad1)*
X119675000Y-130797500D02*
X119675000Y-132762500D01*
G04 #@! TO.N,Net-(D3-Pad1)*
X116062500Y-104587500D02*
X116075000Y-104600000D01*
X116062500Y-102800000D02*
X116062500Y-104587500D01*
G04 #@! TO.N,Net-(D4-Pad1)*
X114512500Y-103987500D02*
X113925000Y-104575000D01*
X114512500Y-102800000D02*
X114512500Y-103237500D01*
X114512500Y-102800000D02*
X114512500Y-103987500D01*
D58*
G04 #@! TO.N,/+5v*
X119301560Y-77825000D02*
X121150000Y-77825000D01*
X118717500Y-61417500D02*
X118373089Y-61761911D01*
D59*
X122448089Y-101869265D02*
X122448089Y-95226911D01*
D58*
X118348089Y-61786911D02*
X118717500Y-61417500D01*
D59*
X132414330Y-113825020D02*
X130775000Y-112185690D01*
X130775000Y-112185690D02*
X130775000Y-108075000D01*
X124753824Y-104175000D02*
X122448089Y-101869265D01*
D58*
X118373089Y-76926911D02*
X118348089Y-76901911D01*
X118403471Y-76926911D02*
X119301560Y-77825000D01*
D59*
X130775000Y-108075000D02*
X126875000Y-104175000D01*
D56*
X133975000Y-121459300D02*
X133975000Y-121494399D01*
D58*
X119750000Y-60385000D02*
X118717500Y-61417500D01*
X119940000Y-60385000D02*
X119750000Y-60385000D01*
X118630000Y-74002829D02*
X118348089Y-73720918D01*
X122448089Y-79023089D02*
X122448089Y-95226911D01*
X118348089Y-74328471D02*
X118630000Y-74046560D01*
D59*
X146325000Y-121525000D02*
X146325000Y-119050000D01*
X143383000Y-122512500D02*
X145337500Y-122512500D01*
D58*
X118373089Y-76926911D02*
X118403471Y-76926911D01*
D59*
X146325000Y-119050000D02*
X141100020Y-113825020D01*
D58*
X121150000Y-77825000D02*
X122348089Y-79023089D01*
D56*
X133975000Y-121494399D02*
X134255601Y-121775000D01*
D59*
X122448089Y-95226911D02*
X122448089Y-95176911D01*
D58*
X118348089Y-76901911D02*
X118348089Y-74328471D01*
D56*
X136628001Y-122221999D02*
X136628001Y-122250000D01*
X134255601Y-121775000D02*
X134708000Y-121775000D01*
D59*
X122448089Y-95176911D02*
X123375000Y-94250000D01*
D58*
X118348089Y-73720918D02*
X118348089Y-61786911D01*
X122348089Y-79023089D02*
X122448089Y-79023089D01*
D59*
X145337500Y-122512500D02*
X146325000Y-121525000D01*
X126875000Y-104175000D02*
X124753824Y-104175000D01*
D58*
X118630000Y-74046560D02*
X118630000Y-74002829D01*
D59*
X141100020Y-113825020D02*
X132414330Y-113825020D01*
D56*
G04 #@! TO.N,/CM4 GPIO/GPIO14*
X124435600Y-89350000D02*
X124135600Y-89050000D01*
X124650000Y-89350000D02*
X124435600Y-89350000D01*
X121328823Y-73085000D02*
X122639617Y-74395794D01*
X119750000Y-73085000D02*
X121328823Y-73085000D01*
X124135600Y-89050000D02*
X123750000Y-89050000D01*
G04 #@! TO.N,/CM4 GPIO/GPIO15*
X120600000Y-71395000D02*
X120600000Y-71674383D01*
X120600000Y-71674383D02*
X123167511Y-74241894D01*
X119750000Y-70545000D02*
X120600000Y-71395000D01*
X123239400Y-88275000D02*
X123675000Y-88275000D01*
X123167511Y-74241894D02*
X123167511Y-77946889D01*
X123051209Y-88086809D02*
X123239400Y-88275000D01*
X123051209Y-78063191D02*
X123051209Y-88086809D01*
X123167511Y-77946889D02*
X123051209Y-78063191D01*
G04 #@! TO.N,/CM4 GPIO/GPIO12*
X125170138Y-84275000D02*
X123725000Y-84275000D01*
X125897569Y-83547569D02*
X125170138Y-84275000D01*
X123409626Y-65465000D02*
X125897569Y-67952943D01*
X119750000Y-65465000D02*
X123409626Y-65465000D01*
X125897569Y-67952943D02*
X125897569Y-83547569D01*
G04 #@! TO.N,/CM4 GPIO/GPIO13*
X126201889Y-83357489D02*
X126319400Y-83475000D01*
X121300000Y-62925000D02*
X126201889Y-67826889D01*
X126201889Y-67826889D02*
X126201889Y-83357489D01*
X126319400Y-83475000D02*
X126775000Y-83475000D01*
X119750000Y-62925000D02*
X121300000Y-62925000D01*
G04 #@! TO.N,/CM4 GPIO/nRPIBOOT*
X124275000Y-96675000D02*
X123725000Y-96675000D01*
X124450000Y-96500000D02*
X124275000Y-96675000D01*
X124450000Y-96075000D02*
X124450000Y-96500000D01*
D57*
G04 #@! TO.N,unconnected-(J2-PadS1)*
X111100000Y-84550000D02*
X111100000Y-84525000D01*
X111375000Y-78825000D02*
X111375000Y-84525000D01*
D56*
G04 #@! TO.N,/CM4 GPIO/GPIO2*
X124634101Y-88615893D02*
X124634101Y-88647626D01*
X117587500Y-80400000D02*
X118425000Y-81237500D01*
X118425000Y-81237500D02*
X118527280Y-81339780D01*
X124634101Y-88647626D02*
X125543586Y-89557111D01*
X115125000Y-82125000D02*
X115850000Y-82125000D01*
X115987500Y-81987500D02*
X117575000Y-80400000D01*
X126319400Y-89475000D02*
X126775000Y-89475000D01*
X115875000Y-82100000D02*
X115987500Y-81987500D01*
X118527280Y-81339780D02*
X120125000Y-81339780D01*
X126237289Y-89557111D02*
X126319400Y-89475000D01*
X125543586Y-89557111D02*
X126237289Y-89557111D01*
X115850000Y-82125000D02*
X115987500Y-81987500D01*
G04 #@! TO.N,/CM4 GPIO/GPIO3*
X125775001Y-89075000D02*
X126775000Y-89075000D01*
X116950000Y-83125000D02*
X117550000Y-82525000D01*
X116950000Y-83125000D02*
X116975000Y-83100000D01*
X120583022Y-83600000D02*
X118662500Y-83600000D01*
X118662500Y-83600000D02*
X117587500Y-82525000D01*
X115125000Y-83125000D02*
X116950000Y-83125000D01*
X124612500Y-87912499D02*
X125775001Y-89075000D01*
D61*
G04 #@! TO.N,/CM4 High Speed/CAM0_D0_N*
X142150000Y-126524999D02*
X142243800Y-126431199D01*
X142150000Y-127500000D02*
X142150000Y-126524999D01*
X142243800Y-124810299D02*
X142541513Y-124512586D01*
X160406200Y-83518800D02*
X159035298Y-83518800D01*
X160700000Y-83475000D02*
X160450000Y-83475000D01*
X159035298Y-83518800D02*
X158420200Y-84133898D01*
X156950946Y-102405137D02*
X156776947Y-102579136D01*
X156950946Y-102053152D02*
X156950946Y-102405137D01*
X158420200Y-84133898D02*
X158420200Y-100583898D01*
X160450000Y-83475000D02*
X160406200Y-83518800D01*
X142243800Y-126431199D02*
X142243800Y-124810299D01*
X158420200Y-100583898D02*
X156950946Y-102053152D01*
X142541513Y-124512586D02*
X142541513Y-124266513D01*
G04 #@! TO.N,/CM4 High Speed/CAM0_D0_P*
X158732600Y-84263302D02*
X158732600Y-100713302D01*
X159164702Y-83831200D02*
X158732600Y-84263302D01*
X142762414Y-124733487D02*
X143008487Y-124733487D01*
X160700000Y-83875000D02*
X160450000Y-83875000D01*
X158732600Y-100713302D02*
X157263348Y-102182554D01*
X142650000Y-126524999D02*
X142556200Y-126431199D01*
X157263348Y-102405137D02*
X157437347Y-102579136D01*
X142556200Y-126431199D02*
X142556200Y-124939701D01*
X157263348Y-102182554D02*
X157263348Y-102405137D01*
X160406200Y-83831200D02*
X159164702Y-83831200D01*
X160450000Y-83875000D02*
X160406200Y-83831200D01*
X142650000Y-127500000D02*
X142650000Y-126524999D01*
X142556200Y-124939701D02*
X142762414Y-124733487D01*
G04 #@! TO.N,/CM4 High Speed/CAM0_D1_N*
X143743800Y-125435299D02*
X144166513Y-125012586D01*
X159044500Y-101431485D02*
X159044500Y-85109598D01*
X144166513Y-125012586D02*
X144166513Y-124766513D01*
X160131199Y-84718800D02*
X159435298Y-84718800D01*
D62*
X143650000Y-127500000D02*
X143650000Y-127000000D01*
D61*
X158270948Y-102205037D02*
X159044500Y-101431485D01*
X158096949Y-102554748D02*
X158270948Y-102380749D01*
X143650000Y-126524999D02*
X143743800Y-126431199D01*
X159044500Y-85109598D02*
X159435298Y-84718800D01*
X143743800Y-126431199D02*
X143743800Y-125435299D01*
X160700000Y-84675000D02*
X160174999Y-84675000D01*
X160174999Y-84675000D02*
X160131199Y-84718800D01*
D62*
X160700000Y-84675000D02*
X160450000Y-84675000D01*
D61*
X143650000Y-127500000D02*
X143650000Y-126524999D01*
X158270948Y-102380749D02*
X158270948Y-102205037D01*
G04 #@! TO.N,/CM4 High Speed/CAM0_D1_P*
X144150000Y-127500000D02*
X144150000Y-126524999D01*
X158757349Y-102554748D02*
X158583350Y-102380749D01*
X160131199Y-85031200D02*
X159564702Y-85031200D01*
D62*
X144150000Y-127500000D02*
X144150000Y-127000000D01*
D61*
X144150000Y-126524999D02*
X144056200Y-126431199D01*
X159356900Y-101560889D02*
X159356900Y-85239002D01*
X158583350Y-102334439D02*
X159356900Y-101560889D01*
X160700000Y-85075000D02*
X160174999Y-85075000D01*
D62*
X160700000Y-85075000D02*
X160450000Y-85075000D01*
D61*
X159356900Y-85239002D02*
X159564702Y-85031200D01*
X160174999Y-85075000D02*
X160131199Y-85031200D01*
X144056200Y-126431199D02*
X144056200Y-125564701D01*
X158583350Y-102380749D02*
X158583350Y-102334439D01*
X144056200Y-125564701D02*
X144387414Y-125233487D01*
X144387414Y-125233487D02*
X144633487Y-125233487D01*
G04 #@! TO.N,/CM4 High Speed/CAM0_C_N*
X159662586Y-102516513D02*
X159416513Y-102516513D01*
X159668800Y-86418868D02*
X159668800Y-102510299D01*
X145150000Y-127500000D02*
X145150000Y-126524999D01*
X159668800Y-102510299D02*
X159662586Y-102516513D01*
X160450000Y-85875000D02*
X160406200Y-85918800D01*
X145150000Y-126524999D02*
X145243800Y-126431199D01*
D62*
X160700000Y-85875000D02*
X160450000Y-85875000D01*
D61*
X145666513Y-125437586D02*
X145666513Y-125191513D01*
X145243800Y-125860299D02*
X145666513Y-125437586D01*
X160406200Y-85918800D02*
X160168868Y-85918800D01*
D62*
X145150000Y-127500000D02*
X145150000Y-127000000D01*
D61*
X145243800Y-126431199D02*
X145243800Y-125860299D01*
X160168868Y-85918800D02*
X159668800Y-86418868D01*
G04 #@! TO.N,/CM4 High Speed/CAM0_C_P*
X159883487Y-102737414D02*
X159883487Y-102983487D01*
X160298272Y-86231200D02*
X159981200Y-86548272D01*
X160406200Y-86231200D02*
X160298272Y-86231200D01*
X160700000Y-86275000D02*
X160450000Y-86275000D01*
X145556200Y-125989701D02*
X145887414Y-125658487D01*
X145887414Y-125658487D02*
X146133487Y-125658487D01*
X160450000Y-86275000D02*
X160406200Y-86231200D01*
X159981200Y-102639701D02*
X159883487Y-102737414D01*
X145556200Y-126431199D02*
X145556200Y-125989701D01*
D62*
X145650000Y-127500000D02*
X145650000Y-127000000D01*
D61*
X159981200Y-86548272D02*
X159981200Y-102639701D01*
X145650000Y-126524999D02*
X145556200Y-126431199D01*
X145650000Y-127500000D02*
X145650000Y-126524999D01*
G04 #@! TO.N,/CM4 High Speed/CAM1_D0_N*
X150220289Y-84033242D02*
X150220289Y-84349511D01*
X157620000Y-81075000D02*
X157094999Y-81075000D01*
X126066513Y-124087586D02*
X126066513Y-123841513D01*
X125050000Y-126474999D02*
X125143800Y-126381199D01*
X125050000Y-127450000D02*
X125050000Y-126474999D01*
X150563442Y-83690089D02*
X150220289Y-84033242D01*
X150220289Y-84349511D02*
X150219800Y-84350000D01*
X157051199Y-81118800D02*
X153451000Y-81118800D01*
X125143800Y-125010299D02*
X126066513Y-124087586D01*
X153451000Y-81118800D02*
X150879711Y-83690089D01*
X150879711Y-83690089D02*
X150563442Y-83690089D01*
X125143800Y-126381199D02*
X125143800Y-125010299D01*
X157094999Y-81075000D02*
X157051199Y-81118800D01*
G04 #@! TO.N,/CM4 High Speed/CAM1_D0_P*
X157094999Y-81475000D02*
X157051199Y-81431200D01*
X126287414Y-124308487D02*
X126533487Y-124308487D01*
X125550000Y-126474999D02*
X125456200Y-126381199D01*
X150880200Y-84131401D02*
X150880200Y-84350000D01*
X157620000Y-81475000D02*
X157094999Y-81475000D01*
X125456200Y-126381199D02*
X125456200Y-125139701D01*
X125550000Y-127450000D02*
X125550000Y-126474999D01*
X125456200Y-125139701D02*
X126287414Y-124308487D01*
X153580401Y-81431200D02*
X150880200Y-84131401D01*
X157051199Y-81431200D02*
X153580401Y-81431200D01*
G04 #@! TO.N,/CM4 High Speed/CAM1_D1_N*
X151905724Y-84494377D02*
X151589455Y-84494377D01*
X151246302Y-84837530D02*
X151246302Y-85153799D01*
X157326200Y-82318800D02*
X154081301Y-82318800D01*
X157370000Y-82275000D02*
X157326200Y-82318800D01*
X151589455Y-84494377D02*
X151246302Y-84837530D01*
X151246302Y-85153799D02*
X151245813Y-85154288D01*
X126550000Y-127450000D02*
X126550000Y-126474999D01*
X126550000Y-126474999D02*
X126643800Y-126381199D01*
X126643800Y-125835299D02*
X128566513Y-123912586D01*
X157620000Y-82275000D02*
X157370000Y-82275000D01*
X126643800Y-126381199D02*
X126643800Y-125835299D01*
X154081301Y-82318800D02*
X151905724Y-84494377D01*
X128566513Y-123912586D02*
X128566513Y-123666513D01*
G04 #@! TO.N,/CM4 High Speed/CAM1_D1_P*
X127050000Y-127450000D02*
X127050000Y-126474999D01*
X126956200Y-125964701D02*
X128787414Y-124133487D01*
X157326200Y-82631200D02*
X154210702Y-82631200D01*
X126956200Y-126381199D02*
X126956200Y-125964701D01*
X157370000Y-82675000D02*
X157326200Y-82631200D01*
X127050000Y-126474999D02*
X126956200Y-126381199D01*
X151906213Y-84935689D02*
X151906213Y-85154288D01*
X157620000Y-82675000D02*
X157370000Y-82675000D01*
X128787414Y-124133487D02*
X129033487Y-124133487D01*
X154210702Y-82631200D02*
X151906213Y-84935689D01*
G04 #@! TO.N,/CM4 High Speed/CAM1_C_N*
X152270289Y-85899511D02*
X152269800Y-85900000D01*
X154975998Y-83193800D02*
X152929711Y-85240089D01*
X128143800Y-126635299D02*
X131016513Y-123762586D01*
X128050000Y-127450000D02*
X128050000Y-126950000D01*
X131016513Y-123762586D02*
X131016513Y-123516513D01*
X152270289Y-85583242D02*
X152270289Y-85899511D01*
X157620000Y-83475000D02*
X157370000Y-83475000D01*
X128050000Y-126950000D02*
X128143800Y-126856200D01*
X152929711Y-85240089D02*
X152613442Y-85240089D01*
X157370000Y-83475000D02*
X157326200Y-83518800D01*
X156746600Y-83193800D02*
X154975998Y-83193800D01*
X157071600Y-83518800D02*
X156746600Y-83193800D01*
X128143800Y-126856200D02*
X128143800Y-126635299D01*
X152613442Y-85240089D02*
X152270289Y-85583242D01*
X157326200Y-83518800D02*
X157071600Y-83518800D01*
G04 #@! TO.N,/CM4 High Speed/CAM1_C_P*
X131237414Y-123983487D02*
X131483487Y-123983487D01*
X157326200Y-83831200D02*
X156942196Y-83831200D01*
X128456200Y-126764701D02*
X131237414Y-123983487D01*
X128456200Y-126856200D02*
X128456200Y-126764701D01*
X128550000Y-127450000D02*
X128550000Y-126950000D01*
X157620000Y-83875000D02*
X157370000Y-83875000D01*
X155105402Y-83506200D02*
X152930200Y-85681401D01*
X156942196Y-83831200D02*
X156617196Y-83506200D01*
X157370000Y-83875000D02*
X157326200Y-83831200D01*
X128550000Y-126950000D02*
X128456200Y-126856200D01*
X152930200Y-85681401D02*
X152930200Y-85900000D01*
X156617196Y-83506200D02*
X155105402Y-83506200D01*
G04 #@! TO.N,/CM4 High Speed/CAM1_D2_N*
X157620000Y-84675000D02*
X157370000Y-84675000D01*
X129643799Y-126638761D02*
X129714471Y-126568089D01*
X157370000Y-84675000D02*
X157326200Y-84718800D01*
X153489451Y-86039647D02*
X153489451Y-86497303D01*
X153489451Y-86497303D02*
X153315452Y-86671302D01*
X129550000Y-127450000D02*
X129643799Y-127356201D01*
X138576001Y-124171498D02*
X138750000Y-123997499D01*
X157326200Y-84718800D02*
X154810298Y-84718800D01*
X132232600Y-124171498D02*
X138576001Y-124171498D01*
X154810298Y-84718800D02*
X153489451Y-86039647D01*
X129643799Y-127356201D02*
X129643799Y-126638761D01*
X129836009Y-126568089D02*
X132232600Y-124171498D01*
X129714471Y-126568089D02*
X129836009Y-126568089D01*
G04 #@! TO.N,/CM4 High Speed/CAM1_D2_P*
X132362002Y-124483900D02*
X138576001Y-124483900D01*
X157326200Y-85031200D02*
X154939702Y-85031200D01*
X129956201Y-126889701D02*
X132362002Y-124483900D01*
X153801853Y-86169049D02*
X153801853Y-86497303D01*
X157620000Y-85075000D02*
X157370000Y-85075000D01*
X153801853Y-86497303D02*
X153975852Y-86671302D01*
X130050000Y-127450000D02*
X129956201Y-127356201D01*
X157370000Y-85075000D02*
X157326200Y-85031200D01*
X129956201Y-127356201D02*
X129956201Y-126889701D01*
X138576001Y-124483900D02*
X138750000Y-124657899D01*
X154939702Y-85031200D02*
X153801853Y-86169049D01*
G04 #@! TO.N,/CM4 High Speed/CAM1_D3_N*
X155751000Y-85918800D02*
X155029711Y-86640089D01*
X154713442Y-86640089D02*
X154370289Y-86983242D01*
X154370289Y-86983242D02*
X154370289Y-87299511D01*
X157620000Y-85875000D02*
X157094999Y-85875000D01*
X139351001Y-125143799D02*
X139525000Y-124969800D01*
X132660298Y-125143800D02*
X139351001Y-125143799D01*
X131050000Y-126950000D02*
X131143800Y-126856200D01*
X155029711Y-86640089D02*
X154713442Y-86640089D01*
X154370289Y-87299511D02*
X154369800Y-87300000D01*
X131143800Y-126856200D02*
X131143800Y-126660298D01*
X131050000Y-127450000D02*
X131050000Y-126950000D01*
X157094999Y-85875000D02*
X157051199Y-85918800D01*
X157051199Y-85918800D02*
X155751000Y-85918800D01*
X131143800Y-126660298D02*
X132660298Y-125143800D01*
G04 #@! TO.N,/CM4 High Speed/CAM1_D3_P*
X157620000Y-86275000D02*
X157094999Y-86275000D01*
X155880401Y-86231200D02*
X155030200Y-87081401D01*
X157094999Y-86275000D02*
X157051199Y-86231200D01*
X131456200Y-126856200D02*
X131456200Y-126789702D01*
X131550000Y-126950000D02*
X131456200Y-126856200D01*
X155030200Y-87081401D02*
X155030200Y-87300000D01*
X157051199Y-86231200D02*
X155880401Y-86231200D01*
X139351001Y-125456201D02*
X139525000Y-125630200D01*
X131550000Y-127450000D02*
X131550000Y-126950000D01*
X132789702Y-125456200D02*
X139351001Y-125456201D01*
X131456200Y-126789702D02*
X132789702Y-125456200D01*
D60*
G04 #@! TO.N,/USB/USBD_N*
X122426200Y-56127014D02*
X124297986Y-57998800D01*
X124297986Y-57998800D02*
X133626200Y-57998800D01*
X135576200Y-57998800D02*
X136026200Y-57998800D01*
X140302014Y-57998800D02*
X143552014Y-54748800D01*
X133776200Y-57848800D02*
X134226200Y-57848800D01*
X122575000Y-55577500D02*
X122426200Y-55726300D01*
X144850000Y-54675000D02*
X145400000Y-54675000D01*
X140227014Y-57998800D02*
X140302014Y-57998800D01*
X136776200Y-57998800D02*
X140227014Y-57998800D01*
X122426200Y-55726300D02*
X122426200Y-56127014D01*
X144776200Y-54748800D02*
X144850000Y-54675000D01*
X134376200Y-57998800D02*
X134826200Y-57998800D01*
X134976200Y-57848800D02*
X135426200Y-57848800D01*
X122575000Y-55102500D02*
X122575000Y-55577500D01*
X143552014Y-54748800D02*
X144776200Y-54748800D01*
X136176200Y-57848800D02*
X136626200Y-57848800D01*
X135576200Y-57998800D02*
G75*
G02*
X135501200Y-57923800I0J75000D01*
G01*
X133776200Y-57848800D02*
G75*
G03*
X133701200Y-57923800I0J-75000D01*
G01*
X134301200Y-57923800D02*
G75*
G03*
X134226200Y-57848800I-75000J0D01*
G01*
X136776200Y-57998800D02*
G75*
G02*
X136701200Y-57923800I0J75000D01*
G01*
X134976200Y-57848800D02*
G75*
G03*
X134901200Y-57923800I0J-75000D01*
G01*
X134901200Y-57923800D02*
G75*
G02*
X134826200Y-57998800I-75000J0D01*
G01*
X136176200Y-57848800D02*
G75*
G03*
X136101200Y-57923800I0J-75000D01*
G01*
X136701200Y-57923800D02*
G75*
G03*
X136626200Y-57848800I-75000J0D01*
G01*
X135501200Y-57923800D02*
G75*
G03*
X135426200Y-57848800I-75000J0D01*
G01*
X133701200Y-57923800D02*
G75*
G02*
X133626200Y-57998800I-75000J0D01*
G01*
X136101200Y-57923800D02*
G75*
G02*
X136026200Y-57998800I-75000J0D01*
G01*
X134376200Y-57998800D02*
G75*
G02*
X134301200Y-57923800I0J75000D01*
G01*
D56*
G04 #@! TO.N,Net-(J6-Pad1)*
X124325000Y-57296685D02*
X124325011Y-57296696D01*
X141725000Y-57825000D02*
X142500000Y-57825000D01*
X142715000Y-57610000D02*
X151475000Y-57610000D01*
X123225000Y-55102500D02*
X123225000Y-56196685D01*
X142500000Y-57825000D02*
X142715000Y-57610000D01*
X123225000Y-56196685D02*
X124325000Y-57296685D01*
D60*
G04 #@! TO.N,/USB/USBD_P*
X144850000Y-55175000D02*
X145400000Y-55175000D01*
X124152014Y-58351200D02*
X140447986Y-58351200D01*
X140447986Y-58351200D02*
X143697986Y-55101200D01*
X121925000Y-55102500D02*
X121925000Y-55577500D01*
X121925000Y-55577500D02*
X122073800Y-55726300D01*
X122073800Y-55726300D02*
X122073800Y-56272986D01*
X144776200Y-55101200D02*
X144850000Y-55175000D01*
X122073800Y-56272986D02*
X124152014Y-58351200D01*
X143697986Y-55101200D02*
X144776200Y-55101200D01*
G04 #@! TO.N,/USB/USBH_N*
X144349999Y-53675000D02*
X144276199Y-53748800D01*
X139872881Y-57277933D02*
X138077119Y-57277933D01*
X143402014Y-53748800D02*
X139872881Y-57277933D01*
X136751200Y-55952014D02*
X136751200Y-55701300D01*
X136751200Y-55701300D02*
X136900000Y-55552500D01*
X145400000Y-53675000D02*
X144349999Y-53675000D01*
D63*
X136900000Y-55077500D02*
X136900000Y-55552500D01*
D60*
X144276199Y-53748800D02*
X143402014Y-53748800D01*
X138077119Y-57277933D02*
X136751200Y-55952014D01*
D63*
G04 #@! TO.N,/USB/USBH_P*
X136250000Y-55077500D02*
X136250000Y-55552500D01*
D60*
X145400000Y-54175000D02*
X144349999Y-54175000D01*
X144349999Y-54175000D02*
X144276199Y-54101200D01*
X143547986Y-54101200D02*
X140018853Y-57630333D01*
X140018853Y-57630333D02*
X137931147Y-57630333D01*
X136398800Y-55701300D02*
X136250000Y-55552500D01*
X136398800Y-56097986D02*
X136398800Y-55701300D01*
X137931147Y-57630333D02*
X136398800Y-56097986D01*
X144276199Y-54101200D02*
X143547986Y-54101200D01*
D56*
G04 #@! TO.N,Net-(J8-Pad3)*
X118875000Y-86775000D02*
X118900000Y-86750000D01*
X115949401Y-90150001D02*
X116949401Y-90150001D01*
X115949401Y-90150001D02*
X118075000Y-90150000D01*
X118900000Y-86750000D02*
X118900000Y-86175000D01*
G04 #@! TO.N,Net-(J8-Pad4)*
X119357100Y-87426827D02*
X119357100Y-87192900D01*
X119357100Y-87192900D02*
X120425000Y-86125000D01*
X117950509Y-91149999D02*
X118681600Y-90418908D01*
X115949401Y-91149999D02*
X116949401Y-91149999D01*
X115949401Y-91149999D02*
X117950509Y-91149999D01*
G04 #@! TO.N,/CM4 GPIO/nLED_Activity*
X117539400Y-125937500D02*
X117589400Y-125887500D01*
X118000000Y-129827500D02*
X118000000Y-129287500D01*
X117589400Y-125887500D02*
X119875000Y-125887500D01*
X118000000Y-129112500D02*
X118000000Y-128948100D01*
X118000000Y-129287500D02*
X118000000Y-129112500D01*
X117296889Y-126180011D02*
X117539400Y-125937500D01*
X117296889Y-128244989D02*
X117296889Y-126180011D01*
X124500000Y-82275000D02*
X123675000Y-82275000D01*
X118000000Y-128948100D02*
X117296889Y-128244989D01*
G04 #@! TO.N,/CM4 GPIO/nPWR_LED*
X124937222Y-98412778D02*
X124750000Y-98600000D01*
X124937222Y-97312222D02*
X124937222Y-98412778D01*
X124700000Y-97075000D02*
X124937222Y-97312222D01*
X119750000Y-127212500D02*
X120227400Y-127212500D01*
X120455057Y-126984843D02*
X120455057Y-126219979D01*
X123700000Y-97075000D02*
X124695116Y-97075000D01*
X124695116Y-97075000D02*
X124700000Y-97075000D01*
X120227400Y-127212500D02*
X120455057Y-126984843D01*
X124750000Y-98600000D02*
X123825000Y-98600000D01*
G04 #@! TO.N,/CM4 High Speed/USBOTG*
X152650000Y-56665000D02*
X151490000Y-56665000D01*
X149800000Y-55175000D02*
X150525000Y-55175000D01*
X150525000Y-55175000D02*
X150975000Y-55625000D01*
X151465000Y-56665000D02*
X150975000Y-56175000D01*
X153903653Y-57940720D02*
X153903653Y-57918653D01*
X157600000Y-78300000D02*
X157625000Y-78275000D01*
X156930188Y-78300000D02*
X157600000Y-78300000D01*
X153903653Y-57918653D02*
X152650000Y-56665000D01*
X150975000Y-56175000D02*
X150975000Y-55625000D01*
X155525000Y-58175000D02*
X155216320Y-58483680D01*
X155216320Y-76586132D02*
X156930188Y-78300000D01*
X155216320Y-58483680D02*
X155216320Y-76586132D01*
D60*
G04 #@! TO.N,/CM4 High Speed/USB2_N*
X156864984Y-78698800D02*
X157071199Y-78698800D01*
X157094999Y-78675000D02*
X157620000Y-78675000D01*
X150314401Y-54175000D02*
X150388201Y-54248800D01*
X149264400Y-54175000D02*
X150314401Y-54175000D01*
X150388201Y-54248800D02*
X150975000Y-54248800D01*
X154851200Y-57427014D02*
X154851200Y-76685016D01*
X150923801Y-54248800D02*
X151672986Y-54248800D01*
X154851200Y-76685016D02*
X156864984Y-78698800D01*
X157071199Y-78698800D02*
X157094999Y-78675000D01*
X151672986Y-54248800D02*
X154851200Y-57427014D01*
G04 #@! TO.N,/CM4 High Speed/USB2_P*
X150388201Y-54601200D02*
X150975000Y-54601200D01*
X156719012Y-79051200D02*
X157071199Y-79051200D01*
X149264400Y-54675000D02*
X150314401Y-54675000D01*
X150314401Y-54675000D02*
X150388201Y-54601200D01*
X157094999Y-79075000D02*
X157620000Y-79075000D01*
X150923801Y-54601200D02*
X151527014Y-54601200D01*
X151527014Y-54601200D02*
X154498800Y-57572986D01*
X154498800Y-76830988D02*
X156719012Y-79051200D01*
X157071199Y-79051200D02*
X157094999Y-79075000D01*
X154498800Y-57572986D02*
X154498800Y-76830988D01*
D56*
G04 #@! TO.N,Net-(R4-Pad2)*
X117850000Y-126914900D02*
X119675000Y-128739900D01*
X119675000Y-128739900D02*
X119675000Y-129762500D01*
X117850000Y-126562500D02*
X117850000Y-126914900D01*
G04 #@! TO.N,Net-(R10-Pad1)*
X158785000Y-125190000D02*
X158825000Y-125150000D01*
X158825000Y-125127500D02*
X161222500Y-125127500D01*
X161222500Y-125127500D02*
X161225000Y-125130000D01*
X158640000Y-124715000D02*
X158800000Y-124875000D01*
X157175000Y-125190000D02*
X158785000Y-125190000D01*
G04 #@! TO.N,Net-(R12-Pad2)*
X113511889Y-107824389D02*
X113511889Y-108604489D01*
X112512500Y-106825000D02*
X113511889Y-107824389D01*
X113511889Y-108604489D02*
X113682400Y-108775000D01*
X113682400Y-108775000D02*
X114125000Y-108775000D01*
G04 #@! TO.N,Net-(R13-Pad2)*
X112385000Y-109192000D02*
X112867000Y-109192000D01*
X113475000Y-109800000D02*
X114175000Y-109800000D01*
X112867000Y-109192000D02*
X113475000Y-109800000D01*
G04 #@! TO.N,Net-(R15-Pad2)*
X113925000Y-108000000D02*
X114175000Y-108250000D01*
X113925000Y-105610000D02*
X113925000Y-108000000D01*
G04 #@! TO.N,Net-(R16-Pad1)*
X112583000Y-110742000D02*
X113025000Y-110300000D01*
X113025000Y-110300000D02*
X114175000Y-110300000D01*
X112385000Y-112260000D02*
X112400000Y-112275000D01*
X112385000Y-110742000D02*
X112385000Y-112260000D01*
X112385000Y-110742000D02*
X112583000Y-110742000D01*
G04 #@! TO.N,Net-(S1-Pad2)*
X134708000Y-122274998D02*
X131575002Y-122274998D01*
X157325000Y-122750000D02*
X157500000Y-122575000D01*
X131575002Y-122274998D02*
X130200000Y-123650000D01*
X161050000Y-122575000D02*
X161225000Y-122400000D01*
X157500000Y-122575000D02*
X161050000Y-122575000D01*
G04 #@! TO.N,Net-(R14-Pad2)*
X115375000Y-106300000D02*
X116050000Y-105625000D01*
X115375000Y-107602000D02*
X115375000Y-106300000D01*
G04 #@! TO.N,/CM4 High Speed/ID_SD*
X140400000Y-102675000D02*
X127814664Y-102675000D01*
X127539664Y-102400000D02*
X125700000Y-102400000D01*
X150747440Y-119410965D02*
X144105540Y-112769065D01*
X126258120Y-101851880D02*
X126258120Y-100127746D01*
X126258120Y-100127746D02*
X125579320Y-99448946D01*
X151650000Y-126413280D02*
X150747440Y-125510720D01*
X125900000Y-87075000D02*
X125900000Y-85450000D01*
X127814664Y-102675000D02*
X127539664Y-102400000D01*
X151650000Y-127500000D02*
X151650000Y-126413280D01*
X150747440Y-125510720D02*
X150747440Y-119410965D01*
X144105540Y-112769065D02*
X144105540Y-106380540D01*
X125579320Y-99448946D02*
X125579320Y-90545680D01*
X125579320Y-90545680D02*
X125975000Y-90150000D01*
X126275000Y-85075000D02*
X126775000Y-85075000D01*
X125735000Y-102375000D02*
X126258120Y-101851880D01*
X125900000Y-85450000D02*
X126275000Y-85075000D01*
X144105540Y-106380540D02*
X140400000Y-102675000D01*
G04 #@! TO.N,/CM4 High Speed/SCL0*
X134050000Y-126611362D02*
X133870096Y-126431458D01*
X134050000Y-127450000D02*
X134050000Y-126611362D01*
X129213525Y-93875000D02*
X126800000Y-93875000D01*
X129697220Y-95440897D02*
X129907111Y-95231006D01*
X129907111Y-94568586D02*
X129213525Y-93875000D01*
X129907111Y-95231006D02*
X129907111Y-94568586D01*
G04 #@! TO.N,/CM4 High Speed/ID_SC*
X124650000Y-85075000D02*
X124675000Y-85100000D01*
X127259647Y-102979320D02*
X127179138Y-103059829D01*
X140273946Y-102979320D02*
X127259647Y-102979320D01*
X150443120Y-125990720D02*
X150443120Y-121129840D01*
X143507792Y-106250000D02*
X143507792Y-106213166D01*
X143507792Y-106213166D02*
X140273946Y-102979320D01*
X143801220Y-114487940D02*
X143801220Y-106543428D01*
X151150000Y-127500000D02*
X151150000Y-126697600D01*
X124975000Y-87051688D02*
X125598312Y-87675000D01*
X123700000Y-85075000D02*
X124650000Y-85075000D01*
X125735000Y-100725000D02*
X125735000Y-100335000D01*
X125735000Y-100210000D02*
X125735000Y-100110000D01*
X125735000Y-100035000D02*
X125400000Y-99700000D01*
X125735000Y-100110000D02*
X125735000Y-100035000D01*
X124650000Y-85075000D02*
X124975000Y-85400000D01*
X143801220Y-106543428D02*
X143507792Y-106250000D01*
X151150000Y-126697600D02*
X150443120Y-125990720D01*
X124975000Y-85400000D02*
X124975000Y-87051688D01*
X125275000Y-99575000D02*
X125275000Y-90000000D01*
X125400000Y-99700000D02*
X125275000Y-99575000D01*
X125725000Y-101500000D02*
X125725000Y-100725000D01*
X150443120Y-121129840D02*
X143801220Y-114487940D01*
X125735000Y-100335000D02*
X125735000Y-100210000D01*
G04 #@! TO.N,/CM4 High Speed/CAM_GPIO*
X132550000Y-126650000D02*
X132950000Y-126250000D01*
X148960600Y-128900000D02*
X149650000Y-128210600D01*
X132550000Y-128252400D02*
X133197600Y-128900000D01*
X124455111Y-97749681D02*
X124180430Y-97475000D01*
X132550000Y-127450000D02*
X132550000Y-126650000D01*
X124180430Y-97475000D02*
X123725000Y-97475000D01*
X133197600Y-128900000D02*
X148960600Y-128900000D01*
X132550000Y-127450000D02*
X132550000Y-128252400D01*
X149650000Y-128210600D02*
X149650000Y-127525000D01*
G04 #@! TO.N,/CM4 High Speed/SDA0*
X134550000Y-126178121D02*
X134335823Y-125963944D01*
X128900000Y-94275000D02*
X126750000Y-94275000D01*
X134550000Y-127450000D02*
X134550000Y-126178121D01*
X129425000Y-94800000D02*
X128900000Y-94275000D01*
G04 #@! TD*
G04 #@! TA.AperFunction,Conductor*
G04 #@! TO.N,GND*
G36*
X142466967Y-116895002D02*
G01*
X142486678Y-116910659D01*
X144211832Y-118587892D01*
X144246731Y-118649719D01*
X144250000Y-118678233D01*
X144250000Y-121200037D01*
X144229998Y-121268158D01*
X144176342Y-121314651D01*
X144125042Y-121326033D01*
X141864849Y-121344712D01*
X138208657Y-121374928D01*
X138191418Y-121373887D01*
X136943644Y-121212139D01*
X136878660Y-121183545D01*
X136844282Y-121137402D01*
X136841325Y-121130596D01*
X136700000Y-120000000D01*
X137426817Y-116971594D01*
X137462164Y-116910023D01*
X137525189Y-116877336D01*
X137549338Y-116875000D01*
X142398846Y-116875000D01*
X142466967Y-116895002D01*
G37*
G04 #@! TD.AperFunction*
G04 #@! TD*
G04 #@! TA.AperFunction,Conductor*
G04 #@! TO.N,GND*
G36*
X157848794Y-120043306D02*
G01*
X157867100Y-120087500D01*
X157867100Y-120627500D01*
X157879119Y-120687926D01*
X157882538Y-120693042D01*
X157882538Y-120693043D01*
X157890693Y-120705247D01*
X157901226Y-120739863D01*
X157903407Y-122011659D01*
X157892875Y-122046488D01*
X157879119Y-122067074D01*
X157877918Y-122073110D01*
X157877918Y-122073111D01*
X157870185Y-122111992D01*
X157867100Y-122127500D01*
X157867100Y-122283400D01*
X157848794Y-122327594D01*
X157804600Y-122345900D01*
X157505420Y-122345900D01*
X157502149Y-122345814D01*
X157463379Y-122343782D01*
X157457245Y-122346137D01*
X157457243Y-122346137D01*
X157449073Y-122349273D01*
X157416899Y-122352655D01*
X157329855Y-122338869D01*
X157325000Y-122338100D01*
X157320145Y-122338869D01*
X157202575Y-122357490D01*
X157202573Y-122357491D01*
X157197716Y-122358260D01*
X157193332Y-122360494D01*
X157193331Y-122360494D01*
X157144040Y-122385609D01*
X157082891Y-122416766D01*
X156991766Y-122507891D01*
X156933260Y-122622716D01*
X156932491Y-122627573D01*
X156932490Y-122627575D01*
X156924196Y-122679943D01*
X156913100Y-122750000D01*
X156913869Y-122754855D01*
X156932170Y-122870400D01*
X156933260Y-122877284D01*
X156935494Y-122881668D01*
X156935494Y-122881669D01*
X156942901Y-122896206D01*
X156991766Y-122992109D01*
X157082891Y-123083234D01*
X157138280Y-123111456D01*
X157193331Y-123139506D01*
X157193332Y-123139506D01*
X157197716Y-123141740D01*
X157202573Y-123142509D01*
X157202575Y-123142510D01*
X157320145Y-123161131D01*
X157325000Y-123161900D01*
X157329855Y-123161131D01*
X157447425Y-123142510D01*
X157447427Y-123142509D01*
X157452284Y-123141740D01*
X157456668Y-123139506D01*
X157456669Y-123139506D01*
X157511720Y-123111456D01*
X157567109Y-123083234D01*
X157658234Y-122992109D01*
X157707099Y-122896206D01*
X157714506Y-122881669D01*
X157714506Y-122881668D01*
X157716740Y-122877284D01*
X157717511Y-122872419D01*
X157719982Y-122856822D01*
X157744976Y-122816036D01*
X157781712Y-122804100D01*
X157804600Y-122804100D01*
X157848794Y-122822406D01*
X157867100Y-122866600D01*
X157867100Y-123127500D01*
X157867699Y-123130510D01*
X157867699Y-123130513D01*
X157872898Y-123156651D01*
X157879119Y-123187926D01*
X157882538Y-123193042D01*
X157882538Y-123193043D01*
X157894992Y-123211681D01*
X157905525Y-123246297D01*
X157907684Y-124505256D01*
X157897151Y-124540086D01*
X157882539Y-124561955D01*
X157879119Y-124567074D01*
X157877919Y-124573108D01*
X157877918Y-124573110D01*
X157871336Y-124606203D01*
X157867100Y-124627500D01*
X157867100Y-124898400D01*
X157848794Y-124942594D01*
X157804600Y-124960900D01*
X157684789Y-124960900D01*
X157640595Y-124942594D01*
X157631585Y-124931196D01*
X157576770Y-124842269D01*
X157576769Y-124842268D01*
X157573742Y-124837357D01*
X157516965Y-124794182D01*
X157489314Y-124773155D01*
X157489311Y-124773153D01*
X157484722Y-124769664D01*
X157389534Y-124742100D01*
X156975653Y-124742100D01*
X156892557Y-124757576D01*
X156887643Y-124760605D01*
X156824101Y-124799773D01*
X156797357Y-124816258D01*
X156785423Y-124831952D01*
X156733155Y-124900686D01*
X156733153Y-124900689D01*
X156729664Y-124905278D01*
X156702100Y-125000466D01*
X156702100Y-125364347D01*
X156717576Y-125447443D01*
X156720605Y-125452357D01*
X156770368Y-125533087D01*
X156776258Y-125542643D01*
X156791543Y-125554266D01*
X156860686Y-125606845D01*
X156860689Y-125606847D01*
X156865278Y-125610336D01*
X156960466Y-125637900D01*
X157374347Y-125637900D01*
X157457443Y-125622424D01*
X157552643Y-125563742D01*
X157620336Y-125474722D01*
X157621941Y-125469181D01*
X157621942Y-125469178D01*
X157623380Y-125464213D01*
X157653257Y-125426856D01*
X157683413Y-125419100D01*
X157804600Y-125419100D01*
X157848794Y-125437406D01*
X157867100Y-125481600D01*
X157867100Y-125627500D01*
X157867699Y-125630510D01*
X157867699Y-125630513D01*
X157875352Y-125668986D01*
X157879119Y-125687926D01*
X157884157Y-125695465D01*
X157899291Y-125718115D01*
X157909824Y-125752731D01*
X157912872Y-127529923D01*
X157894642Y-127574148D01*
X157875793Y-127587127D01*
X157672034Y-127677846D01*
X157666728Y-127679922D01*
X157656920Y-127683252D01*
X157654267Y-127684784D01*
X157654255Y-127684789D01*
X157649738Y-127687397D01*
X157643918Y-127690363D01*
X157636344Y-127693736D01*
X157633840Y-127695506D01*
X157633836Y-127695508D01*
X157627901Y-127699703D01*
X157623081Y-127702789D01*
X157295728Y-127891786D01*
X157290649Y-127894415D01*
X157284042Y-127897460D01*
X157284038Y-127897463D01*
X157281260Y-127898743D01*
X157274557Y-127903613D01*
X157269073Y-127907174D01*
X157264552Y-127909784D01*
X157264546Y-127909788D01*
X157261893Y-127911320D01*
X157259587Y-127913342D01*
X157259586Y-127913343D01*
X157254115Y-127918141D01*
X157249659Y-127921702D01*
X156943841Y-128143893D01*
X156939073Y-128147033D01*
X156930184Y-128152321D01*
X156927904Y-128154374D01*
X156927900Y-128154377D01*
X156924026Y-128157865D01*
X156918943Y-128161982D01*
X156912237Y-128166854D01*
X156910154Y-128169107D01*
X156910152Y-128169109D01*
X156905214Y-128174451D01*
X156901152Y-128178461D01*
X156620254Y-128431384D01*
X156615836Y-128435009D01*
X156610001Y-128439367D01*
X156607537Y-128441207D01*
X156605484Y-128443487D01*
X156605481Y-128443490D01*
X156601989Y-128447369D01*
X156597360Y-128451998D01*
X156591208Y-128457537D01*
X156585024Y-128465818D01*
X156581399Y-128470236D01*
X156328473Y-128751140D01*
X156324449Y-128755216D01*
X156319111Y-128760150D01*
X156319107Y-128760154D01*
X156316854Y-128762237D01*
X156315050Y-128764720D01*
X156311981Y-128768944D01*
X156307868Y-128774023D01*
X156302321Y-128780184D01*
X156297028Y-128789080D01*
X156293886Y-128793849D01*
X156071713Y-129099645D01*
X156068140Y-129104116D01*
X156063347Y-129109581D01*
X156063340Y-129109591D01*
X156061322Y-129111892D01*
X156059790Y-129114546D01*
X156059787Y-129114550D01*
X156057179Y-129119068D01*
X156053616Y-129124554D01*
X156048744Y-129131260D01*
X156044411Y-129140660D01*
X156041789Y-129145724D01*
X155870676Y-129442100D01*
X155852792Y-129473076D01*
X155849704Y-129477899D01*
X155843737Y-129486342D01*
X155840566Y-129493465D01*
X155840371Y-129493903D01*
X155837404Y-129499729D01*
X155833253Y-129506918D01*
X155829923Y-129516726D01*
X155827847Y-129522032D01*
X155820037Y-129539574D01*
X155674100Y-129867352D01*
X155671534Y-129872470D01*
X155666484Y-129881486D01*
X155665536Y-129884405D01*
X155665533Y-129884411D01*
X155663923Y-129889366D01*
X155661580Y-129895470D01*
X155659460Y-129900231D01*
X155659457Y-129900239D01*
X155658208Y-129903045D01*
X155657530Y-129906043D01*
X155655925Y-129913134D01*
X155654408Y-129918650D01*
X155595455Y-130100093D01*
X155537611Y-130278120D01*
X155535593Y-130283482D01*
X155531507Y-130292992D01*
X155529785Y-130301096D01*
X155528093Y-130307410D01*
X155525530Y-130315299D01*
X155525169Y-130318346D01*
X155525169Y-130318348D01*
X155524315Y-130325568D01*
X155523383Y-130331215D01*
X155450424Y-130674461D01*
X155444798Y-130700928D01*
X155443352Y-130706469D01*
X155441193Y-130713420D01*
X155441192Y-130713427D01*
X155440283Y-130716353D01*
X155439466Y-130724130D01*
X155439416Y-130724603D01*
X155438392Y-130731063D01*
X155437309Y-130736158D01*
X155437308Y-130736164D01*
X155436671Y-130739162D01*
X155436631Y-130742226D01*
X155436536Y-130749495D01*
X155436200Y-130755202D01*
X155426109Y-130851210D01*
X155396933Y-131128798D01*
X155395899Y-131135309D01*
X155394185Y-131143341D01*
X155394143Y-131146404D01*
X155394142Y-131146409D01*
X155394039Y-131153867D01*
X155393704Y-131159520D01*
X155392603Y-131169991D01*
X155392884Y-131173051D01*
X155392884Y-131173056D01*
X155393354Y-131178172D01*
X155393610Y-131184753D01*
X155390674Y-131396541D01*
X155391232Y-131399562D01*
X155394960Y-131419765D01*
X155395998Y-131431108D01*
X155396000Y-133774774D01*
X155396000Y-134528672D01*
X155377694Y-134572866D01*
X155333287Y-134591172D01*
X121287669Y-134475213D01*
X121243538Y-134456756D01*
X121225383Y-134412330D01*
X121225995Y-134312354D01*
X121244300Y-134268543D01*
X121258234Y-134254609D01*
X121316740Y-134139784D01*
X121336900Y-134012500D01*
X121316740Y-133885216D01*
X121258234Y-133770391D01*
X121247950Y-133760107D01*
X121229645Y-133715531D01*
X121240461Y-131947082D01*
X121254816Y-129600000D01*
X121592100Y-129600000D01*
X121592100Y-131800000D01*
X121604119Y-131860426D01*
X121638348Y-131911652D01*
X121689574Y-131945881D01*
X121695610Y-131947082D01*
X121695611Y-131947082D01*
X121746987Y-131957301D01*
X121746990Y-131957301D01*
X121750000Y-131957900D01*
X123550000Y-131957900D01*
X123553010Y-131957301D01*
X123553013Y-131957301D01*
X123604389Y-131947082D01*
X123604390Y-131947082D01*
X123610426Y-131945881D01*
X123661652Y-131911652D01*
X123695881Y-131860426D01*
X123707900Y-131800000D01*
X123707900Y-129600000D01*
X135892100Y-129600000D01*
X135892100Y-131800000D01*
X135904119Y-131860426D01*
X135938348Y-131911652D01*
X135989574Y-131945881D01*
X135995610Y-131947082D01*
X135995611Y-131947082D01*
X136046987Y-131957301D01*
X136046990Y-131957301D01*
X136050000Y-131957900D01*
X137850000Y-131957900D01*
X137853010Y-131957301D01*
X137853013Y-131957301D01*
X137904389Y-131947082D01*
X137904390Y-131947082D01*
X137910426Y-131945881D01*
X137961652Y-131911652D01*
X137995881Y-131860426D01*
X138007900Y-131800000D01*
X138007900Y-129600000D01*
X138692100Y-129600000D01*
X138692100Y-131800000D01*
X138704119Y-131860426D01*
X138738348Y-131911652D01*
X138789574Y-131945881D01*
X138795610Y-131947082D01*
X138795611Y-131947082D01*
X138846987Y-131957301D01*
X138846990Y-131957301D01*
X138850000Y-131957900D01*
X140650000Y-131957900D01*
X140653010Y-131957301D01*
X140653013Y-131957301D01*
X140704389Y-131947082D01*
X140704390Y-131947082D01*
X140710426Y-131945881D01*
X140761652Y-131911652D01*
X140795881Y-131860426D01*
X140807900Y-131800000D01*
X140807900Y-129600000D01*
X152992100Y-129600000D01*
X152992100Y-131800000D01*
X153004119Y-131860426D01*
X153038348Y-131911652D01*
X153089574Y-131945881D01*
X153095610Y-131947082D01*
X153095611Y-131947082D01*
X153146987Y-131957301D01*
X153146990Y-131957301D01*
X153150000Y-131957900D01*
X154950000Y-131957900D01*
X154953010Y-131957301D01*
X154953013Y-131957301D01*
X155004389Y-131947082D01*
X155004390Y-131947082D01*
X155010426Y-131945881D01*
X155061652Y-131911652D01*
X155095881Y-131860426D01*
X155107900Y-131800000D01*
X155107900Y-129600000D01*
X155095881Y-129539574D01*
X155061652Y-129488348D01*
X155010426Y-129454119D01*
X155004390Y-129452918D01*
X155004389Y-129452918D01*
X154953013Y-129442699D01*
X154953010Y-129442699D01*
X154950000Y-129442100D01*
X153150000Y-129442100D01*
X153146990Y-129442699D01*
X153146987Y-129442699D01*
X153095611Y-129452918D01*
X153095610Y-129452918D01*
X153089574Y-129454119D01*
X153038348Y-129488348D01*
X153004119Y-129539574D01*
X152992100Y-129600000D01*
X140807900Y-129600000D01*
X140795881Y-129539574D01*
X140761652Y-129488348D01*
X140710426Y-129454119D01*
X140704390Y-129452918D01*
X140704389Y-129452918D01*
X140653013Y-129442699D01*
X140653010Y-129442699D01*
X140650000Y-129442100D01*
X138850000Y-129442100D01*
X138846990Y-129442699D01*
X138846987Y-129442699D01*
X138795611Y-129452918D01*
X138795610Y-129452918D01*
X138789574Y-129454119D01*
X138738348Y-129488348D01*
X138704119Y-129539574D01*
X138692100Y-129600000D01*
X138007900Y-129600000D01*
X137995881Y-129539574D01*
X137961652Y-129488348D01*
X137910426Y-129454119D01*
X137904390Y-129452918D01*
X137904389Y-129452918D01*
X137853013Y-129442699D01*
X137853010Y-129442699D01*
X137850000Y-129442100D01*
X136050000Y-129442100D01*
X136046990Y-129442699D01*
X136046987Y-129442699D01*
X135995611Y-129452918D01*
X135995610Y-129452918D01*
X135989574Y-129454119D01*
X135938348Y-129488348D01*
X135904119Y-129539574D01*
X135892100Y-129600000D01*
X123707900Y-129600000D01*
X123695881Y-129539574D01*
X123661652Y-129488348D01*
X123610426Y-129454119D01*
X123604390Y-129452918D01*
X123604389Y-129452918D01*
X123553013Y-129442699D01*
X123553010Y-129442699D01*
X123550000Y-129442100D01*
X121750000Y-129442100D01*
X121746990Y-129442699D01*
X121746987Y-129442699D01*
X121695611Y-129452918D01*
X121695610Y-129452918D01*
X121689574Y-129454119D01*
X121638348Y-129488348D01*
X121604119Y-129539574D01*
X121592100Y-129600000D01*
X121254816Y-129600000D01*
X121274772Y-126337245D01*
X121293348Y-126293163D01*
X121337398Y-126275127D01*
X124782808Y-126282123D01*
X124826965Y-126300519D01*
X124845181Y-126344750D01*
X124835098Y-126378662D01*
X124827901Y-126389744D01*
X124826873Y-126396232D01*
X124826872Y-126396236D01*
X124826242Y-126400212D01*
X124821609Y-126415855D01*
X124819300Y-126421041D01*
X124819299Y-126421045D01*
X124817299Y-126425537D01*
X124817100Y-126427430D01*
X124817100Y-126453017D01*
X124816331Y-126462794D01*
X124815179Y-126470071D01*
X124812426Y-126487450D01*
X124814126Y-126493794D01*
X124814970Y-126496944D01*
X124817100Y-126513121D01*
X124817100Y-126635730D01*
X124798794Y-126679924D01*
X124796988Y-126681406D01*
X124793465Y-126684929D01*
X124788348Y-126688348D01*
X124754119Y-126739574D01*
X124752918Y-126745610D01*
X124752918Y-126745611D01*
X124742700Y-126796985D01*
X124742100Y-126800000D01*
X124742100Y-128100000D01*
X124742699Y-128103010D01*
X124742699Y-128103013D01*
X124752507Y-128152321D01*
X124754119Y-128160426D01*
X124788348Y-128211652D01*
X124839574Y-128245881D01*
X124845610Y-128247082D01*
X124845611Y-128247082D01*
X124896987Y-128257301D01*
X124896990Y-128257301D01*
X124900000Y-128257900D01*
X125200000Y-128257900D01*
X125203010Y-128257301D01*
X125203013Y-128257301D01*
X125254390Y-128247082D01*
X125254392Y-128247081D01*
X125260426Y-128245881D01*
X125265541Y-128242463D01*
X125271234Y-128240105D01*
X125271751Y-128241353D01*
X125312190Y-128233307D01*
X125328742Y-128240163D01*
X125328766Y-128240105D01*
X125334459Y-128242463D01*
X125339574Y-128245881D01*
X125345608Y-128247081D01*
X125345610Y-128247082D01*
X125396987Y-128257301D01*
X125396990Y-128257301D01*
X125400000Y-128257900D01*
X125700000Y-128257900D01*
X125703010Y-128257301D01*
X125703013Y-128257301D01*
X125754389Y-128247082D01*
X125754390Y-128247082D01*
X125760426Y-128245881D01*
X125811652Y-128211652D01*
X125845881Y-128160426D01*
X125847493Y-128152321D01*
X125857301Y-128103013D01*
X125857301Y-128103010D01*
X125857900Y-128100000D01*
X125857900Y-126800000D01*
X125857301Y-126796985D01*
X125847082Y-126745611D01*
X125847082Y-126745610D01*
X125845881Y-126739574D01*
X125811652Y-126688348D01*
X125806535Y-126684929D01*
X125802182Y-126680576D01*
X125804423Y-126678335D01*
X125784102Y-126647929D01*
X125782900Y-126635730D01*
X125782900Y-126478925D01*
X125782986Y-126475654D01*
X125783279Y-126470071D01*
X125784971Y-126437783D01*
X125782123Y-126430362D01*
X125775570Y-126413293D01*
X125772785Y-126403890D01*
X125768698Y-126384660D01*
X125768697Y-126384658D01*
X125767332Y-126378236D01*
X125763473Y-126372925D01*
X125763127Y-126372147D01*
X125761877Y-126324328D01*
X125794807Y-126289631D01*
X125820351Y-126284229D01*
X126280833Y-126285164D01*
X126324990Y-126303560D01*
X126343206Y-126347791D01*
X126333123Y-126381703D01*
X126327901Y-126389744D01*
X126326873Y-126396232D01*
X126326872Y-126396236D01*
X126326242Y-126400212D01*
X126321609Y-126415855D01*
X126319300Y-126421041D01*
X126319299Y-126421045D01*
X126317299Y-126425537D01*
X126317100Y-126427430D01*
X126317100Y-126453017D01*
X126316331Y-126462794D01*
X126315179Y-126470071D01*
X126312426Y-126487450D01*
X126314126Y-126493794D01*
X126314970Y-126496944D01*
X126317100Y-126513121D01*
X126317100Y-126635730D01*
X126298794Y-126679924D01*
X126296988Y-126681406D01*
X126293465Y-126684929D01*
X126288348Y-126688348D01*
X126254119Y-126739574D01*
X126252918Y-126745610D01*
X126252918Y-126745611D01*
X126242700Y-126796985D01*
X126242100Y-126800000D01*
X126242100Y-128100000D01*
X126242699Y-128103010D01*
X126242699Y-128103013D01*
X126252507Y-128152321D01*
X126254119Y-128160426D01*
X126288348Y-128211652D01*
X126339574Y-128245881D01*
X126345610Y-128247082D01*
X126345611Y-128247082D01*
X126396987Y-128257301D01*
X126396990Y-128257301D01*
X126400000Y-128257900D01*
X126700000Y-128257900D01*
X126703010Y-128257301D01*
X126703013Y-128257301D01*
X126754390Y-128247082D01*
X126754392Y-128247081D01*
X126760426Y-128245881D01*
X126765541Y-128242463D01*
X126771234Y-128240105D01*
X126771751Y-128241353D01*
X126812190Y-128233307D01*
X126828742Y-128240163D01*
X126828766Y-128240105D01*
X126834459Y-128242463D01*
X126839574Y-128245881D01*
X126845608Y-128247081D01*
X126845610Y-128247082D01*
X126896987Y-128257301D01*
X126896990Y-128257301D01*
X126900000Y-128257900D01*
X127200000Y-128257900D01*
X127203010Y-128257301D01*
X127203013Y-128257301D01*
X127254389Y-128247082D01*
X127254390Y-128247082D01*
X127260426Y-128245881D01*
X127311652Y-128211652D01*
X127345881Y-128160426D01*
X127347493Y-128152321D01*
X127357301Y-128103013D01*
X127357301Y-128103010D01*
X127357900Y-128100000D01*
X127357900Y-126800000D01*
X127357301Y-126796985D01*
X127347082Y-126745611D01*
X127347082Y-126745610D01*
X127345881Y-126739574D01*
X127311652Y-126688348D01*
X127306535Y-126684929D01*
X127302182Y-126680576D01*
X127304423Y-126678335D01*
X127284102Y-126647929D01*
X127282900Y-126635730D01*
X127282900Y-126478925D01*
X127282986Y-126475654D01*
X127283279Y-126470071D01*
X127284971Y-126437783D01*
X127282123Y-126430362D01*
X127275570Y-126413293D01*
X127272785Y-126403890D01*
X127268697Y-126384658D01*
X127267332Y-126378236D01*
X127264461Y-126374285D01*
X127263234Y-126327378D01*
X127296163Y-126292681D01*
X127321709Y-126287278D01*
X128010292Y-126288676D01*
X128054449Y-126307072D01*
X128072665Y-126351303D01*
X128054359Y-126395370D01*
X127981911Y-126467818D01*
X127979538Y-126470071D01*
X127960237Y-126487450D01*
X127951335Y-126495465D01*
X127942820Y-126514592D01*
X127940667Y-126519427D01*
X127935987Y-126528046D01*
X127932219Y-126533848D01*
X127925283Y-126544529D01*
X127921701Y-126550044D01*
X127920673Y-126556532D01*
X127920672Y-126556536D01*
X127920042Y-126560512D01*
X127915409Y-126576155D01*
X127913100Y-126581341D01*
X127913099Y-126581345D01*
X127911099Y-126585837D01*
X127910900Y-126587730D01*
X127910900Y-126589554D01*
X127910888Y-126589599D01*
X127910814Y-126591006D01*
X127910515Y-126590990D01*
X127909313Y-126595477D01*
X127908192Y-126595177D01*
X127892594Y-126632833D01*
X127860593Y-126649938D01*
X127845611Y-126652918D01*
X127845610Y-126652918D01*
X127839574Y-126654119D01*
X127788348Y-126688348D01*
X127754119Y-126739574D01*
X127752918Y-126745610D01*
X127752918Y-126745611D01*
X127742700Y-126796985D01*
X127742100Y-126800000D01*
X127742100Y-128100000D01*
X127742699Y-128103010D01*
X127742699Y-128103013D01*
X127752507Y-128152321D01*
X127754119Y-128160426D01*
X127788348Y-128211652D01*
X127839574Y-128245881D01*
X127845610Y-128247082D01*
X127845611Y-128247082D01*
X127896987Y-128257301D01*
X127896990Y-128257301D01*
X127900000Y-128257900D01*
X128200000Y-128257900D01*
X128203010Y-128257301D01*
X128203013Y-128257301D01*
X128254390Y-128247082D01*
X128254392Y-128247081D01*
X128260426Y-128245881D01*
X128265541Y-128242463D01*
X128271234Y-128240105D01*
X128271751Y-128241353D01*
X128312190Y-128233307D01*
X128328742Y-128240163D01*
X128328766Y-128240105D01*
X128334459Y-128242463D01*
X128339574Y-128245881D01*
X128345608Y-128247081D01*
X128345610Y-128247082D01*
X128396987Y-128257301D01*
X128396990Y-128257301D01*
X128400000Y-128257900D01*
X128700000Y-128257900D01*
X128703010Y-128257301D01*
X128703013Y-128257301D01*
X128754389Y-128247082D01*
X128754390Y-128247082D01*
X128760426Y-128245881D01*
X128811652Y-128211652D01*
X128845881Y-128160426D01*
X128847493Y-128152321D01*
X128857301Y-128103013D01*
X128857301Y-128103010D01*
X128857900Y-128100000D01*
X128857900Y-126800000D01*
X128857301Y-126796985D01*
X128846561Y-126742993D01*
X128855893Y-126696077D01*
X128863666Y-126686606D01*
X129240702Y-126309570D01*
X129285023Y-126291264D01*
X129506745Y-126291714D01*
X129550902Y-126310110D01*
X129569118Y-126354341D01*
X129550722Y-126398498D01*
X129543353Y-126404779D01*
X129542989Y-126405043D01*
X129542987Y-126405045D01*
X129537677Y-126408903D01*
X129534395Y-126414588D01*
X129534392Y-126414591D01*
X129532761Y-126417417D01*
X129522828Y-126430362D01*
X129481910Y-126471280D01*
X129479537Y-126473533D01*
X129464081Y-126487450D01*
X129451334Y-126498927D01*
X129441746Y-126520464D01*
X129440666Y-126522889D01*
X129435985Y-126531510D01*
X129425962Y-126546944D01*
X129421700Y-126553506D01*
X129420672Y-126559994D01*
X129420671Y-126559998D01*
X129420041Y-126563974D01*
X129415408Y-126579617D01*
X129413099Y-126584803D01*
X129413098Y-126584807D01*
X129411098Y-126589299D01*
X129410899Y-126591192D01*
X129410899Y-126593015D01*
X129409312Y-126598939D01*
X129407782Y-126598529D01*
X129390346Y-126635067D01*
X129360728Y-126649911D01*
X129345610Y-126652918D01*
X129345608Y-126652919D01*
X129339574Y-126654119D01*
X129288348Y-126688348D01*
X129254119Y-126739574D01*
X129252918Y-126745610D01*
X129252918Y-126745611D01*
X129242700Y-126796985D01*
X129242100Y-126800000D01*
X129242100Y-128100000D01*
X129242699Y-128103010D01*
X129242699Y-128103013D01*
X129252507Y-128152321D01*
X129254119Y-128160426D01*
X129288348Y-128211652D01*
X129339574Y-128245881D01*
X129345610Y-128247082D01*
X129345611Y-128247082D01*
X129396987Y-128257301D01*
X129396990Y-128257301D01*
X129400000Y-128257900D01*
X129700000Y-128257900D01*
X129703010Y-128257301D01*
X129703013Y-128257301D01*
X129754390Y-128247082D01*
X129754392Y-128247081D01*
X129760426Y-128245881D01*
X129765541Y-128242463D01*
X129771234Y-128240105D01*
X129771751Y-128241353D01*
X129812190Y-128233307D01*
X129828742Y-128240163D01*
X129828766Y-128240105D01*
X129834459Y-128242463D01*
X129839574Y-128245881D01*
X129845608Y-128247081D01*
X129845610Y-128247082D01*
X129896987Y-128257301D01*
X129896990Y-128257301D01*
X129900000Y-128257900D01*
X130200000Y-128257900D01*
X130203010Y-128257301D01*
X130203013Y-128257301D01*
X130254389Y-128247082D01*
X130254390Y-128247082D01*
X130260426Y-128245881D01*
X130311652Y-128211652D01*
X130345881Y-128160426D01*
X130347493Y-128152321D01*
X130357301Y-128103013D01*
X130357301Y-128103010D01*
X130357900Y-128100000D01*
X130357900Y-126843261D01*
X130376206Y-126799067D01*
X130862410Y-126312863D01*
X130906731Y-126294557D01*
X130945227Y-126294635D01*
X131029163Y-126294805D01*
X131073319Y-126313200D01*
X131091535Y-126357432D01*
X131073229Y-126401499D01*
X130981911Y-126492817D01*
X130979538Y-126495070D01*
X130957857Y-126514592D01*
X130951335Y-126520464D01*
X130942459Y-126540402D01*
X130940667Y-126544426D01*
X130935986Y-126553047D01*
X130925472Y-126569237D01*
X130921701Y-126575043D01*
X130920673Y-126581531D01*
X130920672Y-126581535D01*
X130920042Y-126585511D01*
X130915409Y-126601154D01*
X130911099Y-126610835D01*
X130909080Y-126609936D01*
X130884661Y-126641767D01*
X130865597Y-126648943D01*
X130845611Y-126652918D01*
X130845610Y-126652918D01*
X130839574Y-126654119D01*
X130788348Y-126688348D01*
X130754119Y-126739574D01*
X130752918Y-126745610D01*
X130752918Y-126745611D01*
X130742700Y-126796985D01*
X130742100Y-126800000D01*
X130742100Y-128100000D01*
X130742699Y-128103010D01*
X130742699Y-128103013D01*
X130752507Y-128152321D01*
X130754119Y-128160426D01*
X130788348Y-128211652D01*
X130839574Y-128245881D01*
X130845610Y-128247082D01*
X130845611Y-128247082D01*
X130896987Y-128257301D01*
X130896990Y-128257301D01*
X130900000Y-128257900D01*
X131200000Y-128257900D01*
X131203010Y-128257301D01*
X131203013Y-128257301D01*
X131254390Y-128247082D01*
X131254392Y-128247081D01*
X131260426Y-128245881D01*
X131265541Y-128242463D01*
X131271234Y-128240105D01*
X131271751Y-128241353D01*
X131312190Y-128233307D01*
X131328742Y-128240163D01*
X131328766Y-128240105D01*
X131334459Y-128242463D01*
X131339574Y-128245881D01*
X131345608Y-128247081D01*
X131345610Y-128247082D01*
X131396987Y-128257301D01*
X131396990Y-128257301D01*
X131400000Y-128257900D01*
X131700000Y-128257900D01*
X131703010Y-128257301D01*
X131703013Y-128257301D01*
X131754389Y-128247082D01*
X131754390Y-128247082D01*
X131760426Y-128245881D01*
X131811652Y-128211652D01*
X131845881Y-128160426D01*
X131847493Y-128152321D01*
X131857301Y-128103013D01*
X131857301Y-128103010D01*
X131857900Y-128100000D01*
X131857900Y-126800000D01*
X131857301Y-126796987D01*
X131857301Y-126796985D01*
X131850709Y-126763845D01*
X131860042Y-126716929D01*
X131867814Y-126707459D01*
X132259573Y-126315700D01*
X132303894Y-126297394D01*
X132427598Y-126297645D01*
X132471755Y-126316041D01*
X132489971Y-126360272D01*
X132471665Y-126404339D01*
X132391858Y-126484146D01*
X132389485Y-126486399D01*
X132377774Y-126496944D01*
X132360609Y-126512399D01*
X132357937Y-126518400D01*
X132357936Y-126518402D01*
X132350143Y-126535907D01*
X132345463Y-126544527D01*
X132343321Y-126547825D01*
X132335416Y-126559998D01*
X132331449Y-126566106D01*
X132330422Y-126572593D01*
X132330420Y-126572597D01*
X132329837Y-126576278D01*
X132325204Y-126591920D01*
X132323621Y-126595477D01*
X132321016Y-126601328D01*
X132320900Y-126602432D01*
X132320900Y-126627788D01*
X132320130Y-126637566D01*
X132319173Y-126643608D01*
X132296410Y-126679166D01*
X132297819Y-126680575D01*
X132293465Y-126684929D01*
X132288348Y-126688348D01*
X132254119Y-126739574D01*
X132252918Y-126745610D01*
X132252918Y-126745611D01*
X132242700Y-126796985D01*
X132242100Y-126800000D01*
X132242100Y-128100000D01*
X132242699Y-128103010D01*
X132242699Y-128103013D01*
X132252507Y-128152321D01*
X132254119Y-128160426D01*
X132288348Y-128211652D01*
X132293463Y-128215070D01*
X132297819Y-128219426D01*
X132296506Y-128220739D01*
X132318694Y-128253942D01*
X132319810Y-128269408D01*
X132318782Y-128289021D01*
X132321136Y-128295152D01*
X132321136Y-128295155D01*
X132328004Y-128313045D01*
X132330789Y-128322448D01*
X132336139Y-128347617D01*
X132342196Y-128355954D01*
X132349977Y-128370285D01*
X132353668Y-128379900D01*
X132354366Y-128380763D01*
X132372300Y-128398697D01*
X132378669Y-128406154D01*
X132393357Y-128426370D01*
X132401890Y-128431297D01*
X132414828Y-128441225D01*
X133031755Y-129058152D01*
X133034008Y-129060525D01*
X133059999Y-129089391D01*
X133083505Y-129099857D01*
X133092119Y-129104533D01*
X133106484Y-129113861D01*
X133113706Y-129118551D01*
X133120189Y-129119578D01*
X133120195Y-129119580D01*
X133123878Y-129120163D01*
X133139520Y-129124796D01*
X133144431Y-129126982D01*
X133148928Y-129128984D01*
X133150032Y-129129100D01*
X133175388Y-129129100D01*
X133185165Y-129129869D01*
X133193758Y-129131230D01*
X133209852Y-129133779D01*
X133216192Y-129132080D01*
X133216198Y-129132080D01*
X133219369Y-129131230D01*
X133235545Y-129129100D01*
X148955172Y-129129100D01*
X148958443Y-129129186D01*
X148997221Y-129131218D01*
X149003352Y-129128864D01*
X149003355Y-129128864D01*
X149021245Y-129121996D01*
X149030648Y-129119211D01*
X149036292Y-129118011D01*
X149055817Y-129113861D01*
X149064154Y-129107804D01*
X149078485Y-129100023D01*
X149088100Y-129096332D01*
X149088963Y-129095634D01*
X149106897Y-129077700D01*
X149114354Y-129071331D01*
X149134570Y-129056643D01*
X149139497Y-129048110D01*
X149149425Y-129035172D01*
X149808152Y-128376445D01*
X149810525Y-128374192D01*
X149814862Y-128370287D01*
X149839391Y-128348201D01*
X149849857Y-128324695D01*
X149854533Y-128316081D01*
X149864974Y-128300002D01*
X149868551Y-128294494D01*
X149869578Y-128288008D01*
X149870690Y-128285112D01*
X149903618Y-128250413D01*
X149941231Y-128246211D01*
X149996985Y-128257301D01*
X149996992Y-128257302D01*
X150000000Y-128257900D01*
X150300000Y-128257900D01*
X150303010Y-128257301D01*
X150303013Y-128257301D01*
X150354389Y-128247082D01*
X150354390Y-128247082D01*
X150360426Y-128245881D01*
X150411652Y-128211652D01*
X150445881Y-128160426D01*
X150447493Y-128152321D01*
X150457301Y-128103013D01*
X150457301Y-128103010D01*
X150457900Y-128100000D01*
X150457900Y-126800000D01*
X150457301Y-126796985D01*
X150447082Y-126745611D01*
X150447082Y-126745610D01*
X150445881Y-126739574D01*
X150411652Y-126688348D01*
X150360426Y-126654119D01*
X150354390Y-126652918D01*
X150354389Y-126652918D01*
X150303013Y-126642699D01*
X150303010Y-126642699D01*
X150300000Y-126642100D01*
X150000000Y-126642100D01*
X149996990Y-126642699D01*
X149996987Y-126642699D01*
X149945610Y-126652918D01*
X149945608Y-126652919D01*
X149939574Y-126654119D01*
X149934459Y-126657537D01*
X149928766Y-126659895D01*
X149928249Y-126658647D01*
X149887810Y-126666693D01*
X149871258Y-126659837D01*
X149871234Y-126659895D01*
X149865541Y-126657537D01*
X149860426Y-126654119D01*
X149854392Y-126652919D01*
X149854390Y-126652918D01*
X149803013Y-126642699D01*
X149803010Y-126642699D01*
X149800000Y-126642100D01*
X149500000Y-126642100D01*
X149496990Y-126642699D01*
X149496987Y-126642699D01*
X149445611Y-126652918D01*
X149445610Y-126652918D01*
X149439574Y-126654119D01*
X149388348Y-126688348D01*
X149354119Y-126739574D01*
X149352918Y-126745610D01*
X149352918Y-126745611D01*
X149342700Y-126796985D01*
X149342100Y-126800000D01*
X149342100Y-128100000D01*
X149342699Y-128103010D01*
X149342699Y-128103013D01*
X149351262Y-128146060D01*
X149341930Y-128192976D01*
X149334157Y-128202447D01*
X148884010Y-128652594D01*
X148839816Y-128670900D01*
X133318384Y-128670900D01*
X133274190Y-128652594D01*
X132986190Y-128364594D01*
X132967884Y-128320400D01*
X132986190Y-128276206D01*
X133030384Y-128257900D01*
X133200000Y-128257900D01*
X133203010Y-128257301D01*
X133203013Y-128257301D01*
X133254389Y-128247082D01*
X133254390Y-128247082D01*
X133260426Y-128245881D01*
X133311652Y-128211652D01*
X133345881Y-128160426D01*
X133347493Y-128152321D01*
X133357301Y-128103013D01*
X133357301Y-128103010D01*
X133357900Y-128100000D01*
X133357900Y-126800000D01*
X133357301Y-126796985D01*
X133347082Y-126745611D01*
X133347082Y-126745610D01*
X133345881Y-126739574D01*
X133311652Y-126688348D01*
X133260426Y-126654119D01*
X133254389Y-126652918D01*
X133248701Y-126650562D01*
X133249873Y-126647733D01*
X133219238Y-126627276D01*
X133209891Y-126580362D01*
X133227000Y-126548343D01*
X133283234Y-126492109D01*
X133341740Y-126377284D01*
X133341972Y-126375819D01*
X133372126Y-126340512D01*
X133419814Y-126336759D01*
X133456189Y-126367825D01*
X133462231Y-126405978D01*
X133458965Y-126426598D01*
X133458965Y-126426603D01*
X133458196Y-126431458D01*
X133458965Y-126436313D01*
X133477527Y-126553506D01*
X133478356Y-126558742D01*
X133480590Y-126563126D01*
X133480590Y-126563127D01*
X133504899Y-126610835D01*
X133536862Y-126673567D01*
X133627987Y-126764692D01*
X133632368Y-126766924D01*
X133632369Y-126766925D01*
X133707974Y-126805447D01*
X133739041Y-126841821D01*
X133742100Y-126861135D01*
X133742100Y-128100000D01*
X133742699Y-128103010D01*
X133742699Y-128103013D01*
X133752507Y-128152321D01*
X133754119Y-128160426D01*
X133788348Y-128211652D01*
X133839574Y-128245881D01*
X133845610Y-128247082D01*
X133845611Y-128247082D01*
X133896987Y-128257301D01*
X133896990Y-128257301D01*
X133900000Y-128257900D01*
X134200000Y-128257900D01*
X134203010Y-128257301D01*
X134203013Y-128257301D01*
X134254390Y-128247082D01*
X134254392Y-128247081D01*
X134260426Y-128245881D01*
X134265541Y-128242463D01*
X134271234Y-128240105D01*
X134271751Y-128241353D01*
X134312190Y-128233307D01*
X134328742Y-128240163D01*
X134328766Y-128240105D01*
X134334459Y-128242463D01*
X134339574Y-128245881D01*
X134345608Y-128247081D01*
X134345610Y-128247082D01*
X134396987Y-128257301D01*
X134396990Y-128257301D01*
X134400000Y-128257900D01*
X134700000Y-128257900D01*
X134703010Y-128257301D01*
X134703013Y-128257301D01*
X134754390Y-128247082D01*
X134754392Y-128247081D01*
X134760426Y-128245881D01*
X134765541Y-128242463D01*
X134771234Y-128240105D01*
X134771751Y-128241353D01*
X134812190Y-128233307D01*
X134828742Y-128240163D01*
X134828766Y-128240105D01*
X134834459Y-128242463D01*
X134839574Y-128245881D01*
X134845608Y-128247081D01*
X134845610Y-128247082D01*
X134896987Y-128257301D01*
X134896990Y-128257301D01*
X134900000Y-128257900D01*
X135200000Y-128257900D01*
X135203010Y-128257301D01*
X135203013Y-128257301D01*
X135254389Y-128247082D01*
X135254390Y-128247082D01*
X135260426Y-128245881D01*
X135311652Y-128211652D01*
X135345881Y-128160426D01*
X135347493Y-128152321D01*
X135357301Y-128103013D01*
X135357301Y-128103010D01*
X135357900Y-128100000D01*
X135357900Y-126906110D01*
X135376206Y-126861916D01*
X135410622Y-126844380D01*
X135422420Y-126842511D01*
X135422424Y-126842510D01*
X135427284Y-126841740D01*
X135431668Y-126839506D01*
X135431669Y-126839506D01*
X135498513Y-126805447D01*
X135542109Y-126783234D01*
X135633234Y-126692109D01*
X135662636Y-126634404D01*
X135689506Y-126581669D01*
X135689506Y-126581668D01*
X135691740Y-126577284D01*
X135693110Y-126568639D01*
X135711131Y-126454855D01*
X135711900Y-126450000D01*
X135700289Y-126376692D01*
X135711456Y-126330179D01*
X135752243Y-126305184D01*
X135762140Y-126304416D01*
X141891833Y-126316862D01*
X141935989Y-126335257D01*
X141954205Y-126379488D01*
X141948801Y-126404782D01*
X141946866Y-126409128D01*
X141942186Y-126417748D01*
X141935375Y-126428236D01*
X141927901Y-126439744D01*
X141926873Y-126446232D01*
X141926872Y-126446236D01*
X141926242Y-126450212D01*
X141921609Y-126465855D01*
X141919300Y-126471041D01*
X141919299Y-126471045D01*
X141917299Y-126475537D01*
X141917100Y-126477430D01*
X141917100Y-126503017D01*
X141916331Y-126512794D01*
X141914047Y-126527218D01*
X141912426Y-126537450D01*
X141914126Y-126543794D01*
X141914970Y-126546944D01*
X141917100Y-126563121D01*
X141917100Y-126635730D01*
X141898794Y-126679924D01*
X141896988Y-126681406D01*
X141893465Y-126684929D01*
X141888348Y-126688348D01*
X141854119Y-126739574D01*
X141852918Y-126745610D01*
X141852918Y-126745611D01*
X141842700Y-126796985D01*
X141842100Y-126800000D01*
X141842100Y-128100000D01*
X141842699Y-128103010D01*
X141842699Y-128103013D01*
X141852507Y-128152321D01*
X141854119Y-128160426D01*
X141888348Y-128211652D01*
X141939574Y-128245881D01*
X141945610Y-128247082D01*
X141945611Y-128247082D01*
X141996987Y-128257301D01*
X141996990Y-128257301D01*
X142000000Y-128257900D01*
X142300000Y-128257900D01*
X142303010Y-128257301D01*
X142303013Y-128257301D01*
X142354390Y-128247082D01*
X142354392Y-128247081D01*
X142360426Y-128245881D01*
X142365541Y-128242463D01*
X142371234Y-128240105D01*
X142371751Y-128241353D01*
X142412190Y-128233307D01*
X142428742Y-128240163D01*
X142428766Y-128240105D01*
X142434459Y-128242463D01*
X142439574Y-128245881D01*
X142445608Y-128247081D01*
X142445610Y-128247082D01*
X142496987Y-128257301D01*
X142496990Y-128257301D01*
X142500000Y-128257900D01*
X142800000Y-128257900D01*
X142803010Y-128257301D01*
X142803013Y-128257301D01*
X142854389Y-128247082D01*
X142854390Y-128247082D01*
X142860426Y-128245881D01*
X142911652Y-128211652D01*
X142945881Y-128160426D01*
X142947493Y-128152321D01*
X142957301Y-128103013D01*
X142957301Y-128103010D01*
X142957900Y-128100000D01*
X142957900Y-126800000D01*
X142957301Y-126796985D01*
X142947082Y-126745611D01*
X142947082Y-126745610D01*
X142945881Y-126739574D01*
X142911652Y-126688348D01*
X142906535Y-126684929D01*
X142902182Y-126680576D01*
X142904423Y-126678335D01*
X142884102Y-126647929D01*
X142882900Y-126635730D01*
X142882900Y-126528925D01*
X142882986Y-126525654D01*
X142883911Y-126508004D01*
X142884971Y-126487783D01*
X142882354Y-126480964D01*
X142875570Y-126463293D01*
X142872785Y-126453890D01*
X142868698Y-126434661D01*
X142868697Y-126434660D01*
X142867332Y-126428236D01*
X142863471Y-126422921D01*
X142861104Y-126419664D01*
X142853311Y-126405306D01*
X142852738Y-126403812D01*
X142854004Y-126355994D01*
X142888712Y-126323076D01*
X142911218Y-126318931D01*
X143390478Y-126319905D01*
X143434634Y-126338300D01*
X143452850Y-126382531D01*
X143447449Y-126407820D01*
X143446869Y-126409123D01*
X143442186Y-126417748D01*
X143435375Y-126428236D01*
X143427901Y-126439744D01*
X143426873Y-126446232D01*
X143426872Y-126446236D01*
X143426242Y-126450212D01*
X143421609Y-126465855D01*
X143419300Y-126471041D01*
X143419299Y-126471045D01*
X143417299Y-126475537D01*
X143417100Y-126477430D01*
X143417100Y-126503017D01*
X143416331Y-126512794D01*
X143414047Y-126527218D01*
X143412426Y-126537450D01*
X143414126Y-126543794D01*
X143414970Y-126546944D01*
X143417100Y-126563121D01*
X143417100Y-126635730D01*
X143398794Y-126679924D01*
X143396988Y-126681406D01*
X143393465Y-126684929D01*
X143388348Y-126688348D01*
X143354119Y-126739574D01*
X143352918Y-126745610D01*
X143352918Y-126745611D01*
X143342700Y-126796985D01*
X143342100Y-126800000D01*
X143342100Y-128100000D01*
X143342699Y-128103010D01*
X143342699Y-128103013D01*
X143352507Y-128152321D01*
X143354119Y-128160426D01*
X143388348Y-128211652D01*
X143439574Y-128245881D01*
X143445610Y-128247082D01*
X143445611Y-128247082D01*
X143496987Y-128257301D01*
X143496990Y-128257301D01*
X143500000Y-128257900D01*
X143800000Y-128257900D01*
X143803010Y-128257301D01*
X143803013Y-128257301D01*
X143854390Y-128247082D01*
X143854392Y-128247081D01*
X143860426Y-128245881D01*
X143865541Y-128242463D01*
X143871234Y-128240105D01*
X143871751Y-128241353D01*
X143912190Y-128233307D01*
X143928742Y-128240163D01*
X143928766Y-128240105D01*
X143934459Y-128242463D01*
X143939574Y-128245881D01*
X143945608Y-128247081D01*
X143945610Y-128247082D01*
X143996987Y-128257301D01*
X143996990Y-128257301D01*
X144000000Y-128257900D01*
X144300000Y-128257900D01*
X144303010Y-128257301D01*
X144303013Y-128257301D01*
X144354389Y-128247082D01*
X144354390Y-128247082D01*
X144360426Y-128245881D01*
X144411652Y-128211652D01*
X144445881Y-128160426D01*
X144447493Y-128152321D01*
X144457301Y-128103013D01*
X144457301Y-128103010D01*
X144457900Y-128100000D01*
X144457900Y-126800000D01*
X144457301Y-126796985D01*
X144447082Y-126745611D01*
X144447082Y-126745610D01*
X144445881Y-126739574D01*
X144411652Y-126688348D01*
X144406535Y-126684929D01*
X144402182Y-126680576D01*
X144404423Y-126678335D01*
X144384102Y-126647929D01*
X144382900Y-126635730D01*
X144382900Y-126528925D01*
X144382986Y-126525654D01*
X144383911Y-126508004D01*
X144384971Y-126487783D01*
X144382354Y-126480964D01*
X144375570Y-126463293D01*
X144372785Y-126453890D01*
X144368698Y-126434661D01*
X144368697Y-126434660D01*
X144367332Y-126428236D01*
X144363472Y-126422923D01*
X144363471Y-126422921D01*
X144362231Y-126421214D01*
X144361669Y-126418874D01*
X144360799Y-126416919D01*
X144361161Y-126416758D01*
X144351067Y-126374699D01*
X144376063Y-126333914D01*
X144412922Y-126321981D01*
X144735250Y-126322635D01*
X144888767Y-126322947D01*
X144932924Y-126341343D01*
X144951140Y-126385574D01*
X144941056Y-126419488D01*
X144935375Y-126428236D01*
X144927901Y-126439744D01*
X144926873Y-126446232D01*
X144926872Y-126446236D01*
X144926242Y-126450212D01*
X144921609Y-126465855D01*
X144919300Y-126471041D01*
X144919299Y-126471045D01*
X144917299Y-126475537D01*
X144917100Y-126477430D01*
X144917100Y-126503017D01*
X144916331Y-126512794D01*
X144914047Y-126527218D01*
X144912426Y-126537450D01*
X144914126Y-126543794D01*
X144914970Y-126546944D01*
X144917100Y-126563121D01*
X144917100Y-126635730D01*
X144898794Y-126679924D01*
X144896988Y-126681406D01*
X144893465Y-126684929D01*
X144888348Y-126688348D01*
X144854119Y-126739574D01*
X144852918Y-126745610D01*
X144852918Y-126745611D01*
X144842700Y-126796985D01*
X144842100Y-126800000D01*
X144842100Y-128100000D01*
X144842699Y-128103010D01*
X144842699Y-128103013D01*
X144852507Y-128152321D01*
X144854119Y-128160426D01*
X144888348Y-128211652D01*
X144939574Y-128245881D01*
X144945610Y-128247082D01*
X144945611Y-128247082D01*
X144996987Y-128257301D01*
X144996990Y-128257301D01*
X145000000Y-128257900D01*
X145300000Y-128257900D01*
X145303010Y-128257301D01*
X145303013Y-128257301D01*
X145354390Y-128247082D01*
X145354392Y-128247081D01*
X145360426Y-128245881D01*
X145365541Y-128242463D01*
X145371234Y-128240105D01*
X145371751Y-128241353D01*
X145412190Y-128233307D01*
X145428742Y-128240163D01*
X145428766Y-128240105D01*
X145434459Y-128242463D01*
X145439574Y-128245881D01*
X145445608Y-128247081D01*
X145445610Y-128247082D01*
X145496987Y-128257301D01*
X145496990Y-128257301D01*
X145500000Y-128257900D01*
X145800000Y-128257900D01*
X145803010Y-128257301D01*
X145803013Y-128257301D01*
X145854389Y-128247082D01*
X145854390Y-128247082D01*
X145860426Y-128245881D01*
X145911652Y-128211652D01*
X145945881Y-128160426D01*
X145947493Y-128152321D01*
X145957301Y-128103013D01*
X145957301Y-128103010D01*
X145957900Y-128100000D01*
X145957900Y-126800000D01*
X146342100Y-126800000D01*
X146342100Y-128100000D01*
X146342699Y-128103010D01*
X146342699Y-128103013D01*
X146352507Y-128152321D01*
X146354119Y-128160426D01*
X146388348Y-128211652D01*
X146439574Y-128245881D01*
X146445610Y-128247082D01*
X146445611Y-128247082D01*
X146496987Y-128257301D01*
X146496990Y-128257301D01*
X146500000Y-128257900D01*
X146800000Y-128257900D01*
X146803010Y-128257301D01*
X146803013Y-128257301D01*
X146854390Y-128247082D01*
X146854392Y-128247081D01*
X146860426Y-128245881D01*
X146865541Y-128242463D01*
X146871234Y-128240105D01*
X146871751Y-128241353D01*
X146912190Y-128233307D01*
X146928742Y-128240163D01*
X146928766Y-128240105D01*
X146934459Y-128242463D01*
X146939574Y-128245881D01*
X146945608Y-128247081D01*
X146945610Y-128247082D01*
X146996987Y-128257301D01*
X146996990Y-128257301D01*
X147000000Y-128257900D01*
X147300000Y-128257900D01*
X147303010Y-128257301D01*
X147303013Y-128257301D01*
X147354389Y-128247082D01*
X147354390Y-128247082D01*
X147360426Y-128245881D01*
X147411652Y-128211652D01*
X147445881Y-128160426D01*
X147447493Y-128152321D01*
X147457301Y-128103013D01*
X147457301Y-128103010D01*
X147457900Y-128100000D01*
X147457900Y-126800000D01*
X147842100Y-126800000D01*
X147842100Y-128100000D01*
X147842699Y-128103010D01*
X147842699Y-128103013D01*
X147852507Y-128152321D01*
X147854119Y-128160426D01*
X147888348Y-128211652D01*
X147939574Y-128245881D01*
X147945610Y-128247082D01*
X147945611Y-128247082D01*
X147996987Y-128257301D01*
X147996990Y-128257301D01*
X148000000Y-128257900D01*
X148300000Y-128257900D01*
X148303010Y-128257301D01*
X148303013Y-128257301D01*
X148354390Y-128247082D01*
X148354392Y-128247081D01*
X148360426Y-128245881D01*
X148365541Y-128242463D01*
X148371234Y-128240105D01*
X148371751Y-128241353D01*
X148412190Y-128233307D01*
X148428742Y-128240163D01*
X148428766Y-128240105D01*
X148434459Y-128242463D01*
X148439574Y-128245881D01*
X148445608Y-128247081D01*
X148445610Y-128247082D01*
X148496987Y-128257301D01*
X148496990Y-128257301D01*
X148500000Y-128257900D01*
X148800000Y-128257900D01*
X148803010Y-128257301D01*
X148803013Y-128257301D01*
X148854389Y-128247082D01*
X148854390Y-128247082D01*
X148860426Y-128245881D01*
X148911652Y-128211652D01*
X148945881Y-128160426D01*
X148947493Y-128152321D01*
X148957301Y-128103013D01*
X148957301Y-128103010D01*
X148957900Y-128100000D01*
X148957900Y-126800000D01*
X148957301Y-126796985D01*
X148947082Y-126745611D01*
X148947082Y-126745610D01*
X148945881Y-126739574D01*
X148911652Y-126688348D01*
X148860426Y-126654119D01*
X148854390Y-126652918D01*
X148854389Y-126652918D01*
X148803013Y-126642699D01*
X148803010Y-126642699D01*
X148800000Y-126642100D01*
X148500000Y-126642100D01*
X148496990Y-126642699D01*
X148496987Y-126642699D01*
X148445610Y-126652918D01*
X148445608Y-126652919D01*
X148439574Y-126654119D01*
X148434459Y-126657537D01*
X148428766Y-126659895D01*
X148428249Y-126658647D01*
X148387810Y-126666693D01*
X148371258Y-126659837D01*
X148371234Y-126659895D01*
X148365541Y-126657537D01*
X148360426Y-126654119D01*
X148354392Y-126652919D01*
X148354390Y-126652918D01*
X148303013Y-126642699D01*
X148303010Y-126642699D01*
X148300000Y-126642100D01*
X148000000Y-126642100D01*
X147996990Y-126642699D01*
X147996987Y-126642699D01*
X147945611Y-126652918D01*
X147945610Y-126652918D01*
X147939574Y-126654119D01*
X147888348Y-126688348D01*
X147854119Y-126739574D01*
X147852918Y-126745610D01*
X147852918Y-126745611D01*
X147842700Y-126796985D01*
X147842100Y-126800000D01*
X147457900Y-126800000D01*
X147457301Y-126796985D01*
X147447082Y-126745611D01*
X147447082Y-126745610D01*
X147445881Y-126739574D01*
X147411652Y-126688348D01*
X147360426Y-126654119D01*
X147354390Y-126652918D01*
X147354389Y-126652918D01*
X147303013Y-126642699D01*
X147303010Y-126642699D01*
X147300000Y-126642100D01*
X147000000Y-126642100D01*
X146996990Y-126642699D01*
X146996987Y-126642699D01*
X146945610Y-126652918D01*
X146945608Y-126652919D01*
X146939574Y-126654119D01*
X146934459Y-126657537D01*
X146928766Y-126659895D01*
X146928249Y-126658647D01*
X146887810Y-126666693D01*
X146871258Y-126659837D01*
X146871234Y-126659895D01*
X146865541Y-126657537D01*
X146860426Y-126654119D01*
X146854392Y-126652919D01*
X146854390Y-126652918D01*
X146803013Y-126642699D01*
X146803010Y-126642699D01*
X146800000Y-126642100D01*
X146500000Y-126642100D01*
X146496990Y-126642699D01*
X146496987Y-126642699D01*
X146445611Y-126652918D01*
X146445610Y-126652918D01*
X146439574Y-126654119D01*
X146388348Y-126688348D01*
X146354119Y-126739574D01*
X146352918Y-126745610D01*
X146352918Y-126745611D01*
X146342700Y-126796985D01*
X146342100Y-126800000D01*
X145957900Y-126800000D01*
X145957301Y-126796985D01*
X145947082Y-126745611D01*
X145947082Y-126745610D01*
X145945881Y-126739574D01*
X145911652Y-126688348D01*
X145906535Y-126684929D01*
X145902182Y-126680576D01*
X145904423Y-126678335D01*
X145884102Y-126647929D01*
X145882900Y-126635730D01*
X145882900Y-126528925D01*
X145882986Y-126525654D01*
X145883911Y-126508004D01*
X145884971Y-126487783D01*
X145882354Y-126480964D01*
X145875570Y-126463293D01*
X145872785Y-126453890D01*
X145868698Y-126434661D01*
X145868697Y-126434660D01*
X145867332Y-126428236D01*
X145863471Y-126422921D01*
X145861104Y-126419664D01*
X145853310Y-126405304D01*
X145853152Y-126404892D01*
X145854420Y-126357074D01*
X145886886Y-126325067D01*
X145887103Y-126324974D01*
X145900000Y-126325000D01*
X146077613Y-126137726D01*
X146128285Y-126084298D01*
X146163853Y-126065577D01*
X146260771Y-126050227D01*
X146375596Y-125991721D01*
X146466721Y-125900596D01*
X146513861Y-125808079D01*
X146522993Y-125790156D01*
X146522993Y-125790155D01*
X146525227Y-125785771D01*
X146525996Y-125780915D01*
X146525999Y-125780906D01*
X146545012Y-125660864D01*
X146561394Y-125627632D01*
X147569252Y-124564952D01*
X147612946Y-124545483D01*
X147657609Y-124562613D01*
X147677100Y-124607961D01*
X147677100Y-124701847D01*
X147692576Y-124784943D01*
X147695605Y-124789857D01*
X147728971Y-124843986D01*
X147751258Y-124880143D01*
X147766548Y-124891770D01*
X147835686Y-124944345D01*
X147835689Y-124944347D01*
X147840278Y-124947836D01*
X147935466Y-124975400D01*
X148349347Y-124975400D01*
X148372188Y-124971146D01*
X148426765Y-124960982D01*
X148426768Y-124960981D01*
X148432443Y-124959924D01*
X148465260Y-124939695D01*
X148498054Y-124930400D01*
X148811389Y-124930400D01*
X148839763Y-124937212D01*
X148889846Y-124962730D01*
X148897716Y-124966740D01*
X148902573Y-124967509D01*
X148902575Y-124967510D01*
X149020145Y-124986131D01*
X149025000Y-124986900D01*
X149029855Y-124986131D01*
X149147425Y-124967510D01*
X149147427Y-124967509D01*
X149152284Y-124966740D01*
X149160155Y-124962730D01*
X149210237Y-124937212D01*
X149238611Y-124930400D01*
X149537983Y-124930400D01*
X149560182Y-124935668D01*
X149560278Y-124935336D01*
X149655466Y-124962900D01*
X150069347Y-124962900D01*
X150140077Y-124949727D01*
X150186875Y-124959631D01*
X150212963Y-124999727D01*
X150214020Y-125011170D01*
X150214020Y-125985292D01*
X150213934Y-125988563D01*
X150211902Y-126027341D01*
X150214256Y-126033472D01*
X150214256Y-126033475D01*
X150221124Y-126051365D01*
X150223909Y-126060768D01*
X150229259Y-126085937D01*
X150235316Y-126094274D01*
X150243097Y-126108605D01*
X150246788Y-126118220D01*
X150247486Y-126119083D01*
X150265420Y-126137017D01*
X150271789Y-126144474D01*
X150286477Y-126164690D01*
X150295010Y-126169617D01*
X150307948Y-126179545D01*
X150578616Y-126450212D01*
X150832796Y-126704392D01*
X150851102Y-126748586D01*
X150849901Y-126760778D01*
X150842699Y-126796985D01*
X150842699Y-126796987D01*
X150842100Y-126800000D01*
X150842100Y-128100000D01*
X150842699Y-128103010D01*
X150842699Y-128103013D01*
X150852507Y-128152321D01*
X150854119Y-128160426D01*
X150888348Y-128211652D01*
X150939574Y-128245881D01*
X150945610Y-128247082D01*
X150945611Y-128247082D01*
X150996987Y-128257301D01*
X150996990Y-128257301D01*
X151000000Y-128257900D01*
X151300000Y-128257900D01*
X151303010Y-128257301D01*
X151303013Y-128257301D01*
X151354390Y-128247082D01*
X151354392Y-128247081D01*
X151360426Y-128245881D01*
X151365541Y-128242463D01*
X151371234Y-128240105D01*
X151371751Y-128241353D01*
X151412190Y-128233307D01*
X151428742Y-128240163D01*
X151428766Y-128240105D01*
X151434459Y-128242463D01*
X151439574Y-128245881D01*
X151445608Y-128247081D01*
X151445610Y-128247082D01*
X151496987Y-128257301D01*
X151496990Y-128257301D01*
X151500000Y-128257900D01*
X151800000Y-128257900D01*
X151803010Y-128257301D01*
X151803013Y-128257301D01*
X151854390Y-128247082D01*
X151854392Y-128247081D01*
X151860426Y-128245881D01*
X151865541Y-128242463D01*
X151871234Y-128240105D01*
X151871751Y-128241353D01*
X151912190Y-128233307D01*
X151928742Y-128240163D01*
X151928766Y-128240105D01*
X151934459Y-128242463D01*
X151939574Y-128245881D01*
X151945608Y-128247081D01*
X151945610Y-128247082D01*
X151996987Y-128257301D01*
X151996990Y-128257301D01*
X152000000Y-128257900D01*
X152300000Y-128257900D01*
X152303010Y-128257301D01*
X152303013Y-128257301D01*
X152354389Y-128247082D01*
X152354390Y-128247082D01*
X152360426Y-128245881D01*
X152411652Y-128211652D01*
X152445881Y-128160426D01*
X152447493Y-128152321D01*
X152457301Y-128103013D01*
X152457301Y-128103010D01*
X152457900Y-128100000D01*
X152457900Y-127316985D01*
X152476206Y-127272791D01*
X153426597Y-126322400D01*
X153470791Y-126304094D01*
X153480568Y-126304863D01*
X153520144Y-126311131D01*
X153520145Y-126311131D01*
X153525000Y-126311900D01*
X153529855Y-126311131D01*
X153536302Y-126310110D01*
X153545292Y-126308686D01*
X153647425Y-126292510D01*
X153647427Y-126292509D01*
X153652284Y-126291740D01*
X153656668Y-126289506D01*
X153656669Y-126289506D01*
X153734204Y-126250000D01*
X153767109Y-126233234D01*
X153858234Y-126142109D01*
X153900957Y-126058260D01*
X153914506Y-126031669D01*
X153914506Y-126031668D01*
X153916740Y-126027284D01*
X153917587Y-126021940D01*
X153936131Y-125904855D01*
X153936900Y-125900000D01*
X153923950Y-125818239D01*
X153917510Y-125777575D01*
X153917509Y-125777573D01*
X153916740Y-125772716D01*
X153858234Y-125657891D01*
X153767109Y-125566766D01*
X153701010Y-125533087D01*
X153656669Y-125510494D01*
X153656668Y-125510494D01*
X153652284Y-125508260D01*
X153647427Y-125507491D01*
X153647425Y-125507490D01*
X153529855Y-125488869D01*
X153525000Y-125488100D01*
X153520145Y-125488869D01*
X153402575Y-125507490D01*
X153402573Y-125507491D01*
X153397716Y-125508260D01*
X153393332Y-125510494D01*
X153393331Y-125510494D01*
X153348990Y-125533087D01*
X153282891Y-125566766D01*
X153191766Y-125657891D01*
X153133260Y-125772716D01*
X153132491Y-125777573D01*
X153132490Y-125777575D01*
X153126050Y-125818239D01*
X153113100Y-125900000D01*
X153113869Y-125904855D01*
X153113869Y-125904857D01*
X153120137Y-125944434D01*
X153108969Y-125990947D01*
X153102600Y-125998404D01*
X152448523Y-126652481D01*
X152404329Y-126670787D01*
X152369606Y-126660253D01*
X152360426Y-126654119D01*
X152354390Y-126652918D01*
X152354389Y-126652918D01*
X152303013Y-126642699D01*
X152303010Y-126642699D01*
X152300000Y-126642100D01*
X152000000Y-126642100D01*
X151996990Y-126642699D01*
X151996987Y-126642699D01*
X151972209Y-126647628D01*
X151953792Y-126651291D01*
X151906877Y-126641959D01*
X151880301Y-126602185D01*
X151879100Y-126589992D01*
X151879100Y-126418719D01*
X151879186Y-126415448D01*
X151879517Y-126409128D01*
X151881219Y-126376659D01*
X151877000Y-126365668D01*
X151871995Y-126352628D01*
X151869210Y-126343227D01*
X151863861Y-126318063D01*
X151860002Y-126312751D01*
X151859999Y-126312745D01*
X151857807Y-126309728D01*
X151850023Y-126295393D01*
X151849798Y-126294805D01*
X151846333Y-126285780D01*
X151845634Y-126284918D01*
X151827702Y-126266986D01*
X151821339Y-126259537D01*
X151806643Y-126239310D01*
X151800956Y-126236026D01*
X151800953Y-126236024D01*
X151798111Y-126234383D01*
X151785167Y-126224451D01*
X150994846Y-125434130D01*
X150976540Y-125389936D01*
X150976540Y-122220466D01*
X151107100Y-122220466D01*
X151107100Y-122584347D01*
X151122576Y-122667443D01*
X151125605Y-122672357D01*
X151167804Y-122740816D01*
X151177100Y-122773612D01*
X151177100Y-123031687D01*
X151176330Y-123041468D01*
X151175006Y-123049824D01*
X151174111Y-123053556D01*
X151173643Y-123056509D01*
X151172122Y-123061191D01*
X151172122Y-123066114D01*
X151171654Y-123069069D01*
X151171353Y-123072893D01*
X151163100Y-123125000D01*
X151163869Y-123129855D01*
X151171331Y-123176968D01*
X151172100Y-123186745D01*
X151172100Y-123713255D01*
X151171331Y-123723032D01*
X151163100Y-123775000D01*
X151163869Y-123779855D01*
X151171353Y-123827107D01*
X151171654Y-123830931D01*
X151172122Y-123833886D01*
X151172122Y-123838809D01*
X151173643Y-123843491D01*
X151174111Y-123846444D01*
X151175006Y-123850176D01*
X151176330Y-123858532D01*
X151177100Y-123868313D01*
X151177100Y-124153408D01*
X151164350Y-124191239D01*
X151134664Y-124230278D01*
X151107100Y-124325466D01*
X151107100Y-124689347D01*
X151122576Y-124772443D01*
X151125605Y-124777357D01*
X151166676Y-124843986D01*
X151181258Y-124867643D01*
X151191237Y-124875231D01*
X151265686Y-124931845D01*
X151265689Y-124931847D01*
X151270278Y-124935336D01*
X151365466Y-124962900D01*
X151779347Y-124962900D01*
X151862443Y-124947424D01*
X151941975Y-124898400D01*
X151952731Y-124891770D01*
X151952732Y-124891769D01*
X151957643Y-124888742D01*
X151991677Y-124843986D01*
X152021845Y-124804314D01*
X152021847Y-124804311D01*
X152025336Y-124799722D01*
X152052900Y-124704534D01*
X152052900Y-124340653D01*
X152037424Y-124257557D01*
X151992196Y-124184184D01*
X151982900Y-124151388D01*
X151982900Y-123805170D01*
X151983670Y-123795392D01*
X151986130Y-123779860D01*
X151986900Y-123775000D01*
X151983647Y-123754461D01*
X151982878Y-123744684D01*
X151982878Y-123716191D01*
X151980959Y-123710284D01*
X151977900Y-123690972D01*
X151977900Y-123209028D01*
X151980959Y-123189714D01*
X151981359Y-123188483D01*
X151982878Y-123183809D01*
X151982878Y-123155316D01*
X151983647Y-123145539D01*
X151986131Y-123129855D01*
X151986900Y-123125000D01*
X151983669Y-123104600D01*
X151982900Y-123094823D01*
X151982900Y-122771592D01*
X151995650Y-122733761D01*
X152021844Y-122699314D01*
X152025336Y-122694722D01*
X152052900Y-122599534D01*
X152052900Y-122235653D01*
X152046200Y-122199681D01*
X152747100Y-122199681D01*
X152747100Y-122750319D01*
X152747484Y-122752741D01*
X152747484Y-122752746D01*
X152760099Y-122832390D01*
X152761758Y-122842867D01*
X152763992Y-122847251D01*
X152763992Y-122847252D01*
X152782114Y-122882818D01*
X152818808Y-122954834D01*
X152907666Y-123043692D01*
X152942010Y-123061191D01*
X153015248Y-123098508D01*
X153015249Y-123098508D01*
X153019633Y-123100742D01*
X153024489Y-123101511D01*
X153024492Y-123101512D01*
X153109754Y-123115016D01*
X153109759Y-123115016D01*
X153112181Y-123115400D01*
X154087819Y-123115400D01*
X154090241Y-123115016D01*
X154090246Y-123115016D01*
X154175508Y-123101512D01*
X154175511Y-123101511D01*
X154180367Y-123100742D01*
X154184751Y-123098508D01*
X154184752Y-123098508D01*
X154257990Y-123061191D01*
X154292334Y-123043692D01*
X154381192Y-122954834D01*
X154383422Y-122950456D01*
X154383425Y-122950453D01*
X154403004Y-122912026D01*
X154439378Y-122880959D01*
X154458692Y-122877900D01*
X154538255Y-122877900D01*
X154548032Y-122878669D01*
X154566973Y-122881669D01*
X154600000Y-122886900D01*
X154604855Y-122886131D01*
X154651968Y-122878669D01*
X154661745Y-122877900D01*
X154741308Y-122877900D01*
X154785502Y-122896206D01*
X154796996Y-122912026D01*
X154816575Y-122950453D01*
X154816578Y-122950456D01*
X154818808Y-122954834D01*
X154907666Y-123043692D01*
X154942010Y-123061191D01*
X155015248Y-123098508D01*
X155015249Y-123098508D01*
X155019633Y-123100742D01*
X155024489Y-123101511D01*
X155024492Y-123101512D01*
X155109754Y-123115016D01*
X155109759Y-123115016D01*
X155112181Y-123115400D01*
X156087819Y-123115400D01*
X156090241Y-123115016D01*
X156090246Y-123115016D01*
X156175508Y-123101512D01*
X156175511Y-123101511D01*
X156180367Y-123100742D01*
X156184751Y-123098508D01*
X156184752Y-123098508D01*
X156257990Y-123061191D01*
X156292334Y-123043692D01*
X156381192Y-122954834D01*
X156417886Y-122882818D01*
X156436008Y-122847252D01*
X156436008Y-122847251D01*
X156438242Y-122842867D01*
X156439902Y-122832390D01*
X156452516Y-122752746D01*
X156452516Y-122752741D01*
X156452900Y-122750319D01*
X156452900Y-122199681D01*
X156451719Y-122192223D01*
X156439012Y-122111992D01*
X156439011Y-122111989D01*
X156438242Y-122107133D01*
X156381192Y-121995166D01*
X156292334Y-121906308D01*
X156225197Y-121872100D01*
X156184752Y-121851492D01*
X156184751Y-121851492D01*
X156180367Y-121849258D01*
X156175511Y-121848489D01*
X156175508Y-121848488D01*
X156090246Y-121834984D01*
X156090241Y-121834984D01*
X156087819Y-121834600D01*
X155112181Y-121834600D01*
X155109759Y-121834984D01*
X155109754Y-121834984D01*
X155024492Y-121848488D01*
X155024489Y-121848489D01*
X155019633Y-121849258D01*
X155015249Y-121851492D01*
X155015248Y-121851492D01*
X154974803Y-121872100D01*
X154907666Y-121906308D01*
X154818808Y-121995166D01*
X154816578Y-121999544D01*
X154816575Y-121999547D01*
X154796996Y-122037974D01*
X154760622Y-122069041D01*
X154741308Y-122072100D01*
X154661745Y-122072100D01*
X154651968Y-122071331D01*
X154628412Y-122067600D01*
X154600000Y-122063100D01*
X154571588Y-122067600D01*
X154548032Y-122071331D01*
X154538255Y-122072100D01*
X154458692Y-122072100D01*
X154414498Y-122053794D01*
X154403004Y-122037974D01*
X154383425Y-121999547D01*
X154383422Y-121999544D01*
X154381192Y-121995166D01*
X154292334Y-121906308D01*
X154225197Y-121872100D01*
X154184752Y-121851492D01*
X154184751Y-121851492D01*
X154180367Y-121849258D01*
X154175511Y-121848489D01*
X154175508Y-121848488D01*
X154090246Y-121834984D01*
X154090241Y-121834984D01*
X154087819Y-121834600D01*
X154065400Y-121834600D01*
X154021206Y-121816294D01*
X154002900Y-121772100D01*
X154002900Y-121586745D01*
X154003669Y-121576968D01*
X154011131Y-121529855D01*
X154011900Y-121525000D01*
X154003669Y-121473032D01*
X154002900Y-121463255D01*
X154002900Y-120761745D01*
X154003669Y-120751968D01*
X154011131Y-120704855D01*
X154011900Y-120700000D01*
X153991740Y-120572716D01*
X153933234Y-120457891D01*
X153842109Y-120366766D01*
X153743927Y-120316740D01*
X153731669Y-120310494D01*
X153731668Y-120310494D01*
X153727284Y-120308260D01*
X153722427Y-120307491D01*
X153722425Y-120307490D01*
X153604855Y-120288869D01*
X153600000Y-120288100D01*
X153595145Y-120288869D01*
X153477575Y-120307490D01*
X153477573Y-120307491D01*
X153472716Y-120308260D01*
X153468332Y-120310494D01*
X153468331Y-120310494D01*
X153456073Y-120316740D01*
X153357891Y-120366766D01*
X153266766Y-120457891D01*
X153208260Y-120572716D01*
X153188100Y-120700000D01*
X153188869Y-120704855D01*
X153196331Y-120751968D01*
X153197100Y-120761745D01*
X153197100Y-121463255D01*
X153196331Y-121473032D01*
X153188100Y-121525000D01*
X153188869Y-121529855D01*
X153196331Y-121576968D01*
X153197100Y-121586745D01*
X153197100Y-121772100D01*
X153178794Y-121816294D01*
X153134600Y-121834600D01*
X153112181Y-121834600D01*
X153109759Y-121834984D01*
X153109754Y-121834984D01*
X153024492Y-121848488D01*
X153024489Y-121848489D01*
X153019633Y-121849258D01*
X153015249Y-121851492D01*
X153015248Y-121851492D01*
X152974803Y-121872100D01*
X152907666Y-121906308D01*
X152818808Y-121995166D01*
X152761758Y-122107133D01*
X152760989Y-122111989D01*
X152760988Y-122111992D01*
X152748281Y-122192223D01*
X152747100Y-122199681D01*
X152046200Y-122199681D01*
X152037424Y-122152557D01*
X152020609Y-122125278D01*
X151981770Y-122062269D01*
X151981769Y-122062268D01*
X151978742Y-122057357D01*
X151946272Y-122032666D01*
X151894314Y-121993155D01*
X151894311Y-121993153D01*
X151889722Y-121989664D01*
X151794534Y-121962100D01*
X151380653Y-121962100D01*
X151297557Y-121977576D01*
X151292643Y-121980605D01*
X151220623Y-122024999D01*
X151202357Y-122036258D01*
X151192852Y-122048758D01*
X151138155Y-122120686D01*
X151138153Y-122120689D01*
X151134664Y-122125278D01*
X151107100Y-122220466D01*
X150976540Y-122220466D01*
X150976540Y-120997254D01*
X150993692Y-120954245D01*
X151856515Y-120044491D01*
X151901862Y-120025000D01*
X157804600Y-120025000D01*
X157848794Y-120043306D01*
G37*
G04 #@! TD.AperFunction*
G04 #@! TA.AperFunction,Conductor*
G36*
X149473794Y-122831206D02*
G01*
X149492100Y-122875400D01*
X149492100Y-123143255D01*
X149491331Y-123153032D01*
X149483100Y-123205000D01*
X149483869Y-123209855D01*
X149491331Y-123256968D01*
X149492100Y-123266745D01*
X149492100Y-124062100D01*
X149473794Y-124106294D01*
X149429600Y-124124600D01*
X148503715Y-124124600D01*
X148469552Y-124113086D01*
X148469470Y-124113249D01*
X148468319Y-124112670D01*
X148465883Y-124111849D01*
X148464314Y-124110656D01*
X148459722Y-124107164D01*
X148364534Y-124079600D01*
X148174980Y-124079600D01*
X148130786Y-124061294D01*
X148112480Y-124017100D01*
X148129632Y-123974091D01*
X148239230Y-123858532D01*
X149212435Y-122832390D01*
X149257782Y-122812900D01*
X149429600Y-122812900D01*
X149473794Y-122831206D01*
G37*
G04 #@! TD.AperFunction*
G04 #@! TD*
G04 #@! TA.AperFunction,Conductor*
G04 #@! TO.N,Net-(C15-Pad1)*
G36*
X118503427Y-110178427D02*
G01*
X119646573Y-111321573D01*
X119650000Y-111329846D01*
X119650000Y-111850000D01*
X119651317Y-111850852D01*
X120073579Y-112124081D01*
X120073580Y-112124081D01*
X120075000Y-112125000D01*
X121096520Y-112125000D01*
X121102914Y-112126902D01*
X123473574Y-113674070D01*
X123473576Y-113674071D01*
X123475000Y-113675000D01*
X125963300Y-113675000D01*
X125971573Y-113678427D01*
X125975000Y-113686700D01*
X125975000Y-115088300D01*
X125971573Y-115096573D01*
X125963300Y-115100000D01*
X121580058Y-115100000D01*
X121571535Y-115096316D01*
X117628177Y-110903378D01*
X117625000Y-110895362D01*
X117625000Y-110186700D01*
X117628427Y-110178427D01*
X117636700Y-110175000D01*
X118495154Y-110175000D01*
X118503427Y-110178427D01*
G37*
G04 #@! TD.AperFunction*
G04 #@! TD*
G04 #@! TA.AperFunction,Conductor*
G04 #@! TO.N,Net-(L1-Pad2)*
G36*
X136821573Y-115028427D02*
G01*
X136825000Y-115036700D01*
X136825000Y-117548589D01*
X136824664Y-117551372D01*
X136225000Y-120000000D01*
X136225000Y-123038300D01*
X136221573Y-123046573D01*
X136213300Y-123050000D01*
X135811700Y-123050000D01*
X135803427Y-123046573D01*
X135800000Y-123038300D01*
X135800000Y-120000000D01*
X135425132Y-117525871D01*
X135425000Y-117524118D01*
X135425000Y-115036700D01*
X135428427Y-115028427D01*
X135436700Y-115025000D01*
X136813300Y-115025000D01*
X136821573Y-115028427D01*
G37*
G04 #@! TD.AperFunction*
G04 #@! TD*
G04 #@! TA.AperFunction,Conductor*
G04 #@! TO.N,/PSUs/SYS*
G36*
X132576893Y-117501666D02*
G01*
X132576893Y-117501667D01*
X135496031Y-120071506D01*
X135500000Y-120080288D01*
X135500000Y-120638300D01*
X135496573Y-120646573D01*
X135488300Y-120650000D01*
X135279396Y-120650000D01*
X135271691Y-120647105D01*
X135261629Y-120638300D01*
X135075000Y-120475000D01*
X134545086Y-120492094D01*
X134544709Y-120492100D01*
X134408001Y-120492100D01*
X134407435Y-120492213D01*
X134407431Y-120492213D01*
X134382446Y-120497183D01*
X134380542Y-120497402D01*
X134301552Y-120499950D01*
X134298485Y-120499642D01*
X134266552Y-120492094D01*
X132501924Y-120075000D01*
X130239386Y-119540218D01*
X130237122Y-119539683D01*
X130175000Y-119525000D01*
X132575000Y-117500000D01*
X132576893Y-117501666D01*
G37*
G04 #@! TD.AperFunction*
G04 #@! TD*
G04 #@! TA.AperFunction,Conductor*
G04 #@! TO.N,GND*
G36*
X117503481Y-111053827D02*
G01*
X121271955Y-115196653D01*
X121275000Y-115204526D01*
X121275000Y-115388300D01*
X121271573Y-115396573D01*
X121263300Y-115400000D01*
X118604622Y-115400000D01*
X118596626Y-115396841D01*
X117428704Y-114303468D01*
X117425000Y-114294927D01*
X117425000Y-112675000D01*
X116728150Y-111903487D01*
X116725138Y-111895302D01*
X116749666Y-111061356D01*
X116753335Y-111053187D01*
X116761361Y-111050000D01*
X117494826Y-111050000D01*
X117503481Y-111053827D01*
G37*
G04 #@! TD.AperFunction*
G04 #@! TD*
G04 #@! TA.AperFunction,Conductor*
G04 #@! TO.N,/PSUs/VBUS*
G36*
X119711643Y-103878427D02*
G01*
X119715070Y-103886700D01*
X119713163Y-103893103D01*
X119300000Y-104525000D01*
X119300000Y-105520731D01*
X119297249Y-105528267D01*
X118500000Y-106475000D01*
X118500000Y-108413300D01*
X118496573Y-108421573D01*
X118488300Y-108425000D01*
X117636700Y-108425000D01*
X117628427Y-108421573D01*
X117625000Y-108413300D01*
X117625000Y-108050000D01*
X117261700Y-108050000D01*
X117253427Y-108046573D01*
X117250000Y-108038300D01*
X117250000Y-103886700D01*
X117253427Y-103878427D01*
X117261700Y-103875000D01*
X119703370Y-103875000D01*
X119711643Y-103878427D01*
G37*
G04 #@! TD.AperFunction*
G04 #@! TD*
G04 #@! TA.AperFunction,Conductor*
G04 #@! TO.N,GND*
G36*
X114861696Y-87476016D02*
G01*
X117478019Y-87476654D01*
X117546134Y-87496673D01*
X117592613Y-87550340D01*
X117603987Y-87602903D01*
X117602464Y-88374749D01*
X117582327Y-88442830D01*
X117528580Y-88489217D01*
X117476464Y-88500500D01*
X116679133Y-88500500D01*
X116630915Y-88490909D01*
X116630526Y-88490748D01*
X116620207Y-88483853D01*
X116520901Y-88464100D01*
X115377901Y-88464100D01*
X115278595Y-88483853D01*
X115194407Y-88540106D01*
X115138154Y-88624294D01*
X115118401Y-88723600D01*
X115118401Y-89536400D01*
X115119608Y-89542468D01*
X115138154Y-89635706D01*
X115135158Y-89636302D01*
X115140690Y-89687779D01*
X115138845Y-89694060D01*
X115138154Y-89695095D01*
X115118401Y-89794401D01*
X115118401Y-90505601D01*
X115138154Y-90604907D01*
X115140135Y-90607873D01*
X115147069Y-90672374D01*
X115142157Y-90689102D01*
X115138154Y-90695093D01*
X115118401Y-90794399D01*
X115118401Y-91505599D01*
X115119608Y-91511667D01*
X115138154Y-91604905D01*
X115135158Y-91605501D01*
X115140690Y-91656978D01*
X115138845Y-91663259D01*
X115138154Y-91664294D01*
X115118401Y-91763600D01*
X115118401Y-92576400D01*
X115138154Y-92675706D01*
X115194407Y-92759894D01*
X115278595Y-92816147D01*
X115377901Y-92835900D01*
X116520901Y-92835900D01*
X116620207Y-92816147D01*
X116630526Y-92809252D01*
X116630915Y-92809091D01*
X116679133Y-92799500D01*
X116774852Y-92799500D01*
X116810004Y-92804503D01*
X116815709Y-92806161D01*
X116822980Y-92809307D01*
X116830804Y-92810546D01*
X116830807Y-92810547D01*
X116851463Y-92813818D01*
X116866350Y-92816176D01*
X116877958Y-92818580D01*
X116920476Y-92829497D01*
X116920524Y-92829500D01*
X116940559Y-92829500D01*
X116960268Y-92831051D01*
X116980069Y-92834187D01*
X116987961Y-92833441D01*
X117023738Y-92830059D01*
X117035596Y-92829500D01*
X117467425Y-92829500D01*
X117535546Y-92849502D01*
X117582039Y-92903158D01*
X117593425Y-92955747D01*
X117587946Y-95732379D01*
X117580409Y-99551897D01*
X117560272Y-99619978D01*
X117506525Y-99666365D01*
X117453922Y-99677647D01*
X113509909Y-99662403D01*
X113441866Y-99642138D01*
X113395581Y-99588303D01*
X113384402Y-99535193D01*
X113384472Y-99527962D01*
X113384472Y-99527952D01*
X113384500Y-99525000D01*
X113365064Y-99295939D01*
X113307311Y-99073427D01*
X113212893Y-98863827D01*
X113084510Y-98673132D01*
X112925832Y-98506795D01*
X112741396Y-98369571D01*
X112736645Y-98367155D01*
X112736641Y-98367153D01*
X112624324Y-98310048D01*
X112536477Y-98265384D01*
X112316933Y-98197214D01*
X112311646Y-98196513D01*
X112311645Y-98196513D01*
X112094325Y-98167709D01*
X112094321Y-98167709D01*
X112089041Y-98167009D01*
X112083712Y-98167209D01*
X112083711Y-98167209D01*
X112000811Y-98170322D01*
X111859319Y-98175634D01*
X111634333Y-98222840D01*
X111629374Y-98224798D01*
X111629372Y-98224799D01*
X111425483Y-98305319D01*
X111425481Y-98305320D01*
X111420518Y-98307280D01*
X111415959Y-98310047D01*
X111415956Y-98310048D01*
X111321851Y-98367153D01*
X111223988Y-98426538D01*
X111219958Y-98430035D01*
X111127055Y-98510652D01*
X111050360Y-98577204D01*
X110904600Y-98754971D01*
X110903877Y-98754378D01*
X110852616Y-98796090D01*
X110782063Y-98804015D01*
X110718426Y-98772538D01*
X110681908Y-98711652D01*
X110677845Y-98679663D01*
X110677850Y-98677559D01*
X110685099Y-95011504D01*
X111040124Y-95011504D01*
X111041364Y-95018719D01*
X111041364Y-95018722D01*
X111056347Y-95105915D01*
X111070228Y-95186696D01*
X111139826Y-95350264D01*
X111144159Y-95356152D01*
X111144162Y-95356157D01*
X111240845Y-95487533D01*
X111245187Y-95493433D01*
X111266745Y-95511748D01*
X111375079Y-95603785D01*
X111375083Y-95603788D01*
X111380658Y-95608524D01*
X111538972Y-95689363D01*
X111546081Y-95691103D01*
X111546085Y-95691104D01*
X111632318Y-95712205D01*
X111711637Y-95731614D01*
X111717234Y-95731961D01*
X111717239Y-95731962D01*
X111723962Y-95732379D01*
X111723975Y-95732379D01*
X111725903Y-95732499D01*
X112535187Y-95732499D01*
X112606502Y-95724185D01*
X112661594Y-95717762D01*
X112661597Y-95717761D01*
X112668864Y-95716914D01*
X112675739Y-95714418D01*
X112675741Y-95714418D01*
X112829080Y-95658758D01*
X112829081Y-95658758D01*
X112835956Y-95656262D01*
X112842073Y-95652251D01*
X112842076Y-95652250D01*
X112978495Y-95562810D01*
X112978496Y-95562809D01*
X112984614Y-95558798D01*
X113106862Y-95429750D01*
X113196145Y-95276039D01*
X113247671Y-95105912D01*
X113253528Y-95011507D01*
X114840124Y-95011507D01*
X114841364Y-95018722D01*
X114841364Y-95018725D01*
X114868988Y-95179483D01*
X114870228Y-95186699D01*
X114939826Y-95350267D01*
X114944159Y-95356155D01*
X114944162Y-95356160D01*
X115040843Y-95487533D01*
X115045187Y-95493436D01*
X115050770Y-95498179D01*
X115175079Y-95603788D01*
X115175083Y-95603791D01*
X115180658Y-95608527D01*
X115338972Y-95689366D01*
X115346081Y-95691106D01*
X115346085Y-95691107D01*
X115432318Y-95712208D01*
X115511637Y-95731617D01*
X115517234Y-95731964D01*
X115517239Y-95731965D01*
X115523962Y-95732382D01*
X115523975Y-95732382D01*
X115525903Y-95732502D01*
X116335187Y-95732502D01*
X116406502Y-95724188D01*
X116461594Y-95717765D01*
X116461597Y-95717764D01*
X116468864Y-95716917D01*
X116475739Y-95714421D01*
X116475741Y-95714421D01*
X116629080Y-95658761D01*
X116629081Y-95658761D01*
X116635956Y-95656265D01*
X116642073Y-95652254D01*
X116642076Y-95652253D01*
X116778495Y-95562813D01*
X116778499Y-95562810D01*
X116784614Y-95558801D01*
X116906862Y-95429753D01*
X116996145Y-95276042D01*
X117047671Y-95105915D01*
X117058678Y-94928497D01*
X117042456Y-94834089D01*
X117029814Y-94760521D01*
X117029813Y-94760518D01*
X117028574Y-94753305D01*
X116958976Y-94589737D01*
X116954643Y-94583849D01*
X116954640Y-94583844D01*
X116857957Y-94452468D01*
X116853615Y-94446568D01*
X116782928Y-94386515D01*
X116723723Y-94336216D01*
X116723719Y-94336213D01*
X116718144Y-94331477D01*
X116559830Y-94250638D01*
X116552721Y-94248898D01*
X116552717Y-94248897D01*
X116457427Y-94225580D01*
X116387165Y-94208387D01*
X116381568Y-94208040D01*
X116381563Y-94208039D01*
X116374840Y-94207622D01*
X116374827Y-94207622D01*
X116372899Y-94207502D01*
X115563615Y-94207502D01*
X115492300Y-94215816D01*
X115437208Y-94222239D01*
X115437205Y-94222240D01*
X115429938Y-94223087D01*
X115423063Y-94225583D01*
X115423061Y-94225583D01*
X115269722Y-94281243D01*
X115262846Y-94283739D01*
X115256729Y-94287750D01*
X115256726Y-94287751D01*
X115120312Y-94377188D01*
X115114188Y-94381203D01*
X114991940Y-94510251D01*
X114902657Y-94663962D01*
X114851131Y-94834089D01*
X114840124Y-95011507D01*
X113253528Y-95011507D01*
X113258678Y-94928494D01*
X113242456Y-94834086D01*
X113229814Y-94760518D01*
X113228574Y-94753302D01*
X113158976Y-94589734D01*
X113154643Y-94583846D01*
X113154640Y-94583841D01*
X113057957Y-94452465D01*
X113053615Y-94446565D01*
X112976679Y-94381203D01*
X112923723Y-94336213D01*
X112923719Y-94336210D01*
X112918144Y-94331474D01*
X112759830Y-94250635D01*
X112752721Y-94248895D01*
X112752717Y-94248894D01*
X112647251Y-94223087D01*
X112587165Y-94208384D01*
X112581568Y-94208037D01*
X112581563Y-94208036D01*
X112574840Y-94207619D01*
X112574827Y-94207619D01*
X112572899Y-94207499D01*
X111763615Y-94207499D01*
X111692300Y-94215813D01*
X111637208Y-94222236D01*
X111637205Y-94222237D01*
X111629938Y-94223084D01*
X111623063Y-94225580D01*
X111623061Y-94225580D01*
X111469722Y-94281240D01*
X111462846Y-94283736D01*
X111456729Y-94287747D01*
X111456726Y-94287748D01*
X111382800Y-94336216D01*
X111314188Y-94381200D01*
X111191940Y-94510248D01*
X111102657Y-94663959D01*
X111051131Y-94834086D01*
X111040124Y-95011504D01*
X110685099Y-95011504D01*
X110699751Y-87600781D01*
X110719888Y-87532701D01*
X110773635Y-87486314D01*
X110825782Y-87475031D01*
X114861696Y-87476016D01*
G37*
G04 #@! TD.AperFunction*
G04 #@! TD*
G04 #@! TA.AperFunction,NonConductor*
G36*
X117540180Y-90500702D02*
G01*
X117586673Y-90554358D01*
X117598059Y-90606949D01*
X117597888Y-90693548D01*
X117577751Y-90761629D01*
X117524004Y-90808016D01*
X117471888Y-90819299D01*
X116888760Y-90819299D01*
X116820639Y-90799297D01*
X116774146Y-90745641D01*
X116765181Y-90717882D01*
X116763069Y-90707265D01*
X116760648Y-90695093D01*
X116758667Y-90692127D01*
X116751733Y-90627626D01*
X116756645Y-90610898D01*
X116760648Y-90604907D01*
X116765181Y-90582118D01*
X116798090Y-90519209D01*
X116859785Y-90484078D01*
X116888760Y-90480701D01*
X116977761Y-90480701D01*
X117472060Y-90480700D01*
X117540180Y-90500702D01*
G37*
G04 #@! TD.AperFunction*
G04 #@! TA.AperFunction,Conductor*
G04 #@! TO.N,/PSUs/SYS*
G36*
X116496573Y-111028427D02*
G01*
X116500000Y-111036700D01*
X116500000Y-112025000D01*
X116501576Y-112026634D01*
X116501576Y-112026635D01*
X117171791Y-112721672D01*
X117175068Y-112729621D01*
X117200000Y-114425000D01*
X118475000Y-115625000D01*
X122270615Y-115625000D01*
X122278304Y-115627882D01*
X124425000Y-117500000D01*
X126650735Y-117484859D01*
X128097836Y-117475015D01*
X128097837Y-117475015D01*
X128100000Y-117475000D01*
X130896651Y-114928050D01*
X130904529Y-114925000D01*
X132563300Y-114925000D01*
X132571573Y-114928427D01*
X132575000Y-114936700D01*
X132575000Y-117550000D01*
X130237122Y-119539683D01*
X130235813Y-119540797D01*
X130228278Y-119547210D01*
X130220695Y-119550000D01*
X123455014Y-119550000D01*
X123446542Y-119546369D01*
X121951656Y-117976739D01*
X121950000Y-117975000D01*
X119129922Y-117975000D01*
X119121558Y-117971482D01*
X118728022Y-117569200D01*
X115753336Y-114528410D01*
X115750000Y-114520228D01*
X115750000Y-111036700D01*
X115753427Y-111028427D01*
X115761700Y-111025000D01*
X116488300Y-111025000D01*
X116496573Y-111028427D01*
G37*
G04 #@! TD.AperFunction*
G04 #@! TD*
G04 #@! TA.AperFunction,Conductor*
G04 #@! TO.N,/+5v*
G36*
X140746493Y-53503427D02*
G01*
X140749920Y-53511780D01*
X140733271Y-55959247D01*
X140732614Y-56055779D01*
X140729187Y-56063972D01*
X139771553Y-57021606D01*
X139763280Y-57025033D01*
X138186720Y-57025033D01*
X138178447Y-57021606D01*
X137378427Y-56221586D01*
X137375000Y-56213313D01*
X137375000Y-55169788D01*
X137871937Y-55169788D01*
X137912237Y-55356187D01*
X137991624Y-55529583D01*
X138106394Y-55681887D01*
X138106872Y-55682297D01*
X138106876Y-55682301D01*
X138250709Y-55805580D01*
X138251191Y-55805993D01*
X138322402Y-55844176D01*
X138418705Y-55895814D01*
X138418709Y-55895816D01*
X138419260Y-55896111D01*
X138602760Y-55948036D01*
X138603399Y-55948074D01*
X138622015Y-55949180D01*
X138793129Y-55959346D01*
X138864298Y-55948074D01*
X138980863Y-55929612D01*
X138980864Y-55929612D01*
X138981487Y-55929513D01*
X138982075Y-55929282D01*
X138982077Y-55929282D01*
X139158449Y-55860162D01*
X139159044Y-55859929D01*
X139159569Y-55859578D01*
X139159572Y-55859576D01*
X139316992Y-55754193D01*
X139316995Y-55754190D01*
X139317517Y-55753841D01*
X139449513Y-55616197D01*
X139548872Y-55453421D01*
X139610959Y-55273105D01*
X139632878Y-55083664D01*
X139632900Y-55077500D01*
X139612304Y-54887910D01*
X139551477Y-54707166D01*
X139498882Y-54619633D01*
X139453581Y-54544239D01*
X139453578Y-54544236D01*
X139453256Y-54543699D01*
X139421891Y-54510531D01*
X139322661Y-54405599D01*
X139322225Y-54405138D01*
X139318344Y-54402500D01*
X139165021Y-54298303D01*
X139164496Y-54297946D01*
X139094129Y-54269801D01*
X138988023Y-54227361D01*
X138988018Y-54227360D01*
X138987429Y-54227124D01*
X138799285Y-54195977D01*
X138798653Y-54196010D01*
X138798651Y-54196010D01*
X138721994Y-54200027D01*
X138608841Y-54205957D01*
X138424983Y-54256600D01*
X138424428Y-54256893D01*
X138424427Y-54256893D01*
X138256846Y-54345249D01*
X138256844Y-54345250D01*
X138256289Y-54345543D01*
X138110629Y-54468635D01*
X137994799Y-54620134D01*
X137994533Y-54620705D01*
X137914471Y-54792396D01*
X137914469Y-54792401D01*
X137914203Y-54792972D01*
X137872602Y-54979084D01*
X137871937Y-55169788D01*
X137375000Y-55169788D01*
X137375000Y-53511700D01*
X137378427Y-53503427D01*
X137386700Y-53500000D01*
X140738220Y-53500000D01*
X140746493Y-53503427D01*
G37*
G04 #@! TD.AperFunction*
G04 #@! TD*
G04 #@! TA.AperFunction,Conductor*
G04 #@! TO.N,Net-(B1-Pad2)*
G36*
X115496573Y-111028427D02*
G01*
X115500000Y-111036700D01*
X115500000Y-114750000D01*
X115501536Y-114751627D01*
X115501536Y-114751628D01*
X117268651Y-116623928D01*
X117600000Y-116975000D01*
X119425000Y-118900000D01*
X122188300Y-118900000D01*
X122196573Y-118903427D01*
X122200000Y-118911700D01*
X122200000Y-120713328D01*
X122196573Y-120721601D01*
X122188328Y-120725028D01*
X111936728Y-120749971D01*
X111928447Y-120746564D01*
X111925000Y-120738271D01*
X111925000Y-117193432D01*
X112672100Y-117193432D01*
X112672100Y-118256568D01*
X112687064Y-118351047D01*
X112745002Y-118464757D01*
X112835243Y-118554998D01*
X112948953Y-118612936D01*
X113043432Y-118627900D01*
X116006568Y-118627900D01*
X116101047Y-118612936D01*
X116214757Y-118554998D01*
X116304998Y-118464757D01*
X116362936Y-118351047D01*
X116377900Y-118256568D01*
X116377900Y-117193432D01*
X116362936Y-117098953D01*
X116304998Y-116985243D01*
X116214757Y-116895002D01*
X116101047Y-116837064D01*
X116006568Y-116822100D01*
X113043432Y-116822100D01*
X112948953Y-116837064D01*
X112835243Y-116895002D01*
X112745002Y-116985243D01*
X112687064Y-117098953D01*
X112672100Y-117193432D01*
X111925000Y-117193432D01*
X111925000Y-117155064D01*
X111928692Y-117146534D01*
X112197073Y-116894585D01*
X114375000Y-114850000D01*
X114375000Y-113625838D01*
X114375120Y-113624168D01*
X114748553Y-111035030D01*
X114753126Y-111027331D01*
X114760133Y-111025000D01*
X115488300Y-111025000D01*
X115496573Y-111028427D01*
G37*
G04 #@! TD.AperFunction*
G04 #@! TD*
G04 #@! TA.AperFunction,Conductor*
G04 #@! TO.N,/+5v*
G36*
X136851284Y-121475293D02*
G01*
X138275000Y-121800000D01*
X146988300Y-121800000D01*
X146996573Y-121803427D01*
X147000000Y-121811700D01*
X147000000Y-123638300D01*
X146996573Y-123646573D01*
X146988300Y-123650000D01*
X138966922Y-123650000D01*
X138961610Y-123648725D01*
X138878104Y-123606177D01*
X138878105Y-123606177D01*
X138877284Y-123605759D01*
X138750000Y-123585599D01*
X138622716Y-123605759D01*
X138621895Y-123606177D01*
X138621896Y-123606177D01*
X138538390Y-123648725D01*
X138533078Y-123650000D01*
X136436700Y-123650000D01*
X136428427Y-123646573D01*
X136425000Y-123638300D01*
X136425000Y-121486700D01*
X136428427Y-121478427D01*
X136436700Y-121475000D01*
X136848683Y-121475000D01*
X136851284Y-121475293D01*
G37*
G04 #@! TD.AperFunction*
G04 #@! TD*
G04 #@! TA.AperFunction,Conductor*
G04 #@! TO.N,/+5v*
G36*
X124146573Y-93378427D02*
G01*
X124150000Y-93386700D01*
X124150000Y-95588300D01*
X124146573Y-95596573D01*
X124138300Y-95600000D01*
X122961700Y-95600000D01*
X122953427Y-95596573D01*
X122950000Y-95588300D01*
X122950000Y-93631485D01*
X122953427Y-93623212D01*
X122955499Y-93621563D01*
X123347155Y-93376778D01*
X123353356Y-93375000D01*
X124138300Y-93375000D01*
X124146573Y-93378427D01*
G37*
G04 #@! TD.AperFunction*
G04 #@! TD*
G04 #@! TA.AperFunction,Conductor*
G04 #@! TO.N,GND*
G36*
X138410882Y-121233530D02*
G01*
X136829287Y-121111869D01*
X136784442Y-121058141D01*
X136775027Y-121023966D01*
X136656296Y-120099043D01*
X136667462Y-120028930D01*
X136678740Y-120009765D01*
X136700164Y-119979771D01*
X136700165Y-119979769D01*
X136775000Y-119875000D01*
X138375000Y-119875000D01*
X138410882Y-121233530D01*
G37*
G04 #@! TD.AperFunction*
G04 #@! TD*
G04 #@! TA.AperFunction,Conductor*
G04 #@! TO.N,/+3.3v*
G36*
X126287940Y-93243306D02*
G01*
X126295712Y-93252776D01*
X126318348Y-93286652D01*
X126369574Y-93320881D01*
X126375610Y-93322082D01*
X126375611Y-93322082D01*
X126426987Y-93332301D01*
X126426990Y-93332301D01*
X126430000Y-93332900D01*
X127062500Y-93332900D01*
X127106694Y-93351206D01*
X127125000Y-93395400D01*
X127125000Y-93554600D01*
X127106694Y-93598794D01*
X127062500Y-93617100D01*
X126430000Y-93617100D01*
X126426990Y-93617699D01*
X126426987Y-93617699D01*
X126375611Y-93627918D01*
X126375610Y-93627918D01*
X126369574Y-93629119D01*
X126318348Y-93663348D01*
X126284119Y-93714574D01*
X126272100Y-93775000D01*
X126272100Y-93975000D01*
X126284119Y-94035426D01*
X126287537Y-94040541D01*
X126289895Y-94046234D01*
X126288647Y-94046751D01*
X126296693Y-94087190D01*
X126289837Y-94103742D01*
X126289895Y-94103766D01*
X126287537Y-94109459D01*
X126284119Y-94114574D01*
X126272100Y-94175000D01*
X126272100Y-94375000D01*
X126272699Y-94378010D01*
X126272699Y-94378013D01*
X126282918Y-94429389D01*
X126284119Y-94435426D01*
X126318348Y-94486652D01*
X126369574Y-94520881D01*
X126375610Y-94522082D01*
X126375611Y-94522082D01*
X126426987Y-94532301D01*
X126426990Y-94532301D01*
X126430000Y-94532900D01*
X127062500Y-94532900D01*
X127106694Y-94551206D01*
X127125000Y-94595400D01*
X127125000Y-95154600D01*
X127106694Y-95198794D01*
X127062500Y-95217100D01*
X126430000Y-95217100D01*
X126426990Y-95217699D01*
X126426987Y-95217699D01*
X126375611Y-95227918D01*
X126375610Y-95227918D01*
X126369574Y-95229119D01*
X126318348Y-95263348D01*
X126284119Y-95314574D01*
X126282918Y-95320610D01*
X126282918Y-95320611D01*
X126282106Y-95324694D01*
X126255529Y-95364468D01*
X126220807Y-95375000D01*
X125870920Y-95375000D01*
X125826726Y-95356694D01*
X125808420Y-95312500D01*
X125808420Y-93287500D01*
X125826726Y-93243306D01*
X125870920Y-93225000D01*
X126243746Y-93225000D01*
X126287940Y-93243306D01*
G37*
G04 #@! TD.AperFunction*
G04 #@! TD*
M02*
