G04 #@! TF.GenerationSoftware,KiCad,Pcbnew,(5.99.0-10362-gce3a84f579)*
G04 #@! TF.CreationDate,2021-05-11T11:50:45-04:00*
G04 #@! TF.ProjectId,rpi-cm4-carrier,7270692d-636d-4342-9d63-617272696572,v01*
G04 #@! TF.SameCoordinates,Original*
G04 #@! TF.FileFunction,Profile,NP*
%FSLAX46Y46*%
G04 Gerber Fmt 4.6, Leading zero omitted, Abs format (unit mm)*
G04 Created by KiCad (PCBNEW (5.99.0-10362-gce3a84f579)) date 2021-05-11 11:50:45*
%MOMM*%
%LPD*%
G01*
G04 APERTURE LIST*
G04 #@! TA.AperFunction,Profile*
%ADD10C,0.100000*%
G04 #@! TD*
G04 APERTURE END LIST*
D10*
X155650000Y-51000000D02*
X116875000Y-51000000D01*
X155650000Y-53875000D02*
X155650000Y-51000000D01*
X116875000Y-51000000D02*
X116875000Y-53875000D01*
X110125000Y-125675000D02*
X110125000Y-127500000D01*
X155649998Y-131374999D02*
G75*
G02*
X159525000Y-127499999I3875001J-1D01*
G01*
X162400000Y-57750000D02*
X159525000Y-57750000D01*
X110125000Y-116475000D02*
X111400000Y-116475000D01*
X110125000Y-57750000D02*
X110125000Y-116475000D01*
X113000001Y-127499998D02*
G75*
G02*
X116875001Y-131375000I-1J-3875001D01*
G01*
X111400000Y-116475000D02*
X111400000Y-125675000D01*
X159525000Y-127500000D02*
X162400000Y-127500000D01*
X110125000Y-127500000D02*
X113000000Y-127500000D01*
X111400000Y-125675000D02*
X110125000Y-125675000D01*
X159524999Y-57750002D02*
G75*
G02*
X155649999Y-53875000I1J3875001D01*
G01*
X113000000Y-57750000D02*
X110125000Y-57750000D01*
X116875000Y-131375000D02*
X116875000Y-135250000D01*
X155650000Y-135250000D02*
X155650000Y-131375000D01*
X116875002Y-53875001D02*
G75*
G02*
X113000000Y-57750001I-3875001J1D01*
G01*
X116875000Y-135250000D02*
X155650000Y-135250000D01*
X162400000Y-57750000D02*
X162400000Y-127500000D01*
M02*
