M48
; DRILL file {KiCad (5.99.0-10362-gce3a84f579)} date Tue May 11 11:50:48 2021
; FORMAT={-:-/ absolute / metric / decimal}
; #@! TF.CreationDate,2021-05-11T11:50:48-04:00
; #@! TF.GenerationSoftware,Kicad,Pcbnew,(5.99.0-10362-gce3a84f579)
; #@! TF.FileFunction,MixedPlating,1,4
FMAT,2
METRIC
; #@! TA.AperFunction,Plated,PTH,ViaDrill
T1C0.254
; #@! TA.AperFunction,Plated,PTH,ComponentDrill
T2C0.500
; #@! TA.AperFunction,Plated,PTH,ComponentDrill
T3C0.600
; #@! TA.AperFunction,Plated,PTH,ComponentDrill
T4C0.850
; #@! TA.AperFunction,Plated,PTH,ComponentDrill
T5C1.000
; #@! TA.AperFunction,NonPlated,NPTH,ComponentDrill
T6C0.800
; #@! TA.AperFunction,NonPlated,NPTH,ComponentDrill
T7C2.200
; #@! TA.AperFunction,NonPlated,NPTH,ComponentDrill
T8C2.700
%
G90
G05
T1
X111.7Y-88.075
X111.7Y-89.2
X111.7Y-90.4
X111.7Y-91.65
X111.7Y-92.85
X112.375Y-108.1
X112.375Y-103.375
X112.506Y-110.137
X112.8Y-88.05
X112.8Y-89.175
X112.8Y-90.375
X112.8Y-91.625
X112.8Y-92.825
X113.225Y-80.125
X113.7Y-113.175
X113.825Y-80.125
X113.85Y-88.05
X113.85Y-89.175
X113.85Y-90.375
X113.85Y-91.625
X113.85Y-92.825
X114.85Y-88.05
X114.85Y-89.175
X114.85Y-90.375
X114.85Y-91.625
X114.85Y-92.825
X115.3Y-108.7
X115.3Y-109.525
X115.3Y-110.35
X116.125Y-108.7
X116.125Y-109.525
X116.125Y-110.35
X116.35Y-112.75
X116.952Y-79.298
X116.975Y-108.675
X116.975Y-109.5
X116.975Y-110.325
X117.925Y-107.5
X118.05Y-90.125
X118.1Y-112.65
X118.223Y-79.298
X118.675Y-128.762
X118.682Y-90.419
X118.75Y-126.762
X118.875Y-86.775
X118.9Y-109.325
X119.357Y-87.427
X119.875Y-125.887
X120.125Y-81.34
X120.455Y-126.22
X120.583Y-83.6
X120.925Y-134.012
X121.227Y-82.152
X121.239Y-81.561
X121.35Y-107.275
X121.837Y-107.762
X121.875Y-108.4
X121.875Y-109.05
X122.64Y-74.396
X122.875Y-121.725
X122.875Y-122.4
X123.6Y-121.725
X123.6Y-122.4
X123.825Y-98.6
X123.925Y-99.9
X124.3Y-121.725
X124.3Y-122.4
X124.325Y-57.297
X124.45Y-96.075
X124.455Y-97.75
X124.475Y-86.675
X124.5Y-82.275
X124.5Y-92.275
X124.525Y-83.475
X124.6Y-80.675
X124.612Y-87.912
X124.625Y-78.275
X124.625Y-79.075
X124.634Y-88.616
X124.65Y-89.35
X124.7Y-90.4
X125.275Y-90.0
X125.598Y-87.675
X125.6Y-84.7
X125.725Y-101.5
X125.9Y-87.075
X125.975Y-90.15
X125.975Y-121.725
X125.975Y-122.4
X126.061Y-93.475
X126.061Y-94.675
X126.067Y-123.842
X126.067Y-123.842
X126.067Y-123.842
X126.533Y-124.308
X126.533Y-124.308
X126.533Y-124.308
X126.7Y-121.725
X126.7Y-122.4
X127.175Y-131.2
X127.179Y-103.06
X127.2Y-129.95
X127.475Y-121.75
X127.65Y-94.9
X127.7Y-88.275
X127.7Y-89.85
X127.7Y-91.05
X127.7Y-92.675
X127.725Y-78.275
X127.725Y-79.45
X127.725Y-80.675
X127.725Y-82.675
X127.725Y-86.275
X128.275Y-131.2
X128.3Y-129.95
X128.567Y-123.667
X128.567Y-123.667
X129.033Y-124.133
X129.033Y-124.133
X129.425Y-94.8
X129.425Y-131.2
X129.45Y-129.95
X129.697Y-95.441
X130.2Y-123.65
X130.65Y-131.2
X130.675Y-129.95
X130.812Y-120.562
X131.017Y-123.517
X131.412Y-120.562
X131.483Y-123.983
X131.925Y-131.225
X131.95Y-129.975
X132.012Y-120.562
X132.414Y-113.825
X132.95Y-126.25
X133.775Y-119.925
X133.87Y-126.431
X133.975Y-121.459
X134.336Y-125.964
X135.3Y-126.45
X138.309Y-56.516
X138.75Y-123.997
X138.75Y-124.658
X139.075Y-56.5
X139.525Y-124.97
X139.525Y-125.63
X139.675Y-56.1
X140.975Y-117.4
X140.975Y-118.075
X141.0Y-118.8
X141.0Y-119.5
X141.725Y-57.825
X141.775Y-117.4
X141.775Y-118.075
X141.8Y-118.8
X141.8Y-119.5
X142.542Y-124.267
X142.55Y-117.4
X142.55Y-118.075
X142.575Y-118.8
X142.575Y-119.5
X143.008Y-124.733
X144.167Y-124.767
X144.633Y-125.233
X145.225Y-131.375
X145.25Y-130.175
X145.667Y-125.192
X145.667Y-125.192
X146.133Y-125.658
X146.133Y-125.658
X146.325Y-131.375
X146.35Y-130.175
X147.3Y-125.875
X147.475Y-131.375
X147.5Y-130.175
X148.083Y-116.033
X148.604Y-123.629
X148.7Y-131.375
X148.725Y-130.175
X149.025Y-124.575
X149.239Y-123.066
X149.45Y-56.975
X149.895Y-123.205
X149.925Y-123.8
X149.975Y-131.4
X150.0Y-130.2
X150.22Y-84.35
X150.22Y-84.35
X150.88Y-84.35
X150.88Y-84.35
X150.9Y-53.45
X151.246Y-85.154
X151.246Y-85.154
X151.575Y-123.125
X151.575Y-123.775
X151.906Y-85.154
X151.906Y-85.154
X152.27Y-85.9
X152.27Y-85.9
X152.93Y-85.9
X152.93Y-85.9
X153.315Y-86.671
X153.525Y-125.9
X153.6Y-120.7
X153.6Y-121.525
X153.875Y-58.6
X153.904Y-57.941
X153.976Y-86.671
X154.37Y-87.3
X154.37Y-87.3
X154.6Y-122.475
X155.025Y-85.775
X155.03Y-87.3
X155.03Y-87.3
X155.525Y-58.175
X156.175Y-80.4
X156.25Y-79.4
X156.25Y-84.05
X156.725Y-92.675
X156.725Y-93.875
X156.725Y-95.075
X156.75Y-89.075
X156.75Y-90.275
X156.75Y-91.475
X156.75Y-96.275
X156.75Y-97.475
X156.777Y-102.579
X157.325Y-122.75
X157.437Y-102.579
X158.097Y-102.555
X158.525Y-81.875
X158.757Y-102.555
X159.417Y-102.517
X159.417Y-102.517
X159.883Y-102.983
X159.883Y-102.983
X161.575Y-90.275
X161.575Y-91.475
X161.575Y-92.675
X161.575Y-93.875
X161.575Y-95.075
X161.575Y-96.275
X161.575Y-97.475
X161.6Y-79.475
X161.6Y-80.675
X161.6Y-81.85
X161.6Y-83.075
X161.6Y-84.275
X161.6Y-85.475
X161.6Y-86.675
X161.6Y-87.875
X161.6Y-89.1
T4
X119.425Y-55.102
X124.425Y-55.102
X133.75Y-55.078
X138.75Y-55.078
T5
X119.725Y-60.36
X119.725Y-62.9
X119.725Y-65.44
X119.725Y-67.98
X119.725Y-70.52
X119.725Y-73.06
X119.725Y-75.6
X139.0Y-115.61
X139.0Y-118.15
T6
X160.025Y-119.227
X160.025Y-126.027
T7
X112.025Y-99.525
X129.125Y-53.55
X153.0Y-53.55
X160.6Y-115.35
T8
X125.7Y-61.575
X125.7Y-109.575
X158.7Y-61.575
X158.7Y-109.575
T2
G00X111.799Y-86.33
M15
G01X112.499Y-86.33
M16
G05
G00X111.799Y-94.97
M15
G01X112.499Y-94.97
M16
G05
G00X115.599Y-86.33
M15
G01X116.299Y-86.33
M16
G05
G00X115.599Y-94.97
M15
G01X116.299Y-94.97
M16
G05
T3
G00X118.425Y-52.752
M15
G01X118.425Y-52.052
M16
G05
G00X125.425Y-52.052
M15
G01X125.425Y-52.752
M16
G05
G00X132.75Y-52.727
M15
G01X132.75Y-52.027
M16
G05
G00X139.75Y-52.027
M15
G01X139.75Y-52.727
M16
G05
T0
M30
